<svg xmlns="http://www.w3.org/2000/svg" viewBox="0 0 170.48 61.11"><defs><style>.cls-1{fill:#59a5f4;}.cls-2{fill:#387af1;}.cls-3{fill:#2727a3;}.cls-4{fill:#fff;}</style></defs><g id="Capa_2" data-name="Capa 2"><g id="Layer_2" data-name="Layer 2"><g id="Grupo_4226" data-name="Grupo 4226"><g id="Grupo_4223" data-name="Grupo 4223"><g id="Grupo_4222" data-name="Grupo 4222"><path id="Trazado_13753" data-name="Trazado 13753" class="cls-1" d="M112.9,55.77c-.15.46-.3,1.07-.45,1.38a2.07,2.07,0,0,1-.92,1.06,3.23,3.23,0,0,1-1.22.76,4.39,4.39,0,0,1-1.52.31,5.37,5.37,0,0,1-1.68-.31,3.51,3.51,0,0,1-1.37-.91,5.12,5.12,0,0,1-.91-1.52,7.57,7.57,0,0,1,0-4.27,2.61,2.61,0,0,1,.91-1.53,3.39,3.39,0,0,1,1.37-1.06,3.62,3.62,0,0,1,1.83-.31,4.74,4.74,0,0,1,1.53.31,3.39,3.39,0,0,1,1.22.76,2.91,2.91,0,0,1,.76,1.07,4.54,4.54,0,0,1,.3,1.37h-2a3.23,3.23,0,0,0-.76-1.22,1.72,1.72,0,0,0-1.22-.46,2.18,2.18,0,0,0-1.83.91A5.2,5.2,0,0,0,107,57a1.77,1.77,0,0,0,1.68.92,1.86,1.86,0,0,0,1.37-.46,3,3,0,0,0,.76-1.37h2.13Z"/><path id="Trazado_13754" data-name="Trazado 13754" class="cls-1" d="M116.71,59.13a4.63,4.63,0,0,1-1.52-.31,2.7,2.7,0,0,1-1.07-.76,3.3,3.3,0,0,1-.76-1.22,3.94,3.94,0,0,1,0-3.05,5.31,5.31,0,0,1,.76-1.22,2.7,2.7,0,0,1,1.07-.76,3.94,3.94,0,0,1,3,0,2.66,2.66,0,0,1,1.06.76,4.43,4.43,0,0,1,.76,1.07,3.94,3.94,0,0,1,0,3,4,4,0,0,1-1.82,1.83A1.85,1.85,0,0,1,116.71,59.13Zm0-1.53c1.07,0,1.68-.76,1.68-2.13s-.61-2.13-1.68-2.13S115,54.1,115,55.47c0,1.52.46,2.13,1.68,2.13Z"/><path id="Trazado_13755" data-name="Trazado 13755" class="cls-1" d="M125.24,59V54.86a1.78,1.78,0,0,0-.3-1.07,1.34,1.34,0,0,0-.92-.3c-.91,0-1.37.46-1.37,1.52v4h-1.83V52.12h1.68v1.07a1.34,1.34,0,0,1,.91-.91,3,3,0,0,1,1.37-.31,2.07,2.07,0,0,1,.92.15c.3.16.45.31.76.46a3.24,3.24,0,0,1,.45.76,1.93,1.93,0,0,1,.16.92V59Z"/><path id="Trazado_13756" data-name="Trazado 13756" class="cls-1" d="M131.79,54.4h1.68v2a2.58,2.58,0,0,1-.16,1.07l-.45.91a1.4,1.4,0,0,1-.92.61,4.8,4.8,0,0,1-2.44,0,3,3,0,0,1-.91-.61c-.15-.3-.46-.61-.46-.91a2.75,2.75,0,0,1-.15-1.07V50.29h1.83v1.83h3.81v1.22h-3.81v2.89a2.14,2.14,0,0,0,.31,1.07c.15.3.45.3.76.3a1.19,1.19,0,0,0,.76-.3,2.24,2.24,0,0,0,.3-1.07V54.4Z"/><path id="Trazado_13757" data-name="Trazado 13757" class="cls-1" d="M134.23,51.36V49.68h1.83v1.68Zm0,7.61V52.12h1.83V59Z"/><path id="Trazado_13758" data-name="Trazado 13758" class="cls-1" d="M141.23,59V54.86a1.78,1.78,0,0,0-.3-1.07,1.3,1.3,0,0,0-.91-.3c-.92,0-1.38.46-1.38,1.52v4h-1.83V52.12h1.68v1.07a1.36,1.36,0,0,1,.92-.91,2.93,2.93,0,0,1,1.37-.31,2,2,0,0,1,.91.15c.3.16.46.31.76.46a3.28,3.28,0,0,1,.46.76,2.05,2.05,0,0,1,.15.92V59Z"/><path id="Trazado_13759" data-name="Trazado 13759" class="cls-1" d="M145.5,56.08A1.72,1.72,0,0,0,146,57.3a1.39,1.39,0,0,0,1.06.46,1.11,1.11,0,0,0,.76-.16,2,2,0,0,0,.46-.61h1.83A3.18,3.18,0,0,1,149,58.67a2.64,2.64,0,0,1-1.83.61c-2.28,0-3.5-1.22-3.5-3.81a4,4,0,0,1,.15-1.37,2.4,2.4,0,0,1,.61-1.06,2.82,2.82,0,0,1,1.07-.77,4.61,4.61,0,0,1,1.37-.3A2.87,2.87,0,0,1,149.31,53a4.31,4.31,0,0,1,.76,3Zm2.89-1.22c0-.31,0-.46-.15-.61s-.15-.3-.3-.46-.31-.15-.46-.3-.3-.15-.46-.15a1.29,1.29,0,0,0-.91.45,1.41,1.41,0,0,0-.46,1.07Z"/><path id="Trazado_13760" data-name="Trazado 13760" class="cls-1" d="M155.25,59V54.86a1.79,1.79,0,0,0-.31-1.07,1.3,1.3,0,0,0-.91-.3c-.92,0-1.37.46-1.37,1.52v4h-1.83V52.12h1.67v1.07a1.37,1.37,0,0,1,.92-.91,2.93,2.93,0,0,1,1.37-.31,2,2,0,0,1,.91.15c.31.16.46.31.76.46a3.28,3.28,0,0,1,.46.76,1.92,1.92,0,0,1,.15.92V59Z"/><path id="Trazado_13761" data-name="Trazado 13761" class="cls-1" d="M161.8,54.4h1.67v2a2.58,2.58,0,0,1-.15,1.07l-.46.91A1.4,1.4,0,0,1,162,59a4.8,4.8,0,0,1-2.44,0,3.14,3.14,0,0,1-.92-.61c-.15-.3-.45-.61-.45-.91a2.58,2.58,0,0,1-.16-1.07V50.29h1.83v1.83h3.81v1.22h-3.81v2.89a2.28,2.28,0,0,0,.31,1.07c.15.3.45.3.76.3a1.19,1.19,0,0,0,.76-.3,2.25,2.25,0,0,0,.31-1.07V54.4Z"/><path id="Trazado_13762" data-name="Trazado 13762" class="cls-1" d="M168.35,54.25a1.2,1.2,0,0,0-.31-.76c-.15-.15-.45-.15-.91-.15a1.11,1.11,0,0,0-.76.15c-.16.15-.31.3-.31.46s.15.3.31.45.45.15.91.31a10,10,0,0,1,1.07.3c.3.15.61.15.91.31a3,3,0,0,1,.91.61,2.15,2.15,0,0,1-.45,2.74,3.19,3.19,0,0,1-2.29.61,3.88,3.88,0,0,1-2.44-.61,2.13,2.13,0,0,1-.91-1.68h1.83a1.12,1.12,0,0,0,.3.76,2.22,2.22,0,0,0,1.07.31,2,2,0,0,0,.91-.15c.31-.16.31-.31.31-.61s-.16-.46-.31-.46c-.15-.15-.46-.15-.76-.3a7.33,7.33,0,0,0-1.37-.31l-.92-.46a1,1,0,0,1-.61-.76,2,2,0,0,1-.15-.91,1.17,1.17,0,0,1,.15-.76,2.13,2.13,0,0,1,.46-.61,4.65,4.65,0,0,1,.92-.46,3.17,3.17,0,0,1,1.37-.15,2.71,2.71,0,0,1,2.13.61,2.16,2.16,0,0,1,.76,1.67h-1.83Z"/></g></g><g id="Grupo_4224" data-name="Grupo 4224"><path id="Trazado_13763" data-name="Trazado 13763" class="cls-1" d="M91,48.92a5.73,5.73,0,0,0,2.89-1.07,8.38,8.38,0,0,1,3.2-1.22c.61,0,1.07-.15,1.37,0a7.66,7.66,0,0,0-4.11-1.22,7.51,7.51,0,0,0-6.24,3.2A4.93,4.93,0,0,0,91,48.92Z"/><path id="Trazado_13764" data-name="Trazado 13764" class="cls-1" d="M91.73,51.51a6.7,6.7,0,0,0,2.74-.3,5.51,5.51,0,0,1,3-.46,5.15,5.15,0,0,1,2.89,1.07,4.34,4.34,0,0,0,1.68.76A7.68,7.68,0,0,0,99.8,47.7a7.21,7.21,0,0,0-2.74-.15,5.72,5.72,0,0,0-2.89,1.06A8.06,8.06,0,0,1,91,49.83H89.9a5.14,5.14,0,0,1-2.28-.45h-.15a.52.52,0,0,1-.16.3,5.16,5.16,0,0,1,1.83.91A4.65,4.65,0,0,0,91.73,51.51Z"/><path id="Trazado_13765" data-name="Trazado 13765" class="cls-1" d="M91,55.77a5.72,5.72,0,0,0,2.89-1.06,8.22,8.22,0,0,1,3.2-1.22,7.18,7.18,0,0,1,3.35.3,5.37,5.37,0,0,0,1.68.31v-.76a7,7,0,0,1-2.14-.92,4.57,4.57,0,0,0-2.59-.91,6.89,6.89,0,0,0-2.74.3,5.51,5.51,0,0,1-3.05.46,5.15,5.15,0,0,1-2.89-1.07A4.34,4.34,0,0,0,87,50.44a8.55,8.55,0,0,0-.45,2.74,8.78,8.78,0,0,0,.3,2c.46.16.92.16,1.22.31A5,5,0,0,0,91,55.77Z"/><path id="Trazado_13766" data-name="Trazado 13766" class="cls-1" d="M94.47,58.67a5.6,5.6,0,0,1-3,.46,5.22,5.22,0,0,1-2.89-1.07c-.31-.15-.46-.31-.76-.46a7.81,7.81,0,0,0,10.84,2.2,8.28,8.28,0,0,0,.89-.67,5.66,5.66,0,0,0-2.29-.77A6.88,6.88,0,0,0,94.47,58.67Z"/><path id="Trazado_13767" data-name="Trazado 13767" class="cls-1" d="M100,54.71a6.86,6.86,0,0,0-5.94.76,8.22,8.22,0,0,1-3.2,1.22H89.75a5,5,0,0,1-2.29-.46c-.3,0-.45-.15-.76-.15a.6.6,0,0,0,.15.31,5,5,0,0,1,1.83.91,4.59,4.59,0,0,0,2.59.91,6.68,6.68,0,0,0,2.74-.3,5.53,5.53,0,0,1,3-.46,7.09,7.09,0,0,1,2.75.91A7.31,7.31,0,0,0,101.64,55,6.45,6.45,0,0,1,100,54.71Z"/></g><g id="Grupo_4225" data-name="Grupo 4225"><path id="Trazado_13768" data-name="Trazado 13768" class="cls-1" d="M72.39,50.29h1.06v3.05h0l.15-.15c.16-.15.16-.15.31-.15s.3-.16.46-.16H75a1.91,1.91,0,0,1,.91.16,1.93,1.93,0,0,1,.61.45,3.28,3.28,0,0,1,.46.76,2.87,2.87,0,0,1,0,1.83c-.16.31-.31.46-.46.77a3.62,3.62,0,0,1-.76.45,2.87,2.87,0,0,1-1.83,0,1.21,1.21,0,0,1-.61-.61h0v.61H72.23v-7ZM76.05,55a.55.55,0,0,0-.16-.45c0-.16-.15-.31-.3-.46s-.31-.15-.46-.3c-.15,0-.3-.16-.61-.16s-.46,0-.61.16c-.15,0-.3.15-.46.3s-.15.3-.3.46-.15.3-.15.45a.55.55,0,0,0,.15.46c0,.15.15.31.3.46s.31.15.46.3.31.15.61.15.46,0,.61-.15c.15,0,.31-.15.46-.3s.15-.31.3-.46S76,55.32,76,55Z"/><path id="Trazado_13769" data-name="Trazado 13769" class="cls-1" d="M77.56,52.88h1.22l1.22,3h0l1.07-3h1.22l-2.13,5.33c-.16.15-.16.45-.31.61s-.15.3-.3.45-.31.16-.46.31-.45.15-.61.15a2,2,0,0,1-.91-.15l.15-.92c.15,0,.15,0,.3.16h.61c.16,0,.16,0,.31-.16l.15-.15c0-.15.15-.15.15-.3l.16-.46Z"/></g></g><g id="Grupo_4227" data-name="Grupo 4227"><path id="Trazado_13770" data-name="Trazado 13770" class="cls-2" d="M24.45,12.22A16.26,16.26,0,0,0,2.19,18l0,.07A16.37,16.37,0,0,0,0,26.41a17.35,17.35,0,0,0,2,8.32,15.28,15.28,0,0,0,5.38,5.82,14.89,14.89,0,0,0,15.4,0,15.12,15.12,0,0,0,3.64-3.22v2.19a3,3,0,0,0,6,.12V26.41a16.37,16.37,0,0,0-2.15-8.34A15.93,15.93,0,0,0,24.45,12.22ZM21.57,36a10.58,10.58,0,0,1-10.66,0A10.24,10.24,0,0,1,7.15,32a11.33,11.33,0,0,1-1.39-5.61,11.58,11.58,0,0,1,1.39-5.67,10.38,10.38,0,0,1,3.76-3.94,10.63,10.63,0,0,1,10.66,0,10.23,10.23,0,0,1,3.7,3.94,11.69,11.69,0,0,1,1.36,5.67A11.52,11.52,0,0,1,25.27,32,10.23,10.23,0,0,1,21.57,36Z"/><path id="Trazado_13771" data-name="Trazado 13771" class="cls-2" d="M63.34,10.25a3,3,0,0,0-2.15.82,2.93,2.93,0,0,0-.85,2.18V29.82a6.61,6.61,0,0,1-1.18,3.82A8.28,8.28,0,0,1,56,36.34a9.74,9.74,0,0,1-4.5,1,10.68,10.68,0,0,1-4.75-1,7.61,7.61,0,0,1-3.35-3.17,10.82,10.82,0,0,1-1.24-5.44V13.25a3,3,0,1,0-6,0V27.7A16.79,16.79,0,0,0,38,35.93,12.44,12.44,0,0,0,43.1,41a15,15,0,0,0,7.25,1.74,14.36,14.36,0,0,0,7-1.71,12.69,12.69,0,0,0,3-2.24v.65a3.06,3.06,0,0,0,5.18,2.15,3,3,0,0,0,.82-2.15V13.25a2.83,2.83,0,0,0-2.65-3Z"/><path id="Trazado_13772" data-name="Trazado 13772" class="cls-2" d="M91.22,25.76a26.56,26.56,0,0,0-7-2.23,28.64,28.64,0,0,1-4.82-1.32,4.73,4.73,0,0,1-2.2-1.53,3.34,3.34,0,0,1-.56-1.91,2.78,2.78,0,0,1,1.79-2.59,10,10,0,0,1,4.38-.88,13.47,13.47,0,0,1,3.94.53A8.12,8.12,0,0,1,90,17.77a4.15,4.15,0,0,0,2.17,1.06,2.92,2.92,0,0,0,2.23-.41,2.23,2.23,0,0,0,1-1.74,2.69,2.69,0,0,0-.76-2,11.68,11.68,0,0,0-4.76-3.42A17.75,17.75,0,0,0,83,10.07a17.12,17.12,0,0,0-5.76,1A10.65,10.65,0,0,0,72.68,14a7.24,7.24,0,0,0-1.76,5,7.39,7.39,0,0,0,2.67,5.76q2.68,2.36,8.61,3.53a15.93,15.93,0,0,1,6.32,2.11A3.61,3.61,0,0,1,90.2,33.4a3.48,3.48,0,0,1-1.85,2.88,10,10,0,0,1-5.21,1.12,12.15,12.15,0,0,1-4.9-1A9.48,9.48,0,0,1,75,34.33a3.25,3.25,0,0,0-2-1,3.09,3.09,0,0,0-2.32.8,2.82,2.82,0,0,0-1.15,2,2.57,2.57,0,0,0,.73,2.14,14.56,14.56,0,0,0,5.44,3.2,22.19,22.19,0,0,0,7.61,1.27,16.65,16.65,0,0,0,7-1.3,9.85,9.85,0,0,0,4.23-3.46A8.66,8.66,0,0,0,96,33a7.69,7.69,0,0,0-1.12-4.15A9.3,9.3,0,0,0,91.22,25.76Z"/><path id="Trazado_13773" data-name="Trazado 13773" class="cls-2" d="M115,36.58h-2A4,4,0,0,1,109.88,35a6,6,0,0,1-1.3-3.93V16.54h5a2.85,2.85,0,0,0,2-.7,2.34,2.34,0,0,0,.77-1.77,2.45,2.45,0,0,0-.77-1.88,2.81,2.81,0,0,0-2-.7h-5V3a2.94,2.94,0,1,0-5.87-.17.48.48,0,0,0,0,.17v8.47H100a2.82,2.82,0,0,0-2,.7,2.47,2.47,0,0,0-.76,1.88A2.3,2.3,0,0,0,98,15.84a2.87,2.87,0,0,0,2,.7h2.71V31.06a12.23,12.23,0,0,0,1.35,5.81,10.49,10.49,0,0,0,3.7,4.09,9.7,9.7,0,0,0,5.29,1.5h1.06a3.7,3.7,0,0,0,2.49-.83,2.61,2.61,0,0,0,1-2.11,3.1,3.1,0,0,0-.73-2.12A2.32,2.32,0,0,0,115,36.58Z"/><path id="Trazado_13774" data-name="Trazado 13774" class="cls-2" d="M165.73,16.83a12.48,12.48,0,0,0-5-5.08A15.05,15.05,0,0,0,153.42,10a14.41,14.41,0,0,0-7,1.71,13.42,13.42,0,0,0-3,2.24v-.65a3,3,0,0,0-5.14-2.17,2.89,2.89,0,0,0-.86,2.17V39.52a3,3,0,0,0,3.1,3,3,3,0,0,0,2.07-.85,3,3,0,0,0,.83-2.15V22.94a6.56,6.56,0,0,1,1.18-3.85,8.29,8.29,0,0,1,3.17-2.67,9.87,9.87,0,0,1,4.47-1,10.74,10.74,0,0,1,4.79,1,7.8,7.8,0,0,1,3.32,3.14,10.82,10.82,0,0,1,1.23,5.47V39.51a3,3,0,0,0,6,0V25.06A16.79,16.79,0,0,0,165.73,16.83Z"/></g><g id="Grupo_4228" data-name="Grupo 4228"><path id="Rectángulo_1263" data-name="Rectángulo 1263" class="cls-3" d="M127.06,8.44h0a7.1,7.1,0,0,1,7.1,7.1V35a7.1,7.1,0,0,1-7.1,7.1h0A7.1,7.1,0,0,1,120,35V15.54A7.1,7.1,0,0,1,127.06,8.44Z"/></g><circle id="Elipse_251" data-name="Elipse 251" class="cls-4" cx="127.06" cy="15.54" r="5.52"/></g></g></svg>