<svg xmlns="http://www.w3.org/2000/svg" viewBox="0 0 631.9 155.95"><defs><style>.cls-1{fill:#e15344;}.cls-2{fill:#b7b1a5;}</style></defs><g id="Capa_2" data-name="Capa 2"><g id="Layer_2" data-name="Layer 2"><path class="cls-1" d="M162.72,71v51.24H137.28V.74h86.56V22H162.72V49.6h53.44V71Z"/><path class="cls-1" d="M230.8,122.25V61.56h22v60.69Z"/><path class="cls-1" d="M262.79,122.25V39h20.66v10a27.23,27.23,0,0,1,5.67-6.61,25,25,0,0,1,6.1-3.64,23.32,23.32,0,0,1,6.35-1.6,61.76,61.76,0,0,1,6.6-.34h2.88V59.27a36.84,36.84,0,0,0-6.1-.51q-20.15,0-20.14,20.15v43.34Z"/><path class="cls-1" d="M332.21,84.16q.51,9.48,5.51,15.07a16.75,16.75,0,0,0,13.12,5.58,18.52,18.52,0,0,0,9.57-2.45,11.13,11.13,0,0,0,5.33-6.86h22.69q-3.9,12.87-13.55,19.81t-23,6.94q-41.64,0-41.65-45.38a52.7,52.7,0,0,1,2.71-17.43,37.65,37.65,0,0,1,7.87-13.38,34,34,0,0,1,12.62-8.55,45.94,45.94,0,0,1,17.1-3q19.31,0,29.21,12.36t9.9,37.25Zm34.71-13.89a23.26,23.26,0,0,0-1.6-8,16.94,16.94,0,0,0-3.81-5.76,15.23,15.23,0,0,0-5.42-3.38,18.16,18.16,0,0,0-6.27-1.1,15.61,15.61,0,0,0-11.43,4.82q-4.81,4.83-5.5,13.46Z"/><path class="cls-1" d="M450.56,122.25V71.8q0-9.66-3.21-13t-11-3.39q-17.1,0-17.1,19.13v47.75h-22V39h21V51.14a26.71,26.71,0,0,1,10.32-10.75q6.43-3.64,16.6-3.64a33.17,33.17,0,0,1,11,1.77,23.39,23.39,0,0,1,8.72,5.34,25.52,25.52,0,0,1,5.76,8.72,31.3,31.3,0,0,1,2.12,11.94v57.73Z"/><path class="cls-1" d="M479.52,122.25V105.32L522,56.39H482.4V39h67.72V56.73l-42.5,47.57h43.69v18Z"/><path class="cls-1" d="M574.5,84.16Q575,93.64,580,99.23a16.75,16.75,0,0,0,13.12,5.58,18.46,18.46,0,0,0,9.56-2.45A11.11,11.11,0,0,0,608,95.5h22.69q-3.9,12.87-13.55,19.81t-23,6.94q-41.64,0-41.65-45.38a52.7,52.7,0,0,1,2.71-17.43,37.65,37.65,0,0,1,7.87-13.38,34,34,0,0,1,12.62-8.55,45.91,45.91,0,0,1,17.1-3q19.31,0,29.21,12.36t9.9,37.25Zm34.71-13.89a23.26,23.26,0,0,0-1.6-8,17.09,17.09,0,0,0-3.81-5.76,15.23,15.23,0,0,0-5.42-3.38,18.16,18.16,0,0,0-6.27-1.1,15.61,15.61,0,0,0-11.43,4.82q-4.81,4.83-5.5,13.46Z"/><rect class="cls-1" x="230.8" y="38.78" width="22.01" height="17.53"/><rect class="cls-2" x="351.76" y="17.24" width="279.71" height="1.56"/><rect class="cls-2" x="565.54" y="143.74" width="65.93" height="1.56"/><rect class="cls-2" x="137.28" y="143.74" width="65.93" height="1.56"/><path class="cls-2" d="M238.9,2h-6.26V.47h14.24V2h-6.27V18.79H238.9Z"/><path class="cls-2" d="M254.2,9.63a10.51,10.51,0,0,1,.7-3.86,9.47,9.47,0,0,1,1.94-3,9,9,0,0,1,3-2,10.63,10.63,0,0,1,7.69,0,9,9,0,0,1,3,2,9.14,9.14,0,0,1,1.94,3,10.31,10.31,0,0,1,.7,3.86,10.36,10.36,0,0,1-.7,3.87,9.13,9.13,0,0,1-1.94,3.06,8.75,8.75,0,0,1-3,2,10.77,10.77,0,0,1-7.69,0,8.85,8.85,0,0,1-3-2,9.46,9.46,0,0,1-1.94-3.06A10.57,10.57,0,0,1,254.2,9.63Zm1.71,0a8.93,8.93,0,0,0,.55,3.18A7.58,7.58,0,0,0,258,15.38a7.3,7.3,0,0,0,2.45,1.71,8.67,8.67,0,0,0,6.44,0,7.3,7.3,0,0,0,2.45-1.71,7.58,7.58,0,0,0,1.55-2.57,9.16,9.16,0,0,0,.55-3.18,9.16,9.16,0,0,0-.55-3.18,7.58,7.58,0,0,0-1.55-2.57,7.3,7.3,0,0,0-2.45-1.71,8.67,8.67,0,0,0-6.44,0A7.3,7.3,0,0,0,258,3.88a7.58,7.58,0,0,0-1.55,2.57A8.93,8.93,0,0,0,255.91,9.63Z"/><path class="cls-2" d="M282.68.47h4.82c.24,0,.57,0,1,0a10.24,10.24,0,0,1,1.35.16,7.73,7.73,0,0,1,1.47.41,4.28,4.28,0,0,1,1.35.83,4.41,4.41,0,0,1,1,1.37,4.73,4.73,0,0,1,.39,2,4.67,4.67,0,0,1-.45,2.18,4.35,4.35,0,0,1-1.14,1.38,4.79,4.79,0,0,1-1.52.79,10.14,10.14,0,0,1-1.58.36l5.34,8.8h-1.94l-5.16-8.69h-3.18v8.69h-1.71Zm1.71,8.07H288a6.08,6.08,0,0,0,2.19-.33,3.69,3.69,0,0,0,1.31-.83,2.6,2.6,0,0,0,.63-1.06,3.46,3.46,0,0,0,.17-1,3.4,3.4,0,0,0-.17-1,2.63,2.63,0,0,0-.63-1.07,3.68,3.68,0,0,0-1.31-.82A5.85,5.85,0,0,0,288,2h-3.62Z"/><path class="cls-2" d="M303.73.47h4.81c.24,0,.57,0,1,0a9.91,9.91,0,0,1,1.34.16,7.62,7.62,0,0,1,1.48.41,4.13,4.13,0,0,1,1.34.83,4.28,4.28,0,0,1,1,1.37,4.73,4.73,0,0,1,.39,2,4.55,4.55,0,0,1-.46,2.18,4.1,4.1,0,0,1-1.14,1.38,4.74,4.74,0,0,1-1.51.79,10.14,10.14,0,0,1-1.58.36l5.33,8.8h-1.94l-5.15-8.69h-3.18v8.69h-1.71Zm1.71,8.07h3.62a6.08,6.08,0,0,0,2.19-.33,3.79,3.79,0,0,0,1.31-.83,2.6,2.6,0,0,0,.63-1.06,3.81,3.81,0,0,0,.17-1,3.74,3.74,0,0,0-.17-1,2.63,2.63,0,0,0-.63-1.07,3.77,3.77,0,0,0-1.31-.82A5.85,5.85,0,0,0,309.06,2h-3.62Z"/><path class="cls-2" d="M324.77.47H336V2h-9.5V8.54h8.91V10.1h-8.91v7.14h9.92v1.55H324.77Z"/><path class="cls-2" d="M92.37,110.92l-41.83-6.6A24.45,24.45,0,0,1,34.06,93.78L26,81.7,40.27,79a24.38,24.38,0,0,1,19.06,4.4l34,25.27A1.24,1.24,0,0,1,92.37,110.92Z"/><path class="cls-2" d="M98.49,99.94,62.38,77.83a24.38,24.38,0,0,1-11.19-16L48.35,47.55l14.21,3A24.48,24.48,0,0,1,78.49,61.9l21.72,36.34A1.25,1.25,0,0,1,98.49,99.94Z"/><path class="cls-2" d="M108.89,92.49,84,58.22A24.42,24.42,0,0,1,79.85,39.1l2.84-14.24,12,8.22A24.4,24.4,0,0,1,105,49.68l6.11,41.9A1.24,1.24,0,0,1,108.89,92.49Z"/><circle class="cls-2" cx="21.5" cy="101.84" r="4.62"/><circle class="cls-2" cx="37.41" cy="64.74" r="4.62"/><circle class="cls-2" cx="66.12" cy="36.33" r="4.62"/><circle class="cls-2" cx="103.37" cy="21.07" r="4.62"/><path class="cls-2" d="M90.62,121.73a1.17,1.17,0,0,0-.89-1L48.67,110.43a24.42,24.42,0,0,0-19.3,3.22l-12.16,7.93.21.15Z"/><path class="cls-2" d="M122.67,17.13,114.8,29a24.43,24.43,0,0,0-3.4,19.27l10,41.15a1.2,1.2,0,0,0,1.3.93Z"/><path class="cls-2" d="M122.72.41A122.05,122.05,0,0,0,0,121.73H3.56A118.52,118.52,0,0,1,122.72,4Z"/><path class="cls-2" d="M464.89,147.72a8.36,8.36,0,0,1-.77,2.26,6.11,6.11,0,0,1-1.32,1.72,5.87,5.87,0,0,1-1.85,1.12,6.59,6.59,0,0,1-2.31.39,7.27,7.27,0,0,1-2.66-.48,5.75,5.75,0,0,1-2.13-1.44,6.88,6.88,0,0,1-1.41-2.37,9.68,9.68,0,0,1-.51-3.29,10.63,10.63,0,0,1,.47-3.31,7,7,0,0,1,1.34-2.5,6,6,0,0,1,2.13-1.56,7.67,7.67,0,0,1,5.27-.14,6,6,0,0,1,1.9,1.11,5.53,5.53,0,0,1,1.27,1.68,6.2,6.2,0,0,1,.58,2.05h-3a3.41,3.41,0,0,0-1.18-1.93,3.39,3.39,0,0,0-4.77.67,8.43,8.43,0,0,0,0,7.52,3,3,0,0,0,2.66,1.35,3.12,3.12,0,0,0,2.17-.74,3.88,3.88,0,0,0,1.13-2.11Z"/><path class="cls-2" d="M470.85,153a6.38,6.38,0,0,1-2.34-.41,4.86,4.86,0,0,1-2.82-3,7.06,7.06,0,0,1-.37-2.3,6.64,6.64,0,0,1,.39-2.32,5,5,0,0,1,1.1-1.79,4.83,4.83,0,0,1,1.74-1.14,6.6,6.6,0,0,1,4.58,0,4.69,4.69,0,0,1,1.71,1.13,4.94,4.94,0,0,1,1.09,1.78,6.68,6.68,0,0,1,.39,2.34,6.58,6.58,0,0,1-.39,2.33,5.11,5.11,0,0,1-1.09,1.78,4.86,4.86,0,0,1-1.73,1.15A6,6,0,0,1,470.85,153Zm0-2.38c1.74,0,2.6-1.09,2.6-3.28s-.86-3.26-2.6-3.26-2.6,1.09-2.6,3.26S469.12,150.61,470.85,150.61Z"/><path class="cls-2" d="M484.23,152.71v-6.52a2.47,2.47,0,0,0-.42-1.68,1.91,1.91,0,0,0-1.42-.44c-1.47,0-2.21.83-2.21,2.47v6.17h-2.84V142h2.71v1.58a3.46,3.46,0,0,1,1.34-1.39,4.85,4.85,0,0,1,3.56-.24,2.93,2.93,0,0,1,1.12.69,3.29,3.29,0,0,1,.75,1.12,4.11,4.11,0,0,1,.27,1.54v7.46Z"/><path class="cls-2" d="M494.43,145.63h2.65v3.06a5.14,5.14,0,0,1-.26,1.62,3.66,3.66,0,0,1-2.14,2.33,5,5,0,0,1-1.95.35,5.21,5.21,0,0,1-2-.35,3.8,3.8,0,0,1-1.37-.94,3.47,3.47,0,0,1-.77-1.38,5.29,5.29,0,0,1-.25-1.66v-9.61h2.8V142h5.95v2h-5.95v4.41a2.82,2.82,0,0,0,.38,1.58,1.41,1.41,0,0,0,1.26.56A1.47,1.47,0,0,0,494,150a2.61,2.61,0,0,0,.4-1.56Z"/><path class="cls-2" d="M498.3,140.67V138h2.84v2.65Zm0,12V142h2.84v10.76Z"/><path class="cls-2" d="M509.31,152.71v-6.52a2.53,2.53,0,0,0-.41-1.68,1.91,1.91,0,0,0-1.42-.44c-1.47,0-2.21.83-2.21,2.47v6.17h-2.84V142h2.71v1.58a3.43,3.43,0,0,1,1.33-1.39,4.37,4.37,0,0,1,2.14-.47,4.31,4.31,0,0,1,1.42.23,2.9,2.9,0,0,1,1.13.69,3.27,3.27,0,0,1,.74,1.12,3.92,3.92,0,0,1,.28,1.54v7.46Z"/><path class="cls-2" d="M516,148.07a3.11,3.11,0,0,0,.71,2,2.18,2.18,0,0,0,1.7.72,2.4,2.4,0,0,0,1.23-.32,1.4,1.4,0,0,0,.69-.88h2.93a4.69,4.69,0,0,1-1.75,2.55,4.93,4.93,0,0,1-3,.9q-5.38,0-5.38-5.86a6.9,6.9,0,0,1,.35-2.25,4.71,4.71,0,0,1,1-1.72,4.38,4.38,0,0,1,1.63-1.11,6,6,0,0,1,2.2-.38,4.53,4.53,0,0,1,3.77,1.6,7.58,7.58,0,0,1,1.28,4.8Zm4.48-1.79a2.79,2.79,0,0,0-.21-1,2.13,2.13,0,0,0-.49-.74,1.89,1.89,0,0,0-.7-.44,2.45,2.45,0,0,0-.8-.14,2,2,0,0,0-1.48.62,2.67,2.67,0,0,0-.71,1.74Z"/><path class="cls-2" d="M531.3,152.71v-6.52a2.47,2.47,0,0,0-.42-1.68,1.9,1.9,0,0,0-1.42-.44c-1.47,0-2.21.83-2.21,2.47v6.17h-2.84V142h2.71v1.58a3.46,3.46,0,0,1,1.34-1.39,4.85,4.85,0,0,1,3.56-.24,2.86,2.86,0,0,1,1.12.69,3.29,3.29,0,0,1,.75,1.12,4.11,4.11,0,0,1,.27,1.54v7.46Z"/><path class="cls-2" d="M541.5,145.63h2.65v3.06a5.43,5.43,0,0,1-.25,1.62,3.8,3.8,0,0,1-.79,1.38,3.74,3.74,0,0,1-1.36.95,5,5,0,0,1-2,.35,5.21,5.21,0,0,1-2-.35,3.8,3.8,0,0,1-1.37-.94,3.47,3.47,0,0,1-.77-1.38,5.6,5.6,0,0,1-.24-1.66v-9.61h2.79V142h5.95v2H538.2v4.41a2.73,2.73,0,0,0,.39,1.58,1.38,1.38,0,0,0,1.25.56,1.47,1.47,0,0,0,1.26-.54,2.61,2.61,0,0,0,.4-1.56Z"/><path class="cls-2" d="M551.77,145.21a1.52,1.52,0,0,0-.56-1.1,2.62,2.62,0,0,0-1.45-.32,2.92,2.92,0,0,0-1.24.21.72.72,0,0,0-.44.69.8.8,0,0,0,.44.73,5.78,5.78,0,0,0,1.31.49c.61.18,1.19.33,1.75.47a13.52,13.52,0,0,1,1.46.45,3,3,0,0,1,1.31.95,2.63,2.63,0,0,1,.46,1.65,3.16,3.16,0,0,1-1.19,2.62,5.55,5.55,0,0,1-3.51.94,6,6,0,0,1-3.81-1.05,3.41,3.41,0,0,1-1.37-2.69h2.93a1.36,1.36,0,0,0,.59,1.18,2.8,2.8,0,0,0,1.64.42,3.19,3.19,0,0,0,1.33-.25.89.89,0,0,0,.57-.87.83.83,0,0,0-.51-.8,7.08,7.08,0,0,0-1.21-.42c-.91-.22-1.64-.41-2.19-.59a5.51,5.51,0,0,1-1.4-.63,2.76,2.76,0,0,1-1.06-1.1,3.08,3.08,0,0,1-.29-1.33,3.38,3.38,0,0,1,.24-1.27,2.45,2.45,0,0,1,.78-1,4,4,0,0,1,1.41-.67,7.9,7.9,0,0,1,2.09-.24,5.38,5.38,0,0,1,3.44.9,3.51,3.51,0,0,1,1.22,2.64Z"/><path class="cls-2" d="M430.56,136.91a9.51,9.51,0,0,0,4.44-1.63,10.59,10.59,0,0,1,5-1.82,12.35,12.35,0,0,1,2.19-.11,12.22,12.22,0,0,0-16.25,3.11A9.48,9.48,0,0,0,430.56,136.91Z"/><path class="cls-2" d="M431.74,141a8,8,0,0,0,4.24-.58,10,10,0,0,1,9.4,1.05,8.69,8.69,0,0,0,2.5,1.22,12.14,12.14,0,0,0-3.58-7.67,9.15,9.15,0,0,0-4.17-.3,9.51,9.51,0,0,0-4.44,1.63,10.7,10.7,0,0,1-5,1.82,12.11,12.11,0,0,1-1.71.12,10.86,10.86,0,0,1-3.55-.63l-.32-.1-.3.55a9.49,9.49,0,0,1,2.89,1.39A8,8,0,0,0,431.74,141Z"/><path class="cls-2" d="M430.56,147.71a9.51,9.51,0,0,0,4.44-1.63,10.69,10.69,0,0,1,5-1.83,10.88,10.88,0,0,1,5.26.51,9.92,9.92,0,0,0,2.6.55,10,10,0,0,0,.1-1.24,9.36,9.36,0,0,1-3.26-1.48,8.72,8.72,0,0,0-8.23-.92,10.05,10.05,0,0,1-9.4-1,8,8,0,0,0-2.72-1.28,12.15,12.15,0,0,0-.82,4.4,11.92,11.92,0,0,0,.38,3,14.05,14.05,0,0,1,2,.51A9.5,9.5,0,0,0,430.56,147.71Z"/><path class="cls-2" d="M436.16,152.27a9.2,9.2,0,0,1-4.83.65,9.07,9.07,0,0,1-4.57-1.7,13.35,13.35,0,0,0-1.23-.74,12.22,12.22,0,0,0,18.33,2.36,7.62,7.62,0,0,0-3.47-1.16A7.86,7.86,0,0,0,436.16,152.27Z"/><path class="cls-2" d="M444.83,146a9.4,9.4,0,0,0-4.7-.46,9.51,9.51,0,0,0-4.44,1.63,10.7,10.7,0,0,1-5,1.82,13.82,13.82,0,0,1-1.71.12,10.86,10.86,0,0,1-3.55-.63c-.38-.12-.75-.23-1.15-.33l.24.57a9.28,9.28,0,0,1,2.91,1.4,8.68,8.68,0,0,0,8.23.91,9.2,9.2,0,0,1,4.83-.65,8.81,8.81,0,0,1,4.27,1.51,12.26,12.26,0,0,0,2.79-5.3A11.59,11.59,0,0,1,444.83,146Z"/><path class="cls-2" d="M402.32,142.25h1.57a4.46,4.46,0,0,1,.63.05,1.77,1.77,0,0,1,.57.21,1.34,1.34,0,0,1,.41.44,1.61,1.61,0,0,1,.16.75,1.12,1.12,0,0,1-.25.72,1.18,1.18,0,0,1-.74.41v0a1.6,1.6,0,0,1,.5.13,1.21,1.21,0,0,1,.39.28,1.29,1.29,0,0,1,.25.41,1.46,1.46,0,0,1,.09.52,1.44,1.44,0,0,1-.19.77,1.36,1.36,0,0,1-.45.47,1.63,1.63,0,0,1-.6.23,2.58,2.58,0,0,1-.6.07h-1.74Zm.51,2.37h1.06a1.69,1.69,0,0,0,.64-.1,1.07,1.07,0,0,0,.38-.23.72.72,0,0,0,.19-.3,1.1,1.1,0,0,0,0-.29,1.14,1.14,0,0,0-.1-.48.94.94,0,0,0-.26-.3,1.09,1.09,0,0,0-.38-.16,2.25,2.25,0,0,0-.46,0h-1.12Zm0,2.64H404a1.9,1.9,0,0,0,.73-.11,1.09,1.09,0,0,0,.42-.27.78.78,0,0,0,.19-.34,1.05,1.05,0,0,0,.06-.33,1.08,1.08,0,0,0-.12-.52,1.14,1.14,0,0,0-.3-.35,1.35,1.35,0,0,0-.42-.2,2,2,0,0,0-.48-.06h-1.24Z"/><path class="cls-2" d="M412,145.37l-2-3.12h.61l1.65,2.6,1.7-2.6h.57l-2,3.12v2.36H412Z"/><path class="cls-2" d="M222.2,135.94h1.73l7.55,17.94H229.6l-1.95-4.76h-9.5l-2,4.76h-1.75Zm.79,1.83-4.18,9.83H227Z"/><path class="cls-2" d="M240.63,150.56a4.18,4.18,0,0,0,1.71,1.7,5,5,0,0,0,2.39.56,4.74,4.74,0,0,0,1.57-.26,3.86,3.86,0,0,0,1.28-.7,3.46,3.46,0,0,0,.86-1.11,3.25,3.25,0,0,0,.32-1.45,2.83,2.83,0,0,0-.39-1.55,3.28,3.28,0,0,0-1.06-1,7.2,7.2,0,0,0-1.48-.67l-1.7-.56c-.58-.19-1.14-.4-1.69-.63A5.84,5.84,0,0,1,241,144a4,4,0,0,1-1-1.43,5.13,5.13,0,0,1-.39-2.13,4.62,4.62,0,0,1,.47-2.11,4.36,4.36,0,0,1,1.27-1.55,5.67,5.67,0,0,1,1.83-.94,7.51,7.51,0,0,1,2.18-.31A7,7,0,0,1,248,136a5.15,5.15,0,0,1,2.16,1.73l-1.44,1a4.32,4.32,0,0,0-1.48-1.33,4.27,4.27,0,0,0-2-.44,5.56,5.56,0,0,0-1.54.21,3.94,3.94,0,0,0-1.28.64,3,3,0,0,0-.88,1,3.18,3.18,0,0,0-.33,1.49,2.88,2.88,0,0,0,.69,2.07,4.75,4.75,0,0,0,1.71,1.14,17.16,17.16,0,0,0,2.23.73,11.2,11.2,0,0,1,2.23.85,5,5,0,0,1,1.71,1.48,4.49,4.49,0,0,1,.68,2.63,4.89,4.89,0,0,1-.45,2.15,4.81,4.81,0,0,1-1.23,1.58,5.37,5.37,0,0,1-1.79,1,6.78,6.78,0,0,1-2.1.33,8.47,8.47,0,0,1-3.27-.62,6,6,0,0,1-2.56-2.09Z"/><path class="cls-2" d="M273.06,147a11.34,11.34,0,0,1-.33,2.76,6.43,6.43,0,0,1-1.1,2.33,5.65,5.65,0,0,1-2,1.62,8.08,8.08,0,0,1-6.16,0,5.62,5.62,0,0,1-2-1.62,6.29,6.29,0,0,1-1.11-2.33A11.34,11.34,0,0,1,260,147V135.94h1.68v10.64a13.83,13.83,0,0,0,.17,2.06,6.14,6.14,0,0,0,.7,2,4.36,4.36,0,0,0,1.47,1.55,5.51,5.51,0,0,0,5,0,4.19,4.19,0,0,0,1.47-1.55,6.14,6.14,0,0,0,.7-2,12.67,12.67,0,0,0,.18-2.06V135.94h1.67Z"/><path class="cls-2" d="M283.73,135.94h2.15l10.92,15.71h.05V135.94h1.67v17.94h-2.15l-10.92-15.71h-.05v15.71h-1.67Z"/><path class="cls-2" d="M324.29,151.07a7.53,7.53,0,0,1-3,2.51,8.8,8.8,0,0,1-3.67.76,9.76,9.76,0,0,1-3.76-.7,8.36,8.36,0,0,1-2.93-1.95,9,9,0,0,1-1.9-3,10.17,10.17,0,0,1-.68-3.79,10,10,0,0,1,.68-3.77,9.1,9.1,0,0,1,1.9-3,8.53,8.53,0,0,1,2.93-2,9.58,9.58,0,0,1,3.76-.71,9,9,0,0,1,3.41.64,6.8,6.8,0,0,1,2.77,2.17l-1.37,1.14a4.89,4.89,0,0,0-2.14-1.85,6.46,6.46,0,0,0-2.67-.58,7.9,7.9,0,0,0-3.15.6,7.12,7.12,0,0,0-2.4,1.68,7.41,7.41,0,0,0-1.52,2.51,9.42,9.42,0,0,0,0,6.23,7.5,7.5,0,0,0,1.52,2.51,7.09,7.09,0,0,0,2.4,1.67,7.73,7.73,0,0,0,3.15.61,6.47,6.47,0,0,0,1.42-.17,6.75,6.75,0,0,0,1.43-.5,7,7,0,0,0,1.33-.86,5.68,5.68,0,0,0,1.12-1.26Z"/><path class="cls-2" d="M333.44,135.94h1.67v17.94h-1.67Z"/><path class="cls-2" d="M345,144.91a10,10,0,0,1,.68-3.77,9.1,9.1,0,0,1,1.9-3,8.53,8.53,0,0,1,2.93-2,10.31,10.31,0,0,1,7.52,0,8.53,8.53,0,0,1,2.93,2,9.1,9.1,0,0,1,1.9,3,10,10,0,0,1,.68,3.77,10.17,10.17,0,0,1-.68,3.79,9,9,0,0,1-1.9,3,8.36,8.36,0,0,1-2.93,1.95,10.45,10.45,0,0,1-7.52,0,8.36,8.36,0,0,1-2.93-1.95,9,9,0,0,1-1.9-3A10.17,10.17,0,0,1,345,144.91Zm1.67,0a8.81,8.81,0,0,0,.53,3.12,7.35,7.35,0,0,0,1.52,2.51,7.15,7.15,0,0,0,2.39,1.67,8.46,8.46,0,0,0,6.31,0,7.09,7.09,0,0,0,2.4-1.67,7.5,7.5,0,0,0,1.52-2.51,9.42,9.42,0,0,0,0-6.23,7.41,7.41,0,0,0-1.52-2.51,7.12,7.12,0,0,0-2.4-1.68,8.6,8.6,0,0,0-6.31,0,7.17,7.17,0,0,0-2.39,1.68,7.25,7.25,0,0,0-1.52,2.51A8.8,8.8,0,0,0,346.62,144.91Zm8.76-13.73h2L354,134.83h-1.27Z"/><path class="cls-2" d="M373.32,135.94h2.16l10.92,15.71h.05V135.94h1.67v17.94H386l-10.92-15.71H375v15.71h-1.68Z"/></g></g></svg>