<svg xmlns="http://www.w3.org/2000/svg" viewBox="0 0 225.62 56.8"><defs><style>.cls-1{fill:#b7b1a5;}.cls-2{fill:#e15344;}</style></defs><g id="Capa_2" data-name="Capa 2"><g id="Layer_2" data-name="Layer 2"><g id="Grupo_4259" data-name="Grupo 4259"><g id="Grupo_4258" data-name="Grupo 4258"><g id="Grupo_4251" data-name="Grupo 4251"><g id="Grupo_4250" data-name="Grupo 4250"><g id="Grupo_4249" data-name="Grupo 4249"><g id="Grupo_4248" data-name="Grupo 4248"><path id="Trazado_13817" data-name="Trazado 13817" class="cls-1" d="M92.45,50.29H93v1.49h0a.52.52,0,0,1,.1-.11.56.56,0,0,1,.15-.1.7.7,0,0,1,.2-.08,1.14,1.14,0,0,1,.68,0,1,1,0,0,1,.33.24,1.13,1.13,0,0,1,.21.35,1.32,1.32,0,0,1,.08.44,1.62,1.62,0,0,1-.07.44,1.31,1.31,0,0,1-.21.36,1,1,0,0,1-.34.23,1,1,0,0,1-.43.09,1.07,1.07,0,0,1-.43-.09.76.76,0,0,1-.31-.28h0v.32h-.51Zm1.76,2.28a.67.67,0,0,0,0-.24.82.82,0,0,0-.12-.2.63.63,0,0,0-.89,0l0,0a.63.63,0,0,0-.13.2.79.79,0,0,0,0,.48.57.57,0,0,0,.13.21.62.62,0,0,0,.88,0l0,0a.72.72,0,0,0,.12-.21.61.61,0,0,0,0-.24Z"/><path id="Trazado_13818" data-name="Trazado 13818" class="cls-1" d="M95,51.51h.58l.6,1.48h0l.53-1.48h.55l-1,2.59a1.23,1.23,0,0,1-.12.26.74.74,0,0,1-.39.31,1,1,0,0,1-.3,0,1.92,1.92,0,0,1-.41-.05l.07-.47.13,0h.14a.44.44,0,0,0,.16,0,.25.25,0,0,0,.19-.15l.07-.14.1-.26Z"/></g></g></g></g><g id="Grupo_4253" data-name="Grupo 4253"><g id="Grupo_4252" data-name="Grupo 4252"><path id="Trazado_13819" data-name="Trazado 13819" class="cls-1" d="M100.08,49.41h1l3.14,5.93,3.14-5.93h1l-3.58,6.76h-1.08Z"/><path id="Trazado_13820" data-name="Trazado 13820" class="cls-1" d="M108.92,49.41h6.36v.75h-5.49v2.16h5.27v.75h-5.27v2.36h5.52v.75h-6.39Z"/><path id="Trazado_13821" data-name="Trazado 13821" class="cls-1" d="M116.14,49.41h1.31l5.93,5.93V49.41h.87v6.76H123L117,50.23v5.94h-.88Z"/><path id="Trazado_13822" data-name="Trazado 13822" class="cls-1" d="M128,50.16h-3.28V49.4h7.43v.76h-3.28v6H128Z"/><path id="Trazado_13823" data-name="Trazado 13823" class="cls-1" d="M132.75,49.41h.88v5.05c0,.65.21,1,1.4,1h3c1.19,0,1.41-.38,1.41-1V49.41h.87v5.06c0,1.37-.66,1.77-2.3,1.77h-3c-1.65,0-2.31-.4-2.31-1.77Z"/><path id="Trazado_13824" data-name="Trazado 13824" class="cls-1" d="M141.46,54h.82v.47c0,.67.34,1,1.43,1h2.72c1.27,0,1.65-.28,1.65-1.25s-.32-1.06-1.41-1.06H145c-2.67,0-3.55-.17-3.55-2,0-1.54.88-1.88,2.68-1.88H146c2.18,0,2.72.58,2.72,1.78v.23h-.82c0-1.07-.13-1.27-2.43-1.27h-.93c-1.69,0-2.29.1-2.29,1.21,0,.8.24,1.07,1.61,1.07h2.6c1.7,0,2.42.51,2.42,1.66v.44c0,1.66-1.31,1.78-2.6,1.78h-2.44c-1.28,0-2.4-.23-2.4-1.71Z"/></g></g><g id="Grupo_4256" data-name="Grupo 4256"><g id="Grupo_4254" data-name="Grupo 4254"><path id="Trazado_13825" data-name="Trazado 13825" class="cls-1" d="M224.13,49.26a4.29,4.29,0,0,0-6.06.42c-.11.13-.21.26-.31.4Z"/><path id="Trazado_13826" data-name="Trazado 13826" class="cls-1" d="M217.32,50.91l8.24.92a4.29,4.29,0,0,0-1-2.16l-7.07.91A2.41,2.41,0,0,0,217.32,50.91Z"/><path id="Trazado_13827" data-name="Trazado 13827" class="cls-1" d="M225.61,52.5c0-.09,0-.19,0-.29l-8.4-.94a4.31,4.31,0,0,0,.05,2.61l8.35-1.08C225.6,52.7,225.61,52.6,225.61,52.5Z"/><path id="Trazado_13828" data-name="Trazado 13828" class="cls-1" d="M224.77,55.05a4.3,4.3,0,0,0,.79-1.88l-8.16,1.06Z"/><path id="Trazado_13829" data-name="Trazado 13829" class="cls-1" d="M224.46,55.43l-6.86-.77a4.29,4.29,0,0,0,5.87,1.56A4.41,4.41,0,0,0,224.46,55.43Z"/></g><g id="Grupo_4255" data-name="Grupo 4255"><path id="Trazado_13830" data-name="Trazado 13830" class="cls-1" d="M170.09,53.55a4.25,4.25,0,0,1-.38,1.14,3.06,3.06,0,0,1-.68.88,2.8,2.8,0,0,1-.94.56,3.32,3.32,0,0,1-1.17.21,3.64,3.64,0,0,1-1.35-.26,2.8,2.8,0,0,1-1.09-.73,3.41,3.41,0,0,1-.71-1.2,4.58,4.58,0,0,1-.26-1.68,5.59,5.59,0,0,1,.23-1.68,3.57,3.57,0,0,1,.69-1.27,2.94,2.94,0,0,1,1.08-.79,3.89,3.89,0,0,1,2.68-.08,3,3,0,0,1,1,.57,2.65,2.65,0,0,1,.64.85,3.17,3.17,0,0,1,.3,1h-1.55a1.71,1.71,0,0,0-.6-1,1.73,1.73,0,0,0-2.41.33v0a4.28,4.28,0,0,0,0,3.82,1.52,1.52,0,0,0,1.35.68,1.61,1.61,0,0,0,1.11-.37,2,2,0,0,0,.57-1.08Z"/><path id="Trazado_13831" data-name="Trazado 13831" class="cls-1" d="M173.13,56.22a3,3,0,0,1-1.19-.21,2.39,2.39,0,0,1-1.43-1.5,3.34,3.34,0,0,1-.19-1.17,3.39,3.39,0,0,1,.19-1.18,2.52,2.52,0,0,1,.56-.91,2.59,2.59,0,0,1,.88-.58,3.32,3.32,0,0,1,1.17-.21,3.26,3.26,0,0,1,1.16.21,2.46,2.46,0,0,1,1.43,1.48,3.82,3.82,0,0,1,0,2.38,2.72,2.72,0,0,1-.56.9,2.33,2.33,0,0,1-.88.58A2.78,2.78,0,0,1,173.13,56.22Zm0-1.21c.88,0,1.32-.55,1.32-1.66s-.44-1.67-1.32-1.66-1.32.55-1.32,1.66S172.25,55,173.13,55Z"/><path id="Trazado_13832" data-name="Trazado 13832" class="cls-1" d="M179.93,56.08V52.77a1.31,1.31,0,0,0-.21-.86,1,1,0,0,0-.73-.22c-.75,0-1.12.42-1.12,1.26v3.13h-1.45V50.61h1.38v.8a1.7,1.7,0,0,1,.68-.7,2.05,2.05,0,0,1,1.09-.24,2,2,0,0,1,.72.11,1.75,1.75,0,0,1,.57.35,1.72,1.72,0,0,1,.38.58,2,2,0,0,1,.14.78v3.79Z"/><path id="Trazado_13833" data-name="Trazado 13833" class="cls-1" d="M185.12,52.48h1.34V54a2.87,2.87,0,0,1-.12.83,2,2,0,0,1-.4.7,2,2,0,0,1-.69.49,2.63,2.63,0,0,1-1,.17,2.77,2.77,0,0,1-1-.17,2,2,0,0,1-.69-.48,1.75,1.75,0,0,1-.4-.7A3.06,3.06,0,0,1,182,54V49.13h1.42v1.48h3v1h-3v2.24a1.45,1.45,0,0,0,.19.81.75.75,0,0,0,.64.28.74.74,0,0,0,.64-.28,1.29,1.29,0,0,0,.21-.79Z"/><path id="Trazado_13834" data-name="Trazado 13834" class="cls-1" d="M187.08,50V48.61h1.45V50Zm0,6.12V50.61h1.45v5.47Z"/><path id="Trazado_13835" data-name="Trazado 13835" class="cls-1" d="M192.69,56.08V52.77a1.31,1.31,0,0,0-.22-.86,1,1,0,0,0-.72-.22c-.75,0-1.13.42-1.13,1.26v3.13h-1.44V50.61h1.38v.8a1.7,1.7,0,0,1,.68-.7,2.05,2.05,0,0,1,1.09-.24,2,2,0,0,1,.72.11,1.75,1.75,0,0,1,.57.35,1.88,1.88,0,0,1,.38.58,2.25,2.25,0,0,1,.14.78v3.79Z"/><path id="Trazado_13836" data-name="Trazado 13836" class="cls-1" d="M196.1,53.73a1.56,1.56,0,0,0,.36,1,1.11,1.11,0,0,0,.86.36,1.18,1.18,0,0,0,.63-.16.79.79,0,0,0,.35-.45h1.48a2.36,2.36,0,0,1-.89,1.3,2.54,2.54,0,0,1-1.51.46c-1.82,0-2.73-1-2.73-3a3.22,3.22,0,0,1,.18-1.15,2.47,2.47,0,0,1,.51-.87,2.22,2.22,0,0,1,.83-.56,2.9,2.9,0,0,1,1.13-.2,2.32,2.32,0,0,1,1.92.81,3.93,3.93,0,0,1,.65,2.45Zm2.27-.91a1.56,1.56,0,0,0-.1-.53,1.19,1.19,0,0,0-.25-.38,1,1,0,0,0-.36-.22,1.14,1.14,0,0,0-.41-.07,1,1,0,0,0-.75.31,1.36,1.36,0,0,0-.36.88Z"/><path id="Trazado_13837" data-name="Trazado 13837" class="cls-1" d="M203.86,56.08V52.77a1.25,1.25,0,0,0-.21-.86,1,1,0,0,0-.72-.22c-.75,0-1.13.42-1.13,1.26v3.13h-1.44V50.61h1.38v.8a1.74,1.74,0,0,1,.67-.7,2.1,2.1,0,0,1,1.09-.24,2,2,0,0,1,.73.11,1.75,1.75,0,0,1,.57.35,1.69,1.69,0,0,1,.37.58,1.86,1.86,0,0,1,.14.78v3.79Z"/><path id="Trazado_13838" data-name="Trazado 13838" class="cls-1" d="M209.06,52.48h1.34V54a2.57,2.57,0,0,1-.12.83,1.88,1.88,0,0,1-.4.7,2,2,0,0,1-.69.49,2.58,2.58,0,0,1-1,.17,2.79,2.79,0,0,1-1-.17,2,2,0,0,1-.69-.48,1.88,1.88,0,0,1-.4-.7A3.06,3.06,0,0,1,206,54V49.13h1.42v1.48h3v1h-3v2.24a1.38,1.38,0,0,0,.2.81.86.86,0,0,0,1.27,0,1.29,1.29,0,0,0,.21-.79Z"/><path id="Trazado_13839" data-name="Trazado 13839" class="cls-1" d="M214.28,52.27a.76.76,0,0,0-.29-.56,1.25,1.25,0,0,0-.73-.16,1.54,1.54,0,0,0-.64.1.36.36,0,0,0-.22.35.4.4,0,0,0,.22.38,3.18,3.18,0,0,0,.67.25l.89.24a6.34,6.34,0,0,1,.74.23,1.52,1.52,0,0,1,.67.48,1.32,1.32,0,0,1,.23.84,1.6,1.6,0,0,1-.6,1.33,2.85,2.85,0,0,1-1.79.48,3.06,3.06,0,0,1-1.94-.53,1.76,1.76,0,0,1-.69-1.37h1.49a.68.68,0,0,0,.3.6,1.43,1.43,0,0,0,.83.21,1.74,1.74,0,0,0,.68-.12.45.45,0,0,0,.29-.44.42.42,0,0,0-.26-.41,3.52,3.52,0,0,0-.62-.22q-.69-.16-1.11-.3a2.67,2.67,0,0,1-.71-.32,1.36,1.36,0,0,1-.54-.55,1.65,1.65,0,0,1,0-1.33,1.17,1.17,0,0,1,.4-.51,1.87,1.87,0,0,1,.71-.34,4.27,4.27,0,0,1,1.06-.13,2.75,2.75,0,0,1,1.76.46,1.82,1.82,0,0,1,.62,1.34Z"/></g></g><g id="Grupo_4257" data-name="Grupo 4257"><path id="Trazado_13840" data-name="Trazado 13840" class="cls-1" d="M156.94,54.37l1-1.86h.69l-1.29,2.28L159,56.5h-.9L157,55.35a3.82,3.82,0,0,1-.95.93,2.28,2.28,0,0,1-1.27.35,2.45,2.45,0,0,1-.85-.15,2,2,0,0,1-1.16-1.07,2.31,2.31,0,0,1-.17-.86,2,2,0,0,1,.14-.73,2.31,2.31,0,0,1,.37-.55,3.11,3.11,0,0,1,.52-.44l.61-.39c-.1-.12-.21-.24-.31-.37a3.71,3.71,0,0,1-.28-.41,2.48,2.48,0,0,1-.2-.44,1.5,1.5,0,0,1-.08-.47,1.65,1.65,0,0,1,.15-.69,1.36,1.36,0,0,1,.39-.5,1.78,1.78,0,0,1,.57-.32,2,2,0,0,1,.69-.11,1.77,1.77,0,0,1,.6.11,1.53,1.53,0,0,1,.52.31,1.38,1.38,0,0,1,.49,1.09,1.55,1.55,0,0,1-.14.67,1.92,1.92,0,0,1-.36.5,2.76,2.76,0,0,1-.51.39,6.65,6.65,0,0,1-.58.33Zm-2.3-1.5a4.66,4.66,0,0,0-.47.3,2.48,2.48,0,0,0-.44.36,1.43,1.43,0,0,0-.32.44,1.34,1.34,0,0,0-.12.56,1.39,1.39,0,0,0,.47,1.08,1.49,1.49,0,0,0,.51.31,1.89,1.89,0,0,0,.63.1,1.6,1.6,0,0,0,.53-.09,2.25,2.25,0,0,0,.46-.24,2.57,2.57,0,0,0,.39-.35,3.39,3.39,0,0,0,.33-.42Zm.5-3.14a1.1,1.1,0,0,0-.77.28.91.91,0,0,0-.31.73,1,1,0,0,0,.08.38,1.85,1.85,0,0,0,.19.37,2.7,2.7,0,0,0,.25.34l.25.3.44-.25a2.08,2.08,0,0,0,.43-.3,1.76,1.76,0,0,0,.32-.39,1.06,1.06,0,0,0,.12-.5.9.9,0,0,0-.28-.69,1,1,0,0,0-.72-.27Z"/></g></g></g><g id="Grupo_4260" data-name="Grupo 4260"><path id="Trazado_13841" data-name="Trazado 13841" class="cls-2" d="M53.76,24.33V41.88H45.05V.25H74.7V7.52H53.77V17h18.3v7.34Z"/><path id="Trazado_13842" data-name="Trazado 13842" class="cls-2" d="M77.08,41.88V19.41h8.15V41.88Z"/><path id="Trazado_13843" data-name="Trazado 13843" class="cls-2" d="M88.93,41.88V11h7.65v3.69a10,10,0,0,1,2.1-2.44,8.91,8.91,0,0,1,2.26-1.35,8.28,8.28,0,0,1,2.35-.59,22.16,22.16,0,0,1,2.44-.13h1.07v8.34a14.26,14.26,0,0,0-2.26-.19q-7.46,0-7.46,7.46V41.88Z"/><path id="Trazado_13844" data-name="Trazado 13844" class="cls-2" d="M114.64,28.59a8.77,8.77,0,0,0,2,5.58,6.19,6.19,0,0,0,4.86,2.07,6.87,6.87,0,0,0,3.54-.91,4.1,4.1,0,0,0,2-2.54h8.4a13.49,13.49,0,0,1-5,7.34,14.25,14.25,0,0,1-8.53,2.57q-15.4,0-15.41-16.8a19.43,19.43,0,0,1,1-6.46,14.08,14.08,0,0,1,2.91-5,12.59,12.59,0,0,1,4.68-3.17,17.09,17.09,0,0,1,6.33-1.09q7.14,0,10.81,4.57t3.67,13.79Zm12.85-5.14a8.69,8.69,0,0,0-.59-3,6.34,6.34,0,0,0-1.41-2.13,5.76,5.76,0,0,0-2-1.25,6.79,6.79,0,0,0-2.32-.41,5.77,5.77,0,0,0-4.23,1.79,7.64,7.64,0,0,0-2,5Z"/><path id="Trazado_13845" data-name="Trazado 13845" class="cls-2" d="M158.47,41.88V23.2c0-2.38-.4-4-1.19-4.82a5.47,5.47,0,0,0-4.08-1.26q-6.33,0-6.33,7.09V41.88h-8.15V11h7.77v4.51a9.91,9.91,0,0,1,3.83-4,13.92,13.92,0,0,1,10.22-.69,8.61,8.61,0,0,1,3.23,2,9.57,9.57,0,0,1,2.13,3.23,11.71,11.71,0,0,1,.78,4.42V41.88Z"/><path id="Trazado_13846" data-name="Trazado 13846" class="cls-2" d="M169.18,41.88V35.61l15.74-18.12H170.25V11h25.08v6.58L179.59,35.24h16.17v6.64Z"/><path id="Trazado_13847" data-name="Trazado 13847" class="cls-2" d="M204.36,28.59a8.82,8.82,0,0,0,2,5.58,6.21,6.21,0,0,0,4.86,2.07,6.85,6.85,0,0,0,3.54-.91,4.11,4.11,0,0,0,2-2.54h8.4a13.59,13.59,0,0,1-5,7.34,14.29,14.29,0,0,1-8.53,2.57q-15.42,0-15.42-16.8a19.69,19.69,0,0,1,1-6.46,14,14,0,0,1,2.92-5,12.55,12.55,0,0,1,4.67-3.17,17.09,17.09,0,0,1,6.33-1.09q7.16,0,10.82,4.57t3.67,13.79Zm12.85-5.14a8.47,8.47,0,0,0-.6-3,6.05,6.05,0,0,0-1.41-2.13,5.63,5.63,0,0,0-2-1.25,6.83,6.83,0,0,0-2.32-.41,5.77,5.77,0,0,0-4.23,1.79,7.59,7.59,0,0,0-2,5Z"/><rect id="Rect치ngulo_1267" data-name="Rect치ngulo 1267" class="cls-2" x="77.08" y="11.04" width="8.15" height="6.49"/></g><g id="Grupo_4261" data-name="Grupo 4261"><path id="Trazado_13848" data-name="Trazado 13848" class="cls-1" d="M79.86.69H77.72V.16h4.87V.69H80.45V6.44h-.59Z"/><path id="Trazado_13849" data-name="Trazado 13849" class="cls-1" d="M85.1,3.3A3.72,3.72,0,0,1,85.34,2a3,3,0,0,1,.67-1,2.93,2.93,0,0,1,1-.69,3.64,3.64,0,0,1,2.64,0,2.93,2.93,0,0,1,1,.69,3.15,3.15,0,0,1,.67,1,3.75,3.75,0,0,1,0,2.64,3.14,3.14,0,0,1-.67,1,2.9,2.9,0,0,1-1,.68,3.64,3.64,0,0,1-2.64,0,2.9,2.9,0,0,1-1-.68,3.14,3.14,0,0,1-.67-1A3.72,3.72,0,0,1,85.1,3.3Zm.59,0a3.13,3.13,0,0,0,.19,1.09,2.5,2.5,0,0,0,.53.88,2.35,2.35,0,0,0,.84.58,2.92,2.92,0,0,0,2.21,0,2.53,2.53,0,0,0,.84-.58,2.83,2.83,0,0,0,.53-.88,3.26,3.26,0,0,0,0-2.18,2.62,2.62,0,0,0-.53-.88,2.72,2.72,0,0,0-.84-.59,3,3,0,0,0-2.21,0,2.5,2.5,0,0,0-.84.59,2.33,2.33,0,0,0-.53.88,3.13,3.13,0,0,0-.19,1.09Z"/><path id="Trazado_13850" data-name="Trazado 13850" class="cls-1" d="M94.86.16h2a2.4,2.4,0,0,1,.46,0,2.85,2.85,0,0,1,.5.14,1.38,1.38,0,0,1,.46.29,1.45,1.45,0,0,1,.34.47,1.6,1.6,0,0,1,.13.69,1.59,1.59,0,0,1-.15.74A1.53,1.53,0,0,1,98.2,3a1.84,1.84,0,0,1-.52.27,3.37,3.37,0,0,1-.55.12l1.83,3H98.3l-1.77-3H95.45v3h-.59Zm.59,2.76h1.24a2.13,2.13,0,0,0,.75-.11,1.31,1.31,0,0,0,.45-.28.91.91,0,0,0,.21-.37,1.08,1.08,0,0,0,0-.71.88.88,0,0,0-.21-.36,1.18,1.18,0,0,0-.45-.28,1.94,1.94,0,0,0-.75-.12H95.45Z"/><path id="Trazado_13851" data-name="Trazado 13851" class="cls-1" d="M102.07.16h2a2.31,2.31,0,0,1,.46,0,3,3,0,0,1,.51.14,1.49,1.49,0,0,1,.46.29,1.43,1.43,0,0,1,.33.47,1.61,1.61,0,0,1,.14.69,1.6,1.6,0,0,1-.16.74,1.4,1.4,0,0,1-.39.48,1.61,1.61,0,0,1-.52.27,3,3,0,0,1-.54.12l1.83,3h-.67l-1.76-3h-1.09v3h-.59Zm.59,2.76h1.24a2.13,2.13,0,0,0,.75-.11,1.31,1.31,0,0,0,.45-.28.91.91,0,0,0,.21-.37,1.08,1.08,0,0,0,0-.71.88.88,0,0,0-.21-.36,1.18,1.18,0,0,0-.45-.28,1.94,1.94,0,0,0-.75-.12h-1.24Z"/><path id="Trazado_13852" data-name="Trazado 13852" class="cls-1" d="M109.28.16h3.84V.69h-3.26V2.93h3v.53h-3V5.91h3.4v.53h-4Z"/></g><rect id="Rect치ngulo_1268" data-name="Rect치ngulo 1268" class="cls-1" x="115.37" y="5.9" width="110.24" height="0.53"/><g id="Grupo_4264" data-name="Grupo 4264"><path id="Trazado_13853" data-name="Trazado 13853" class="cls-1" d="M31.64,38,17.32,35.74a8.41,8.41,0,0,1-5.65-3.61L8.91,28l4.89-.92a8.37,8.37,0,0,1,6.53,1.51L32,37.24a.43.43,0,0,1,.1.59A.44.44,0,0,1,31.64,38Z"/><path id="Trazado_13854" data-name="Trazado 13854" class="cls-1" d="M33.74,34.24,21.37,26.67a8.34,8.34,0,0,1-3.83-5.5l-1-4.88,4.87,1a8.38,8.38,0,0,1,5.46,3.89l7.44,12.46a.42.42,0,0,1-.15.58A.43.43,0,0,1,33.74,34.24Z"/><path id="Trazado_13855" data-name="Trazado 13855" class="cls-1" d="M37.3,31.69,28.78,20a8.35,8.35,0,0,1-1.43-6.55l1-4.88,4.1,2.82A8.34,8.34,0,0,1,36,17l2.09,14.35a.41.41,0,0,1-.35.48A.41.41,0,0,1,37.3,31.69Z"/><g id="Grupo_4262" data-name="Grupo 4262"><circle id="Elipse_254" data-name="Elipse 254" class="cls-1" cx="7.37" cy="34.89" r="1.58"/><circle id="Elipse_255" data-name="Elipse 255" class="cls-1" cx="12.82" cy="22.18" r="1.58"/><circle id="Elipse_256" data-name="Elipse 256" class="cls-1" cx="22.65" cy="12.45" r="1.58"/><circle id="Elipse_257" data-name="Elipse 257" class="cls-1" cx="35.41" cy="7.22" r="1.58"/></g><path id="Trazado_13856" data-name="Trazado 13856" class="cls-1" d="M31.05,41.7a.41.41,0,0,0-.31-.32L16.68,37.83a8.33,8.33,0,0,0-6.61,1.11L5.9,41.65,6,41.7Z"/><path id="Trazado_13857" data-name="Trazado 13857" class="cls-1" d="M42,5.87l-2.7,4.05a8.4,8.4,0,0,0-1.17,6.6l3.42,14.1a.42.42,0,0,0,.44.32Z"/><g id="Grupo_4263" data-name="Grupo 4263"><path id="Trazado_13858" data-name="Trazado 13858" class="cls-1" d="M42,.14A41.81,41.81,0,0,0,0,41.7H1.22A40.6,40.6,0,0,1,42,1.36Z"/></g></g></g></g></svg>