<svg xmlns="http://www.w3.org/2000/svg" viewBox="0 0 75.25 75.25"><defs><style>.cls-1{fill:#a7845d;}</style></defs><g id="Capa_2" data-name="Capa 2"><g id="Capa_1-2" data-name="Capa 1"><g id="Grupo_1815" data-name="Grupo 1815"><path id="Trazado_2114" data-name="Trazado 2114" class="cls-1" d="M0,37.58A37.63,37.63,0,1,1,37.58,75.25h0A37.64,37.64,0,0,1,0,37.58Zm14.45,0h-.06c0,2.86,0,5.72,0,8.58a23.14,23.14,0,0,0,.23,3.22,12.07,12.07,0,0,0,7.06,9.86,16.39,16.39,0,0,0,6.73,1.38q8.79,0,17.6,0a24.26,24.26,0,0,0,3.81-.29,12,12,0,0,0,10-7.82,16.45,16.45,0,0,0,1-5.89c0-5.82,0-11.64,0-17.45a21.53,21.53,0,0,0-.22-3.3,12,12,0,0,0-7.77-10.14A16.27,16.27,0,0,0,47,14.64q-9.36,0-18.73,0a15.39,15.39,0,0,0-7.31,1.74,12.18,12.18,0,0,0-6.46,10.76c-.2,3.47,0,7,0,10.45Z"/><path id="Trazado_2115" data-name="Trazado 2115" class="cls-1" d="M37.62,19c3.09,0,6.17,0,9.26,0a15.16,15.16,0,0,1,3,.35,8.21,8.21,0,0,1,6.57,7.38,21.81,21.81,0,0,1,.15,2.55c0,5.72,0,11.44,0,17.15a13.62,13.62,0,0,1-.67,4.2,7.65,7.65,0,0,1-7.28,5.47c-4.38.25-8.78.22-13.16.24-2.91,0-5.82,0-8.72-.22a8.27,8.27,0,0,1-7.92-7.74,20.06,20.06,0,0,1-.14-2.32c0-5.79-.05-11.58,0-17.38a13.21,13.21,0,0,1,.67-4,7.75,7.75,0,0,1,7.29-5.48c3-.24,6.11-.19,9.17-.25.6,0,1.2,0,1.8,0Zm0,6.42a12.19,12.19,0,1,0,.15,0H37.6ZM49.93,27.9a2.43,2.43,0,1,0-2.45-2.41,2.43,2.43,0,0,0,2.45,2.41Z"/><path id="Trazado_2116" data-name="Trazado 2116" class="cls-1" d="M29.73,37.67a7.9,7.9,0,1,1,7.94,7.84h0a7.87,7.87,0,0,1-7.93-7.82Z"/></g></g></g></svg>