<svg xmlns="http://www.w3.org/2000/svg" viewBox="0 0 224.62 81.72"><defs><style>.cls-1{fill:#3e9c8b;}.cls-2{fill:#083246;}.cls-3{fill:#3b4e55;}.cls-4{fill:#4bae93;}.cls-5{fill:#7c853b;}.cls-6{fill:#4e331d;}.cls-7{fill:#eda335;}.cls-8{fill:#c34740;}</style></defs><g id="Capa_2" data-name="Capa 2"><g id="Layer_2" data-name="Layer 2"><g id="Grupo_4300" data-name="Grupo 4300"><path id="Path_40" data-name="Path 40" class="cls-1" d="M113.91,63.3V25L103.42,63.44H91.79L81.45,25.1V63.3H70.53v-56H87.77L98,48.36,108.17,7.29h17V63.44l-11.2-.15Z"/><path id="Path_41" data-name="Path 41" class="cls-1" d="M155.55,63.3a15.78,15.78,0,0,1-.72-3.73A12.52,12.52,0,0,1,149.66,63a22.06,22.06,0,0,1-7.46,1.3c-4.74,0-8.33-1-10.48-3.16A10.55,10.55,0,0,1,128.41,53a15.74,15.74,0,0,1,1.44-7.18,10.28,10.28,0,0,1,4-4.17,18,18,0,0,1,6-2.29c2.3-.43,4.88-.87,7.61-1.3a14.64,14.64,0,0,0,5.6-1.58A3.85,3.85,0,0,0,153.7,31v0a2.73,2.73,0,0,0-1-.87A9.13,9.13,0,0,0,147.51,29a7.54,7.54,0,0,0-5.46,1.72,7.88,7.88,0,0,0-2,4.45H129.85a20.32,20.32,0,0,1,1-5.89A10.2,10.2,0,0,1,134,24.67a14.21,14.21,0,0,1,5.6-3,27.85,27.85,0,0,1,8.47-1,26.71,26.71,0,0,1,8.33,1.15A13.92,13.92,0,0,1,161.87,25a11.94,11.94,0,0,1,3,5.17,19.53,19.53,0,0,1,.86,7V63.44Zm-.72-20.25a5.65,5.65,0,0,1-2.44,1.29c-1.58.43-3,.86-4.59,1.15a16.59,16.59,0,0,0-6.46,2.3A5,5,0,0,0,139.61,52c0,3.16,1.73,4.6,5.32,4.6a11.63,11.63,0,0,0,3.87-.72A9.09,9.09,0,0,0,154,51a7.56,7.56,0,0,0,.86-3.45Z"/><path id="Path_42" data-name="Path 42" class="cls-1" d="M170.63,63.29V6.58h10.92V63.29Z"/><path id="Path_43" data-name="Path 43" class="cls-1" d="M196.19,45.49A11.66,11.66,0,0,0,198.92,53a8.2,8.2,0,0,0,6.61,2.73,9.08,9.08,0,0,0,4.74-1.29A6,6,0,0,0,213,51h11.34a17.73,17.73,0,0,1-6.75,9.91,19,19,0,0,1-11.49,3.45c-13.79,0-20.83-7.61-20.83-22.69a30.22,30.22,0,0,1,1.3-8.76,19.17,19.17,0,0,1,3.87-6.61,17.79,17.79,0,0,1,6.32-4.31,21.52,21.52,0,0,1,8.48-1.43c6.46,0,11.34,2,14.5,6.17s4.88,10.34,4.88,18.53Zm17.38-7a9.75,9.75,0,0,0-.86-4,7.76,7.76,0,0,0-1.87-2.88,8.83,8.83,0,0,0-2.73-1.72,7.75,7.75,0,0,0-3.16-.58,8,8,0,0,0-5.74,2.45,9.8,9.8,0,0,0-2.73,6.75Zm-13.93-22-2.58-4.59,17.52-10.2,4,6.9Z"/><path id="Trazado_13859" data-name="Trazado 13859" class="cls-2" d="M59.75,48.11c0-.43-.43-.71-.87-.86L39.21,45.82V43.66l14.22.43c.29,0,.57-.14.57-.43v-.29l-14.65-33V9.77L47,6.47a.85.85,0,0,0,.29-1.15c-.14-.15-.29-.43-.43-.43L39.21,1.58V1a1.08,1.08,0,0,0-.72-1,1.15,1.15,0,0,0-1.15.72V7.47L2.16,43.38,1,43.23a1,1,0,0,0-1,.86.85.85,0,0,0,.15.58L9.63,60.9a.87.87,0,0,0,.86.43h50a1,1,0,0,0,.87-.58.52.52,0,0,0,.14-.43ZM39.22,14.94,51.86,42.37,39.22,41.8ZM37.35,10.2v19A45,45,0,0,0,19.83,28Zm0,35.62h-1l-21-1.44L4.61,43.66l4.16-4.31c2-.57,16.8-4.16,28.58.58Z"/><g id="Grupo_4280" data-name="Grupo 4280"><g id="Grupo_4277" data-name="Grupo 4277"><g id="Grupo_4276" data-name="Grupo 4276"><path id="Trazado_13860" data-name="Trazado 13860" class="cls-3" d="M168.46,76.69c-.12.44-.27.87-.43,1.29a2,2,0,0,1-.86,1,3.29,3.29,0,0,1-1.15.72,4.44,4.44,0,0,1-1.44.28,5.3,5.3,0,0,1-1.58-.28,3.43,3.43,0,0,1-1.29-.87,4.74,4.74,0,0,1-.86-1.43,7.05,7.05,0,0,1,0-4,2.42,2.42,0,0,1,.86-1.44A3.1,3.1,0,0,1,163,71a3.29,3.29,0,0,1,1.72-.29,4.15,4.15,0,0,1,1.44.29,3.12,3.12,0,0,1,1.15.71,2.68,2.68,0,0,1,.72,1,4.39,4.39,0,0,1,.29,1.29h-1.87a3.15,3.15,0,0,0-.72-1.15,1.62,1.62,0,0,0-1.15-.43,2.06,2.06,0,0,0-1.72.86,4.87,4.87,0,0,0,0,4.6,1.66,1.66,0,0,0,1.58.86,1.74,1.74,0,0,0,1.29-.43,2.85,2.85,0,0,0,.72-1.29h2Z"/><path id="Trazado_13861" data-name="Trazado 13861" class="cls-3" d="M172.05,79.85a4.2,4.2,0,0,1-1.44-.29,2.55,2.55,0,0,1-1-.71,3.15,3.15,0,0,1-.72-1.15,3.69,3.69,0,0,1,0-2.88,4.67,4.67,0,0,1,.72-1.14,2.47,2.47,0,0,1,1-.72,3.67,3.67,0,0,1,2.87,0,2.5,2.5,0,0,1,1,.72,4.25,4.25,0,0,1,.72,1,3.76,3.76,0,0,1,0,2.87,3.81,3.81,0,0,1-1.73,1.73A1.72,1.72,0,0,1,172.05,79.85Zm0-1.43c1,0,1.58-.72,1.58-2s-.58-2-1.58-2-1.58.72-1.58,2S170.9,78.42,172.05,78.42Z"/><path id="Trazado_13862" data-name="Trazado 13862" class="cls-3" d="M180.09,79.71V75.83a1.73,1.73,0,0,0-.29-1,1.21,1.21,0,0,0-.86-.28c-.86,0-1.29.43-1.29,1.43V79.7h-1.72V73.24h1.58v1a1.24,1.24,0,0,1,.86-.86,2.74,2.74,0,0,1,1.29-.29,2,2,0,0,1,.86.14c.29.15.43.29.72.43a3.27,3.27,0,0,1,.43.72,1.7,1.7,0,0,1,.14.86v4.46Z"/><path id="Trazado_13863" data-name="Trazado 13863" class="cls-3" d="M186.27,75.4h1.58v1.86a2.46,2.46,0,0,1-.15,1l-.43.86a1.36,1.36,0,0,1-.86.58,4.71,4.71,0,0,1-2.3,0,3,3,0,0,1-.86-.58c-.14-.29-.43-.57-.43-.86a2.3,2.3,0,0,1-.14-1V71.52h1.72v1.72H188v1.15H184.4v2.73a2.11,2.11,0,0,0,.29,1c.14.29.43.29.72.29a1.1,1.1,0,0,0,.71-.29,2.11,2.11,0,0,0,.29-1V75.4Z"/><path id="Trazado_13864" data-name="Trazado 13864" class="cls-3" d="M188.56,72.53V71h1.73v1.58Zm0,7.18V73.24h1.73v6.47Z"/><path id="Trazado_13865" data-name="Trazado 13865" class="cls-3" d="M195.17,79.71V75.83a1.73,1.73,0,0,0-.29-1,1.22,1.22,0,0,0-.86-.28c-.86,0-1.29.43-1.29,1.43V79.7H191V73.24h1.58v1a1.27,1.27,0,0,1,.87-.86,2.74,2.74,0,0,1,1.29-.29,2,2,0,0,1,.86.14c.29.15.43.29.72.43a3.27,3.27,0,0,1,.43.72,1.82,1.82,0,0,1,.14.86v4.46Z"/><path id="Trazado_13866" data-name="Trazado 13866" class="cls-3" d="M199.19,77a1.63,1.63,0,0,0,.43,1.15,1.32,1.32,0,0,0,1,.43,1,1,0,0,0,.71-.14,2.07,2.07,0,0,0,.44-.58h1.72a3,3,0,0,1-1,1.58,2.51,2.51,0,0,1-1.72.58c-2.16,0-3.31-1.15-3.31-3.59a3.8,3.8,0,0,1,.14-1.3,2.46,2.46,0,0,1,.58-1,2.5,2.5,0,0,1,1-.72,4.32,4.32,0,0,1,1.29-.29,2.68,2.68,0,0,1,2.29,1A4,4,0,0,1,203.5,77Zm2.73-1.15c0-.29,0-.43-.14-.58s-.15-.28-.29-.43-.29-.14-.43-.28-.29-.15-.43-.15a1.26,1.26,0,0,0-.87.43,1.34,1.34,0,0,0-.43,1Z"/><path id="Trazado_13867" data-name="Trazado 13867" class="cls-3" d="M208.38,79.71V75.83a1.73,1.73,0,0,0-.29-1,1.22,1.22,0,0,0-.86-.28c-.86,0-1.29.43-1.29,1.43V79.7h-1.72V73.24h1.58v1a1.28,1.28,0,0,1,.86-.86,2.81,2.81,0,0,1,1.3-.29,2,2,0,0,1,.86.14c.29.15.43.29.72.43a3.27,3.27,0,0,1,.43.72,2,2,0,0,1,.14.86v4.46Z"/><path id="Trazado_13868" data-name="Trazado 13868" class="cls-3" d="M214.56,75.4h1.58v1.86a2.46,2.46,0,0,1-.15,1l-.43.86a1.31,1.31,0,0,1-.86.58,4.71,4.71,0,0,1-2.3,0,3.26,3.26,0,0,1-.86-.58c-.14-.29-.43-.57-.43-.86a2.3,2.3,0,0,1-.14-1V71.52h1.72v1.72h3.59v1.15h-3.59v2.73a2.11,2.11,0,0,0,.29,1c.14.29.43.29.72.29a1.15,1.15,0,0,0,.72-.29,2.1,2.1,0,0,0,.28-1V75.4Z"/><path id="Trazado_13869" data-name="Trazado 13869" class="cls-3" d="M220.73,75.26a1.11,1.11,0,0,0-.29-.72c-.14-.15-.43-.15-.86-.15a1.08,1.08,0,0,0-.72.15c-.14.14-.29.28-.29.43s.15.28.29.43.43.14.86.28.68.18,1,.29.57.15.86.29a2.93,2.93,0,0,1,.86.57,2.14,2.14,0,0,1,.29,1,2.07,2.07,0,0,1-.72,1.58,3,3,0,0,1-2.15.58,3.73,3.73,0,0,1-2.3-.58,2,2,0,0,1-.86-1.58h1.72a1.08,1.08,0,0,0,.29.72,2.07,2.07,0,0,0,1,.29,1.8,1.8,0,0,0,.86-.15c.29-.14.29-.28.29-.57s-.14-.43-.29-.43c-.14-.15-.43-.15-.71-.29a8.4,8.4,0,0,0-1.3-.29l-.86-.43a.92.92,0,0,1-.57-.72,1.8,1.8,0,0,1-.15-.86,1.14,1.14,0,0,1,.15-.72,1.83,1.83,0,0,1,.43-.57,4.61,4.61,0,0,1,.86-.43,3,3,0,0,1,1.29-.14,2.61,2.61,0,0,1,2,.57,2,2,0,0,1,.72,1.58h-1.72Z"/></g></g><g id="Grupo_4278" data-name="Grupo 4278"><path id="Trazado_13870" data-name="Trazado 13870" class="cls-4" d="M147.78,70.22a5.4,5.4,0,0,0,2.73-1,7.63,7.63,0,0,1,3-1.15c.58,0,1-.14,1.3,0a7.24,7.24,0,0,0-3.88-1.15,7.09,7.09,0,0,0-5.89,3A4.64,4.64,0,0,0,147.78,70.22Z"/><path id="Trazado_13871" data-name="Trazado 13871" class="cls-5" d="M148.5,72.67a6.44,6.44,0,0,0,2.58-.29A5.26,5.26,0,0,1,154,72a4.86,4.86,0,0,1,2.73,1,4,4,0,0,0,1.58.71,7.27,7.27,0,0,0-2.15-4.59,7.06,7.06,0,0,0-2.59-.15,5.54,5.54,0,0,0-2.73,1,7.78,7.78,0,0,1-3,1.15h-1a4.81,4.81,0,0,1-2.15-.43h-.14a.48.48,0,0,1-.15.28,4.87,4.87,0,0,1,1.73.87A4.35,4.35,0,0,0,148.5,72.67Z"/><path id="Trazado_13872" data-name="Trazado 13872" class="cls-6" d="M147.78,76.69a5.41,5.41,0,0,0,2.73-1,7.61,7.61,0,0,1,3-1.14,6.77,6.77,0,0,1,3.16.28,5,5,0,0,0,1.58.29v-.72a6.5,6.5,0,0,1-2-.86,4.32,4.32,0,0,0-2.44-.86,6.17,6.17,0,0,0-2.59.29,5.23,5.23,0,0,1-2.87.43,5,5,0,0,1-2.73-1,4,4,0,0,0-1.58-.72,8.47,8.47,0,0,0-.43,2.59,8.38,8.38,0,0,0,.29,1.86c.43.15.86.15,1.15.29A4.64,4.64,0,0,0,147.78,76.69Z"/><path id="Trazado_13873" data-name="Trazado 13873" class="cls-7" d="M151.08,79.42a5.24,5.24,0,0,1-2.87.43,4.86,4.86,0,0,1-2.73-1c-.29-.14-.43-.28-.72-.43a7.37,7.37,0,0,0,11.06,1.44,5.32,5.32,0,0,0-2.15-.72A6.47,6.47,0,0,0,151.08,79.42Z"/><path id="Trazado_13874" data-name="Trazado 13874" class="cls-8" d="M156.25,75.69a5.51,5.51,0,0,0-2.87-.29,5.38,5.38,0,0,0-2.73,1,7.77,7.77,0,0,1-3,1.15h-1a4.82,4.82,0,0,1-2.15-.44c-.29,0-.44-.14-.72-.14a.47.47,0,0,0,.14.29,4.8,4.8,0,0,1,1.72.86,4.32,4.32,0,0,0,2.44.86,6.29,6.29,0,0,0,2.59-.28,5.16,5.16,0,0,1,2.87-.43,6.67,6.67,0,0,1,2.59.86A6.86,6.86,0,0,0,157.83,76,6.48,6.48,0,0,1,156.25,75.69Z"/></g><g id="Grupo_4279" data-name="Grupo 4279"><path id="Trazado_13875" data-name="Trazado 13875" class="cls-3" d="M130.26,71.52h1v2.87h0l.15-.14c.14-.14.14-.14.28-.14s.29-.15.43-.15h.58a1.82,1.82,0,0,1,.86.15,1.72,1.72,0,0,1,.57.43,3.31,3.31,0,0,1,.44.72,2.67,2.67,0,0,1,0,1.72c-.15.29-.29.43-.44.72a3.2,3.2,0,0,1-.71.43,2.7,2.7,0,0,1-1.73,0,1.13,1.13,0,0,1-.57-.57h0v.57h-1V71.52ZM133.7,76a.53.53,0,0,0-.14-.43c0-.14-.14-.29-.29-.43s-.28-.14-.43-.29c-.14,0-.29-.14-.57-.14s-.43,0-.58.14-.28.15-.43.29-.14.29-.28.43-.15.29-.15.43a.52.52,0,0,0,.15.43c0,.15.14.29.28.43s.29.15.43.29.29.14.58.14.43,0,.57-.14.29-.14.43-.29.15-.28.29-.43S133.7,76.26,133.7,76Z"/><path id="Trazado_13876" data-name="Trazado 13876" class="cls-3" d="M135.14,74h1.15l1.15,2.88h0l1-2.88h1.15l-2,5c-.14.14-.14.43-.29.57s-.14.29-.28.44-.29.14-.43.28-.43.15-.58.15a1.82,1.82,0,0,1-.86-.15l.14-.86c.15,0,.15,0,.29.14h.58c.14,0,.14,0,.28-.14l.15-.14c0-.15.14-.15.14-.29l.14-.43Z"/></g></g></g></g></g></svg>