<svg xmlns="http://www.w3.org/2000/svg" viewBox="0 0 341.32 107.56"><defs><style>.cls-1{fill:#0c4a63;}.cls-2{fill:#ab8557;}.cls-3{fill:#bfa279;}</style></defs><g id="Capa_2" data-name="Capa 2"><g id="Layer_2" data-name="Layer 2"><ellipse id="Elipse_252" data-name="Elipse 252" class="cls-1" cx="42.13" cy="47.66" rx="34.38" ry="43.38"/><path id="Trazado_13775" data-name="Trazado 13775" class="cls-2" d="M81.53,30.85a49.34,49.34,0,0,0-8.3-15.17,46.5,46.5,0,0,0-6.17-6.3,41.26,41.26,0,0,0-7.43-5,38.57,38.57,0,0,0-8.44-3.25h0a36.86,36.86,0,0,0-9-1.14h0a36.88,36.88,0,0,0-9.06,1.14h0a38.77,38.77,0,0,0-8.44,3.25,40.75,40.75,0,0,0-7.43,5A45.43,45.43,0,0,0,11,15.68a49.27,49.27,0,0,0-8.3,15.18,52.85,52.85,0,0,0,0,33.69,49.26,49.26,0,0,0,8.35,15.13A45.77,45.77,0,0,0,17.31,86a40.54,40.54,0,0,0,7.4,5,39,39,0,0,0,8.41,3.23,36.53,36.53,0,0,0,9,1.13h0a36.39,36.39,0,0,0,9-1.13,39.06,39.06,0,0,0,8.42-3.23A40.88,40.88,0,0,0,67,86a45.77,45.77,0,0,0,6.18-6.27,49.23,49.23,0,0,0,8.34-15.13,52.85,52.85,0,0,0,0-33.69ZM77.18,63.58a50,50,0,0,1-2.81,7.58,48,48,0,0,1-4.05,7.07A41,41,0,0,1,65,84.49a36.25,36.25,0,0,1-6.64,5.05,32.88,32.88,0,0,1-7.77,3.31,30.76,30.76,0,0,1-16.86,0,32.5,32.5,0,0,1-7.77-3.32,36.2,36.2,0,0,1-6.64-5,41.53,41.53,0,0,1-5.35-6.27,46.67,46.67,0,0,1-4-7.07,49.86,49.86,0,0,1-2.81-7.57,58,58,0,0,1,0-31.74A49.48,49.48,0,0,1,10,24.28a47.08,47.08,0,0,1,4.07-7A40.74,40.74,0,0,1,19.38,11,36,36,0,0,1,26,6a32.8,32.8,0,0,1,7.73-3.3,30.86,30.86,0,0,1,16.78,0A32.8,32.8,0,0,1,58.25,6a36,36,0,0,1,6.63,5,40.74,40.74,0,0,1,5.35,6.23,47.08,47.08,0,0,1,4.07,7.05,49.44,49.44,0,0,1,2.83,7.56,58,58,0,0,1,.05,31.74Z"/><circle id="Elipse_253" data-name="Elipse 253" class="cls-2" cx="59.17" cy="21.6" r="1.33"/><path id="Trazado_13776" data-name="Trazado 13776" class="cls-2" d="M54.21,22.87c3.66-6.84-2.32-9.69-3.68-9.69,2,3.36-.94,8.08-5.54,9.91A20.51,20.51,0,0,1,54.21,22.87Z"/><g id="Grupo_4238" data-name="Grupo 4238"><path id="Trazado_13777" data-name="Trazado 13777" class="cls-2" d="M117.81,26q0-5.13-1.71-6.89t-6.37-1.76H108v30h4v1.14H95.31V47.3h4v-30H97.62a8.7,8.7,0,0,0-6.32,1.76Q89.59,20.82,89.59,26H88.44v-9.8h30.5V26Z"/><path id="Trazado_13778" data-name="Trazado 13778" class="cls-2" d="M136.2,48.35a15.39,15.39,0,0,1-9.92-3.57,12.33,12.33,0,0,1-4.44-10.15,14.85,14.85,0,0,1,1.3-6.29A11.39,11.39,0,0,1,126.6,24a16.79,16.79,0,0,1,4.64-2.45,16,16,0,0,1,5.08-.84,16.37,16.37,0,0,1,5.1.84A16.56,16.56,0,0,1,146.09,24a11.73,11.73,0,0,1,3.49,4.38,12.48,12.48,0,0,1,1.33,6.23,13.83,13.83,0,0,1-1.33,6.17,11.57,11.57,0,0,1-3.52,4.33A16,16,0,0,1,136.2,48.35Zm-4.26-4.06a4.44,4.44,0,0,0,4.38,2.91,4.56,4.56,0,0,0,4.44-2.94,25.84,25.84,0,0,0,1.33-9.72,26,26,0,0,0-1.33-9.74,4.56,4.56,0,0,0-4.44-3,4.43,4.43,0,0,0-4.38,3,27,27,0,0,0-1.27,9.77,26.21,26.21,0,0,0,1.27,9.71Z"/><path id="Trazado_13779" data-name="Trazado 13779" class="cls-2" d="M169.36,48.35H154.94V47.19h2.89V22.49h-2.89V21.34h11.54V28.2a10.65,10.65,0,0,1,1.87-4.61,6.6,6.6,0,0,1,3-2.37,9.8,9.8,0,0,1,3.17-.57,8.16,8.16,0,0,1,2.94.55,3.76,3.76,0,0,1,2.11,2.19,4.27,4.27,0,0,1,.06,3.29A4,4,0,0,1,177.41,29a3.71,3.71,0,0,1-2.92.18,3.82,3.82,0,0,1-1.89-1.42,6,6,0,0,1-.81-1.71q-.57-2.13-1.56-2.13t-2.42,3.78a25.55,25.55,0,0,0-1.33,8.22V47.19h2.88Z"/><path id="Trazado_13780" data-name="Trazado 13780" class="cls-2" d="M197.21,48.35H182.8V47.19h2.88V22.49H182.8V21.34h11.53V28.2a10.65,10.65,0,0,1,1.87-4.61,6.65,6.65,0,0,1,3-2.37,9.8,9.8,0,0,1,3.17-.57,8.16,8.16,0,0,1,2.94.55,3.76,3.76,0,0,1,2.11,2.19,4.27,4.27,0,0,1,.06,3.29A4,4,0,0,1,205.26,29a3.71,3.71,0,0,1-2.92.18,3.82,3.82,0,0,1-1.89-1.42,6,6,0,0,1-.81-1.71q-.57-2.13-1.56-2.13c-.73,0-1.53,1.26-2.42,3.78a25.55,25.55,0,0,0-1.33,8.22V47.19h2.89Z"/><path id="Trazado_13781" data-name="Trazado 13781" class="cls-2" d="M236.13,36.24H218.72q.57,10.14,7.9,10.15a13.17,13.17,0,0,0,4.47-.93,7.36,7.36,0,0,0,3.66-2.59l.81.57A9.2,9.2,0,0,1,231.23,47a14.49,14.49,0,0,1-6.07,1.39,22.28,22.28,0,0,1-5.45-.61,16.69,16.69,0,0,1-4.73-2,9.51,9.51,0,0,1-3.6-4.33,16.84,16.84,0,0,1-1.3-7q0-7,3.86-10.35a13.77,13.77,0,0,1,9.37-3.38,12.4,12.4,0,0,1,9.17,3.69Q236.14,28,236.13,36.24Zm-17.46-1.16h9.39a34.59,34.59,0,0,0-1.12-9.28c-.75-2.66-2-4-3.61-4s-2.85,1.28-3.58,3.84a32.15,32.15,0,0,0-1.09,8.79Z"/></g><path id="Trazado_13782" data-name="Trazado 13782" class="cls-3" d="M146.85,51.67h-3.56V87.4h3.56v1.37H129V87.4h3.56V54.22l-14.11,34.6h-1.63L101,53.26V87.4h5.7v1.37H95.35V87.4h4.27V51.67H95.28V50.3h15.88l11.11,25.76L132.6,50.3h14.24Z"/><path id="Trazado_13783" data-name="Trazado 13783" class="cls-3" d="M176.41,88.78V84.42a10.13,10.13,0,0,1-4.24,3.12,15.17,15.17,0,0,1-6.23,1.27q-12.67,0-12.68-13.26V57.83H149.7V56.45h14.24V77.06A12.16,12.16,0,0,0,165.43,84a5.17,5.17,0,0,0,4.49,2.06,7.39,7.39,0,0,0,6.48-4.12V57.83h-3.56V56.46h14.24V87.4h3.56v1.37Z"/><path id="Trazado_13784" data-name="Trazado 13784" class="cls-3" d="M233.05,87.44h3.56v1.38H218.8V87.44h3.56V68.21a12.24,12.24,0,0,0-1.49-6.94,5.19,5.19,0,0,0-4.49-2.06,7.31,7.31,0,0,0-6.49,4.12V87.44h3.57v1.37H195.65V87.44h3.56V57.86h-3.56V56.49h14.24v4.3a10.52,10.52,0,0,1,4.24-3.06,15.5,15.5,0,0,1,6.23-1.27Q233,56.46,233,69.72Z"/><path id="Trazado_13785" data-name="Trazado 13785" class="cls-3" d="M255.83,87.44h3.56v1.38H241.58V87.44h3.57V57.86H242.3V56.48h13.53Z"/><path id="Trazado_13786" data-name="Trazado 13786" class="cls-3" d="M263.67,72.4a15.26,15.26,0,0,1,4.91-12.3,18.58,18.58,0,0,1,12.5-4.19q7.6,0,11.29,3.67a7.58,7.58,0,0,1,2.64,7.6,4.81,4.81,0,0,1-2.39,3.12,5.49,5.49,0,0,1-3.95.52q-4.49-1-4.49-5a29.38,29.38,0,0,1,.25-3.12,17.46,17.46,0,0,0,.18-3.06,3.25,3.25,0,0,0-.43-1.52c-.47-.78-1.59-1.08-3.35-.89q-6.4,1-6.41,15.15t10.47,14.18a11,11,0,0,0,4.92-1.23,9.62,9.62,0,0,0,3.7-3l1,.69a11.51,11.51,0,0,1-4.92,4.19,16.58,16.58,0,0,1-7.33,1.58Q263.66,88.81,263.67,72.4Z"/><path id="Trazado_13787" data-name="Trazado 13787" class="cls-3" d="M337.6,87.44h3.57v1.38H323.36V87.44h3.56V68.21a12.16,12.16,0,0,0-1.5-6.94,5.17,5.17,0,0,0-4.48-2.06,7.31,7.31,0,0,0-6.49,4.12V87.44H318v1.37H300.2V87.44h3.57V44.16H300.2V42.79h14.24v18a10,10,0,0,1,4.21-3.09,15.47,15.47,0,0,1,6.26-1.23q12.68,0,12.68,13.26Z"/><path id="Trazado_13788" data-name="Trazado 13788" class="cls-2" d="M256.47,42.43a5.67,5.67,0,0,1-1.81,4.26,6.09,6.09,0,0,1-4.42,1.75,6.24,6.24,0,0,1-4.45-1.75,5.6,5.6,0,0,1-1.85-4.26,5.73,5.73,0,0,1,1.85-4.29,6.22,6.22,0,0,1,4.45-1.79,6.11,6.11,0,0,1,4.42,1.79A5.8,5.8,0,0,1,256.47,42.43Z"/><path id="Trazado_13789" data-name="Trazado 13789" class="cls-2" d="M65.36,37.11v-.89H62.89a10.42,10.42,0,0,1-5.11,6.31,25.81,25.81,0,0,0-.69-6.31h-.63L50,52.9,43.06,36.22H35.85V59.71h.89V38.13l9.87,23.44h1l8.8-22.82V60.24H54.22v.89H65.34v-.89H63.11V37.11Z"/><path id="Trazado_13790" data-name="Trazado 13790" class="cls-2" d="M54.75,63.35a8.09,8.09,0,0,1,.47,1.24,9.45,9.45,0,0,1,.32,3,11.92,11.92,0,0,1-2,5.94A14.13,14.13,0,0,1,48.75,78a13.19,13.19,0,0,1-6.53,1.79,19.34,19.34,0,0,1-6.78-1.2,18.92,18.92,0,0,1-1.91-.82A15.41,15.41,0,0,1,31.9,76.3a9.45,9.45,0,0,1-1.5-2.06,4.33,4.33,0,0,1-.55-2.34,3.88,3.88,0,0,1,.94-2.16,3.24,3.24,0,0,1,1.61-.88,2.67,2.67,0,0,1,1.8.28,2.84,2.84,0,0,1,1.26,1.39,3,3,0,0,1,.19.94,1.05,1.05,0,0,0-1.47-.23A1,1,0,0,0,34,72.7a1.05,1.05,0,0,0,1.47.23,1.18,1.18,0,0,0,.32-.38h0a3,3,0,0,0,.16-2.19,3.29,3.29,0,0,0-3.66-2.22,3.94,3.94,0,0,0-2,1.07v0h0a5.32,5.32,0,0,0-.74,1.2,4,4,0,0,0-.35,1.4,4.84,4.84,0,0,0,.71,2.7,8.85,8.85,0,0,0,1.71,2.1l.08.08a22.24,22.24,0,0,1-2.15-1.56A23,23,0,0,1,24.91,70a27.41,27.41,0,0,1-3-6.14A31.36,31.36,0,0,1,21,60.62c-.24-1.11-.42-2.24-.57-3.36a37.79,37.79,0,0,1-.17-6.81,25.69,25.69,0,0,1,4.24-12.51L23,38.13c-1.23,1.18-5.46,8.34-4.18,19.33a30.18,30.18,0,0,0,1.82,6.92,26.08,26.08,0,0,0,8.45,11.25A23.7,23.7,0,0,0,35.29,79a21.73,21.73,0,0,0,6.91,1.29,19.27,19.27,0,0,0,7-1.19,24.87,24.87,0,0,0,6.5-3.54,25.84,25.84,0,0,0,5.56-5.73A26.88,26.88,0,0,0,63.51,66c.42-.86.8-1.76,1.16-2.7Z"/><path id="Trazado_13791" data-name="Trazado 13791" class="cls-2" d="M60.86,27.75c-4.36-4-14.39-5.15-26.2.19a26.48,26.48,0,0,0-6.11,3.66h2.24c.44-.33.9-.64,1.37-.94a28,28,0,0,1,3-1.65,33.22,33.22,0,0,1,12-3C52.75,26.14,59,28.75,59,39.47,60.58,38.86,65.36,31.9,60.86,27.75Z"/><path id="Trazado_13792" data-name="Trazado 13792" class="cls-2" d="M27.52,34.94v24.7H24.2v1H38v-1H34.65V34.94h7.77L42,34H18.55v7.12C19.92,33.72,27.52,34.94,27.52,34.94Z"/><path id="Trazado_13793" data-name="Trazado 13793" class="cls-3" d="M160.53,98h.75v2.09h0l.14-.15a1,1,0,0,1,.21-.15,1.45,1.45,0,0,1,.29-.11,1.58,1.58,0,0,1,.38,0,1.43,1.43,0,0,1,.58.12,1.39,1.39,0,0,1,.46.33,1.71,1.71,0,0,1,.3.5,1.81,1.81,0,0,1,.1.61,1.87,1.87,0,0,1-.1.62,1.49,1.49,0,0,1-.29.5,1.44,1.44,0,0,1-1.08.45,1.53,1.53,0,0,1-.6-.12,1,1,0,0,1-.43-.4h0v.45h-.71Zm2.47,3.21a1,1,0,0,0-.06-.33.92.92,0,0,0-.17-.29,1.07,1.07,0,0,0-.28-.19,1,1,0,0,0-.74,0,.84.84,0,0,0-.45.49,1,1,0,0,0,0,.67.85.85,0,0,0,.45.48.88.88,0,0,0,1-.19.79.79,0,0,0,.18-.29.92.92,0,0,0,.06-.33"/><path id="Trazado_13794" data-name="Trazado 13794" class="cls-3" d="M164.05,99.7h.82l.83,2.07h0l.74-2.07h.78l-1.41,3.63a2.53,2.53,0,0,1-.18.37,1.18,1.18,0,0,1-.23.27.87.87,0,0,1-.3.16,1.58,1.58,0,0,1-.43.05,2.17,2.17,0,0,1-.57-.07l.09-.67.19,0,.19,0,.23,0a.4.4,0,0,0,.27-.22,1.29,1.29,0,0,0,.09-.2l.14-.35Z"/><path id="Trazado_13795" data-name="Trazado 13795" class="cls-3" d="M265.52,103.71l1.44-2.6h1l-1.81,3.2,2.28,2.39h-1.26l-1.5-1.61a5.34,5.34,0,0,1-1.33,1.31,3.13,3.13,0,0,1-1.77.48,3.29,3.29,0,0,1-1.2-.2,2.78,2.78,0,0,1-1.62-1.51,3.1,3.1,0,0,1-.24-1.2,2.53,2.53,0,0,1,.19-1,2.73,2.73,0,0,1,.52-.78,3.88,3.88,0,0,1,.73-.61c.27-.19.55-.37.84-.55l-.43-.53a5.65,5.65,0,0,1-.38-.57,4.22,4.22,0,0,1-.28-.61,2.24,2.24,0,0,1,.09-1.62,2.16,2.16,0,0,1,.55-.72,2.56,2.56,0,0,1,.81-.44,2.83,2.83,0,0,1,.95-.16,2.25,2.25,0,0,1,.85.16,2.34,2.34,0,0,1,.73.43,2.17,2.17,0,0,1,.49,2.47,2.69,2.69,0,0,1-.5.71,4.29,4.29,0,0,1-.72.55c-.26.16-.54.32-.82.47Zm-3.23-2.1c-.22.13-.45.27-.67.42a4.92,4.92,0,0,0-.61.5,2.79,2.79,0,0,0-.45.63,1.73,1.73,0,0,0-.16.78,2,2,0,0,0,.65,1.52,2,2,0,0,0,.73.42,2.62,2.62,0,0,0,.88.15,2.34,2.34,0,0,0,.74-.12,3.09,3.09,0,0,0,.65-.34,4.28,4.28,0,0,0,.55-.49,6.75,6.75,0,0,0,.47-.59Zm.69-4.4a1.56,1.56,0,0,0-1.07.38,1.32,1.32,0,0,0-.44,1,1.4,1.4,0,0,0,.11.53,2.57,2.57,0,0,0,.27.52,3.27,3.27,0,0,0,.35.48l.35.41.62-.34a3.51,3.51,0,0,0,.59-.42,2.17,2.17,0,0,0,.45-.55,1.4,1.4,0,0,0,.18-.7,1.31,1.31,0,0,0-.4-1,1.43,1.43,0,0,0-1-.38"/><g id="Grupo_4241" data-name="Grupo 4241"><g id="Grupo_4240" data-name="Grupo 4240"><path id="Trazado_13796" data-name="Trazado 13796" class="cls-3" d="M196.62,102.31a14.16,14.16,0,0,1-.45,1.35,2,2,0,0,1-.9,1,3.2,3.2,0,0,1-1.2.75,4.31,4.31,0,0,1-1.5.3,5.17,5.17,0,0,1-1.65-.3,3.52,3.52,0,0,1-1.35-.9,4.87,4.87,0,0,1-.9-1.5,7.5,7.5,0,0,1,0-4.2,2.47,2.47,0,0,1,.9-1.49,3.16,3.16,0,0,1,1.35-1.05,3.47,3.47,0,0,1,1.8-.3,4.31,4.31,0,0,1,1.5.3,3.2,3.2,0,0,1,1.2.75,2.74,2.74,0,0,1,.75,1.05,4.41,4.41,0,0,1,.3,1.35h-1.95a3.33,3.33,0,0,0-.75-1.2,1.68,1.68,0,0,0-1.2-.45,2.14,2.14,0,0,0-1.8.9,5.08,5.08,0,0,0,0,4.79,1.72,1.72,0,0,0,1.65.9,1.81,1.81,0,0,0,1.35-.45,2.91,2.91,0,0,0,.75-1.35h2.1Z"/><path id="Trazado_13797" data-name="Trazado 13797" class="cls-3" d="M200.36,105.61a4.21,4.21,0,0,1-1.49-.3,2.63,2.63,0,0,1-1.05-.75,3.08,3.08,0,0,1-.75-1.2,3.9,3.9,0,0,1,0-3,5,5,0,0,1,.75-1.2,2.63,2.63,0,0,1,1.05-.75,3.88,3.88,0,0,1,3,0,2.63,2.63,0,0,1,1,.75,4.57,4.57,0,0,1,.75,1,3.62,3.62,0,0,1-1.8,4.8A1.77,1.77,0,0,1,200.36,105.61Zm0-1.5c1,0,1.65-.75,1.65-2.1s-.6-2.09-1.65-2.09-1.64.75-1.64,2.09c0,1.5.44,2.1,1.64,2.1Z"/><path id="Trazado_13798" data-name="Trazado 13798" class="cls-3" d="M208.76,105.46v-4a1.79,1.79,0,0,0-.3-1,1.28,1.28,0,0,0-.9-.3c-.9,0-1.35.45-1.35,1.5v3.9h-1.8V98.71h1.65v1.05a1.35,1.35,0,0,1,.9-.9,3.13,3.13,0,0,1,1.35-.3,2,2,0,0,1,.9.15c.3.15.45.3.75.45a3.18,3.18,0,0,1,.45.75,2,2,0,0,1,.15.9v4.65Z"/><path id="Trazado_13799" data-name="Trazado 13799" class="cls-3" d="M215.2,101h1.65v2a2.34,2.34,0,0,1-.15,1l-.45.9a1.35,1.35,0,0,1-.9.6,4.87,4.87,0,0,1-2.4,0,3.37,3.37,0,0,1-.9-.6c-.15-.3-.45-.6-.45-.9a2.65,2.65,0,0,1-.15-1v-6h1.8v1.8H217v1.2h-3.74v2.84a2.16,2.16,0,0,0,.3,1c.15.3.45.3.75.3a1.13,1.13,0,0,0,.75-.3,2.28,2.28,0,0,0,.3-1V101Z"/><path id="Trazado_13800" data-name="Trazado 13800" class="cls-3" d="M217.6,98V96.32h1.8V98Zm0,7.49V98.72h1.8v6.74Z"/><path id="Trazado_13801" data-name="Trazado 13801" class="cls-3" d="M224.5,105.46v-4a1.79,1.79,0,0,0-.3-1,1.29,1.29,0,0,0-.9-.3c-.9,0-1.35.45-1.35,1.5v3.9h-1.8V98.71h1.65v1.05a1.35,1.35,0,0,1,.9-.9,3.13,3.13,0,0,1,1.35-.3,2,2,0,0,1,.9.15c.3.15.45.3.75.45a3.55,3.55,0,0,1,.45.75,2,2,0,0,1,.15.9v4.65Z"/><path id="Trazado_13802" data-name="Trazado 13802" class="cls-3" d="M228.69,102.61a1.73,1.73,0,0,0,.45,1.2,1.37,1.37,0,0,0,1.05.45,1.09,1.09,0,0,0,.75-.15,1.89,1.89,0,0,0,.45-.6h1.8a3.06,3.06,0,0,1-1.05,1.65,2.59,2.59,0,0,1-1.79.6c-2.25,0-3.45-1.2-3.45-3.75a3.87,3.87,0,0,1,.15-1.35,2.46,2.46,0,0,1,.6-1,2.74,2.74,0,0,1,1-.75,4.41,4.41,0,0,1,1.35-.3,2.82,2.82,0,0,1,2.4,1,4.26,4.26,0,0,1,.75,3Zm2.85-1.2c0-.3,0-.45-.15-.6s-.15-.3-.3-.45-.3-.15-.45-.3-.3-.15-.45-.15a1.31,1.31,0,0,0-.9.45,1.39,1.39,0,0,0-.45,1Z"/><path id="Trazado_13803" data-name="Trazado 13803" class="cls-3" d="M238.29,105.46v-4a1.79,1.79,0,0,0-.3-1,1.28,1.28,0,0,0-.9-.3c-.9,0-1.35.45-1.35,1.5v3.9h-1.8V98.71h1.65v1.05a1.35,1.35,0,0,1,.9-.9,3.13,3.13,0,0,1,1.35-.3,2,2,0,0,1,.9.15c.3.15.45.3.75.45a3.55,3.55,0,0,1,.45.75,2,2,0,0,1,.15.9v4.65Z"/><path id="Trazado_13804" data-name="Trazado 13804" class="cls-3" d="M244.73,101h1.65v2a2.65,2.65,0,0,1-.15,1l-.45.9a1.37,1.37,0,0,1-.9.6,4.88,4.88,0,0,1-2.4,0,3.22,3.22,0,0,1-.9-.6c-.15-.3-.45-.6-.45-.9a2.65,2.65,0,0,1-.15-1v-6h1.8v1.8h3.75v1.2h-3.75v2.84a2.16,2.16,0,0,0,.3,1c.15.3.45.3.75.3a1.11,1.11,0,0,0,.75-.3,2.16,2.16,0,0,0,.3-1V101Z"/><path id="Trazado_13805" data-name="Trazado 13805" class="cls-3" d="M251.18,100.81a1.16,1.16,0,0,0-.3-.75c-.15-.15-.45-.15-.9-.15a1.15,1.15,0,0,0-.75.15c-.15.15-.3.3-.3.45s.15.3.3.45.45.15.9.3a10.34,10.34,0,0,1,1.05.3c.3.15.6.15.9.3a3.22,3.22,0,0,1,.9.6,2.11,2.11,0,0,1-.45,2.7,3.13,3.13,0,0,1-2.25.6,3.84,3.84,0,0,1-2.4-.6,2.09,2.09,0,0,1-.9-1.65h1.8a1.14,1.14,0,0,0,.3.75,2.16,2.16,0,0,0,1,.3,1.84,1.84,0,0,0,.9-.15c.3-.15.3-.3.3-.6s-.15-.45-.3-.45c-.15-.15-.45-.15-.75-.3a7.75,7.75,0,0,0-1.35-.3l-.9-.45a1,1,0,0,1-.6-.75,2,2,0,0,1-.15-.9,1.16,1.16,0,0,1,.15-.75,2.2,2.2,0,0,1,.45-.6,5.4,5.4,0,0,1,.9-.45,3.45,3.45,0,0,1,1.35-.15,2.76,2.76,0,0,1,2.1.6A2.17,2.17,0,0,1,253,101h-1.8Z"/></g></g><g id="Grupo_4242" data-name="Grupo 4242"><path id="Trazado_13806" data-name="Trazado 13806" class="cls-3" d="M175,95.57a5.75,5.75,0,0,0,2.85-1,8,8,0,0,1,3.15-1.2c.6,0,1.05-.15,1.35,0a7.49,7.49,0,0,0-4-1.2,7.41,7.41,0,0,0-6.15,3.14A4.89,4.89,0,0,0,175,95.57Z"/><path id="Trazado_13807" data-name="Trazado 13807" class="cls-3" d="M175.78,98.11a6.44,6.44,0,0,0,2.69-.3,5.53,5.53,0,0,1,3-.45,5.15,5.15,0,0,1,2.85,1,4.06,4.06,0,0,0,1.65.75,7.59,7.59,0,0,0-2.25-4.79,7.22,7.22,0,0,0-2.7-.15,5.57,5.57,0,0,0-2.85,1,8.23,8.23,0,0,1-3.14,1.2H174a5.09,5.09,0,0,1-2.25-.45h-.15a.57.57,0,0,1-.15.3,5,5,0,0,1,1.8.9A4.52,4.52,0,0,0,175.78,98.11Z"/><path id="Trazado_13808" data-name="Trazado 13808" class="cls-3" d="M175,102.31a5.62,5.62,0,0,0,2.84-1,8.18,8.18,0,0,1,3.15-1.2,7.1,7.1,0,0,1,3.3.3,5.12,5.12,0,0,0,1.65.3v-.75a6.64,6.64,0,0,1-2.1-.9,4.61,4.61,0,0,0-2.55-.9,6.86,6.86,0,0,0-2.7.3,5.41,5.41,0,0,1-3,.45,5.07,5.07,0,0,1-2.84-1,4.34,4.34,0,0,0-1.65-.75,8.27,8.27,0,0,0-.45,2.7,8.08,8.08,0,0,0,.3,1.95c.45.15.9.15,1.2.3A4.88,4.88,0,0,0,175,102.31Z"/><path id="Trazado_13809" data-name="Trazado 13809" class="cls-3" d="M178.48,105.16a5.44,5.44,0,0,1-3,.45,5.13,5.13,0,0,1-2.85-1c-.29-.15-.44-.3-.74-.45a7.69,7.69,0,0,0,10.67,2.17,8.35,8.35,0,0,0,.87-.67,5.5,5.5,0,0,0-2.25-.75A6.68,6.68,0,0,0,178.48,105.16Z"/><path id="Trazado_13810" data-name="Trazado 13810" class="cls-3" d="M183.88,101.26A6.74,6.74,0,0,0,178,102a8,8,0,0,1-3.15,1.2h-1a4.81,4.81,0,0,1-2.24-.45c-.3,0-.45-.15-.75-.15a.44.44,0,0,0,.15.3,5.21,5.21,0,0,1,1.79.9,4.53,4.53,0,0,0,2.55.9,6.51,6.51,0,0,0,2.7-.3,5.51,5.51,0,0,1,3-.45,6.91,6.91,0,0,1,2.69.9,7,7,0,0,0,1.8-3.29A6.1,6.1,0,0,1,183.88,101.26Z"/></g><path id="Trazado_13811" data-name="Trazado 13811" class="cls-3" d="M272.81,96.75h1.38l4.41,8.33,4.4-8.33h1.38l-5,9.48h-1.5Z"/><path id="Trazado_13812" data-name="Trazado 13812" class="cls-3" d="M285.22,96.75h8.92v1h-7.69v3h7.39v1h-7.39v3.31h7.74v1h-9Z"/><path id="Trazado_13813" data-name="Trazado 13813" class="cls-3" d="M295.36,96.75h1.83l8.32,8.33V96.75h1.23v9.48h-1.83l-8.32-8.33v8.33h-1.23Z"/><path id="Trazado_13814" data-name="Trazado 13814" class="cls-3" d="M312,97.8h-4.59v-1h10.41v1h-4.59v8.43H312Z"/><path id="Trazado_13815" data-name="Trazado 13815" class="cls-3" d="M318.65,96.75h1.23v7.08c0,.92.3,1.46,2,1.46h4.27c1.66,0,2-.54,2-1.46V96.75h1.23v7.1c0,1.92-.93,2.49-3.23,2.49H321.9c-2.31,0-3.23-.57-3.23-2.49Z"/><path id="Trazado_13816" data-name="Trazado 13816" class="cls-3" d="M330.87,103.25H332v.66c0,.93.48,1.38,2,1.38h3.81c1.78,0,2.31-.39,2.31-1.76,0-1.19-.45-1.49-2-1.49h-2.34c-3.75,0-5-.23-5-2.75,0-2.16,1.23-2.64,3.77-2.64h2.66c3,0,3.81.81,3.81,2.5v.33h-1.15c0-1.51-.18-1.79-3.4-1.79h-1.31c-2.37,0-3.21.14-3.21,1.69,0,1.13.34,1.51,2.26,1.51h3.64c2.39,0,3.4.72,3.4,2.33v.61c0,2.33-1.84,2.5-3.65,2.5h-3.42c-1.8,0-3.38-.32-3.38-2.39Z"/></g></g></svg>