<svg xmlns="http://www.w3.org/2000/svg" viewBox="0 0 204.15 89.11"><defs><style>.cls-1{fill:#ca0028;}.cls-2{fill:#490b0b;}.cls-3{fill:#deb7d4;}.cls-4{fill:#d3afc3;}.cls-5{fill:#ead9e3;}</style></defs><g id="Capa_2" data-name="Capa 2"><g id="Layer_2" data-name="Layer 2"><g id="Grupo_4296" data-name="Grupo 4296"><g id="Grupo_4209" data-name="Grupo 4209"><path id="Trazado_13678" data-name="Trazado 13678" class="cls-1" d="M58.84,28.12a31.76,31.76,0,0,1,.73-7.27,12.49,12.49,0,0,1,2.32-5,9.64,9.64,0,0,1,4.21-3,21.71,21.71,0,0,1,13,0,9.91,9.91,0,0,1,4.25,3,12.4,12.4,0,0,1,2.34,5,31.21,31.21,0,0,1,.73,7.27,29.36,29.36,0,0,1-.79,7.35,12.8,12.8,0,0,1-2.42,5.07,9.85,9.85,0,0,1-4.25,3,18.3,18.3,0,0,1-6.36,1,18.24,18.24,0,0,1-6.3-1,9.81,9.81,0,0,1-4.24-3,13,13,0,0,1-2.43-5.07A29.84,29.84,0,0,1,58.84,28.12Zm5,0a24.23,24.23,0,0,0,.91,7.38,7,7,0,0,0,2.84,4,9.34,9.34,0,0,0,5,1.2,9.41,9.41,0,0,0,5-1.2,7.06,7.06,0,0,0,2.85-4,24.22,24.22,0,0,0,.9-7.38,25,25,0,0,0-.85-7.3A6.82,6.82,0,0,0,77.8,16.9a11.74,11.74,0,0,0-10.34,0,6.59,6.59,0,0,0-2.75,3.92A26.08,26.08,0,0,0,63.88,28.12Z"/><path id="Trazado_13679" data-name="Trazado 13679" class="cls-1" d="M89.66,42.59l.76-3.69a13.84,13.84,0,0,0,2.17.73c.82.22,1.69.4,2.6.56a26.18,26.18,0,0,0,2.79.32c.94.06,1.83.09,2.69.09a10.46,10.46,0,0,0,5.54-1.2,4.37,4.37,0,0,0,1.35-5.74,4.89,4.89,0,0,0-1.62-1.58,12.73,12.73,0,0,0-2.64-1.24c-1-.37-2.3-.75-3.74-1.14a19.79,19.79,0,0,1-3.67-1.23A11.14,11.14,0,0,1,93,26.63a7.18,7.18,0,0,1-1.81-2.52,8.36,8.36,0,0,1-.62-3.31,7.92,7.92,0,0,1,3-6.57q3-2.34,8.76-2.34a31.13,31.13,0,0,1,3.34.17,23.7,23.7,0,0,1,3,.53,24.18,24.18,0,0,1,2.55.76l-.7,3.75c-.78-.23-1.58-.45-2.4-.64a22.41,22.41,0,0,0-2.7-.47,27.76,27.76,0,0,0-3.16-.18A9.25,9.25,0,0,0,97.07,17a3.85,3.85,0,0,0-1.78,3.35,3.65,3.65,0,0,0,.58,2.13A4.64,4.64,0,0,0,97.54,24,18.73,18.73,0,0,0,100.06,25c1,.33,2,.65,3.13,1a41.79,41.79,0,0,1,4,1.35,11.79,11.79,0,0,1,3,1.75,6.93,6.93,0,0,1,2,2.58,9.32,9.32,0,0,1,.67,3.69,9.43,9.43,0,0,1-.56,3.37,6.47,6.47,0,0,1-1.7,2.55A10.06,10.06,0,0,1,108,43a13.89,13.89,0,0,1-3.37,1.06,22,22,0,0,1-4,.35,34.74,34.74,0,0,1-4-.23c-1.31-.16-2.56-.37-3.75-.62A15.91,15.91,0,0,1,89.66,42.59Z"/><path id="Trazado_13680" data-name="Trazado 13680" class="cls-1" d="M116.43,36.32a8.41,8.41,0,0,1,1.21-4.66,8,8,0,0,1,3.57-2.9,25.71,25.71,0,0,1,5.89-1.67c2.34-.41,5.06-.75,8.14-1v-4.4a5,5,0,0,0-1.75-4.13,8.22,8.22,0,0,0-5.27-1.43c-.79,0-1.67,0-2.67.12a28.6,28.6,0,0,0-3,.4c-1,.2-2.11.45-3.25.76l-.88-3.92a38.12,38.12,0,0,1,5.16-1.17,31.21,31.21,0,0,1,4.92-.41A17.08,17.08,0,0,1,135,13a8,8,0,0,1,3.93,3.25,10.17,10.17,0,0,1,1.32,5.39V36.79a4.52,4.52,0,0,0,.56,2.69,1.81,1.81,0,0,0,1.49.71,4.78,4.78,0,0,0,.76-.09,5.62,5.62,0,0,0,.82-.27l.59,3.64a8.9,8.9,0,0,1-1.85.73,7.68,7.68,0,0,1-2,.27,4.81,4.81,0,0,1-3.34-1.11A5.46,5.46,0,0,1,135.66,40a25.61,25.61,0,0,1-3.1,2.2,16.24,16.24,0,0,1-3.75,1.64,15.63,15.63,0,0,1-4.45.62,9.2,9.2,0,0,1-3.25-.53,6.78,6.78,0,0,1-2.49-1.58A7,7,0,0,1,117,39.81,9.87,9.87,0,0,1,116.43,36.32Zm5-.4a5.23,5.23,0,0,0,1.23,3.77,4.52,4.52,0,0,0,3.4,1.26,11.06,11.06,0,0,0,3.28-.5,14.65,14.65,0,0,0,3.19-1.4,12.29,12.29,0,0,0,2.73-2.14V29c-2,.19-3.91.43-5.63.7a21.12,21.12,0,0,0-4.42,1.14,6.57,6.57,0,0,0-2.81,2,4.88,4.88,0,0,0-1,3.1Z"/><path id="Trazado_13681" data-name="Trazado 13681" class="cls-1" d="M172.33,44.35a8.4,8.4,0,0,1-1.73-.18,5.56,5.56,0,0,1-1.9-.87A26.33,26.33,0,0,1,166,41.16q-1.62-1.44-3.89-3.84L153,28.06V43.88h-4.69V.52H153v21l10.25,10.49q3,3,4.77,4.54a15.31,15.31,0,0,0,2.9,2.1,4.55,4.55,0,0,0,2,.56l.38,0a3.43,3.43,0,0,0,.44-.09l.11,5a2.09,2.09,0,0,1-.7.15C172.88,44.34,172.6,44.35,172.33,44.35ZM158.79,29.7l-3.86-2.17q1.88-1.63,3.77-3.34a39.87,39.87,0,0,0,3.55-3.57,33.41,33.41,0,0,0,3-4A20.75,20.75,0,0,0,167.4,12l4.87.47a20.61,20.61,0,0,1-2.38,5.18,36.79,36.79,0,0,1-3.45,4.6,52.86,52.86,0,0,1-3.9,4c-1.33,1.22-2.57,2.39-3.75,3.48Z"/><path id="Trazado_13682" data-name="Trazado 13682" class="cls-1" d="M176,36.32a8.51,8.51,0,0,1,1.2-4.66,8.07,8.07,0,0,1,3.58-2.9,25.57,25.57,0,0,1,5.89-1.67q3.51-.61,8.14-1v-4.4A5,5,0,0,0,193,17.54a8.22,8.22,0,0,0-5.27-1.43q-1.19,0-2.67.12a28.6,28.6,0,0,0-3.05.4c-1,.2-2.12.45-3.25.76l-.88-3.92a37.78,37.78,0,0,1,5.16-1.17,31.21,31.21,0,0,1,4.92-.41A17.08,17.08,0,0,1,194.51,13a8,8,0,0,1,3.93,3.25,10.27,10.27,0,0,1,1.32,5.39V36.79a4.59,4.59,0,0,0,.55,2.69,1.82,1.82,0,0,0,1.5.71,4.92,4.92,0,0,0,.76-.09,6,6,0,0,0,.82-.27l.58,3.64a9.16,9.16,0,0,1-1.84.73,7.68,7.68,0,0,1-2,.27,4.81,4.81,0,0,1-3.34-1.11A5.53,5.53,0,0,1,195.18,40a24.13,24.13,0,0,1-3.1,2.2,15.87,15.87,0,0,1-3.75,1.64,15.51,15.51,0,0,1-4.44.62,9.29,9.29,0,0,1-3.26-.53,7,7,0,0,1-2.49-1.58,7.09,7.09,0,0,1-1.61-2.55A9.87,9.87,0,0,1,176,36.32Zm5-.4a5.19,5.19,0,0,0,1.23,3.77,4.52,4.52,0,0,0,3.4,1.26,11.11,11.11,0,0,0,3.28-.5,14.86,14.86,0,0,0,3.19-1.4,12.52,12.52,0,0,0,2.73-2.14V29c-2,.19-3.91.43-5.63.7a21.12,21.12,0,0,0-4.42,1.14,6.66,6.66,0,0,0-2.82,2,4.93,4.93,0,0,0-1,3.1Z"/></g><g id="Grupo_4215" data-name="Grupo 4215"><g id="Grupo_4213" data-name="Grupo 4213"><g id="Grupo_4211" data-name="Grupo 4211"><g id="Grupo_4210" data-name="Grupo 4210"><path id="Trazado_13683" data-name="Trazado 13683" class="cls-2" d="M145.08,60.38a5.28,5.28,0,0,1-.5,1.48,4,4,0,0,1-.87,1.13,3.87,3.87,0,0,1-1.21.74A4.42,4.42,0,0,1,141,64a4.73,4.73,0,0,1-1.74-.31,3.83,3.83,0,0,1-1.4-1,4.55,4.55,0,0,1-.93-1.55,6.37,6.37,0,0,1-.33-2.16,7.31,7.31,0,0,1,.3-2.18,4.56,4.56,0,0,1,.89-1.63,3.75,3.75,0,0,1,1.4-1,4.64,4.64,0,0,1,1.84-.36,5,5,0,0,1,1.62.27,4,4,0,0,1,1.25.73,3.71,3.71,0,0,1,.83,1.1,4.25,4.25,0,0,1,.38,1.35h-2a2.17,2.17,0,0,0-.77-1.27,2.22,2.22,0,0,0-3.11.42l0,0a5.54,5.54,0,0,0,0,4.94,2,2,0,0,0,1.75.89,2.08,2.08,0,0,0,1.43-.49,2.6,2.6,0,0,0,.74-1.38Z"/><path id="Trazado_13684" data-name="Trazado 13684" class="cls-2" d="M149,63.84a4,4,0,0,1-1.54-.27,3.17,3.17,0,0,1-1.85-1.94,4.27,4.27,0,0,1-.24-1.51,4.37,4.37,0,0,1,.25-1.52,3.27,3.27,0,0,1,.72-1.18,3.38,3.38,0,0,1,1.14-.75,4.33,4.33,0,0,1,3,0,3.29,3.29,0,0,1,1.13.75,3.12,3.12,0,0,1,.71,1.17,4.63,4.63,0,0,1,0,3.06,3.16,3.16,0,0,1-1.85,1.93A3.91,3.91,0,0,1,149,63.84Zm0-1.57c1.14,0,1.71-.72,1.71-2.15S150.14,58,149,58s-1.71.71-1.71,2.14S147.86,62.26,149,62.27Z"/><path id="Trazado_13685" data-name="Trazado 13685" class="cls-2" d="M157.78,63.65V59.37a1.62,1.62,0,0,0-.27-1.11,1.25,1.25,0,0,0-.93-.28c-1,0-1.45.54-1.45,1.61v4h-1.87V56.58H155v1a2.27,2.27,0,0,1,.88-.91,3.16,3.16,0,0,1,2.34-.16A1.94,1.94,0,0,1,159,57a2.17,2.17,0,0,1,.49.74,2.91,2.91,0,0,1,.18,1v4.91Z"/><path id="Trazado_13686" data-name="Trazado 13686" class="cls-2" d="M164.49,59h1.73v2a3.19,3.19,0,0,1-.16,1.07,2.43,2.43,0,0,1-1.41,1.53,3.79,3.79,0,0,1-2.6,0,2.55,2.55,0,0,1-.9-.62,2.37,2.37,0,0,1-.51-.9,3.64,3.64,0,0,1-.16-1.09V54.67h1.84v1.91h3.91V57.9h-3.91v2.9a1.87,1.87,0,0,0,.25,1,.94.94,0,0,0,.83.37,1,1,0,0,0,.82-.36,1.67,1.67,0,0,0,.27-1Z"/><path id="Trazado_13687" data-name="Trazado 13687" class="cls-2" d="M167,55.74V54h1.86v1.74Zm0,7.91V56.59h1.86v7.06Z"/><path id="Trazado_13688" data-name="Trazado 13688" class="cls-2" d="M174.26,63.65V59.37a1.62,1.62,0,0,0-.27-1.11,1.25,1.25,0,0,0-.93-.28c-1,0-1.45.54-1.45,1.61v4h-1.87V56.58h1.78v1a2.27,2.27,0,0,1,.88-.91,3.16,3.16,0,0,1,2.34-.16,2,2,0,0,1,.74.45,2.15,2.15,0,0,1,.48.74,2.7,2.7,0,0,1,.19,1v4.91Z"/><path id="Trazado_13689" data-name="Trazado 13689" class="cls-2" d="M178.67,60.61a2,2,0,0,0,.46,1.27,1.45,1.45,0,0,0,1.12.48,1.59,1.59,0,0,0,.8-.21,1,1,0,0,0,.46-.58h1.92a3.12,3.12,0,0,1-1.15,1.68,3.32,3.32,0,0,1-1.95.59c-2.36,0-3.53-1.29-3.53-3.85a4.33,4.33,0,0,1,.23-1.48,3.19,3.19,0,0,1,.66-1.14,3,3,0,0,1,1.07-.72,3.82,3.82,0,0,1,1.45-.25,3,3,0,0,1,2.48,1,5,5,0,0,1,.84,3.16Zm2.94-1.18a1.8,1.8,0,0,0-.14-.68,1.34,1.34,0,0,0-.32-.49,1.24,1.24,0,0,0-.46-.29,1.6,1.6,0,0,0-.53-.09,1.33,1.33,0,0,0-1,.4,1.73,1.73,0,0,0-.46,1.14Z"/><path id="Trazado_13690" data-name="Trazado 13690" class="cls-2" d="M188.7,63.65V59.37a1.62,1.62,0,0,0-.27-1.11,1.26,1.26,0,0,0-.93-.28c-1,0-1.45.54-1.45,1.61v4h-1.87V56.58H186v1a2.2,2.2,0,0,1,.88-.91,3.16,3.16,0,0,1,2.34-.16,2,2,0,0,1,.74.45,2.15,2.15,0,0,1,.48.74,2.51,2.51,0,0,1,.18,1v4.91Z"/><path id="Trazado_13691" data-name="Trazado 13691" class="cls-2" d="M195.4,59h1.74v2a3.47,3.47,0,0,1-.16,1.07,2.57,2.57,0,0,1-.52.91,2.51,2.51,0,0,1-.89.62,3.82,3.82,0,0,1-2.61,0,2.51,2.51,0,0,1-.89-.62,2.24,2.24,0,0,1-.51-.9A3.64,3.64,0,0,1,191.4,61V54.67h1.84v1.91h3.91V57.9h-3.91v2.9a1.73,1.73,0,0,0,.25,1,.91.91,0,0,0,.82.37,1,1,0,0,0,.83-.36,1.67,1.67,0,0,0,.27-1Z"/><path id="Trazado_13692" data-name="Trazado 13692" class="cls-2" d="M202.15,58.73a1,1,0,0,0-.37-.73,1.75,1.75,0,0,0-.95-.21,2,2,0,0,0-.81.14.45.45,0,0,0-.29.45.52.52,0,0,0,.29.48,3.7,3.7,0,0,0,.86.32c.4.12.78.22,1.15.31a8.84,8.84,0,0,1,1,.3,2,2,0,0,1,.86.62,1.81,1.81,0,0,1,.3,1.08,2.08,2.08,0,0,1-.78,1.72,3.7,3.7,0,0,1-2.31.62,4,4,0,0,1-2.5-.69,2.25,2.25,0,0,1-.9-1.77h1.92a.93.93,0,0,0,.39.78,1.87,1.87,0,0,0,1.08.27,2.22,2.22,0,0,0,.88-.17.59.59,0,0,0,.37-.57.54.54,0,0,0-.34-.53,5.25,5.25,0,0,0-.79-.27c-.6-.14-1.07-.27-1.44-.38a4,4,0,0,1-.92-.42,1.84,1.84,0,0,1-.69-.72,2,2,0,0,1-.2-.87,2.41,2.41,0,0,1,.16-.84,1.6,1.6,0,0,1,.52-.66,2.52,2.52,0,0,1,.92-.44,4.89,4.89,0,0,1,1.37-.16,3.54,3.54,0,0,1,2.26.59,2.27,2.27,0,0,1,.8,1.73Z"/></g></g><g id="Grupo_4212" data-name="Grupo 4212"><path id="Trazado_13693" data-name="Trazado 13693" class="cls-2" d="M122.54,53.28a6.25,6.25,0,0,0,2.91-1.08,7,7,0,0,1,3.26-1.2,8.51,8.51,0,0,1,1.43-.07,8,8,0,0,0-10.67,2A6.29,6.29,0,0,0,122.54,53.28Z"/><path id="Trazado_13694" data-name="Trazado 13694" class="cls-2" d="M123.31,56a5.21,5.21,0,0,0,2.78-.38,6.59,6.59,0,0,1,6.17.69,5.4,5.4,0,0,0,1.65.81,8,8,0,0,0-2.36-5,6.19,6.19,0,0,0-2.74-.2,6.25,6.25,0,0,0-2.91,1.08,7,7,0,0,1-3.26,1.2,8.44,8.44,0,0,1-1.12.08,7.37,7.37,0,0,1-2.33-.41l-.21-.07c-.07.12-.14.24-.2.36a6.17,6.17,0,0,1,1.9.91A5.12,5.12,0,0,0,123.31,56Z"/><path id="Trazado_13695" data-name="Trazado 13695" class="cls-2" d="M122.54,60.37a6.25,6.25,0,0,0,2.91-1.08,7.8,7.8,0,0,1,6.71-.86,7.14,7.14,0,0,0,1.71.36,7.35,7.35,0,0,0,.07-.82,6,6,0,0,1-2.14-1,5.71,5.71,0,0,0-5.41-.6,6.59,6.59,0,0,1-6.17-.69,5.44,5.44,0,0,0-1.79-.84,8,8,0,0,0-.29,4.86,10,10,0,0,1,1.31.33A6.24,6.24,0,0,0,122.54,60.37Z"/><path id="Trazado_13696" data-name="Trazado 13696" class="cls-2" d="M126.21,63.36a6.56,6.56,0,0,1-6.17-.69q-.39-.26-.81-.48a8,8,0,0,0,11.11,2.26,8.15,8.15,0,0,0,.93-.71A4.91,4.91,0,0,0,129,63,5.18,5.18,0,0,0,126.21,63.36Z"/><path id="Trazado_13697" data-name="Trazado 13697" class="cls-2" d="M131.91,59.25a7,7,0,0,0-6,.77,7.1,7.1,0,0,1-3.25,1.2,8.57,8.57,0,0,1-1.13.07,6.89,6.89,0,0,1-2.33-.41c-.25-.08-.49-.15-.75-.21l.15.37a5.92,5.92,0,0,1,1.91.92,5.74,5.74,0,0,0,5.41.6,6,6,0,0,1,3.17-.43,5.8,5.8,0,0,1,2.81,1,8,8,0,0,0,1.83-3.48A7.4,7.4,0,0,1,131.91,59.25Z"/></g></g><g id="Grupo_4214" data-name="Grupo 4214"><path id="Trazado_13698" data-name="Trazado 13698" class="cls-2" d="M102.7,63.23V55.57h.88v2.65a3.77,3.77,0,0,1,.92-.46,3,3,0,0,1,.9-.15,1.62,1.62,0,0,1,1.41.72,3.7,3.7,0,0,1,.49,2.06,4.88,4.88,0,0,1-.27,1.78,1.92,1.92,0,0,1-.86,1,3.17,3.17,0,0,1-1.49.31,7,7,0,0,1-.91-.06C103.44,63.38,103.08,63.31,102.7,63.23Zm.88-.54.6.1a4.21,4.21,0,0,0,.5,0,1.93,1.93,0,0,0,1-.23,1.5,1.5,0,0,0,.56-.75,4.38,4.38,0,0,0,.18-1.4,3.71,3.71,0,0,0-.15-1.15,1.44,1.44,0,0,0-.44-.7,1.13,1.13,0,0,0-.71-.24,2.3,2.3,0,0,0-1,.23,4.68,4.68,0,0,0-.54.3Z"/><path id="Trazado_13699" data-name="Trazado 13699" class="cls-2" d="M109.23,65.57l.72-2.19h-.17l-2.18-5.65,1,0,1.74,4.9,1.52-4.9.9,0-2.59,7.9Z"/></g></g><path id="Trazado_13700" data-name="Trazado 13700" class="cls-3" d="M56.24,61h0a7.29,7.29,0,0,0-5.12-5.24c-2-.76-4.85-1.19-6.67,1.12a6,6,0,0,0-1.13,4.81c0,.26.1.64.16,1.08.28,1.94.85,5.94,1.47,6.44.67.05,7.37,0,9.41-1.62A5.93,5.93,0,0,0,56.24,61Z"/><path id="Trazado_13701" data-name="Trazado 13701" class="cls-3" d="M42.68,63.66a19.39,19.39,0,0,1-.25-2.15A12.37,12.37,0,0,0,42,58.67,5.64,5.64,0,0,0,36.42,55a7,7,0,0,0-1.12.09c-2.74.4-4.62,2.36-5.3,5.54-.91,4.31,4.12,6,7.46,7.06l.59.2c.43.14,1,.37,1.54.61a9.93,9.93,0,0,0,4,1.15,26.35,26.35,0,0,0-.77-5.37C42.76,64.06,42.72,63.84,42.68,63.66Z"/><path id="Trazado_13702" data-name="Trazado 13702" class="cls-3" d="M40.94,73.63c.78-.92,1.86-2.18,1.37-3a3.79,3.79,0,0,0-1.78-.86,8.22,8.22,0,0,1-.83-.3l-.64-.31a15.35,15.35,0,0,0-2.37-1,8.11,8.11,0,0,0-2.19-.32,6.6,6.6,0,0,0-5.1,2.53,6.55,6.55,0,0,1-1.7,1.22c-1.11.63-2.15,1.23-2.16,2.5a2.41,2.41,0,0,0,.83,1.75l.38.45a4.12,4.12,0,0,1,.69,1.41c.07.22.15.44.25.69a4,4,0,0,0,3.11,2.44,7.33,7.33,0,0,0,6.2-2,29,29,0,0,0,3.28-4.43A7.29,7.29,0,0,1,40.94,73.63Z"/><path id="Trazado_13703" data-name="Trazado 13703" class="cls-3" d="M57.49,69.77a13.57,13.57,0,0,0-6.55,0L49.12,70l-.39,0a9.87,9.87,0,0,1-2.82.08,2.34,2.34,0,0,0-.45-.07.33.33,0,0,0-.17,0c-.1.07-.18.28-.25.69-.12,2.45,2.7,4.71,4.55,6.2l.23.18a8.52,8.52,0,0,0,4.12,2.21,5.9,5.9,0,0,0,3.57-1.19l.27-.16a3.94,3.94,0,0,0,2-2,4.31,4.31,0,0,0,.09-1.34,5.16,5.16,0,0,1,.06-1.24h0A3.21,3.21,0,0,0,57.49,69.77Z"/><path id="Trazado_13704" data-name="Trazado 13704" class="cls-3" d="M46.39,87.29c1.47-1.82,4.73-6.26,3.22-8.19C48.8,78.06,48,77,47.28,76c-1.55-2.13-3-4.14-3.63-4.2h0a.15.15,0,0,0-.09,0,43,43,0,0,0-4.89,6.28h0c-.91,1.56-1.84,4.85-1.13,6.7a3.2,3.2,0,0,0,1.06,1.3,6.32,6.32,0,0,1,.79.76l.42.54a3.85,3.85,0,0,0,1.35,1.28A4.08,4.08,0,0,0,46.39,87.29Z"/><path id="Trazado_13705" data-name="Trazado 13705" class="cls-4" d="M46.16,26.15c.2-.76,1.81-7.41-1.4-8.62a2.2,2.2,0,0,0-.76-.16,1.75,1.75,0,0,0-.81.22c-1.85,1-2.73,5.51-3.2,7.91-.13.68-.24,1.27-.35,1.67l0,.1a20.1,20.1,0,0,1-2.81,6.82A9.13,9.13,0,0,1,34.43,36c-1,.68-2.12,1.38-2.4,2.21-.37,1.09,0,1.48.27,1.67a6,6,0,0,0,4,.06A10.67,10.67,0,0,0,40,38.45C43.56,35.37,45,30.48,46.16,26.15Z"/><path id="Trazado_13706" data-name="Trazado 13706" class="cls-3" d="M30.42,37.9a6.24,6.24,0,0,1,2.81-2.73,8.31,8.31,0,0,0,2.1-1.68,1.13,1.13,0,0,1,.1-.13,13.3,13.3,0,0,0-2-4.84,15.87,15.87,0,0,0-10.54-7.17c-1.07-.19-2.16-.44-3.32-.69A35.81,35.81,0,0,0,12,19.51a8.43,8.43,0,0,0-6,2.06,14.17,14.17,0,0,1-2.62,1.7C1.85,24.15.21,25.06,0,26.22a2.53,2.53,0,0,0,.82,2,14.39,14.39,0,0,0,3,2.4,17.89,17.89,0,0,1,2.77,2.13A19.06,19.06,0,0,1,8.39,35a16.37,16.37,0,0,0,1.89,2.27c1.42,1.35,6,3.23,11.47,3,.51,0,1.05,0,1.6-.06a31.87,31.87,0,0,0,6.88-.75A3.23,3.23,0,0,1,30.42,37.9Z"/><path id="Trazado_13707" data-name="Trazado 13707" class="cls-3" d="M34,41.68a4,4,0,0,1-2.22-.51,2.08,2.08,0,0,1-.32-.27,33.87,33.87,0,0,1-6.43.65c-.55,0-1.08,0-1.59.06a22.16,22.16,0,0,1-5.57-.45,52.46,52.46,0,0,1-9.12-.45c-1.24-.16-5.46-1-5.49.91,0,1.11,2.62,2.3,3.44,2.86a17.6,17.6,0,0,0,9.81,2.66,37.65,37.65,0,0,0,11.05-1.71c3.19-1,8.41-2.14,11.13-4.72A14,14,0,0,1,34,41.68Z"/><path id="Trazado_13708" data-name="Trazado 13708" class="cls-3" d="M50.29,9.81c-.61-1.33-1.39-2.27-2-2.39h-.13a.88.88,0,0,0-.62.3c-1,.94-.53,3.62-.17,5.58a17.52,17.52,0,0,1,.32,2.29,21.44,21.44,0,0,1-.14,2.89c1,2.13.59,5.29.24,7,.24-.36.48-.73.72-1.12C51.81,19,52.38,14.41,50.29,9.81Z"/><path id="Trazado_13709" data-name="Trazado 13709" class="cls-5" d="M34.69,27.34a17.77,17.77,0,0,1,1.94,4.11,26.16,26.16,0,0,0,1.79-5.1l0-.1c.1-.37.21-.94.34-1.6.57-2.92,1.43-7.34,3.69-8.6a2.77,2.77,0,0,1,2.43-.12,4,4,0,0,1,.43.19A20.35,20.35,0,0,0,44.08,8C42.47,4.08,37.94-.78,33.21.11c-1.82.33-2.12,1.56-3.27,2.8-1.77,1.91-1.65,0-3.89.24-4,.5-4.59,8.06-4.53,11.07a44.43,44.43,0,0,0,.36,5.16c.54.12,1.07.22,1.59.31A16.91,16.91,0,0,1,34.69,27.34Z"/><path id="Trazado_13710" data-name="Trazado 13710" class="cls-2" d="M47.8,49a6.35,6.35,0,0,0-.22-2.74,74.62,74.62,0,0,0-4-9.27c-2,4.38-7.77,6.95-7.77,6.95a30,30,0,0,0,9.81,6.44,2.35,2.35,0,0,0,.95.08c2.72,2.45,10.11,8,24.05,11l-1.11.13a28.69,28.69,0,0,0-2.93.6c-.49.12-1,.28-1.44.43a14.12,14.12,0,0,0-1.41.54,15.42,15.42,0,0,0-2.65,1.44,11.37,11.37,0,0,0-2.21,2s0,0,0,0l.18.21h0a19.73,19.73,0,0,1,5.22-2.06c.9-.24,1.81-.41,2.73-.56s1.85-.27,2.78-.35,1.86-.16,2.8-.2,1.88-.07,2.82-.13c1.39-.09,5.34-.22,8.68-.2,4.78-.14,8.74.35,13.72.12V60C60.3,62.36,50.05,52.12,47.8,49Z"/></g></g></g></svg>