<svg xmlns="http://www.w3.org/2000/svg" viewBox="0 0 27 27"><defs><style>.cls-1{fill:#ededed;}.cls-2{fill:#cf002c;}.cls-3{fill:#0d4ca5;}.cls-4{fill:#649a44;}.cls-5{fill:#fdd151;}</style></defs><g id="Capa_2" data-name="Capa 2"><g id="Layer_2" data-name="Layer 2"><g id="Grupo_4315" data-name="Grupo 4315"><circle id="Elipse_3" data-name="Elipse 3" class="cls-1" cx="13.5" cy="13.5" r="13.5"/><path id="Trazado_232" data-name="Trazado 232" class="cls-2" d="M13.5,0A13.46,13.46,0,0,0,1.37,7.8H25.63A13.46,13.46,0,0,0,13.5,0Z"/><path id="Trazado_233" data-name="Trazado 233" class="cls-3" d="M13.5,27a13.46,13.46,0,0,0,12.13-7.8H1.37A13.46,13.46,0,0,0,13.5,27Z"/><path id="Trazado_234" data-name="Trazado 234" class="cls-4" d="M16.89,9.5l-1.27,1.28a3,3,0,1,1-4.24,0L10.1,9.5a4.8,4.8,0,1,0,6.79,0Z"/><path id="Trazado_235" data-name="Trazado 235" class="cls-5" d="M13.5,11.11,14,12.49h1.44l-1.17.85.45,1.37-1.17-.85-1.17.85.45-1.37-1.17-.85h1.44Z"/></g></g></g></svg>