<svg xmlns="http://www.w3.org/2000/svg" viewBox="0 0 77.07 77.03"><defs><style>.cls-1{fill:#a7845d;}</style></defs><g id="Capa_2" data-name="Capa 2"><g id="Capa_1-2" data-name="Capa 1"><g id="Grupo_1814" data-name="Grupo 1814"><path id="Trazado_2113" data-name="Trazado 2113" class="cls-1" d="M41,77H36.14a3.63,3.63,0,0,0-.57-.13,36.66,36.66,0,0,1-10-2.14A38.5,38.5,0,1,1,57.84,5.21,37.48,37.48,0,0,1,76.49,32c.25,1.37.39,2.77.58,4.16v4.67c0,.24-.1.48-.13.72-.21,1.51-.34,3-.63,4.54a38.48,38.48,0,0,1-31.13,30.4C43.78,76.68,42.37,76.84,41,77ZM62,19.3l-5.61,2a1,1,0,0,1-1.2-.25,10.12,10.12,0,0,0-11.63-1.73A10.29,10.29,0,0,0,38,29.73c0,.34.08.67.13,1.08A29.29,29.29,0,0,1,17,20.05a10.51,10.51,0,0,0,2.92,13.63l-.13.21-4.18-1.17A9.92,9.92,0,0,0,17.83,39a10.31,10.31,0,0,0,5.7,3.64l0,.22H19.15A10.59,10.59,0,0,0,28.65,50,21.21,21.21,0,0,1,14,54.36a4.19,4.19,0,0,0,.8.58,28.3,28.3,0,0,0,12.69,3.82,27.91,27.91,0,0,0,17.3-4.24A29.17,29.17,0,0,0,58.39,29.11,1.3,1.3,0,0,1,59,27.92a19.17,19.17,0,0,0,4.48-4.81c-.72.25-1.3.47-1.88.66s-1.15.34-1.74.47-1.17.23-1.75.34A11.66,11.66,0,0,0,62,19.3Z"/></g></g></g></svg>