<svg xmlns="http://www.w3.org/2000/svg" viewBox="0 0 27.35 27.33"><defs><style>.cls-1{fill:#ededed;}.cls-2{fill:#3282ea;}.cls-3{fill:#fdd151;}</style></defs><g id="Capa_2" data-name="Capa 2"><g id="Layer_2" data-name="Layer 2"><circle id="Elipse_5" data-name="Elipse 5" class="cls-1" cx="13.69" cy="13.68" r="13.65"/><path id="SVGCleanerId_0" data-name="SVGCleanerId 0" class="cls-2" d="M13.68,10.11h13.2a13.6,13.6,0,0,0-1.53-3.57H13.68Z"/><g id="Grupo_111" data-name="Grupo 111"><path id="Trazado_239" data-name="Trazado 239" class="cls-2" d="M5.16,24.38h17a13.82,13.82,0,0,0,3.16-3.57H2A13.6,13.6,0,0,0,5.16,24.38Z"/><path id="Trazado_240" data-name="Trazado 240" class="cls-2" d="M13.68,0V3h8.51A13.64,13.64,0,0,0,13.68,0Z"/></g><g id="Grupo_112" data-name="Grupo 112"><path id="SVGCleanerId_0-2" data-name="SVGCleanerId 0-2" class="cls-2" d="M13.68,10.11h13.2a13.6,13.6,0,0,0-1.53-3.57H13.68Z"/></g><path id="Trazado_241" data-name="Trazado 241" class="cls-2" d="M0,13.68a13.94,13.94,0,0,0,.47,3.57H26.88a13.52,13.52,0,0,0,.47-3.57Z"/><path id="Trazado_242" data-name="Trazado 242" class="cls-3" d="M11.89,8l-1.67.78.89,1.62L9.3,10.06l-.23,1.83L7.81,10.55,6.54,11.89l-.23-1.83-1.81.35.89-1.62L3.72,8l1.67-.79L4.5,5.6,6.31,6l.23-1.83L7.81,5.46,9.07,4.12,9.3,6l1.81-.35-.89,1.62Z"/></g></g></svg>