<?xml version="1.0" encoding="utf-8"?>
<!-- Generator: Adobe Illustrator 25.4.1, SVG Export Plug-In . SVG Version: 6.00 Build 0)  -->
<svg version="1.1" id="Capa_1" xmlns="http://www.w3.org/2000/svg" xmlns:xlink="http://www.w3.org/1999/xlink" x="0px" y="0px"
	 viewBox="0 0 1080 1080" style="enable-background:new 0 0 1080 1080;" xml:space="preserve">
<style type="text/css">
	.st0{fill:#7C7C7C;}
	.st1{fill:#A3A3A2;}
	.st2{fill:#EAE5DC;}
	.st3{fill:#DAD7D0;enable-background:new    ;}
	.st4{fill:#DAD7D0;}
	.st5{opacity:0.81;fill:#DAB1D0;enable-background:new    ;}
	.st6{fill:none;stroke:#FFFFFF;stroke-width:3;stroke-linecap:round;stroke-linejoin:round;}
	.st7{fill:none;stroke:#895874;stroke-width:2;stroke-miterlimit:10;}
	.st8{fill:#895874;stroke:#895874;stroke-width:2;stroke-miterlimit:10;}
	.st9{fill:#895874;}
	.st10{fill:none;}
</style>
<g id="casa_2_dorm">
	<polygon class="st0" points="264.1,1379 332.6,1370.2 331.5,1520.9 333.3,1521.2 332.9,1641.9 261.3,1633.1 	"/>
	<polygon class="st1" points="273.3,1448 298.9,1446.4 298.9,1483.6 273.3,1484 	"/>
	<polygon class="st0" points="275.2,1450.6 279.3,1450.3 279.3,1481 275,1481.2 	"/>
	<rect x="279.3" y="1450.3" class="st2" width="2.1" height="30.7"/>
	<polygon class="st3" points="281.4,1450.3 296.6,1449.7 296.6,1480.6 281.4,1481 	"/>
	<path class="st1" d="M332.9,1521.2l188.8,3.9l16.9-1.1v146.1l-205.8-28.2C332.9,1641.9,332.9,1521.6,332.9,1521.2z"/>
	<polygon class="st3" points="538.7,1524 670.3,1518.7 670.3,1624.6 538.7,1670.2 	"/>
	<polygon class="st3" points="332.9,1364.5 522.1,1339.8 522.1,1525.1 331.5,1521.4 	"/>
	<polygon class="st1" points="344.3,1401.9 405.7,1396.3 405.7,1480.3 343.6,1481.9 	"/>
	<polygon class="st2" points="353.7,1406.2 393.6,1402.6 393.6,1477.1 353.4,1478.2 	"/>
	<path class="st3" d="M393.6,1402.6l9.5-0.9v75.5l-9.5-0.1C393.6,1477.1,393.6,1403.1,393.6,1402.6z"/>
	<polygon class="st0" points="403.4,1399.1 403.4,1401.7 353.7,1406.2 346.7,1404.5 	"/>
	<polygon class="st1" points="468.5,1389.7 506.2,1386.6 506.2,1432.6 468.5,1434.9 	"/>
	<polygon class="st2" points="475.6,1394.4 475.6,1431.1 485,1430.8 485,1393.5 	"/>
	<path class="st3" d="M485,1393.5l18.4-1.3l0.6,37.9l-19,0.7C485,1430.8,484.8,1393.2,485,1393.5z"/>
	<polygon class="st0" points="503.6,1389.9 503.6,1392 475.6,1394.4 475.6,1431.1 471,1431.3 471.1,1393.1 	"/>
	<path class="st2" d="M522.1,1339.8l158.5,49.1v129.5l-158.5,6.7C522.1,1525.1,522.1,1340.2,522.1,1339.8z"/>
	<polygon class="st0" points="346.7,1404.5 346.7,1478.4 353.4,1478.4 353.7,1406.2 	"/>
	<polygon class="st0" points="373.3,1562 430.5,1565.7 430.5,1602.6 373.2,1597.5 	"/>
	<polygon class="st3" points="376.8,1563.3 376.8,1596.7 398.9,1598.9 398.9,1564.3 	"/>
	<path class="st0" d="M373.7,1563.2l3.1,0.1v33.4h-3.1C373.7,1596.7,373.9,1563.2,373.7,1563.2z"/>
	<path class="st0" d="M401.2,1564.4l3.1,0.1v35l-3.1-0.4C401.2,1599.2,401.4,1564.4,401.2,1564.4z"/>
	<polygon class="st4" points="404.4,1564.7 421.7,1565.9 421.7,1601.2 404.2,1599.6 	"/>
	<path class="st2" d="M421.7,1565.9l8.1,0.5l0.2,35.4l-8.3-0.7C421.7,1601.2,421.7,1566,421.7,1565.9z"/>
</g>
<g id="Planta_Baja">
	<polygon class="st5" points="262.2,1522.3 521.9,1526.3 670.3,1519.2 670.3,1628.3 537.6,1671.4 260.6,1634.6 	"/>
	<polygon class="st6" points="263.2,1522.3 522.9,1526.3 671.3,1519.2 671.3,1628.3 538.6,1671.4 261.6,1634.6 	"/>
	
		<line id="Línea_140144-2-2_00000037671329658361239920000016741478974705841080_" class="st7" x1="280.6" y1="1581.7" x2="235.7" y2="1581.7"/>
	<g id="Grupo_1806-2-2">
		<circle id="Elipse_90-2-2_00000085252491220619318250000017584837273104422787_" class="st8" cx="280.5" cy="1581.7" r="1.7"/>
	</g>
	
		<rect id="Rectángulo_41-2_00000107589249773540810670000011950043484385946291_" x="173.4" y="1561.5" class="st9" width="62.3" height="37.1"/>
	<g>
		<rect x="173.4" y="1567.8" class="st10" width="62.3" height="29.8"/>
		<text transform="matrix(1 0 0 1 181.4247 1576.7522)" style="fill:#FFFFFF; font-family:'Roboto-Bold'; font-size:12px;">PLANTA</text>
		<text transform="matrix(1 0 0 1 189.5247 1591.1521)" style="fill:#FFFFFF; font-family:'Roboto-Bold'; font-size:12px;">BAJA</text>
	</g>
</g>
<g id="Planta_Alta_00000048477381561151149510000013285011320150387624_">
	<polygon class="st5" points="262.2,1378.9 262.2,1520.3 521.9,1525.8 681.2,1518 680.2,1389.1 521.2,1339.1 332.1,1364 
		332.1,1370.2 	"/>
	<polygon class="st6" points="263.2,1378.9 263.2,1520.3 522.9,1525.8 682.2,1518 681.2,1389.1 522.2,1339.1 333.1,1364 
		333.1,1370.2 	"/>
	
		<line id="Línea_140144-2_00000178901802040909338080000014146049403068784301_" class="st7" x1="280.6" y1="1454" x2="235.7" y2="1454"/>
	<g id="Grupo_1806-2">
		<circle id="Elipse_90-2_00000166660098759379734600000002684320200615317657_" class="st8" cx="280.5" cy="1454" r="1.7"/>
	</g>
	
		<rect id="Rectángulo_41-2_00000176044610299217813790000006404202486231990182_" x="173.4" y="1436.1" class="st9" width="62.3" height="37.1"/>
	<g>
		<rect x="173.4" y="1442.4" class="st10" width="62.3" height="29.8"/>
		<text transform="matrix(1 0 0 1 181.4247 1451.4514)" style="fill:#FFFFFF; font-family:'Roboto-Bold'; font-size:12px;">PLANTA</text>
		<text transform="matrix(1 0 0 1 189.5247 1465.8513)" style="fill:#FFFFFF; font-family:'Roboto-Bold'; font-size:12px;">ALTA</text>
	</g>
</g>
</svg>
