<svg xmlns="http://www.w3.org/2000/svg" viewBox="0 0 510.3 335.3"><defs><style>.cls-1{fill:#7c7c7c;}.cls-2{fill:#a3a3a2;}.cls-3{fill:#eae5dc;}.cls-4,.cls-5{fill:#dad7d0;}.cls-12,.cls-4,.cls-6{isolation:isolate;}.cls-6{fill:#dab1d0;opacity:0.81;}.cls-11,.cls-7,.cls-8{fill:none;}.cls-7{stroke:#fff;stroke-linecap:round;stroke-linejoin:round;stroke-width:3px;}.cls-8,.cls-9{stroke:#895874;stroke-miterlimit:10;stroke-width:2px;}.cls-10,.cls-9{fill:#895874;}.cls-12{font-size:12px;fill:#fff;font-family:Roboto-Bold, Roboto;font-weight:700;}.cls-13{letter-spacing:0.01em;}.cls-14{letter-spacing:-0.01em;}.cls-15{letter-spacing:-0.06em;}.cls-16{letter-spacing:-0.01em;}.cls-17{letter-spacing:-0.1em;}</style></defs><g id="Capa_2" data-name="Capa 2"><g id="Capa_1-2" data-name="Capa 1"><g id="casa_2_dorm" data-name="casa 2 dorm"><polygon class="cls-1" points="90.67 41.38 159.14 32.56 158.08 183.26 159.84 183.62 159.49 304.32 87.84 295.5 90.67 41.38"/><polygon class="cls-2" points="99.84 110.38 125.43 108.79 125.43 146.03 99.84 146.38 99.84 110.38"/><polygon class="cls-1" points="101.79 113.03 105.84 112.68 105.84 143.38 101.61 143.56 101.79 113.03"/><rect class="cls-3" x="105.84" y="112.68" width="2.12" height="30.71"/><polygon class="cls-4" points="107.96 112.68 123.14 112.15 123.14 143.03 107.96 143.38 107.96 112.68"/><path class="cls-2" d="M159.49,183.62l188.82,3.88,16.95-1.06V332.56L159.49,304.32Z"/><polygon class="cls-4" points="365.26 186.44 496.9 181.15 496.9 287.03 365.26 332.56 365.26 186.44"/><polygon class="cls-4" points="159.49 26.91 348.67 2.21 348.67 187.5 158.08 183.79 159.49 26.91"/><polygon class="cls-2" points="170.9 64.32 232.31 58.68 232.31 142.68 170.2 144.32 170.9 64.32"/><polygon class="cls-3" points="180.31 68.56 220.2 65.03 220.2 139.5 179.96 140.56 180.31 68.56"/><path class="cls-4" d="M220.2,65l9.53-.94v75.53l-9.53-.12Z"/><polygon class="cls-1" points="229.96 61.5 229.96 64.09 180.31 68.56 173.26 66.91 229.96 61.5"/><polygon class="cls-2" points="295.02 52.15 332.79 48.97 332.79 95.03 295.02 97.32 295.02 52.15"/><polygon class="cls-3" points="302.2 56.79 302.2 93.5 311.61 93.18 311.61 55.85 302.2 56.79"/><path class="cls-4" d="M311.61,55.85l18.44-1.32.57,37.9-19,.75S311.37,55.62,311.61,55.85Z"/><polygon class="cls-1" points="330.14 52.32 330.14 54.44 302.2 56.79 302.2 93.5 297.54 93.66 297.67 55.5 330.14 52.32"/><path class="cls-3" d="M348.67,2.21,507.14,51.26V180.79L348.67,187.5Z"/><polygon class="cls-1" points="173.26 66.91 173.26 140.79 179.96 140.79 180.31 68.56 173.26 66.91"/><polygon class="cls-1" points="199.9 224.38 257.08 228.09 257.08 264.97 199.73 259.85 199.9 224.38"/><polygon class="cls-4" points="203.37 225.74 203.37 259.15 225.49 261.26 225.49 226.68 203.37 225.74"/><path class="cls-1" d="M200.26,225.62l3.11.12v33.41h-3.11S200.43,225.62,200.26,225.62Z"/><path class="cls-1" d="M227.79,226.82l3.11.12v35l-3.11-.35S228,226.82,227.79,226.82Z"/><polygon class="cls-5" points="230.96 227.12 248.26 228.26 248.26 263.56 230.78 261.97 230.96 227.12"/><path class="cls-3" d="M248.26,228.26l8.11.53.22,35.43-8.33-.66Z"/></g>
<g id="planta_baja" data-name="planta_baja" class="edf-select active"><polygon class="cls-6" points="88.8 184.7 348.5 188.7 496.9 181.6 496.9 290.7 364.2 333.8 87.2 297 88.8 184.7"/><polygon class="cls-7" points="89.8 184.7 349.5 188.7 497.9 181.6 497.9 290.7 365.2 333.8 88.2 297 89.8 184.7"/><line id="Línea_140144-2-2" data-name="Línea 140144-2-2" class="cls-8" x1="107.2" y1="244.1" x2="62.3" y2="244.1"/><g id="Grupo_1806-2-2" data-name="Grupo 1806-2-2"><circle id="Elipse_90-2-2" data-name="Elipse 90-2-2" class="cls-9" cx="107.1" cy="244.1" r="1.7"/></g><rect id="Rectángulo_41-2" data-name="Rectángulo 41-2" class="cls-10" y="223.9" width="62.3" height="37.1"/><rect class="cls-11" y="230.2" width="62.3" height="29.8"/><text class="cls-12" transform="translate(7.99 239.15)">P<tspan class="cls-13" x="7.74" y="0">L</tspan><tspan x="14.35" y="0">A</tspan><tspan class="cls-14" x="22.42" y="0">N</tspan><tspan class="cls-15" x="30.73" y="0">T</tspan><tspan x="37.45" y="0">A</tspan></text><text class="cls-12" transform="translate(16.09 253.55)">BA<tspan class="cls-16" x="15.73" y="0">J</tspan><tspan x="22.31" y="0">A</tspan></text></g>
<g id="planta_alta" data-name="planta_alta" class="edf-select"><polygon class="cls-6" points="88.8 41.3 88.8 182.7 348.5 188.2 507.8 180.4 506.8 51.5 347.8 1.5 158.7 26.4 158.7 32.6 88.8 41.3"/><polygon class="cls-7" points="89.8 41.3 89.8 182.7 349.5 188.2 508.8 180.4 507.8 51.5 348.8 1.5 159.7 26.4 159.7 32.6 89.8 41.3"/><line id="Línea_140144-2" data-name="Línea 140144-2" class="cls-8" x1="107.2" y1="116.4" x2="62.3" y2="116.4"/><g id="Grupo_1806-2" data-name="Grupo 1806-2"><circle id="Elipse_90-2" data-name="Elipse 90-2" class="cls-9" cx="107.1" cy="116.4" r="1.7"/></g><rect id="Rectángulo_41-2-2" data-name="Rectángulo 41-2" class="cls-10" y="98.5" width="62.3" height="37.1"/><rect class="cls-11" y="104.8" width="62.3" height="29.8"/><text class="cls-12" transform="translate(7.99 113.85)">P<tspan class="cls-13" x="7.74" y="0">L</tspan><tspan x="14.35" y="0">A</tspan><tspan class="cls-14" x="22.42" y="0">N</tspan><tspan class="cls-15" x="30.73" y="0">T</tspan><tspan x="37.45" y="0">A</tspan></text><text class="cls-12" transform="translate(16.09 128.25)">A<tspan class="cls-17" x="8.07" y="0">L</tspan><tspan class="cls-15" x="13.37" y="0">T</tspan><tspan x="20.09" y="0">A</tspan></text></g></g></g></svg>
