<svg xmlns="http://www.w3.org/2000/svg" xmlns:xlink="http://www.w3.org/1999/xlink" viewBox="0 0 510.3 355.02"><defs><style>.cls-1{fill:#7c7c7c;}.cls-2{fill:#a3a3a2;}.cls-11,.cls-3{fill:#dad7d0;}.cls-12,.cls-18,.cls-3{isolation:isolate;}.cls-4{clip-path:url(#clip-path);}.cls-10,.cls-13,.cls-14,.cls-17,.cls-5,.cls-8{fill:none;}.cls-5{stroke:#dad7d0;stroke-width:0.5px;}.cls-10,.cls-14,.cls-15,.cls-5,.cls-8{stroke-miterlimit:10;}.cls-6{fill:#eae5dc;}.cls-7{clip-path:url(#clip-path-2);}.cls-8{stroke:#7c7c7c;}.cls-9{clip-path:url(#clip-path-3);}.cls-10{stroke:#a3a3a2;}.cls-12{fill:#dab1d0;opacity:0.81;}.cls-13{stroke:#fff;stroke-linecap:round;stroke-linejoin:round;stroke-width:3px;}.cls-14,.cls-15{stroke:#895874;stroke-width:2px;}.cls-15,.cls-16{fill:#895874;}.cls-18{font-size:12px;fill:#fff;font-family:Roboto-Bold, Roboto;font-weight:700;}.cls-19{letter-spacing:0.01em;}.cls-20{letter-spacing:-0.06em;}.cls-21{letter-spacing:-0.1em;}</style><clipPath id="clip-path"><polygon class="cls-1" points="90.1 41.38 159.14 32.56 158.08 183.26 159.84 183.62 159.49 304.32 87.84 295.5 90.1 41.38"/></clipPath><clipPath id="clip-path-2"><path class="cls-2" d="M159.49,183.62l188.82,3.88,16.95-1.06V332.56L159.49,304.32Z"/></clipPath><clipPath id="clip-path-3"><polygon class="cls-3" points="365.26 186.44 496.9 181.15 496.9 287.03 365.26 332.56 365.26 186.44"/></clipPath></defs><g id="Capa_2" data-name="Capa 2"><g id="Capa_1-2" data-name="Capa 1"><g id="casa_2_dorm" data-name="casa 2 dorm"><polygon class="cls-1" points="90.1 41.38 159.14 32.56 158.08 183.26 159.84 183.62 159.49 304.32 87.84 295.5 90.1 41.38"/><g class="cls-4"><line class="cls-5" x1="75.91" y1="14.06" x2="75.91" y2="303.24"/><line class="cls-5" x1="81.54" y1="14.06" x2="81.54" y2="303.24"/><line class="cls-5" x1="87.55" y1="14.06" x2="87.55" y2="303.24"/><line class="cls-5" x1="93.04" y1="14.06" x2="93.04" y2="303.24"/><line class="cls-5" x1="98.8" y1="14.06" x2="98.8" y2="303.24"/><line class="cls-5" x1="104.29" y1="14.06" x2="104.29" y2="303.24"/><line class="cls-5" x1="111.09" y1="17.27" x2="111.09" y2="306.44"/><line class="cls-5" x1="117.11" y1="17.27" x2="117.11" y2="306.44"/><line class="cls-5" x1="123.12" y1="17.27" x2="123.12" y2="306.44"/><line class="cls-5" x1="129.29" y1="17.27" x2="129.29" y2="306.44"/><line class="cls-5" x1="135.23" y1="21.45" x2="135.23" y2="310.63"/><line class="cls-5" x1="141.2" y1="24.41" x2="141.2" y2="313.58"/><line class="cls-5" x1="147.67" y1="24.41" x2="147.67" y2="313.58"/><line class="cls-5" x1="154.07" y1="25.4" x2="154.07" y2="314.57"/><line class="cls-5" x1="160.87" y1="21.45" x2="160.87" y2="323.75"/><line class="cls-5" x1="167.24" y1="21.45" x2="167.24" y2="323.75"/></g><polygon class="cls-2" points="99.84 110.38 125.43 108.79 125.43 146.03 99.84 146.38 99.84 110.38"/><polygon class="cls-1" points="101.79 113.03 105.84 112.68 105.84 143.38 101.61 143.56 101.79 113.03"/><rect class="cls-6" x="105.84" y="112.68" width="2.12" height="30.71"/><polygon class="cls-3" points="107.96 112.68 123.14 112.15 123.14 143.03 107.96 143.38 107.96 112.68"/><path class="cls-2" d="M159.49,183.62l188.82,3.88,16.95-1.06V332.56L159.49,304.32Z"/><g class="cls-7"><line class="cls-8" x1="165.38" y1="180.31" x2="165.38" y2="313.44"/><line class="cls-8" x1="171" y1="180.31" x2="171" y2="313.44"/><line class="cls-8" x1="177.02" y1="180.31" x2="177.02" y2="313.44"/><line class="cls-8" x1="182.51" y1="180.31" x2="182.51" y2="313.44"/><line class="cls-8" x1="188.27" y1="180.31" x2="188.27" y2="313.44"/><line class="cls-8" x1="193.76" y1="180.31" x2="193.76" y2="313.44"/><line class="cls-8" x1="200.56" y1="181.78" x2="200.56" y2="314.92"/><line class="cls-8" x1="206.58" y1="181.78" x2="206.58" y2="314.92"/><line class="cls-8" x1="212.59" y1="181.78" x2="212.59" y2="314.92"/><line class="cls-8" x1="218.76" y1="181.78" x2="218.76" y2="314.92"/><line class="cls-8" x1="224.7" y1="183.71" x2="224.7" y2="316.84"/><line class="cls-8" x1="230.67" y1="185.07" x2="230.67" y2="318.21"/><line class="cls-8" x1="237.14" y1="185.07" x2="237.14" y2="318.21"/><line class="cls-8" x1="243.54" y1="185.52" x2="243.54" y2="318.66"/><line class="cls-8" x1="250.34" y1="183.71" x2="250.34" y2="322.89"/><line class="cls-8" x1="256.71" y1="183.71" x2="256.71" y2="322.89"/><line class="cls-8" x1="263.63" y1="185.25" x2="263.63" y2="324.43"/><line class="cls-8" x1="270.33" y1="185.25" x2="270.33" y2="324.43"/><line class="cls-8" x1="277.02" y1="185.25" x2="277.02" y2="324.43"/><line class="cls-8" x1="284.32" y1="185.25" x2="284.32" y2="324.43"/><line class="cls-8" x1="290.8" y1="185.18" x2="290.8" y2="327.3"/><line class="cls-8" x1="298.08" y1="185.18" x2="298.08" y2="327.3"/><line class="cls-8" x1="305" y1="186.76" x2="305" y2="328.87"/><line class="cls-8" x1="312.72" y1="182.97" x2="312.72" y2="329.66"/><line class="cls-8" x1="319.42" y1="182.97" x2="319.42" y2="329.66"/><line class="cls-8" x1="326.71" y1="182.97" x2="326.71" y2="329.66"/><line class="cls-8" x1="334.74" y1="185.27" x2="334.74" y2="332.96"/><line class="cls-8" x1="341.66" y1="186.91" x2="341.66" y2="334.6"/><line class="cls-8" x1="349.38" y1="182.97" x2="349.38" y2="335.41"/><line class="cls-8" x1="357.32" y1="182.97" x2="357.32" y2="335.41"/></g><polygon class="cls-3" points="365.26 186.44 496.9 181.15 496.9 287.03 365.26 332.56 365.26 186.44"/><g class="cls-9"><line class="cls-10" x1="371.76" y1="170.28" x2="371.76" y2="336.6"/><line class="cls-10" x1="377.78" y1="170.28" x2="377.78" y2="336.6"/><line class="cls-10" x1="383.79" y1="170.28" x2="383.79" y2="336.6"/><line class="cls-10" x1="389.96" y1="170.28" x2="389.96" y2="336.6"/><line class="cls-10" x1="395.9" y1="172.69" x2="395.9" y2="339.01"/><line class="cls-10" x1="401.87" y1="174.39" x2="401.87" y2="340.71"/><line class="cls-10" x1="408.34" y1="174.39" x2="408.34" y2="340.71"/><line class="cls-10" x1="414.74" y1="174.96" x2="414.74" y2="341.27"/><line class="cls-10" x1="421.54" y1="172.69" x2="421.54" y2="346.56"/><line class="cls-10" x1="427.91" y1="172.69" x2="427.91" y2="346.56"/><line class="cls-10" x1="434.83" y1="174.62" x2="434.83" y2="348.48"/><line class="cls-10" x1="441.53" y1="174.62" x2="441.53" y2="348.48"/><line class="cls-10" x1="448.22" y1="174.62" x2="448.22" y2="348.48"/><line class="cls-10" x1="455.52" y1="174.62" x2="455.52" y2="348.48"/><line class="cls-10" x1="462" y1="174.53" x2="462" y2="352.07"/><line class="cls-10" x1="469.28" y1="174.53" x2="469.28" y2="352.07"/><line class="cls-10" x1="476.2" y1="176.5" x2="476.2" y2="354.04"/><line class="cls-10" x1="483.92" y1="171.76" x2="483.92" y2="355.02"/><line class="cls-10" x1="490.62" y1="171.76" x2="490.62" y2="355.02"/></g><polygon class="cls-3" points="159.49 26.91 348.67 2.21 348.67 187.5 158.08 183.79 159.49 26.91"/><polygon class="cls-2" points="170.9 64.32 232.31 58.68 232.31 142.68 170.2 144.32 170.9 64.32"/><polygon class="cls-6" points="180.31 68.56 220.2 65.03 220.2 139.5 179.96 140.56 180.31 68.56"/><path class="cls-3" d="M220.2,65l9.53-.94v75.53l-9.53-.12Z"/><polygon class="cls-1" points="229.96 61.5 229.96 64.09 180.31 68.56 173.26 66.91 229.96 61.5"/><polygon class="cls-2" points="295.02 52.15 332.79 48.97 332.79 95.03 295.02 97.32 295.02 52.15"/><polygon class="cls-6" points="302.2 56.79 302.2 93.5 311.61 93.18 311.61 55.85 302.2 56.79"/><path class="cls-3" d="M311.61,55.85l18.44-1.32.57,37.9-19,.75S311.37,55.62,311.61,55.85Z"/><polygon class="cls-1" points="330.14 52.32 330.14 54.44 302.2 56.79 302.2 93.5 297.54 93.66 297.67 55.5 330.14 52.32"/><path class="cls-6" d="M348.67,2.21,507.14,51.26V180.79L348.67,187.5Z"/><polygon class="cls-1" points="173.26 66.91 173.26 140.79 179.96 140.79 180.31 68.56 173.26 66.91"/><polygon class="cls-1" points="199.9 224.38 257.08 228.09 257.08 264.97 199.73 259.85 199.9 224.38"/><polygon class="cls-3" points="203.37 225.74 203.37 259.15 225.49 261.26 225.49 226.68 203.37 225.74"/><path class="cls-1" d="M200.26,225.62l3.11.12v33.41h-3.11S200.43,225.62,200.26,225.62Z"/><path class="cls-1" d="M227.79,226.82l3.11.12v35l-3.11-.35S228,226.82,227.79,226.82Z"/><polygon class="cls-11" points="230.96 227.12 248.26 228.26 248.26 263.56 230.78 261.97 230.96 227.12"/><path class="cls-6" d="M248.26,228.26l8.11.53.22,35.43-8.33-.66Z"/></g>
<g id="planta_baja" data-name="planta_baja" class="edf-select active"><polygon class="cls-12" points="88.8 184.7 348.5 188.7 496.9 181.6 496.9 290.7 364.2 333.8 87.2 297 88.8 184.7"/><polygon class="cls-13" points="89.8 184.7 349.5 188.7 497.9 181.6 497.9 290.7 365.2 333.8 88.2 297 89.8 184.7"/><line id="Línea_140144-2-2" data-name="Línea 140144-2-2" class="cls-14" x1="107.2" y1="244.1" x2="62.3" y2="244.1"/><g id="Grupo_1806-2-2" data-name="Grupo 1806-2-2"><circle id="Elipse_90-2-2" data-name="Elipse 90-2-2" class="cls-15" cx="107.1" cy="244.1" r="1.7"/></g><rect id="Rectángulo_41-2" data-name="Rectángulo 41-2" class="cls-16" y="223.9" width="62.3" height="37.1"/><rect class="cls-17" y="230.2" width="62.3" height="29.8"/><text class="cls-18" transform="translate(7.99 239.15)">P<tspan class="cls-19" x="7.74" y="0">L</tspan><tspan x="14.35" y="0">AN</tspan><tspan class="cls-20" x="30.9" y="0">T</tspan><tspan x="37.62" y="0">A</tspan></text><text class="cls-18" transform="translate(16.09 253.55)">BAJA</text></g>
<g id="planta_alta" data-name="planta_alta" class="edf-select"><polygon class="cls-12" points="88.8 41.3 88.8 182.7 348.5 188.2 507.8 180.4 506.8 51.5 347.8 1.5 158.7 26.4 158.7 32.6 88.8 41.3"/><polygon class="cls-13" points="89.8 41.3 89.8 182.7 349.5 188.2 508.8 180.4 507.8 51.5 348.8 1.5 159.7 26.4 159.7 32.6 89.8 41.3"/><line id="Línea_140144-2" data-name="Línea 140144-2" class="cls-14" x1="107.2" y1="116.4" x2="62.3" y2="116.4"/><g id="Grupo_1806-2" data-name="Grupo 1806-2"><circle id="Elipse_90-2" data-name="Elipse 90-2" class="cls-15" cx="107.1" cy="116.4" r="1.7"/></g><rect id="Rectángulo_41-2-2" data-name="Rectángulo 41-2" class="cls-16" y="98.5" width="62.3" height="37.1"/><rect class="cls-17" y="104.8" width="62.3" height="29.8"/><text class="cls-18" transform="translate(7.99 113.85)">P<tspan class="cls-19" x="7.74" y="0">L</tspan><tspan x="14.35" y="0">AN</tspan><tspan class="cls-20" x="30.9" y="0">T</tspan><tspan x="37.62" y="0">A</tspan></text><text class="cls-18" transform="translate(16.09 128.25)">A<tspan class="cls-21" x="8.07" y="0">L</tspan><tspan class="cls-20" x="13.37" y="0">T</tspan><tspan x="20.09" y="0">A</tspan></text></g></g></g></svg>
