<svg xmlns="http://www.w3.org/2000/svg" viewBox="0 0 106.08 67.14"><defs><style>.cls-1{fill:#e0e0e0;}.cls-1,.cls-2,.cls-3,.cls-4{stroke:#425762;stroke-miterlimit:20;stroke-width:2.79px;}.cls-2,.cls-3{fill:none;}.cls-3{stroke-linecap:round;}.cls-4{fill:#50baa3;}</style></defs><g id="Capa_2" data-name="Capa 2"><g id="Capa_1-2" data-name="Capa 1"><path class="cls-1" d="M14.08,40.36A12.69,12.69,0,1,0,26.77,53.05,12.7,12.7,0,0,0,14.08,40.36Zm0,18a5.29,5.29,0,0,1,0-10.57h0a5.29,5.29,0,1,1,0,10.57Z"/><path class="cls-2" d="M66.39,38.87l6.75,23.58a1.14,1.14,0,0,1-1.71,1.24L42.85,45.25"/><path class="cls-3" d="M14.08,53.05,70,37.9a8.91,8.91,0,0,0,5.3-4c1.54-2.61,1.4-5.59,1.84-8.48l1.11-7.17,1.19-7.73,5.18-1.36"/><path class="cls-1" d="M88,11.49a3.69,3.69,0,0,1-.58-7.29l12.87-2.73a3.69,3.69,0,1,1,1.52,7.22L88.89,11.41a3.32,3.32,0,0,1-.94.08Z"/><path class="cls-4" d="M78.2,15.58H14.08A1.5,1.5,0,0,0,12.86,18L32.32,48,69.64,37.6a8.72,8.72,0,0,0,6.24-6.83Z"/></g></g></svg>