<svg xmlns="http://www.w3.org/2000/svg" viewBox="0 0 56.43 85.13"><defs><style>.cls-1{fill:#e0e0e0;}.cls-1,.cls-2,.cls-3{stroke:#425762;stroke-miterlimit:20;stroke-width:2.55px;}.cls-2{fill:none;stroke-linecap:round;}.cls-3{fill:#8d9618;}</style></defs><g id="Capa_2" data-name="Capa 2"><g id="Capa_1-2" data-name="Capa 1"><path class="cls-1" d="M39.36,47.35,18.9,35.54a4.42,4.42,0,0,1-.9-7L43.74,3.2a6.72,6.72,0,0,1,8.06-1h0a6.72,6.72,0,0,1,3.14,7.5l-9.09,35A4.43,4.43,0,0,1,39.36,47.35Z"/><path class="cls-2" d="M34.48,32.18,16,64.19"/><path class="cls-3" d="M6.49,83l-2-1.17a6.36,6.36,0,0,1-2.33-8.7l9.58-16.59a6.35,6.35,0,0,1,8.69-2.33l2,1.17a6.36,6.36,0,0,1,2.33,8.7L15.18,80.67A6.36,6.36,0,0,1,6.49,83Z"/></g></g></svg>