<svg xmlns="http://www.w3.org/2000/svg" viewBox="0 0 70.51 78.38"><defs><style>.cls-1{fill:#425762;}.cls-2,.cls-3{fill:#f8b600;}.cls-3,.cls-4,.cls-5,.cls-6{stroke:#425762;stroke-miterlimit:20;stroke-width:2.55px;}.cls-4{fill:#e0e0e0;}.cls-5,.cls-6{fill:none;}.cls-6{stroke-linecap:round;}</style></defs><g id="Capa_2" data-name="Capa 2"><g id="Capa_1-2" data-name="Capa 1"><path class="cls-1" d="M66.82,2.28a10.11,10.11,0,0,0-14.19,1.4L5,61.73a1.79,1.79,0,0,0,.25,2.51h0L18.09,74.77a1.79,1.79,0,0,0,2.51-.25l47.62-58A10.09,10.09,0,0,0,66.82,2.28ZM64.56,5A6.51,6.51,0,1,1,55.39,6,6.52,6.52,0,0,1,64.56,5ZM46.1,17.27l1.64,16.61L31.13,35.52ZM28.84,39.34l17.42-1.72L30.55,56.76Zm-1.66,19.6L10.57,60.58l15-18.25ZM49.3,13.37l1.22-1.48a10,10,0,0,0,10.07,8.26L51.11,31.7,49.3,13.37ZM10.77,64.15,25.7,62.68,19,70.87Z"/><circle class="cls-2" cx="60.37" cy="10.11" r="6.63"/><path class="cls-3" d="M36.25,77.1H6.09a4.82,4.82,0,0,1-4.82-4.82V57.73a4.82,4.82,0,0,1,4.82-4.82H27.91a6.38,6.38,0,0,1,5.71,3.55l6.86,13.83A4.72,4.72,0,0,1,36.25,77.1Z"/><circle class="cls-4" cx="17.12" cy="65.14" r="6.63"/><path class="cls-5" d="M54,67.45a6.35,6.35,0,0,0,12.69,0h0c0-4.77-5-5.6-6.36-9.58-.63-1.89-.3-3.77-.3-5.69"/><path class="cls-6" d="M60.37,9.32V54.19"/><path class="cls-3" d="M64,55.46H56.78a2.53,2.53,0,0,1-2.53-2.53h0V45.76a2.53,2.53,0,0,1,2.53-2.53H64a2.53,2.53,0,0,1,2.53,2.53h0v7.17A2.53,2.53,0,0,1,64,55.46Z"/></g></g></svg>