<svg xmlns="http://www.w3.org/2000/svg" viewBox="0 0 155.24 32.28"><defs><style>.cls-1{fill:#425762;}.cls-2{fill:#4bbaa2;}.cls-3{fill:#8c9624;}.cls-4{fill:#5a3c18;}.cls-5{fill:#f9b633;}.cls-6{fill:#d3583c;}</style></defs><g id="Capa_2" data-name="Capa 2"><g id="Capa_1-2" data-name="Capa 1"><g id="Grupo_490" data-name="Grupo 490"><g id="Grupo_489" data-name="Grupo 489"><path id="Trazado_642" data-name="Trazado 642" class="cls-1" d="M48.93,19.16a9.72,9.72,0,0,1-.9,2.66,7.27,7.27,0,0,1-1.57,2,6.74,6.74,0,0,1-2.18,1.32,7.74,7.74,0,0,1-2.74.47,8.9,8.9,0,0,1-3.14-.57,6.65,6.65,0,0,1-2.51-1.71,8.06,8.06,0,0,1-1.67-2.8,11.19,11.19,0,0,1-.61-3.89,13,13,0,0,1,.55-3.91,8.45,8.45,0,0,1,1.59-2.95A7,7,0,0,1,38.27,8,9.07,9.07,0,0,1,44.5,7.8a7.12,7.12,0,0,1,2.25,1.33,6.26,6.26,0,0,1,1.49,2,7.13,7.13,0,0,1,.69,2.43H45.34a4.08,4.08,0,0,0-1.4-2.29,4,4,0,0,0-5.6.77l0,0a9.88,9.88,0,0,0,0,8.88,3.49,3.49,0,0,0,3.14,1.59A3.71,3.71,0,0,0,44,21.66a4.64,4.64,0,0,0,1.33-2.5Z"/><path id="Trazado_643" data-name="Trazado 643" class="cls-1" d="M56,25.38a7.25,7.25,0,0,1-2.76-.49,5.62,5.62,0,0,1-3.33-3.49,8.57,8.57,0,0,1,0-5.45,5.74,5.74,0,0,1,3.36-3.47A7.43,7.43,0,0,1,56,12a7.27,7.27,0,0,1,2.69.48A5.67,5.67,0,0,1,62,15.93a8.11,8.11,0,0,1,.45,2.76A8,8,0,0,1,62,21.44a6,6,0,0,1-1.29,2.1,5.66,5.66,0,0,1-2.05,1.36A7.13,7.13,0,0,1,56,25.38Zm0-2.81q3.08,0,3.08-3.88c0-2.56-1-3.85-3.08-3.85s-3.07,1.29-3.07,3.85,1,3.87,3.07,3.87Z"/><path id="Trazado_644" data-name="Trazado 644" class="cls-1" d="M71.79,25.05v-7.7a2.92,2.92,0,0,0-.49-2,2.28,2.28,0,0,0-1.68-.52c-1.74,0-2.61,1-2.61,2.92v7.29H63.66V12.33h3.2v1.86a4.15,4.15,0,0,1,1.58-1.64A5,5,0,0,1,71,12a4.81,4.81,0,0,1,1.68.27,3.72,3.72,0,0,1,1.33.81,3.79,3.79,0,0,1,.87,1.33,4.73,4.73,0,0,1,.33,1.82V25Z"/><path id="Trazado_645" data-name="Trazado 645" class="cls-1" d="M83.86,16.68H87V20.3a6,6,0,0,1-.29,1.92,4.64,4.64,0,0,1-.93,1.63A4.41,4.41,0,0,1,84.15,25a6.06,6.06,0,0,1-2.31.42A6,6,0,0,1,79.47,25a4.43,4.43,0,0,1-1.62-1.11,4.23,4.23,0,0,1-.91-1.63,6.51,6.51,0,0,1-.29-2V8.9H80v3.44h7v2.37H80v5.22a3.34,3.34,0,0,0,.45,1.88,1.66,1.66,0,0,0,1.49.65,1.7,1.7,0,0,0,1.48-.64A3.06,3.06,0,0,0,83.86,20Z"/><path id="Trazado_646" data-name="Trazado 646" class="cls-1" d="M88.43,10.81V7.69h3.35v3.12Zm0,14.24V12.34h3.35V25.05Z"/><path id="Trazado_647" data-name="Trazado 647" class="cls-1" d="M101.45,25.05v-7.7a3,3,0,0,0-.49-2,2.28,2.28,0,0,0-1.68-.52c-1.74,0-2.61,1-2.61,2.92v7.29H93.31V12.33h3.21v1.86a4.13,4.13,0,0,1,1.57-1.64,5.1,5.1,0,0,1,2.54-.55,4.76,4.76,0,0,1,1.67.27,3.56,3.56,0,0,1,1.33.81,3.82,3.82,0,0,1,.88,1.33,4.73,4.73,0,0,1,.33,1.82V25Z"/><path id="Trazado_648" data-name="Trazado 648" class="cls-1" d="M109.38,19.57a3.66,3.66,0,0,0,.84,2.3,2.54,2.54,0,0,0,2,.85,2.86,2.86,0,0,0,1.46-.37,1.73,1.73,0,0,0,.82-1.05H118a5.54,5.54,0,0,1-2.06,3,5.82,5.82,0,0,1-3.52,1.06q-6.34,0-6.35-6.92a8.3,8.3,0,0,1,.41-2.66,5.91,5.91,0,0,1,1.2-2,5.3,5.3,0,0,1,1.93-1.31,7,7,0,0,1,2.61-.45,5.37,5.37,0,0,1,4.45,1.89,8.94,8.94,0,0,1,1.51,5.68Zm5.3-2.12a3.64,3.64,0,0,0-.25-1.22,2.59,2.59,0,0,0-.58-.88,2.33,2.33,0,0,0-.83-.52,2.8,2.8,0,0,0-1-.17,2.41,2.41,0,0,0-1.75.74,3.14,3.14,0,0,0-.84,2Z"/><path id="Trazado_649" data-name="Trazado 649" class="cls-1" d="M127.44,25.05v-7.7a3,3,0,0,0-.49-2,2.29,2.29,0,0,0-1.68-.52c-1.74,0-2.61,1-2.61,2.92v7.29H119.3V12.33h3.2v1.86a4.09,4.09,0,0,1,1.58-1.64,5,5,0,0,1,2.53-.55,4.81,4.81,0,0,1,1.68.27,3.72,3.72,0,0,1,1.33.81,3.79,3.79,0,0,1,.87,1.33,4.73,4.73,0,0,1,.33,1.82V25Z"/><path id="Trazado_650" data-name="Trazado 650" class="cls-1" d="M139.5,16.68h3.13V20.3a6.26,6.26,0,0,1-.3,1.92,4.49,4.49,0,0,1-.93,1.63A4.38,4.38,0,0,1,139.8,25a5.87,5.87,0,0,1-2.31.41,6.06,6.06,0,0,1-2.38-.41,4.6,4.6,0,0,1-1.61-1.11,4.13,4.13,0,0,1-.92-1.63,6.5,6.5,0,0,1-.28-2V8.9h3.3v3.44h7v2.37h-7v5.22a3.27,3.27,0,0,0,.46,1.88,1.64,1.64,0,0,0,1.48.65,1.72,1.72,0,0,0,1.49-.64A3,3,0,0,0,139.5,20Z"/><path id="Trazado_651" data-name="Trazado 651" class="cls-1" d="M151.65,16.19a1.82,1.82,0,0,0-.68-1.31,3,3,0,0,0-1.7-.37,3.5,3.5,0,0,0-1.47.24.84.84,0,0,0-.52.82.93.93,0,0,0,.52.86,6.58,6.58,0,0,0,1.55.58c.72.21,1.41.39,2.06.56a14.43,14.43,0,0,1,1.73.53,3.47,3.47,0,0,1,1.55,1.12,3.13,3.13,0,0,1,.55,2,3.76,3.76,0,0,1-1.41,3.1,6.63,6.63,0,0,1-4.15,1.11,7.15,7.15,0,0,1-4.51-1.24A4,4,0,0,1,143.56,21H147a1.58,1.58,0,0,0,.7,1.39,3.37,3.37,0,0,0,1.93.5,3.9,3.9,0,0,0,1.58-.3,1,1,0,0,0,.67-1,1,1,0,0,0-.61-1,7.32,7.32,0,0,0-1.43-.49c-1.07-.26-1.93-.5-2.59-.7a7,7,0,0,1-1.65-.75,3.23,3.23,0,0,1-1.25-1.29,3.47,3.47,0,0,1-.35-1.58,3.88,3.88,0,0,1,.28-1.5,2.9,2.9,0,0,1,.94-1.2,4.86,4.86,0,0,1,1.66-.78,9.38,9.38,0,0,1,2.47-.29,6.44,6.44,0,0,1,4.07,1.06,4.14,4.14,0,0,1,1.43,3.13Z"/></g></g><g id="Grupo_491" data-name="Grupo 491"><path id="Trazado_652" data-name="Trazado 652" class="cls-2" d="M8.36,6.38A11.25,11.25,0,0,0,13.6,4.44a12.78,12.78,0,0,1,5.87-2.15,13.9,13.9,0,0,1,2.58-.12A14.44,14.44,0,0,0,2.84,5.84,11.27,11.27,0,0,0,8.36,6.38Z"/><path id="Trazado_653" data-name="Trazado 653" class="cls-3" d="M9.75,11.24a9.36,9.36,0,0,0,5-.68A11.84,11.84,0,0,1,25.87,11.8a9.92,9.92,0,0,0,3,1.44,14.41,14.41,0,0,0-4.24-9.07,10.82,10.82,0,0,0-4.93-.35,11.13,11.13,0,0,0-5.24,1.93A12.78,12.78,0,0,1,8.55,7.9a15.12,15.12,0,0,1-2,.14A12.75,12.75,0,0,1,2.34,7.3L2,7.18l-.36.65A11,11,0,0,1,5,9.47,9.26,9.26,0,0,0,9.75,11.24Z"/><path id="Trazado_654" data-name="Trazado 654" class="cls-4" d="M8.36,19.14a11.13,11.13,0,0,0,5.24-1.93,14,14,0,0,1,12.08-1.55,12.08,12.08,0,0,0,3.08.65q.09-.73.12-1.47A10.86,10.86,0,0,1,25,13.09,10.32,10.32,0,0,0,15.29,12,11.84,11.84,0,0,1,4.18,10.76,9.56,9.56,0,0,0,1,9.25,14.47,14.47,0,0,0,.44,18a16,16,0,0,1,2.36.6A11.19,11.19,0,0,0,8.36,19.14Z"/><path id="Trazado_655" data-name="Trazado 655" class="cls-5" d="M15,24.53A11.86,11.86,0,0,1,3.86,23.29a13.38,13.38,0,0,0-1.46-.87,14.44,14.44,0,0,0,20,4.06,15.71,15.71,0,0,0,1.65-1.27A8.85,8.85,0,0,0,20,23.84,9.31,9.31,0,0,0,15,24.53Z"/><path id="Trazado_656" data-name="Trazado 656" class="cls-6" d="M25.22,17.13a12.44,12.44,0,0,0-10.8,1.39,12.78,12.78,0,0,1-5.87,2.15,17,17,0,0,1-2,.14,12.75,12.75,0,0,1-4.19-.74c-.45-.14-.89-.28-1.36-.39.09.22.18.45.28.67A11,11,0,0,1,4.7,22a10.3,10.3,0,0,0,9.73,1.08,10.85,10.85,0,0,1,5.71-.77,10.52,10.52,0,0,1,5.05,1.78,14.41,14.41,0,0,0,3.29-6.25A14.07,14.07,0,0,1,25.22,17.13Z"/></g><g id="Grupo_493" data-name="Grupo 493"><g id="Grupo_492" data-name="Grupo 492"><path id="Trazado_657" data-name="Trazado 657" class="cls-1" d="M83.7,32.19h-.34V28.82h1a1.28,1.28,0,0,1,.81.23.76.76,0,0,1,.3.67.81.81,0,0,1-.22.59,1,1,0,0,1-.64.28l1,1.6h-.42l-.92-1.57H83.7Zm0-1.88h.61a1.31,1.31,0,0,0,.39,0,.64.64,0,0,0,.25-.12.52.52,0,0,0,.14-.19.59.59,0,0,0,0-.23.62.62,0,0,0,0-.23.49.49,0,0,0-.14-.18.67.67,0,0,0-.25-.13,1.29,1.29,0,0,0-.39,0H83.7Z"/><path id="Trazado_658" data-name="Trazado 658" class="cls-1" d="M86.8,31.87h1.8v.31H86.46V28.82h2.09v.31H86.8v1.15h1.63v.31H86.8Z"/><path id="Trazado_659" data-name="Trazado 659" class="cls-1" d="M89.51,32.19H89.1l1.46-3.37h.34l1.46,3.37H92l-.37-.89H89.87ZM90,31h1.45l-.72-1.77Z"/><path id="Trazado_660" data-name="Trazado 660" class="cls-1" d="M93.44,31.87H95v.31H93.11V28.82h.34Z"/><path id="Trazado_661" data-name="Trazado 661" class="cls-1" d="M97.71,31.87h1.8v.31H97.37V28.82h2.08v.31H97.71v1.15h1.63v.31H97.71Z"/><path id="Trazado_662" data-name="Trazado 662" class="cls-1" d="M102.06,29.38a.73.73,0,0,0-.65-.33,1.09,1.09,0,0,0-.26,0,1,1,0,0,0-.23.11.61.61,0,0,0-.17.19.67.67,0,0,0-.06.28.45.45,0,0,0,.13.35.83.83,0,0,0,.32.2,2.86,2.86,0,0,0,.41.15,1.94,1.94,0,0,1,.42.17,1.08,1.08,0,0,1,.32.28.83.83,0,0,1,.13.48,1,1,0,0,1-.1.41.94.94,0,0,1-.26.3,1,1,0,0,1-.36.19,1.07,1.07,0,0,1-.39.07,1.63,1.63,0,0,1-.59-.11,1.12,1.12,0,0,1-.47-.39l.31-.22a.86.86,0,0,0,.3.3,1,1,0,0,0,.46.11,1.09,1.09,0,0,0,.26,0,1,1,0,0,0,.23-.12.77.77,0,0,0,.17-.19.49.49,0,0,0,.06-.27A.5.5,0,0,0,102,31a.69.69,0,0,0-.19-.19,1,1,0,0,0-.28-.13l-.32-.1-.32-.12a1.11,1.11,0,0,1-.27-.17.86.86,0,0,1-.2-.26,1,1,0,0,1-.07-.39.86.86,0,0,1,.34-.72.88.88,0,0,1,.35-.17,1.34,1.34,0,0,1,.4-.06,1.58,1.58,0,0,1,.52.09,1.21,1.21,0,0,1,.43.32Z"/><path id="Trazado_663" data-name="Trazado 663" class="cls-1" d="M104.47,32.19h-.34V29.13H103v-.31h2.59v.31h-1.13Z"/><path id="Trazado_664" data-name="Trazado 664" class="cls-1" d="M106,32.19h-.4l1.46-3.37h.33l1.46,3.37h-.39l-.38-.89H106.4Zm.5-1.2H108l-.73-1.77Z"/><path id="Trazado_665" data-name="Trazado 665" class="cls-1" d="M110.38,32.19H110V29.13h-1.12v-.31h2.59v.31h-1.13Z"/><path id="Trazado_666" data-name="Trazado 666" class="cls-1" d="M112.66,31.87h1.8v.31h-2.14V28.82h2.08v.31h-1.74v1.15h1.62v.31h-1.62Z"/><path id="Trazado_667" data-name="Trazado 667" class="cls-1" d="M117,28.82h1.11a2.19,2.19,0,0,1,.63.1,1.68,1.68,0,0,1,.57.32,1.43,1.43,0,0,1,.41.53,1.64,1.64,0,0,1-.41,2,1.68,1.68,0,0,1-.57.32,2.19,2.19,0,0,1-.63.1H117Zm.34,3.05H118a1.69,1.69,0,0,0,.67-.11,1.38,1.38,0,0,0,.47-.31,1.18,1.18,0,0,0,.28-.44,1.46,1.46,0,0,0,0-1,1.37,1.37,0,0,0-.28-.44,1.35,1.35,0,0,0-.47-.3,1.89,1.89,0,0,0-.67-.12h-.66Z"/><path id="Trazado_668" data-name="Trazado 668" class="cls-1" d="M121.17,31.87H123v.31h-2.14V28.82h2.08v.31h-1.74v1.15h1.63v.31h-1.63Z"/><path id="Trazado_669" data-name="Trazado 669" class="cls-1" d="M124.91,31.67h0l1.1-2.85h.37l-1.31,3.37h-.34l-1.28-3.37h.38Z"/><path id="Trazado_670" data-name="Trazado 670" class="cls-1" d="M127.46,31.87h1.8v.31h-2.14V28.82h2.08v.31h-1.74v1.15h1.63v.31h-1.63Z"/><path id="Trazado_671" data-name="Trazado 671" class="cls-1" d="M130.56,31.87h1.57v.31h-1.91V28.82h.34Z"/><path id="Trazado_672" data-name="Trazado 672" class="cls-1" d="M136.16,30.5a2,2,0,0,1-.14.72,1.66,1.66,0,0,1-.92.92,1.86,1.86,0,0,1-1.39,0,1.65,1.65,0,0,1-.93-.92,2,2,0,0,1,0-1.42,1.67,1.67,0,0,1,.93-.93,2,2,0,0,1,1.39,0,1.68,1.68,0,0,1,.92.93A1.86,1.86,0,0,1,136.16,30.5Zm-.38,0a1.48,1.48,0,0,0-.09-.55,1.33,1.33,0,0,0-.27-.46,1.25,1.25,0,0,0-.44-.32,1.46,1.46,0,0,0-1.16,0,1.21,1.21,0,0,0-.43.32,1.36,1.36,0,0,0-.28.46,1.76,1.76,0,0,0,0,1.11,1.46,1.46,0,0,0,.28.46,1.51,1.51,0,0,0,.43.32,1.46,1.46,0,0,0,1.16,0,1.55,1.55,0,0,0,.44-.32,1.43,1.43,0,0,0,.27-.46A1.53,1.53,0,0,0,135.78,30.5Z"/><path id="Trazado_673" data-name="Trazado 673" class="cls-1" d="M137.12,28.82h1a1.33,1.33,0,0,1,.82.23.91.91,0,0,1,.05,1.29l-.05.06a1.32,1.32,0,0,1-.82.22h-.63v1.57h-.34Zm.35,1.49H138a1.2,1.2,0,0,0,.38,0,.77.77,0,0,0,.26-.12.52.52,0,0,0,.14-.19.59.59,0,0,0,0-.23.62.62,0,0,0,0-.23.49.49,0,0,0-.14-.18.64.64,0,0,0-.26-.13,1.2,1.2,0,0,0-.38,0h-.55Z"/><path id="Trazado_674" data-name="Trazado 674" class="cls-1" d="M141.79,31.56l1.14-2.74h.52v3.37h-.34V29.28h0l-1.22,2.91h-.18l-1.22-2.91h0v2.91h-.34V28.82h.52Z"/><path id="Trazado_675" data-name="Trazado 675" class="cls-1" d="M145,31.87h1.8v.31h-2.14V28.82h2.08v.31H145v1.15h1.63v.31H145Z"/><path id="Trazado_676" data-name="Trazado 676" class="cls-1" d="M150.18,31.67h0V28.82h.34v3.37h-.42l-2-2.88h0v2.88h-.34V28.82h.43Z"/><path id="Trazado_677" data-name="Trazado 677" class="cls-1" d="M152.8,32.19h-.34V29.13h-1.12v-.31h2.59v.31H152.8Z"/></g></g></g></g></svg>