<?xml version="1.0" encoding="utf-8"?>
<!-- Generator: Adobe Illustrator 25.4.1, SVG Export Plug-In . SVG Version: 6.00 Build 0)  -->
<svg version="1.1" id="Capa_1" xmlns="http://www.w3.org/2000/svg" xmlns:xlink="http://www.w3.org/1999/xlink" x="0px" y="0px"
	 viewBox="0 0 1080 1080" style="enable-background:new 0 0 1080 1080;" xml:space="preserve">
<style type="text/css">
	
		.st0{clip-path:url(#XMLID_00000032609242487992959030000004353670100967490464_);fill:none;stroke:#DAD7D0;stroke-width:0.5;stroke-miterlimit:10;}
	.st1{fill:#A3A3A2;}
	.st2{fill:#7C7C7C;}
	.st3{fill:#EAE5DC;}
	.st4{fill:#DAD7D0;enable-background:new    ;}
	.st5{clip-path:url(#XMLID_00000145745730055356362930000007563347957200575663_);fill:none;stroke:#7C7C7C;stroke-miterlimit:10;}
	.st6{clip-path:url(#XMLID_00000166672053885854605360000011224280571422402748_);fill:none;stroke:#A3A3A2;stroke-miterlimit:10;}
	.st7{fill:#DAD7D0;}
	.st8{opacity:0.81;fill:#DAB1D0;enable-background:new    ;}
	.st9{fill:none;stroke:#FFFFFF;stroke-width:3;stroke-linecap:round;stroke-linejoin:round;}
	.st10{fill:none;stroke:#895874;stroke-width:2;stroke-miterlimit:10;}
	.st11{fill:#895874;stroke:#895874;stroke-width:2;stroke-miterlimit:10;}
	.st12{fill:#895874;}
	.st13{fill:none;}
</style>
<g id="casa_2_dorm">
	<g>
		<defs>
			<polygon id="XMLID_00000029732515050165922730000000806311651383881106_" points="263.5,1379 332.6,1370.2 331.5,1520.9 
				333.3,1521.2 332.9,1641.9 261.3,1633.1 			"/>
		</defs>
		<use xlink:href="#XMLID_00000029732515050165922730000000806311651383881106_"  style="overflow:visible;fill:#7C7C7C;"/>
		<clipPath id="XMLID_00000085244718937857732290000015198986379428402107_">
			<use xlink:href="#XMLID_00000029732515050165922730000000806311651383881106_"  style="overflow:visible;"/>
		</clipPath>
		
			<line style="clip-path:url(#XMLID_00000085244718937857732290000015198986379428402107_);fill:none;stroke:#DAD7D0;stroke-width:0.5;stroke-miterlimit:10;" x1="249.3" y1="1351.7" x2="249.3" y2="1640.8"/>
		
			<line style="clip-path:url(#XMLID_00000085244718937857732290000015198986379428402107_);fill:none;stroke:#DAD7D0;stroke-width:0.5;stroke-miterlimit:10;" x1="255" y1="1351.7" x2="255" y2="1640.8"/>
		
			<line style="clip-path:url(#XMLID_00000085244718937857732290000015198986379428402107_);fill:none;stroke:#DAD7D0;stroke-width:0.5;stroke-miterlimit:10;" x1="261" y1="1351.7" x2="261" y2="1640.8"/>
		
			<line style="clip-path:url(#XMLID_00000085244718937857732290000015198986379428402107_);fill:none;stroke:#DAD7D0;stroke-width:0.5;stroke-miterlimit:10;" x1="266.5" y1="1351.7" x2="266.5" y2="1640.8"/>
		
			<line style="clip-path:url(#XMLID_00000085244718937857732290000015198986379428402107_);fill:none;stroke:#DAD7D0;stroke-width:0.5;stroke-miterlimit:10;" x1="272.2" y1="1351.7" x2="272.2" y2="1640.8"/>
		
			<line style="clip-path:url(#XMLID_00000085244718937857732290000015198986379428402107_);fill:none;stroke:#DAD7D0;stroke-width:0.5;stroke-miterlimit:10;" x1="277.7" y1="1351.7" x2="277.7" y2="1640.8"/>
		
			<line style="clip-path:url(#XMLID_00000085244718937857732290000015198986379428402107_);fill:none;stroke:#DAD7D0;stroke-width:0.5;stroke-miterlimit:10;" x1="284.5" y1="1354.9" x2="284.5" y2="1644"/>
		
			<line style="clip-path:url(#XMLID_00000085244718937857732290000015198986379428402107_);fill:none;stroke:#DAD7D0;stroke-width:0.5;stroke-miterlimit:10;" x1="290.5" y1="1354.9" x2="290.5" y2="1644"/>
		
			<line style="clip-path:url(#XMLID_00000085244718937857732290000015198986379428402107_);fill:none;stroke:#DAD7D0;stroke-width:0.5;stroke-miterlimit:10;" x1="296.6" y1="1354.9" x2="296.6" y2="1644"/>
		
			<line style="clip-path:url(#XMLID_00000085244718937857732290000015198986379428402107_);fill:none;stroke:#DAD7D0;stroke-width:0.5;stroke-miterlimit:10;" x1="302.7" y1="1354.9" x2="302.7" y2="1644"/>
		
			<line style="clip-path:url(#XMLID_00000085244718937857732290000015198986379428402107_);fill:none;stroke:#DAD7D0;stroke-width:0.5;stroke-miterlimit:10;" x1="308.7" y1="1359.1" x2="308.7" y2="1648.2"/>
		
			<line style="clip-path:url(#XMLID_00000085244718937857732290000015198986379428402107_);fill:none;stroke:#DAD7D0;stroke-width:0.5;stroke-miterlimit:10;" x1="314.6" y1="1362" x2="314.6" y2="1651.2"/>
		
			<line style="clip-path:url(#XMLID_00000085244718937857732290000015198986379428402107_);fill:none;stroke:#DAD7D0;stroke-width:0.5;stroke-miterlimit:10;" x1="321.1" y1="1362" x2="321.1" y2="1651.2"/>
		
			<line style="clip-path:url(#XMLID_00000085244718937857732290000015198986379428402107_);fill:none;stroke:#DAD7D0;stroke-width:0.5;stroke-miterlimit:10;" x1="327.5" y1="1363" x2="327.5" y2="1652.2"/>
		
			<line style="clip-path:url(#XMLID_00000085244718937857732290000015198986379428402107_);fill:none;stroke:#DAD7D0;stroke-width:0.5;stroke-miterlimit:10;" x1="334.3" y1="1359.1" x2="334.3" y2="1661.4"/>
		
			<line style="clip-path:url(#XMLID_00000085244718937857732290000015198986379428402107_);fill:none;stroke:#DAD7D0;stroke-width:0.5;stroke-miterlimit:10;" x1="340.7" y1="1359.1" x2="340.7" y2="1661.4"/>
	</g>
	<polygon class="st1" points="273.3,1448 298.9,1446.4 298.9,1483.6 273.3,1484 	"/>
	<polygon class="st2" points="275.2,1450.6 279.3,1450.3 279.3,1481 275,1481.2 	"/>
	<rect x="279.3" y="1450.3" class="st3" width="2.1" height="30.7"/>
	<polygon class="st4" points="281.4,1450.3 296.6,1449.7 296.6,1480.6 281.4,1481 	"/>
	<g>
		<defs>
			<path id="XMLID_00000024685765556807852050000011645724152033399978_" d="M332.9,1521.2l188.8,3.9l16.9-1.1v146.1l-205.8-28.2
				C332.9,1641.9,332.9,1521.6,332.9,1521.2z"/>
		</defs>
		<use xlink:href="#XMLID_00000024685765556807852050000011645724152033399978_"  style="overflow:visible;fill:#A3A3A2;"/>
		<clipPath id="XMLID_00000000209080679519567210000017068183498084556960_">
			<use xlink:href="#XMLID_00000024685765556807852050000011645724152033399978_"  style="overflow:visible;"/>
		</clipPath>
		
			<line style="clip-path:url(#XMLID_00000000209080679519567210000017068183498084556960_);fill:none;stroke:#7C7C7C;stroke-miterlimit:10;" x1="338.8" y1="1517.9" x2="338.8" y2="1651"/>
		
			<line style="clip-path:url(#XMLID_00000000209080679519567210000017068183498084556960_);fill:none;stroke:#7C7C7C;stroke-miterlimit:10;" x1="344.4" y1="1517.9" x2="344.4" y2="1651"/>
		
			<line style="clip-path:url(#XMLID_00000000209080679519567210000017068183498084556960_);fill:none;stroke:#7C7C7C;stroke-miterlimit:10;" x1="350.5" y1="1517.9" x2="350.5" y2="1651"/>
		
			<line style="clip-path:url(#XMLID_00000000209080679519567210000017068183498084556960_);fill:none;stroke:#7C7C7C;stroke-miterlimit:10;" x1="355.9" y1="1517.9" x2="355.9" y2="1651"/>
		
			<line style="clip-path:url(#XMLID_00000000209080679519567210000017068183498084556960_);fill:none;stroke:#7C7C7C;stroke-miterlimit:10;" x1="361.7" y1="1517.9" x2="361.7" y2="1651"/>
		
			<line style="clip-path:url(#XMLID_00000000209080679519567210000017068183498084556960_);fill:none;stroke:#7C7C7C;stroke-miterlimit:10;" x1="367.2" y1="1517.9" x2="367.2" y2="1651"/>
		
			<line style="clip-path:url(#XMLID_00000000209080679519567210000017068183498084556960_);fill:none;stroke:#7C7C7C;stroke-miterlimit:10;" x1="374" y1="1519.4" x2="374" y2="1652.5"/>
		
			<line style="clip-path:url(#XMLID_00000000209080679519567210000017068183498084556960_);fill:none;stroke:#7C7C7C;stroke-miterlimit:10;" x1="380" y1="1519.4" x2="380" y2="1652.5"/>
		
			<line style="clip-path:url(#XMLID_00000000209080679519567210000017068183498084556960_);fill:none;stroke:#7C7C7C;stroke-miterlimit:10;" x1="386" y1="1519.4" x2="386" y2="1652.5"/>
		
			<line style="clip-path:url(#XMLID_00000000209080679519567210000017068183498084556960_);fill:none;stroke:#7C7C7C;stroke-miterlimit:10;" x1="392.2" y1="1519.4" x2="392.2" y2="1652.5"/>
		
			<line style="clip-path:url(#XMLID_00000000209080679519567210000017068183498084556960_);fill:none;stroke:#7C7C7C;stroke-miterlimit:10;" x1="398.1" y1="1521.3" x2="398.1" y2="1654.4"/>
		
			<line style="clip-path:url(#XMLID_00000000209080679519567210000017068183498084556960_);fill:none;stroke:#7C7C7C;stroke-miterlimit:10;" x1="404.1" y1="1522.7" x2="404.1" y2="1655.8"/>
		
			<line style="clip-path:url(#XMLID_00000000209080679519567210000017068183498084556960_);fill:none;stroke:#7C7C7C;stroke-miterlimit:10;" x1="410.6" y1="1522.7" x2="410.6" y2="1655.8"/>
		
			<line style="clip-path:url(#XMLID_00000000209080679519567210000017068183498084556960_);fill:none;stroke:#7C7C7C;stroke-miterlimit:10;" x1="417" y1="1523.1" x2="417" y2="1656.3"/>
		
			<line style="clip-path:url(#XMLID_00000000209080679519567210000017068183498084556960_);fill:none;stroke:#7C7C7C;stroke-miterlimit:10;" x1="423.8" y1="1521.3" x2="423.8" y2="1660.5"/>
		
			<line style="clip-path:url(#XMLID_00000000209080679519567210000017068183498084556960_);fill:none;stroke:#7C7C7C;stroke-miterlimit:10;" x1="430.1" y1="1521.3" x2="430.1" y2="1660.5"/>
		
			<line style="clip-path:url(#XMLID_00000000209080679519567210000017068183498084556960_);fill:none;stroke:#7C7C7C;stroke-miterlimit:10;" x1="437.1" y1="1522.9" x2="437.1" y2="1662"/>
		
			<line style="clip-path:url(#XMLID_00000000209080679519567210000017068183498084556960_);fill:none;stroke:#7C7C7C;stroke-miterlimit:10;" x1="443.8" y1="1522.9" x2="443.8" y2="1662"/>
		
			<line style="clip-path:url(#XMLID_00000000209080679519567210000017068183498084556960_);fill:none;stroke:#7C7C7C;stroke-miterlimit:10;" x1="450.5" y1="1522.9" x2="450.5" y2="1662"/>
		
			<line style="clip-path:url(#XMLID_00000000209080679519567210000017068183498084556960_);fill:none;stroke:#7C7C7C;stroke-miterlimit:10;" x1="457.8" y1="1522.9" x2="457.8" y2="1662"/>
		
			<line style="clip-path:url(#XMLID_00000000209080679519567210000017068183498084556960_);fill:none;stroke:#7C7C7C;stroke-miterlimit:10;" x1="464.2" y1="1522.8" x2="464.2" y2="1664.9"/>
		
			<line style="clip-path:url(#XMLID_00000000209080679519567210000017068183498084556960_);fill:none;stroke:#7C7C7C;stroke-miterlimit:10;" x1="471.5" y1="1522.8" x2="471.5" y2="1664.9"/>
		
			<line style="clip-path:url(#XMLID_00000000209080679519567210000017068183498084556960_);fill:none;stroke:#7C7C7C;stroke-miterlimit:10;" x1="478.4" y1="1524.4" x2="478.4" y2="1666.5"/>
		
			<line style="clip-path:url(#XMLID_00000000209080679519567210000017068183498084556960_);fill:none;stroke:#7C7C7C;stroke-miterlimit:10;" x1="486.2" y1="1520.6" x2="486.2" y2="1667.3"/>
		
			<line style="clip-path:url(#XMLID_00000000209080679519567210000017068183498084556960_);fill:none;stroke:#7C7C7C;stroke-miterlimit:10;" x1="492.8" y1="1520.6" x2="492.8" y2="1667.3"/>
		
			<line style="clip-path:url(#XMLID_00000000209080679519567210000017068183498084556960_);fill:none;stroke:#7C7C7C;stroke-miterlimit:10;" x1="500.1" y1="1520.6" x2="500.1" y2="1667.3"/>
		
			<line style="clip-path:url(#XMLID_00000000209080679519567210000017068183498084556960_);fill:none;stroke:#7C7C7C;stroke-miterlimit:10;" x1="508.2" y1="1522.9" x2="508.2" y2="1670.6"/>
		
			<line style="clip-path:url(#XMLID_00000000209080679519567210000017068183498084556960_);fill:none;stroke:#7C7C7C;stroke-miterlimit:10;" x1="515.1" y1="1524.5" x2="515.1" y2="1672.2"/>
		
			<line style="clip-path:url(#XMLID_00000000209080679519567210000017068183498084556960_);fill:none;stroke:#7C7C7C;stroke-miterlimit:10;" x1="522.8" y1="1520.6" x2="522.8" y2="1673"/>
		
			<line style="clip-path:url(#XMLID_00000000209080679519567210000017068183498084556960_);fill:none;stroke:#7C7C7C;stroke-miterlimit:10;" x1="530.8" y1="1520.6" x2="530.8" y2="1673"/>
	</g>
	<g>
		<defs>
			<polygon id="XMLID_00000036948207210880130870000012560033984704626567_" points="538.7,1524 670.3,1518.7 670.3,1624.6 
				538.7,1670.2 			"/>
		</defs>
		
			<use xlink:href="#XMLID_00000036948207210880130870000012560033984704626567_"  style="overflow:visible;fill:#DAD7D0;enable-background:new    ;"/>
		<clipPath id="XMLID_00000127730122033681584640000002294172507631884698_">
			
				<use xlink:href="#XMLID_00000036948207210880130870000012560033984704626567_"  style="overflow:visible;enable-background:new    ;"/>
		</clipPath>
		
			<line style="clip-path:url(#XMLID_00000127730122033681584640000002294172507631884698_);fill:none;stroke:#A3A3A2;stroke-miterlimit:10;" x1="545.2" y1="1507.9" x2="545.2" y2="1674.2"/>
		
			<line style="clip-path:url(#XMLID_00000127730122033681584640000002294172507631884698_);fill:none;stroke:#A3A3A2;stroke-miterlimit:10;" x1="551.2" y1="1507.9" x2="551.2" y2="1674.2"/>
		
			<line style="clip-path:url(#XMLID_00000127730122033681584640000002294172507631884698_);fill:none;stroke:#A3A3A2;stroke-miterlimit:10;" x1="557.2" y1="1507.9" x2="557.2" y2="1674.2"/>
		
			<line style="clip-path:url(#XMLID_00000127730122033681584640000002294172507631884698_);fill:none;stroke:#A3A3A2;stroke-miterlimit:10;" x1="563.4" y1="1507.9" x2="563.4" y2="1674.2"/>
		
			<line style="clip-path:url(#XMLID_00000127730122033681584640000002294172507631884698_);fill:none;stroke:#A3A3A2;stroke-miterlimit:10;" x1="569.3" y1="1510.3" x2="569.3" y2="1676.6"/>
		
			<line style="clip-path:url(#XMLID_00000127730122033681584640000002294172507631884698_);fill:none;stroke:#A3A3A2;stroke-miterlimit:10;" x1="575.3" y1="1512" x2="575.3" y2="1678.3"/>
		
			<line style="clip-path:url(#XMLID_00000127730122033681584640000002294172507631884698_);fill:none;stroke:#A3A3A2;stroke-miterlimit:10;" x1="581.8" y1="1512" x2="581.8" y2="1678.3"/>
		
			<line style="clip-path:url(#XMLID_00000127730122033681584640000002294172507631884698_);fill:none;stroke:#A3A3A2;stroke-miterlimit:10;" x1="588.2" y1="1512.6" x2="588.2" y2="1678.9"/>
		
			<line style="clip-path:url(#XMLID_00000127730122033681584640000002294172507631884698_);fill:none;stroke:#A3A3A2;stroke-miterlimit:10;" x1="595" y1="1510.3" x2="595" y2="1684.2"/>
		
			<line style="clip-path:url(#XMLID_00000127730122033681584640000002294172507631884698_);fill:none;stroke:#A3A3A2;stroke-miterlimit:10;" x1="601.3" y1="1510.3" x2="601.3" y2="1684.2"/>
		
			<line style="clip-path:url(#XMLID_00000127730122033681584640000002294172507631884698_);fill:none;stroke:#A3A3A2;stroke-miterlimit:10;" x1="608.3" y1="1512.2" x2="608.3" y2="1686.1"/>
		
			<line style="clip-path:url(#XMLID_00000127730122033681584640000002294172507631884698_);fill:none;stroke:#A3A3A2;stroke-miterlimit:10;" x1="615" y1="1512.2" x2="615" y2="1686.1"/>
		
			<line style="clip-path:url(#XMLID_00000127730122033681584640000002294172507631884698_);fill:none;stroke:#A3A3A2;stroke-miterlimit:10;" x1="621.7" y1="1512.2" x2="621.7" y2="1686.1"/>
		
			<line style="clip-path:url(#XMLID_00000127730122033681584640000002294172507631884698_);fill:none;stroke:#A3A3A2;stroke-miterlimit:10;" x1="629" y1="1512.2" x2="629" y2="1686.1"/>
		
			<line style="clip-path:url(#XMLID_00000127730122033681584640000002294172507631884698_);fill:none;stroke:#A3A3A2;stroke-miterlimit:10;" x1="635.4" y1="1512.1" x2="635.4" y2="1689.7"/>
		
			<line style="clip-path:url(#XMLID_00000127730122033681584640000002294172507631884698_);fill:none;stroke:#A3A3A2;stroke-miterlimit:10;" x1="642.7" y1="1512.1" x2="642.7" y2="1689.7"/>
		
			<line style="clip-path:url(#XMLID_00000127730122033681584640000002294172507631884698_);fill:none;stroke:#A3A3A2;stroke-miterlimit:10;" x1="649.6" y1="1514.1" x2="649.6" y2="1691.6"/>
		
			<line style="clip-path:url(#XMLID_00000127730122033681584640000002294172507631884698_);fill:none;stroke:#A3A3A2;stroke-miterlimit:10;" x1="657.4" y1="1509.4" x2="657.4" y2="1692.6"/>
		
			<line style="clip-path:url(#XMLID_00000127730122033681584640000002294172507631884698_);fill:none;stroke:#A3A3A2;stroke-miterlimit:10;" x1="664" y1="1509.4" x2="664" y2="1692.6"/>
	</g>
	<polygon class="st4" points="332.9,1364.5 522.1,1339.8 522.1,1525.1 331.5,1521.4 	"/>
	<polygon class="st1" points="344.3,1401.9 405.7,1396.3 405.7,1480.3 343.6,1481.9 	"/>
	<polygon class="st3" points="353.7,1406.2 393.6,1402.6 393.6,1477.1 353.4,1478.2 	"/>
	<path class="st4" d="M393.6,1402.6l9.5-0.9v75.5l-9.5-0.1C393.6,1477.1,393.6,1403.1,393.6,1402.6z"/>
	<polygon class="st2" points="403.4,1399.1 403.4,1401.7 353.7,1406.2 346.7,1404.5 	"/>
	<polygon class="st1" points="468.5,1389.7 506.2,1386.6 506.2,1432.6 468.5,1434.9 	"/>
	<polygon class="st3" points="475.6,1394.4 475.6,1431.1 485,1430.8 485,1393.5 	"/>
	<path class="st4" d="M485,1393.5l18.4-1.3l0.6,37.9l-19,0.7C485,1430.8,484.8,1393.2,485,1393.5z"/>
	<polygon class="st2" points="503.6,1389.9 503.6,1392 475.6,1394.4 475.6,1431.1 471,1431.3 471.1,1393.1 	"/>
	<path class="st3" d="M522.1,1339.8l158.5,49.1v129.5l-158.5,6.7C522.1,1525.1,522.1,1340.2,522.1,1339.8z"/>
	<polygon class="st2" points="346.7,1404.5 346.7,1478.4 353.4,1478.4 353.7,1406.2 	"/>
	<polygon class="st2" points="373.3,1562 430.5,1565.7 430.5,1602.6 373.2,1597.5 	"/>
	<polygon class="st4" points="376.8,1563.3 376.8,1596.7 398.9,1598.9 398.9,1564.3 	"/>
	<path class="st2" d="M373.7,1563.2l3.1,0.1v33.4h-3.1C373.7,1596.7,373.9,1563.2,373.7,1563.2z"/>
	<path class="st2" d="M401.2,1564.4l3.1,0.1v35l-3.1-0.4C401.2,1599.2,401.4,1564.4,401.2,1564.4z"/>
	<polygon class="st7" points="404.4,1564.7 421.7,1565.9 421.7,1601.2 404.2,1599.6 	"/>
	<path class="st3" d="M421.7,1565.9l8.1,0.5l0.2,35.4l-8.3-0.7C421.7,1601.2,421.7,1566,421.7,1565.9z"/>
</g>
<g id="Planta_Baja">
	<polygon class="st8" points="262.2,1522.3 521.9,1526.3 670.3,1519.2 670.3,1628.3 537.6,1671.4 260.6,1634.6 	"/>
	<polygon class="st9" points="263.2,1522.3 522.9,1526.3 671.3,1519.2 671.3,1628.3 538.6,1671.4 261.6,1634.6 	"/>
	
		<line id="Línea_140144-2-2_00000037671329658361239920000016741478974705841080_" class="st10" x1="280.6" y1="1581.7" x2="235.7" y2="1581.7"/>
	<g id="Grupo_1806-2-2">
		<circle id="Elipse_90-2-2_00000085252491220619318250000017584837273104422787_" class="st11" cx="280.5" cy="1581.7" r="1.7"/>
	</g>
	
		<rect id="Rectángulo_41-2_00000107589249773540810670000011950043484385946291_" x="173.4" y="1561.5" class="st12" width="62.3" height="37.1"/>
	<g>
		<rect x="173.4" y="1567.8" class="st13" width="62.3" height="29.8"/>
		<text transform="matrix(1 0 0 1 181.4247 1576.7522)" style="fill:#FFFFFF; font-family:'Roboto-Bold'; font-size:12px;">PLANTA</text>
		<text transform="matrix(1 0 0 1 189.5247 1591.1521)" style="fill:#FFFFFF; font-family:'Roboto-Bold'; font-size:12px;">BAJA</text>
	</g>
</g>
<g id="Planta_Alta_00000048477381561151149510000013285011320150387624_">
	<polygon class="st8" points="262.2,1378.9 262.2,1520.3 521.9,1525.8 681.2,1518 680.2,1389.1 521.2,1339.1 332.1,1364 
		332.1,1370.2 	"/>
	<polygon class="st9" points="263.2,1378.9 263.2,1520.3 522.9,1525.8 682.2,1518 681.2,1389.1 522.2,1339.1 333.1,1364 
		333.1,1370.2 	"/>
	
		<line id="Línea_140144-2_00000178901802040909338080000014146049403068784301_" class="st10" x1="280.6" y1="1454" x2="235.7" y2="1454"/>
	<g id="Grupo_1806-2">
		<circle id="Elipse_90-2_00000166660098759379734600000002684320200615317657_" class="st11" cx="280.5" cy="1454" r="1.7"/>
	</g>
	
		<rect id="Rectángulo_41-2_00000176044610299217813790000006404202486231990182_" x="173.4" y="1436.1" class="st12" width="62.3" height="37.1"/>
	<g>
		<rect x="173.4" y="1442.4" class="st13" width="62.3" height="29.8"/>
		<text transform="matrix(1 0 0 1 181.4247 1451.4514)" style="fill:#FFFFFF; font-family:'Roboto-Bold'; font-size:12px;">PLANTA</text>
		<text transform="matrix(1 0 0 1 189.5247 1465.8513)" style="fill:#FFFFFF; font-family:'Roboto-Bold'; font-size:12px;">ALTA</text>
	</g>
</g>
</svg>
