<svg xmlns="http://www.w3.org/2000/svg" viewBox="0 0 554.5 328.4"><defs><style>.cls-1{fill:#eae5dc;}.cls-2{fill:#dad7d0;}.cls-3{fill:#7c7c7c;}.cls-4{fill:#a3a3a2;}.cls-5{fill:#999;}.cls-6{fill:#dab1d0;opacity:0.81;}.cls-12,.cls-6{isolation:isolate;}.cls-11,.cls-7,.cls-8{fill:none;}.cls-7{stroke:#fff;stroke-linecap:round;stroke-linejoin:round;stroke-width:3px;}.cls-8,.cls-9{stroke:#895874;stroke-miterlimit:10;stroke-width:2px;}.cls-10,.cls-9{fill:#895874;}.cls-12{font-size:12px;fill:#fff;font-family:Roboto-Bold, Roboto;font-weight:700;}.cls-13{letter-spacing:0.01em;}.cls-14{letter-spacing:-0.01em;}.cls-15{letter-spacing:-0.06em;}.cls-16{letter-spacing:-0.01em;}.cls-17{letter-spacing:-0.1em;}</style></defs><g id="Capa_2" data-name="Capa 2"><g id="Capa_1-2" data-name="Capa 1"><g id="casa_3_dorm" data-name="casa 3 dorm"><polygon class="cls-1" points="298.9 1.5 298.9 184.1 554 179.4 554 40.6 298.9 1.5"/><path class="cls-2" d="M300.1,1.5l-179.5,40V179.9L299,184.1C298.9,184.1,299.1.6,300.1,1.5Z"/><path class="cls-3" d="M90.9,53.8l29.2-6.6V179.9l34.4.5v112L89.6,279.2C89.5,279.2,90.9,52.4,90.9,53.8Z"/><path class="cls-4" d="M154.5,180.4,299,184.2l216.5-3.8.6,112.1L304.7,324.2,154.6,292C154.5,291.9,153.8,179.7,154.5,180.4Z"/><polygon class="cls-4" points="127.9 74.5 164.8 68.4 164.8 143.4 127.2 144.8 127.9 74.5"/><polygon class="cls-3" points="130.2 76.4 130.2 142.2 137.8 141.8 162.9 140.8 162.8 73.5 162.8 71.2 130.2 76.4"/><polygon class="cls-4" points="204.5 69.8 227.9 66.5 227.8 108.4 204.4 110.4 204.5 69.8"/><polygon class="cls-3" points="226.1 69.5 226.1 105.3 206.5 107.4 206.5 72.6 226.1 69.5"/><path class="cls-1" d="M210.1,73.6l15.5-2.3v34.1l-15.5,1.7S210.3,73.4,210.1,73.6Z"/><polygon class="cls-4" points="193.8 220.8 217.2 217.5 217.1 259.5 193.6 261.4 193.8 220.8"/><polygon class="cls-3" points="215.4 220.6 215.4 256.4 195.8 258.5 195.8 223.7 215.4 220.6"/><path class="cls-1" d="M199.4,224.7l15.5-2.3v34.1l-15.5,1.7C199.4,258.1,199.6,224.5,199.4,224.7Z"/><polygon class="cls-4" points="259 62 286.4 57.7 286.3 103.2 258.9 105.5 259 62"/><polygon class="cls-3" points="284.5 61.2 284.5 100.3 260.9 102.6 260.9 64.5 284.5 61.2"/><path class="cls-1" d="M265.8,66.1l18.4-2.5v36.8l-18.4,1.8C265.7,102.2,266,65.9,265.8,66.1Z"/><polygon class="cls-4" points="343.8 60.7 309.4 57 309.5 103 343.8 104.9 343.8 60.7"/><polygon class="cls-3" points="311.6 60.4 311.6 100.1 341.4 102.1 341.4 63.4 311.6 60.4"/><polygon class="cls-1" points="137.4 77.5 137.4 141.8 162.4 140.8 162.4 73.5 137.4 77.5"/><path class="cls-1" d="M312.4,61.8l24.7,2.6v37.4l-24.9-1.7S312.4,61.7,312.4,61.8Z"/><polygon class="cls-4" points="450.9 87.7 416.5 84 416.6 130 450.9 131.9 450.9 87.7"/><polygon class="cls-3" points="418.8 87.4 418.8 127.1 448.5 129.1 448.5 90.4 418.8 87.4"/><path class="cls-1" d="M419.5,88.8l24.7,2.6v37.4l-24.9-1.7S419.5,88.7,419.5,88.8Z"/><path class="cls-4" d="M481.4,74.5l47.4,4.8V152l-47.1-1.1C481.8,150.8,481.6,74.5,481.4,74.5Z"/><polygon class="cls-3" points="482.9 77.4 526.2 81.8 526.2 149.2 483.2 148.2 482.9 77.4"/><polygon class="cls-1" points="482.9 79.7 518.6 82.9 518.5 148.9 483.1 148.6 482.9 79.7"/><polygon class="cls-4" points="482.9 87.3 512.1 84.6 512.1 149.4 483.2 148.2 482.9 87.3"/><polygon class="cls-3" points="510.2 87.1 510.2 88.2 482.9 90.7 482.9 89.7 510.2 87.1"/><path class="cls-1" d="M483.1,90.8l27.2-2.6v60.5l-26.9-.1C483.3,148.6,482.9,90.7,483.1,90.8Z"/><path class="cls-1" d="M227.6,223.8l15.2,1.4v31.6l-12.4.1h-2.9S227.8,223.9,227.6,223.8Z"/><path class="cls-3" d="M222.8,223.3l4.8.5-.1,34.2-4.8-.8S223.2,223.3,222.8,223.3Z"/><path class="cls-3" d="M245.6,224.9l4.8.5-.1,36.2-4.8-.8S246,224.9,245.6,224.9Z"/><polygon class="cls-3" points="242.8 260.1 242.8 256.8 227.5 256.9 227.5 258 242.8 260.1"/><polygon class="cls-3" points="265.9 263.5 265.9 256.8 250 255.1 250 261.4 265.9 263.5"/><path class="cls-1" d="M250.4,225.8l15.4,1.4.2,30.2-8.7-1.4h-7C250.2,256,250.5,225.9,250.4,225.8Z"/><polygon class="cls-3" points="373.9 182.6 373.7 314.1 343.2 318.4 343.4 183.2 373.9 182.6"/><polygon class="cls-5" points="345.6 186.9 345.6 253.2 363.5 255.2 363.5 186.6 345.6 186.9"/><polygon class="cls-3" points="347.8 186.8 362.1 186.5 361.9 255.5 348.1 254.1 347.8 186.8"/><polygon class="cls-1" points="367.9 310.1 365.4 310.2 365.4 186.5 367.9 186.4 367.9 310.1"/><path class="cls-1" d="M345.5,261l20.5,2.1v44.1L345.6,304C345.5,304,345.6,260.8,345.5,261Z"/><polygon class="cls-5" points="345.5 304.1 345.5 313.5 365.9 310.2 365.9 307.2 345.5 304.1"/><polygon class="cls-3" points="427.3 182 448.4 181.6 448.4 302.6 425.5 305.9 425.8 182 427.3 182"/><polygon class="cls-5" points="444.2 284.7 444.2 299.2 425.6 302.2 425.6 282 444.2 284.7"/><polygon class="cls-1" points="426.5 280.6 425.8 282 444.2 284.7 444.2 282.9 426.5 280.6"/><path class="cls-1" d="M429.1,185.6l15-.2v93.8l-15.3-2C428.7,277.2,429.3,185.6,429.1,185.6Z"/><polygon class="cls-3" points="471.1 181.1 471.3 299.3 450.1 302.3 450.1 181.6 471.1 181.1"/><polygon class="cls-1" points="450.2 185.5 467.1 185.3 467.6 282 449.9 279.9 450.2 185.5"/><polygon class="cls-1" points="450.3 283.2 450.3 285.5 467.8 288 467.8 285.7 450.3 283.2"/><polygon class="cls-5" points="450.2 285.5 450.2 298.5 467.8 296 467.8 288 450.2 285.5"/><polygon class="cls-3" points="473.1 181.4 494.9 180.5 494.9 295.9 472.9 298.9 473.1 181.4"/><path class="cls-1" d="M473,184.8l16.1-.4V293l-2.1.4v-3.2l-14-1.9C473,288.4,473.3,184.5,473,184.8Z"/><polygon class="cls-5" points="472.9 288.5 472.9 295.7 487 293.5 487 290.3 472.9 288.5"/><polygon class="cls-4" points="96.2 115.1 111.8 113.7 111.8 146.6 96.4 147.2 96.2 115.1"/><polygon class="cls-1" points="101.7 117.3 101.9 144.7 110.4 144.2 110.4 116.5 101.7 117.3"/><polygon class="cls-3" points="97.7 117.7 101.7 117.3 101.9 144.7 97.8 144.9 97.7 117.7"/></g><g id="Planta_baja" data-name="Planta baja"><path id="Trazado_11327-3" data-name="Trazado 11327-3" class="cls-6" d="M88,180.9l210.2,5.3,218.2-3.3.5,112.6-214,31.4L88,280.9Z"/><path id="Trazado_11329" data-name="Trazado 11329" class="cls-7" d="M88,180.9l210.2,5.3,218.2-3.3.5,112.6-214,31.4L88,280.9Z"/><line id="Línea_140144-2-2" data-name="Línea 140144-2-2" class="cls-8" x1="139.9" y1="223" x2="59" y2="223"/><circle id="Elipse_90-2-2" data-name="Elipse 90-2-2" class="cls-9" cx="139.8" cy="223" r="1.7"/><rect id="Rectángulo_41-2" data-name="Rectángulo 41-2" class="cls-10" y="204.5" width="62.3" height="37.1"/><rect class="cls-11" y="210.8" width="62.3" height="29.8"/><text class="cls-12" transform="translate(7.95 219.86)">P<tspan class="cls-13" x="7.74" y="0">L</tspan><tspan x="14.35" y="0">A</tspan><tspan class="cls-14" x="22.42" y="0">N</tspan><tspan class="cls-15" x="30.73" y="0">T</tspan><tspan x="37.45" y="0">A</tspan></text><text class="cls-12" transform="translate(15.85 234.26)">BA<tspan class="cls-16" x="15.73" y="0">J</tspan><tspan x="22.31" y="0">A</tspan></text></g><g id="Planta_Alta" data-name="Planta Alta"><path id="Trazado_11327" data-name="Trazado 11327" class="cls-6" d="M85.9,181l210.2,5.3L553,183l-.4-141.3L295.6,2.5,117.1,42.1l.2,6.1L85.9,54.7Z"/><path id="Trazado_11327-2" data-name="Trazado 11327-2" class="cls-7" d="M85.9,180l210.2,5.3L553,182l-.4-141.3L295.6,1.5,117.1,41.1l.2,6.1L85.9,53.7Z"/><rect id="Rectángulo_41-2-2" data-name="Rectángulo 41-2" class="cls-10" y="90.9" width="62.3" height="37.1"/><line id="Línea_140144-2" data-name="Línea 140144-2" class="cls-8" x1="103.9" y1="108.9" x2="59" y2="108.9"/><circle id="Elipse_90-2" data-name="Elipse 90-2" class="cls-9" cx="103.8" cy="108.9" r="1.7"/><rect class="cls-11" y="97.2" width="62.3" height="29.8"/><text class="cls-12" transform="translate(7.95 106.21)">P<tspan class="cls-13" x="7.74" y="0">L</tspan><tspan x="14.35" y="0">A</tspan><tspan class="cls-14" x="22.42" y="0">N</tspan><tspan class="cls-15" x="30.73" y="0">T</tspan><tspan x="37.45" y="0">A</tspan></text><text class="cls-12" transform="translate(16.05 120.61)">A<tspan class="cls-17" x="8.07" y="0">L</tspan><tspan class="cls-15" x="13.37" y="0">T</tspan><tspan x="20.09" y="0">A</tspan></text></g></g></g></svg>