<?xml version="1.0" encoding="utf-8"?>
<!-- Generator: Adobe Illustrator 25.4.1, SVG Export Plug-In . SVG Version: 6.00 Build 0)  -->
<svg version="1.1" id="Capa_1" xmlns="http://www.w3.org/2000/svg" xmlns:xlink="http://www.w3.org/1999/xlink" x="0px" y="0px"
	 viewBox="0 0 604.2 376.6" style="enable-background:new 0 0 604.2 376.6;" xml:space="preserve">
<style type="text/css">
	.st0{fill:#EAE5DC;}
	.st1{fill:#DAD7D0;enable-background:new    ;}

		.st2{clip-path:url(#XMLID_00000011715752352220884960000015257947862346357437_);fill:none;stroke:#DAD7D0;stroke-width:0.5;stroke-miterlimit:10;}
	.st3{clip-path:url(#XMLID_00000132785283023231745480000012754672846838652813_);fill:none;stroke:#7C7C7C;stroke-miterlimit:10;}
	.st4{clip-path:url(#XMLID_00000177454520027871212040000007555866648878631058_);}
	.st5{fill:none;stroke:#A3A3A2;stroke-miterlimit:10;}
	.st6{fill:#A3A3A2;}
	.st7{fill:#7C7C7C;}
	.st8{fill:#999999;}
	.st9{opacity:0.81;fill:#DAB1D0;enable-background:new    ;}
	.st10{fill:none;stroke:#FFFFFF;stroke-width:3;stroke-linecap:round;stroke-linejoin:round;}
	.st11{fill:none;stroke:#895874;stroke-width:2;stroke-miterlimit:10;}
	.st12{fill:#895874;stroke:#895874;stroke-width:2;stroke-miterlimit:10;}
	.st13{fill:#895874;}
	.st14{fill:none;}
	.st15{fill:#FFFFFF;}
	.st16{font-family:'Roboto-Bold', Roboto; font-weight:700;}
	.st17{font-size:12px;}
</style>
<g id="Casa_3">
	<g id="casa_3_dorm">
		<polygon class="st0" points="333.8,25.4 333.8,208 588.9,203.3 588.9,64.5 		"/>
		<path class="st1" d="M335,25.4l-179.5,40v138.4l178.4,4.2C333.8,208,334,24.5,335,25.4z"/>
		<g>
			<defs>
				<path id="XMLID_00000052815232814088920200000017527828603978961042_" d="M125.8,77.6l29.2-6.6v132.7l34.4,0.5v112l-64.9-13.2
					C124.4,303.1,125.8,76.2,125.8,77.6z"/>
			</defs>
			<use xlink:href="#XMLID_00000052815232814088920200000017527828603978961042_"  style="overflow:visible;fill:#7C7C7C;"/>
			<clipPath id="XMLID_00000158018179757002341260000013875963843498018208_">
				<use xlink:href="#XMLID_00000052815232814088920200000017527828603978961042_"  style="overflow:visible;"/>
			</clipPath>

				<line style="clip-path:url(#XMLID_00000158018179757002341260000013875963843498018208_);fill:none;stroke:#DAD7D0;stroke-width:0.5;stroke-miterlimit:10;" x1="183.5" y1="204.2" x2="183.5" y2="314.8"/>

				<line style="clip-path:url(#XMLID_00000158018179757002341260000013875963843498018208_);fill:none;stroke:#DAD7D0;stroke-width:0.5;stroke-miterlimit:10;" x1="178.7" y1="204.1" x2="178.7" y2="314"/>

				<line style="clip-path:url(#XMLID_00000158018179757002341260000013875963843498018208_);fill:none;stroke:#DAD7D0;stroke-width:0.5;stroke-miterlimit:10;" x1="173.8" y1="203.9" x2="173.8" y2="313.2"/>

				<line style="clip-path:url(#XMLID_00000158018179757002341260000013875963843498018208_);fill:none;stroke:#DAD7D0;stroke-width:0.5;stroke-miterlimit:10;" x1="169.3" y1="204.1" x2="169.3" y2="312"/>

				<line style="clip-path:url(#XMLID_00000158018179757002341260000013875963843498018208_);fill:none;stroke:#DAD7D0;stroke-width:0.5;stroke-miterlimit:10;" x1="164.8" y1="204" x2="164.8" y2="311.3"/>

				<line style="clip-path:url(#XMLID_00000158018179757002341260000013875963843498018208_);fill:none;stroke:#DAD7D0;stroke-width:0.5;stroke-miterlimit:10;" x1="160.3" y1="203.8" x2="160.3" y2="310.5"/>

				<line style="clip-path:url(#XMLID_00000158018179757002341260000013875963843498018208_);fill:none;stroke:#DAD7D0;stroke-width:0.5;stroke-miterlimit:10;" x1="156.6" y1="203.6" x2="156.6" y2="309.6"/>

				<line style="clip-path:url(#XMLID_00000158018179757002341260000013875963843498018208_);fill:none;stroke:#DAD7D0;stroke-width:0.5;stroke-miterlimit:10;" x1="152" y1="71.8" x2="152" y2="308.7"/>

				<line style="clip-path:url(#XMLID_00000158018179757002341260000013875963843498018208_);fill:none;stroke:#DAD7D0;stroke-width:0.5;stroke-miterlimit:10;" x1="147.8" y1="72.9" x2="147.8" y2="307.4"/>

				<line style="clip-path:url(#XMLID_00000158018179757002341260000013875963843498018208_);fill:none;stroke:#DAD7D0;stroke-width:0.5;stroke-miterlimit:10;" x1="144.1" y1="73.4" x2="144.1" y2="306.8"/>

				<line style="clip-path:url(#XMLID_00000158018179757002341260000013875963843498018208_);fill:none;stroke:#DAD7D0;stroke-width:0.5;stroke-miterlimit:10;" x1="140" y1="74.6" x2="140" y2="306.1"/>

				<line style="clip-path:url(#XMLID_00000158018179757002341260000013875963843498018208_);fill:none;stroke:#DAD7D0;stroke-width:0.5;stroke-miterlimit:10;" x1="136" y1="75.5" x2="136" y2="305.5"/>

				<line style="clip-path:url(#XMLID_00000158018179757002341260000013875963843498018208_);fill:none;stroke:#DAD7D0;stroke-width:0.5;stroke-miterlimit:10;" x1="131.9" y1="76.3" x2="131.9" y2="304.4"/>

				<line style="clip-path:url(#XMLID_00000158018179757002341260000013875963843498018208_);fill:none;stroke:#DAD7D0;stroke-width:0.5;stroke-miterlimit:10;" x1="127.9" y1="76.5" x2="127.9" y2="303.6"/>
		</g>
		<g>
			<defs>
				<path id="XMLID_00000071557282596384114070000016293662298759276200_" d="M339.5,348l-150.1-32.2c0,0-0.7-112.2,0-111.5
					l150.4,3.8L339.5,348z"/>
			</defs>
			<use xlink:href="#XMLID_00000071557282596384114070000016293662298759276200_"  style="overflow:visible;fill:#A3A3A2;"/>
			<clipPath id="XMLID_00000164500899233575907670000007676591609633172612_">
				<use xlink:href="#XMLID_00000071557282596384114070000016293662298759276200_"  style="overflow:visible;"/>
			</clipPath>

				<line style="clip-path:url(#XMLID_00000164500899233575907670000007676591609633172612_);fill:none;stroke:#7C7C7C;stroke-miterlimit:10;" x1="297.6" y1="203.4" x2="297.6" y2="343.3"/>

				<line style="clip-path:url(#XMLID_00000164500899233575907670000007676591609633172612_);fill:none;stroke:#7C7C7C;stroke-miterlimit:10;" x1="292.8" y1="203.3" x2="292.8" y2="342.2"/>

				<line style="clip-path:url(#XMLID_00000164500899233575907670000007676591609633172612_);fill:none;stroke:#7C7C7C;stroke-miterlimit:10;" x1="287.7" y1="203.1" x2="287.7" y2="340.7"/>

				<line style="clip-path:url(#XMLID_00000164500899233575907670000007676591609633172612_);fill:none;stroke:#7C7C7C;stroke-miterlimit:10;" x1="283" y1="203.3" x2="283" y2="339.7"/>

				<line style="clip-path:url(#XMLID_00000164500899233575907670000007676591609633172612_);fill:none;stroke:#7C7C7C;stroke-miterlimit:10;" x1="278.2" y1="203.2" x2="278.2" y2="338.9"/>

				<line style="clip-path:url(#XMLID_00000164500899233575907670000007676591609633172612_);fill:none;stroke:#7C7C7C;stroke-miterlimit:10;" x1="273.2" y1="202.9" x2="273.2" y2="337.8"/>

				<line style="clip-path:url(#XMLID_00000164500899233575907670000007676591609633172612_);fill:none;stroke:#7C7C7C;stroke-miterlimit:10;" x1="269" y1="202.7" x2="269" y2="336.7"/>

				<line style="clip-path:url(#XMLID_00000164500899233575907670000007676591609633172612_);fill:none;stroke:#7C7C7C;stroke-miterlimit:10;" x1="264.2" y1="202.6" x2="264.2" y2="335.6"/>

				<line style="clip-path:url(#XMLID_00000164500899233575907670000007676591609633172612_);fill:none;stroke:#7C7C7C;stroke-miterlimit:10;" x1="260" y1="202.4" x2="260" y2="334.8"/>

				<line style="clip-path:url(#XMLID_00000164500899233575907670000007676591609633172612_);fill:none;stroke:#7C7C7C;stroke-miterlimit:10;" x1="255.3" y1="202.4" x2="255.3" y2="333.7"/>

				<line style="clip-path:url(#XMLID_00000164500899233575907670000007676591609633172612_);fill:none;stroke:#7C7C7C;stroke-miterlimit:10;" x1="250.4" y1="202.3" x2="250.4" y2="332.6"/>

				<line style="clip-path:url(#XMLID_00000164500899233575907670000007676591609633172612_);fill:none;stroke:#7C7C7C;stroke-miterlimit:10;" x1="246.1" y1="202.1" x2="246.1" y2="331.6"/>

				<line style="clip-path:url(#XMLID_00000164500899233575907670000007676591609633172612_);fill:none;stroke:#7C7C7C;stroke-miterlimit:10;" x1="241.9" y1="202.2" x2="241.9" y2="330.4"/>

				<line style="clip-path:url(#XMLID_00000164500899233575907670000007676591609633172612_);fill:none;stroke:#7C7C7C;stroke-miterlimit:10;" x1="238.1" y1="202.1" x2="238.1" y2="329.6"/>

				<line style="clip-path:url(#XMLID_00000164500899233575907670000007676591609633172612_);fill:none;stroke:#7C7C7C;stroke-miterlimit:10;" x1="233.6" y1="201.8" x2="233.6" y2="328.6"/>

				<line style="clip-path:url(#XMLID_00000164500899233575907670000007676591609633172612_);fill:none;stroke:#7C7C7C;stroke-miterlimit:10;" x1="229.3" y1="202.1" x2="229.3" y2="327.9"/>

				<line style="clip-path:url(#XMLID_00000164500899233575907670000007676591609633172612_);fill:none;stroke:#7C7C7C;stroke-miterlimit:10;" x1="225.3" y1="202" x2="225.3" y2="327"/>

				<line style="clip-path:url(#XMLID_00000164500899233575907670000007676591609633172612_);fill:none;stroke:#7C7C7C;stroke-miterlimit:10;" x1="221.7" y1="201.7" x2="221.7" y2="326.1"/>

				<line style="clip-path:url(#XMLID_00000164500899233575907670000007676591609633172612_);fill:none;stroke:#7C7C7C;stroke-miterlimit:10;" x1="217.3" y1="201.1" x2="217.3" y2="325.1"/>

				<line style="clip-path:url(#XMLID_00000164500899233575907670000007676591609633172612_);fill:none;stroke:#7C7C7C;stroke-miterlimit:10;" x1="213.6" y1="201.4" x2="213.6" y2="324.4"/>

				<line style="clip-path:url(#XMLID_00000164500899233575907670000007676591609633172612_);fill:none;stroke:#7C7C7C;stroke-miterlimit:10;" x1="209.7" y1="201.2" x2="209.7" y2="323.4"/>

				<line style="clip-path:url(#XMLID_00000164500899233575907670000007676591609633172612_);fill:none;stroke:#7C7C7C;stroke-miterlimit:10;" x1="205.8" y1="201.2" x2="205.8" y2="322.3"/>

				<line style="clip-path:url(#XMLID_00000164500899233575907670000007676591609633172612_);fill:none;stroke:#7C7C7C;stroke-miterlimit:10;" x1="202.2" y1="201.1" x2="202.2" y2="321.6"/>

				<line style="clip-path:url(#XMLID_00000164500899233575907670000007676591609633172612_);fill:none;stroke:#7C7C7C;stroke-miterlimit:10;" x1="198.1" y1="200.9" x2="198.1" y2="320.6"/>

				<line style="clip-path:url(#XMLID_00000164500899233575907670000007676591609633172612_);fill:none;stroke:#7C7C7C;stroke-miterlimit:10;" x1="193.8" y1="200.9" x2="193.8" y2="319.8"/>

				<line style="clip-path:url(#XMLID_00000164500899233575907670000007676591609633172612_);fill:none;stroke:#7C7C7C;stroke-miterlimit:10;" x1="301.7" y1="203.1" x2="301.7" y2="344"/>

				<line style="clip-path:url(#XMLID_00000164500899233575907670000007676591609633172612_);fill:none;stroke:#7C7C7C;stroke-miterlimit:10;" x1="307" y1="203.1" x2="307" y2="345.1"/>

				<line style="clip-path:url(#XMLID_00000164500899233575907670000007676591609633172612_);fill:none;stroke:#7C7C7C;stroke-miterlimit:10;" x1="312.2" y1="203.1" x2="312.2" y2="346.4"/>

				<line style="clip-path:url(#XMLID_00000164500899233575907670000007676591609633172612_);fill:none;stroke:#7C7C7C;stroke-miterlimit:10;" x1="317.5" y1="203.1" x2="317.5" y2="347.6"/>

				<line style="clip-path:url(#XMLID_00000164500899233575907670000007676591609633172612_);fill:none;stroke:#7C7C7C;stroke-miterlimit:10;" x1="323" y1="203.3" x2="323" y2="348.4"/>

				<line style="clip-path:url(#XMLID_00000164500899233575907670000007676591609633172612_);fill:none;stroke:#7C7C7C;stroke-miterlimit:10;" x1="328.2" y1="203.5" x2="328.2" y2="349.9"/>

				<line style="clip-path:url(#XMLID_00000164500899233575907670000007676591609633172612_);fill:none;stroke:#7C7C7C;stroke-miterlimit:10;" x1="334" y1="203.8" x2="334" y2="351.4"/>
		</g>
		<g>
			<defs>
				<polygon id="XMLID_00000180354407616305293740000006017193038021468035_" points="339.8,207.9 550.3,204.2 550.9,316.3
					339.5,348 				"/>
			</defs>

				<use xlink:href="#XMLID_00000180354407616305293740000006017193038021468035_"  style="overflow:visible;fill:#DAD7D0;enable-background:new    ;"/>
			<clipPath id="XMLID_00000040550964603895148650000011523400170627676591_">

					<use xlink:href="#XMLID_00000180354407616305293740000006017193038021468035_"  style="overflow:visible;enable-background:new    ;"/>
			</clipPath>
			<g style="clip-path:url(#XMLID_00000040550964603895148650000011523400170627676591_);">
				<line class="st5" x1="415.3" y1="201.2" x2="415.3" y2="341.7"/>
				<line class="st5" x1="421.6" y1="201" x2="421.6" y2="340.5"/>
				<line class="st5" x1="427.4" y1="201" x2="427.4" y2="339.6"/>
				<line class="st5" x1="433.2" y1="200.5" x2="433.2" y2="338.6"/>
				<line class="st5" x1="438.9" y1="200.5" x2="438.9" y2="337.5"/>
				<line class="st5" x1="444.7" y1="200.5" x2="444.7" y2="336.3"/>
				<line class="st5" x1="449.9" y1="200.5" x2="449.9" y2="335.6"/>
				<line class="st5" x1="455.7" y1="200.5" x2="455.7" y2="335"/>
				<line class="st5" x1="345.9" y1="202.5" x2="345.9" y2="352.8"/>
				<line class="st5" x1="352.5" y1="202.5" x2="352.5" y2="351.6"/>
				<line class="st5" x1="359.5" y1="202.5" x2="359.5" y2="350.6"/>
				<line class="st5" x1="366" y1="202.3" x2="366" y2="349.7"/>
				<line class="st5" x1="372.1" y1="202.4" x2="372.1" y2="348.5"/>
				<line class="st5" x1="535.6" y1="198.9" x2="535.6" y2="322.3"/>
				<line class="st5" x1="541.1" y1="198.9" x2="541.1" y2="321.4"/>
				<line class="st5" x1="546.3" y1="198.9" x2="546.3" y2="320.6"/>
			</g>
		</g>
		<polygon class="st6" points="162.8,98.4 199.7,92.2 199.7,167.3 162.1,168.7 		"/>
		<polygon class="st7" points="165.1,100.2 165.1,166.1 172.7,165.6 197.8,164.7 197.7,97.4 197.7,95.1 		"/>
		<polygon class="st6" points="239.4,93.6 262.8,90.4 262.7,132.3 239.3,134.2 		"/>
		<polygon class="st7" points="261,93.4 261,129.2 241.4,131.3 241.4,96.5 		"/>
		<path class="st0" d="M245,97.5l15.5-2.3v34.1l-15.5,1.7C245,130.9,245.2,97.3,245,97.5z"/>
		<polygon class="st6" points="293.9,85.8 321.3,81.6 321.2,127.1 293.8,129.4 		"/>
		<polygon class="st7" points="319.4,85 319.4,124.2 295.8,126.5 295.8,88.4 		"/>
		<path class="st0" d="M300.7,90l18.4-2.5v36.8l-18.4,1.8C300.6,126.1,300.9,89.8,300.7,90z"/>
		<polygon class="st6" points="378.7,84.6 344.3,80.8 344.4,126.9 378.7,128.8 		"/>
		<polygon class="st7" points="346.5,84.2 346.5,123.9 376.3,125.9 376.3,87.2 		"/>
		<polygon class="st0" points="172.3,101.4 172.3,165.6 197.3,164.7 197.3,97.4 		"/>
		<path class="st0" d="M347.3,85.6l24.7,2.6v37.4l-24.9-1.7C347.1,123.9,347.3,85.6,347.3,85.6z"/>
		<polygon class="st6" points="485.8,111.6 451.4,107.8 451.5,153.9 485.8,155.8 		"/>
		<polygon class="st7" points="453.7,111.2 453.7,150.9 483.4,152.9 483.4,114.2 		"/>
		<path class="st0" d="M454.4,112.6l24.7,2.6v37.4l-24.9-1.7C454.2,150.9,454.4,112.6,454.4,112.6z"/>
		<path class="st6" d="M516.3,98.4l47.4,4.8v72.7l-47.1-1.1C516.7,174.7,516.5,98.4,516.3,98.4z"/>
		<polygon class="st7" points="517.8,101.3 561.1,105.6 561.1,173.1 518.1,172.1 		"/>
		<polygon class="st0" points="517.8,103.5 553.5,106.8 553.4,172.8 518,172.5 		"/>
		<polygon class="st6" points="517.8,111.2 547,108.5 547,173.3 518.1,172.1 		"/>
		<polygon class="st7" points="545.1,110.9 545.1,112.1 517.8,114.6 517.8,113.5 		"/>
		<path class="st0" d="M518,114.7l27.2-2.6v60.5l-26.9-0.1C518.2,172.5,517.8,114.6,518,114.7z"/>
		<g>
			<path class="st0" d="M262.5,247.6l15.2,1.4v31.6l-12.4,0.1h-2.9C262.4,280.8,262.7,247.8,262.5,247.6z"/>
			<path class="st7" d="M257.7,247.2l4.8,0.5l-0.1,34.2l-4.8-0.8C257.6,281.1,258.1,247.2,257.7,247.2z"/>
			<path class="st7" d="M280.5,248.8l4.8,0.5l-0.1,36.2l-4.8-0.8C280.4,284.7,280.9,248.8,280.5,248.8z"/>
			<polygon class="st7" points="277.7,284 277.7,280.7 262.4,280.8 262.4,281.9 			"/>
			<polygon class="st7" points="300.8,287.4 300.8,280.7 284.9,278.9 284.9,285.3 			"/>
			<path class="st0" d="M285.3,249.6l15.4,1.4l0.2,30.2l-8.7-1.4h-7C285.1,279.9,285.4,249.8,285.3,249.6z"/>
		</g>
		<polygon class="st7" points="408.8,206.5 408.6,337.9 378.1,342.2 378.3,207.1 		"/>
		<polygon class="st8" points="380.5,210.8 380.5,277.1 398.4,279.1 398.4,210.5 		"/>
		<polygon class="st7" points="382.7,210.7 397,210.4 396.8,279.4 383,278 		"/>
		<polygon class="st0" points="402.8,333.9 400.3,334.1 400.3,210.4 402.8,210.3 		"/>
		<path class="st0" d="M380.4,284.9l20.5,2.1v44.1l-20.4-3.2C380.4,327.9,380.5,284.7,380.4,284.9z"/>
		<polygon class="st8" points="380.4,328 380.4,337.4 400.8,334.1 400.8,331.1 		"/>
		<polygon class="st7" points="462.2,205.8 483.3,205.5 483.3,326.4 460.4,329.8 460.7,205.8 		"/>
		<polygon class="st8" points="479.1,308.5 479.1,323.1 460.5,326.1 460.5,305.9 		"/>
		<polygon class="st0" points="461.4,304.5 460.7,305.9 479.1,308.5 479.1,306.8 		"/>
		<path class="st0" d="M464,209.4l15-0.2V303l-15.3-2C463.6,301.1,464.2,209.4,464,209.4z"/>
		<polygon class="st7" points="506,204.9 506.2,323.2 485,326.2 485,205.5 		"/>
		<polygon class="st0" points="485.1,209.4 502,209.2 502.5,305.9 484.8,303.8 		"/>
		<polygon class="st0" points="485.2,307.1 485.2,309.4 502.7,311.9 502.7,309.6 		"/>
		<polygon class="st8" points="485.1,309.4 485.1,322.4 502.7,319.9 502.7,311.9 		"/>
		<polygon class="st7" points="508,205.3 529.8,204.4 529.8,319.7 507.8,322.8 		"/>
		<path class="st0" d="M507.9,208.6l16.1-0.4v108.6l-2.1,0.4v-3.2l-14-1.9C507.9,312.2,508.2,208.4,507.9,208.6z"/>
		<polygon class="st8" points="507.8,312.4 507.8,319.6 521.9,317.4 521.9,314.2 		"/>
		<polygon class="st6" points="131.1,138.9 146.7,137.5 146.7,170.5 131.3,171.1 		"/>
		<polygon class="st0" points="136.6,141.1 136.8,168.6 145.3,168.1 145.3,140.4 		"/>
		<polygon class="st7" points="132.6,141.5 136.6,141.1 136.8,168.6 132.7,168.8 		"/>
	</g>
</g>
<g id="planta_baja" data-name="planta_baja" class="edf-select3 active">
	<path id="Trazado_11327-3" class="st9" d="M122.9,204.8l210.2,5.3l218.2-3.3l0.5,112.6l-214,31.4l-214.9-46
		C122.9,304.8,122.9,204.8,122.9,204.8z"/>
	<path id="Trazado_11329" class="st10" d="M122.9,204.8l210.2,5.3l218.2-3.3l0.5,112.6l-214,31.4l-214.9-46
		C122.9,304.8,122.9,204.8,122.9,204.8z"/>
	<line id="Línea_140144-2-2" class="st11" x1="174.8" y1="246.9" x2="93.9" y2="246.9"/>
	<circle id="Elipse_90-2-2" class="st12" cx="174.7" cy="246.9" r="1.7"/>

		<rect id="Rectángulo_41-2_00000039820862269625721850000008085705504061030581_" x="34.9" y="228.4" class="st13" width="62.3" height="37.1"/>
	<g>
		<rect x="34.9" y="234.7" class="st14" width="62.3" height="29.8"/>
		<text transform="matrix(1 0 0 1 42.8541 243.7346)" class="st15 st16 st17">PLANTA</text>
		<text transform="matrix(1 0 0 1 50.7541 258.1345)" class="st15 st16 st17">BAJA</text>
	</g>
</g>
<g id="planta_alta" data-name="planta_alta"  class="edf-select3">
	<path id="Trazado_11327" class="st9" d="M120.8,204.9l210.2,5.3l256.9-3.3l-0.4-141.3l-257-39.2L152,66l0.2,6.1l-31.4,6.5
		C120.8,78.6,120.8,204.9,120.8,204.9z"/>
	<path id="Trazado_11327-2" class="st10" d="M120.8,203.9l210.2,5.3l256.9-3.3l-0.4-141.3l-257-39.2L152,65l0.2,6.1l-31.4,6.5
		C120.8,77.6,120.8,203.9,120.8,203.9z"/>
	<rect id="Rectángulo_41-2" x="34.9" y="114.8" class="st13" width="62.3" height="37.1"/>
	<line id="Línea_140144-2" class="st11" x1="138.8" y1="132.8" x2="93.9" y2="132.8"/>
	<circle id="Elipse_90-2" class="st12" cx="138.7" cy="132.8" r="1.7"/>
	<g>
		<rect x="34.9" y="121.1" class="st14" width="62.3" height="29.8"/>
		<text transform="matrix(1 0 0 1 42.8541 130.0925)" class="st15 st16 st17">PLANTA</text>
		<text transform="matrix(1 0 0 1 50.954 144.4924)" class="st15 st16 st17">ALTA</text>
	</g>
</g>
</svg>
