<svg xmlns="http://www.w3.org/2000/svg" xmlns:xlink="http://www.w3.org/1999/xlink" viewBox="0 0 553.89 328.91"><defs><style>.cls-1{fill:#7c7c7c;}.cls-2{fill:#a3a3a2;}.cls-3{fill:#dad7d0;}.cls-16,.cls-20,.cls-3{isolation:isolate;}.cls-4{fill:#eae5dc;}.cls-5{clip-path:url(#clip-path);}.cls-10,.cls-12,.cls-15,.cls-21,.cls-6,.cls-8{fill:none;}.cls-6{stroke:#dad7d0;stroke-width:0.5px;}.cls-10,.cls-12,.cls-13,.cls-6,.cls-8{stroke-miterlimit:10;}.cls-7{clip-path:url(#clip-path-2);}.cls-8{stroke:#7c7c7c;}.cls-9{clip-path:url(#clip-path-3);}.cls-10{stroke:#a3a3a2;}.cls-11{fill:#999;}.cls-12,.cls-13{stroke:#895874;stroke-width:2px;}.cls-13,.cls-14{fill:#895874;}.cls-16{font-size:12px;fill:#fff;font-family:Roboto-Bold, Roboto;font-weight:700;}.cls-17{letter-spacing:0.01em;}.cls-18{letter-spacing:-0.06em;}.cls-19{letter-spacing:-0.1em;}.cls-20,.cls-22{fill:#dab1d0;}.cls-20{opacity:0.81;}.cls-21{stroke:#fff;stroke-linecap:round;stroke-linejoin:round;stroke-width:3px;}.cls-22{opacity:0.81;}</style><clipPath id="clip-path"><path class="cls-1" d="M89.33,53.74l29.18-6.59v132.7l34.35.47v112L87.92,279.15S89.33,52.32,89.33,53.74Z"/></clipPath><clipPath id="clip-path-2"><path class="cls-2" d="M303,324.09,152.86,291.85s-.71-112.23,0-111.53l150.39,3.77Z"/></clipPath><clipPath id="clip-path-3"><polygon class="cls-3" points="303.25 183.99 513.8 180.32 514.37 292.43 302.98 324.09 303.25 183.99"/></clipPath></defs><g id="Capa_2" data-name="Capa 2"><g id="Capa_1-2" data-name="Capa 1"><g id="casa_3_dorm" data-name="casa 3 dorm"><polygon class="cls-4" points="297.33 1.5 297.33 184.09 552.39 179.38 552.39 40.56 297.33 1.5"/><path class="cls-3" d="M298.46,1.5,119,41.5V179.85l178.35,4.24S297.52.56,298.46,1.5Z"/><path class="cls-1" d="M89.33,53.74l29.18-6.59v132.7l34.35.47v112L87.92,279.15S89.33,52.32,89.33,53.74Z"/><g class="cls-5"><line class="cls-6" x1="147.01" y1="180.25" x2="147.01" y2="290.9"/><line class="cls-6" x1="142.16" y1="180.15" x2="142.16" y2="290.07"/><line class="cls-6" x1="137.28" y1="179.96" x2="137.28" y2="289.28"/><line class="cls-6" x1="132.81" y1="180.15" x2="132.81" y2="288.12"/><line class="cls-6" x1="128.3" y1="180.06" x2="128.3" y2="287.42"/><line class="cls-6" x1="123.77" y1="179.86" x2="123.77" y2="286.56"/><line class="cls-6" x1="120.07" y1="179.67" x2="120.07" y2="285.7"/><line class="cls-6" x1="115.47" y1="47.91" x2="115.47" y2="284.82"/><line class="cls-6" x1="111.29" y1="48.96" x2="111.29" y2="283.48"/><line class="cls-6" x1="107.56" y1="49.53" x2="107.56" y2="282.84"/><line class="cls-6" x1="103.44" y1="50.66" x2="103.44" y2="282.16"/><line class="cls-6" x1="99.45" y1="51.6" x2="99.45" y2="281.59"/><line class="cls-6" x1="95.37" y1="52.38" x2="95.37" y2="280.5"/><line class="cls-6" x1="91.41" y1="52.62" x2="91.41" y2="279.7"/></g><path class="cls-2" d="M303,324.09,152.86,291.85s-.71-112.23,0-111.53l150.39,3.77Z"/><g class="cls-7"><line class="cls-8" x1="261.14" y1="179.5" x2="261.14" y2="319.34"/><line class="cls-8" x1="256.29" y1="179.38" x2="256.29" y2="318.26"/><line class="cls-8" x1="251.19" y1="179.14" x2="251.19" y2="316.81"/><line class="cls-8" x1="246.49" y1="179.38" x2="246.49" y2="315.83"/><line class="cls-8" x1="241.64" y1="179.26" x2="241.64" y2="314.94"/><line class="cls-8" x1="236.65" y1="179.02" x2="236.65" y2="313.85"/><line class="cls-8" x1="232.5" y1="178.78" x2="232.5" y2="312.77"/><line class="cls-8" x1="227.65" y1="178.66" x2="227.65" y2="311.66"/><line class="cls-8" x1="223.45" y1="178.53" x2="223.45" y2="310.89"/><line class="cls-8" x1="218.76" y1="178.53" x2="218.76" y2="309.8"/><line class="cls-8" x1="213.91" y1="178.41" x2="213.91" y2="308.72"/><line class="cls-8" x1="209.6" y1="178.17" x2="209.6" y2="307.72"/><line class="cls-8" x1="205.41" y1="178.29" x2="205.41" y2="306.52"/><line class="cls-8" x1="201.58" y1="178.17" x2="201.58" y2="305.67"/><line class="cls-8" x1="197.05" y1="177.93" x2="197.05" y2="304.71"/><line class="cls-8" x1="192.81" y1="178.17" x2="192.81" y2="303.97"/><line class="cls-8" x1="188.75" y1="178.05" x2="188.75" y2="303.08"/><line class="cls-8" x1="185.18" y1="177.81" x2="185.18" y2="302.23"/><line class="cls-8" x1="180.75" y1="177.21" x2="180.75" y2="301.15"/><line class="cls-8" x1="177.07" y1="177.45" x2="177.07" y2="300.52"/><line class="cls-8" x1="173.19" y1="177.33" x2="173.19" y2="299.51"/><line class="cls-8" x1="169.25" y1="177.33" x2="169.25" y2="298.42"/><line class="cls-8" x1="165.64" y1="177.21" x2="165.64" y2="297.7"/><line class="cls-8" x1="161.57" y1="176.97" x2="161.57" y2="296.71"/><line class="cls-8" x1="157.31" y1="176.97" x2="157.31" y2="295.86"/><line class="cls-8" x1="265.18" y1="179.14" x2="265.18" y2="320.09"/><line class="cls-8" x1="270.45" y1="179.14" x2="270.45" y2="321.15"/><line class="cls-8" x1="275.72" y1="179.14" x2="275.72" y2="322.48"/><line class="cls-8" x1="280.99" y1="179.14" x2="280.99" y2="323.64"/><line class="cls-8" x1="286.51" y1="179.38" x2="286.51" y2="324.51"/><line class="cls-8" x1="291.7" y1="179.62" x2="291.7" y2="325.98"/><line class="cls-8" x1="297.47" y1="179.86" x2="297.47" y2="327.44"/></g><polygon class="cls-3" points="303.25 183.99 513.8 180.32 514.37 292.43 302.98 324.09 303.25 183.99"/><g class="cls-9"><line class="cls-10" x1="378.77" y1="177.29" x2="378.77" y2="317.81"/><line class="cls-10" x1="385.12" y1="177.05" x2="385.12" y2="316.6"/><line class="cls-10" x1="390.89" y1="177.05" x2="390.89" y2="315.65"/><line class="cls-10" x1="396.66" y1="176.56" x2="396.66" y2="314.71"/><line class="cls-10" x1="402.43" y1="176.56" x2="402.43" y2="313.58"/><line class="cls-10" x1="408.19" y1="176.56" x2="408.19" y2="312.42"/><line class="cls-10" x1="413.39" y1="176.56" x2="413.39" y2="311.72"/><line class="cls-10" x1="419.16" y1="176.56" x2="419.16" y2="311.05"/><line class="cls-10" x1="309.37" y1="178.61" x2="309.37" y2="328.91"/><line class="cls-10" x1="316.02" y1="178.61" x2="316.02" y2="327.68"/><line class="cls-10" x1="323.04" y1="178.61" x2="323.04" y2="326.7"/><line class="cls-10" x1="329.48" y1="178.36" x2="329.48" y2="325.79"/><line class="cls-10" x1="335.62" y1="178.49" x2="335.62" y2="324.57"/><line class="cls-10" x1="499.1" y1="175" x2="499.1" y2="298.38"/><line class="cls-10" x1="504.57" y1="175" x2="504.57" y2="297.47"/><line class="cls-10" x1="509.84" y1="175" x2="509.84" y2="296.71"/></g><polygon class="cls-2" points="126.27 74.44 163.21 68.32 163.21 143.38 125.56 144.79 126.27 74.44"/><polygon class="cls-1" points="128.62 76.32 128.62 142.21 136.15 141.74 161.33 140.79 161.21 73.5 161.21 71.15 128.62 76.32"/><polygon class="cls-2" points="202.86 69.73 226.33 66.44 226.21 108.38 202.74 110.32 202.86 69.73"/><polygon class="cls-1" points="224.51 69.5 224.51 105.26 204.86 107.38 204.86 72.56 224.51 69.5"/><path class="cls-4" d="M208.54,73.59,224,71.26v34.06L208.51,107S208.71,73.41,208.54,73.59Z"/><polygon class="cls-2" points="257.43 61.92 284.79 57.64 284.65 103.21 257.3 105.5 257.43 61.92"/><polygon class="cls-1" points="282.89 61.12 282.89 100.27 259.33 102.59 259.33 64.47 282.89 61.12"/><path class="cls-4" d="M264.16,66.09l18.37-2.51v36.78l-18.41,1.85S264.37,65.9,264.16,66.09Z"/><polygon class="cls-2" points="342.21 60.68 307.77 56.94 307.9 102.97 342.15 104.91 342.21 60.68"/><polygon class="cls-1" points="310.02 60.32 310.02 100.03 339.8 102.03 339.8 63.32 310.02 60.32"/><polygon class="cls-4" points="135.8 77.5 135.8 141.74 160.74 140.79 160.74 73.5 135.8 77.5"/><path class="cls-4" d="M310.74,61.74l24.74,2.64v37.36L310.56,100S310.74,61.65,310.74,61.74Z"/><polygon class="cls-2" points="449.33 87.68 414.89 83.94 415.02 129.97 449.27 131.91 449.33 87.68"/><polygon class="cls-1" points="417.14 87.32 417.14 127.03 446.92 129.03 446.92 90.32 417.14 87.32"/><path class="cls-4" d="M417.86,88.74l24.73,2.64v37.36L417.68,127S417.86,88.65,417.86,88.74Z"/><path class="cls-2" d="M479.8,74.44l47.41,4.77v72.7l-47.06-1.12S480,74.44,479.8,74.44Z"/><polygon class="cls-1" points="481.33 77.38 524.62 81.73 524.62 149.15 481.56 148.21 481.33 77.38"/><polygon class="cls-4" points="481.33 79.62 516.98 82.91 516.86 148.91 481.45 148.56 481.33 79.62"/><polygon class="cls-2" points="481.33 87.27 510.5 84.56 510.5 149.38 481.56 148.21 481.33 87.27"/><polygon class="cls-1" points="508.62 87.03 508.62 88.21 481.33 90.68 481.33 89.62 508.62 87.03"/><path class="cls-4" d="M481.45,90.79l27.17-2.58v60.47l-26.94-.12S481.33,90.68,481.45,90.79Z"/><path class="cls-4" d="M226,223.73l15.17,1.42v31.64l-12.35.12h-2.94S226.21,223.91,226,223.73Z"/><path class="cls-1" d="M221.21,223.26l4.83.47L225.92,258l-4.83-.82S221.56,223.26,221.21,223.26Z"/><path class="cls-1" d="M244,224.91l4.82.47-.12,36.24-4.82-.83S244.39,224.91,244,224.91Z"/><polygon class="cls-1" points="241.21 260.09 241.21 256.79 225.92 256.91 225.92 257.97 241.21 260.09"/><polygon class="cls-1" points="264.27 263.5 264.27 256.79 248.39 255.03 248.39 261.38 264.27 263.5"/><path class="cls-4" d="M248.74,225.73l15.41,1.42.24,30.23L255.67,256h-7S248.92,225.91,248.74,225.73Z"/><polygon class="cls-1" points="372.27 182.58 372.09 314.03 341.56 318.32 341.74 183.15 372.27 182.58"/><polygon class="cls-11" points="344.04 186.85 344.04 253.21 361.86 255.15 361.86 186.54 344.04 186.85"/><polygon class="cls-1" points="346.15 186.81 360.45 186.5 360.27 255.46 346.5 254.04 346.15 186.81"/><polygon class="cls-4" points="366.27 310.03 363.81 310.2 363.81 186.46 366.27 186.37 366.27 310.03"/><path class="cls-4" d="M343.86,261l20.47,2.12v44.12L343.92,304S344,260.79,343.86,261Z"/><polygon class="cls-11" points="343.86 304.09 343.86 313.44 364.33 310.2 364.33 307.2 343.86 304.09"/><polygon class="cls-1" points="425.67 181.92 446.77 181.56 446.77 302.53 423.93 305.84 424.23 181.92 425.67 181.92"/><polygon class="cls-11" points="442.63 284.62 442.63 299.14 423.98 302.21 423.98 282.01 442.63 284.62"/><polygon class="cls-4" points="424.86 280.56 424.23 282.01 442.63 284.62 442.63 282.85 424.86 280.56"/><path class="cls-4" d="M427.48,185.53l15-.18v93.77l-15.32-2S427.66,185.53,427.48,185.53Z"/><polygon class="cls-1" points="469.5 181.03 469.68 299.26 448.5 302.26 448.5 181.56 469.5 181.03"/><polygon class="cls-4" points="448.54 185.46 465.45 185.26 466.04 281.97 448.33 279.85 448.54 185.46"/><polygon class="cls-4" points="448.68 283.2 448.68 285.5 466.15 287.97 466.15 285.68 448.68 283.2"/><polygon class="cls-11" points="448.54 285.5 448.54 298.44 466.15 295.97 466.15 287.97 448.54 285.5"/><polygon class="cls-1" points="471.45 181.38 493.33 180.5 493.33 295.82 471.27 298.91 471.45 181.38"/><path class="cls-4" d="M471.38,184.73l16.13-.35V293l-2.12.41v-3.18l-14-1.94S471.65,184.47,471.38,184.73Z"/><polygon class="cls-11" points="471.27 288.44 471.27 295.68 485.39 293.44 485.39 290.26 471.27 288.44"/><polygon class="cls-2" points="94.62 115.03 110.15 113.62 110.15 146.56 94.74 147.15 94.62 115.03"/><polygon class="cls-4" points="100.12 117.23 100.33 144.68 108.8 144.15 108.8 116.44 100.12 117.23"/><polygon class="cls-1" points="96.09 117.62 100.12 117.23 100.33 144.68 96.15 144.91 96.09 117.62"/></g>
<g id="Planta_Baja" data-name="Planta Baja"><line id="Línea_140144-2-2" data-name="Línea 140144-2-2" class="cls-12" x1="107.2" y1="238.13" x2="62.3" y2="238.13"/><g id="Grupo_1806-2-2" data-name="Grupo 1806-2-2"><circle id="Elipse_90-2-2" data-name="Elipse 90-2-2" class="cls-13" cx="107.1" cy="238.13" r="1.7"/></g><rect id="Rectángulo_41-2" data-name="Rectángulo 41-2" class="cls-14" y="217.93" width="62.3" height="37.1"/><rect class="cls-15" y="224.23" width="62.3" height="29.8"/><text class="cls-16" transform="translate(8.02 233.18)">P<tspan class="cls-17" x="7.74" y="0">L</tspan><tspan x="14.35" y="0">AN</tspan><tspan class="cls-18" x="30.9" y="0">T</tspan><tspan x="37.62" y="0">A</tspan></text><text class="cls-16" transform="translate(16.12 247.58)">BAJA</text></g><line id="Línea_140144-2" data-name="Línea 140144-2" class="cls-12" x1="107.2" y1="110.43" x2="62.3" y2="110.43"/><g id="Grupo_1806-2" data-name="Grupo 1806-2"><circle id="Elipse_90-2" data-name="Elipse 90-2" class="cls-13" cx="107.1" cy="110.43" r="1.7"/></g><rect id="Rectángulo_41-2-2" data-name="Rectángulo 41-2" class="cls-14" y="92.53" width="62.3" height="37.1"/><rect class="cls-15" y="98.83" width="62.3" height="29.8"/><text class="cls-16" transform="translate(8.02 107.88)">P<tspan class="cls-17" x="7.74" y="0">L</tspan><tspan x="14.35" y="0">AN</tspan><tspan class="cls-18" x="30.9" y="0">T</tspan><tspan x="37.62" y="0">A</tspan></text><text class="cls-16" transform="translate(16.12 122.28)">A<tspan class="cls-19" x="8.07" y="0">L</tspan><tspan class="cls-18" x="13.37" y="0">T</tspan><tspan x="20.09" y="0">A</tspan></text><polygon class="cls-20" points="89.33 53.73 118.51 47.15 118.51 41.5 297.33 1.5 552.39 40.56 552.39 179.38 297.33 184.09 88.53 181.56 89.33 53.73"/><polygon class="cls-21" points="89.33 53.73 118.51 47.15 118.51 41.5 297.33 1.5 552.39 40.56 552.39 179.38 297.33 184.09 88.53 181.56 89.33 53.73"/><polygon class="cls-22" points="88.53 181.56 88.53 279.15 302.98 324.09 514.37 292.43 514.37 180.32 297.33 184.09 88.53 181.56"/><polygon class="cls-21" points="88.53 181.56 88.53 279.15 302.98 324.09 514.37 292.43 514.37 180.32 297.33 184.09 88.53 181.56"/></g></g></svg>
