<svg xmlns="http://www.w3.org/2000/svg" viewBox="0 0 115.55 115.64"><defs><style>.cls-1{fill:#494846;}</style></defs><g id="Capa_2" data-name="Capa 2"><g id="Capa_1-2" data-name="Capa 1"><g id="Grupo_911" data-name="Grupo 911"><g id="Grupo_1212" data-name="Grupo 1212"><g id="Grupo_1211" data-name="Grupo 1211"><path id="Trazado_1428" data-name="Trazado 1428" class="cls-1" d="M114.48,70.93c-3.47-4.63-6.94-4.63-15.42-.2L82.49,81C80.17,82.3,75,82.68,70.15,82.68q1.45-2.59-1.16-6.36a16.87,16.87,0,0,0-13.87-7.13H47.6a18.18,18.18,0,0,1-11-3.47c-7-5.21-17.83.46-23.13,3.85v-4H0v50.11H13.49v-5.79h25c3.85,0,7.9-.38,11.75-.57l25.05-3.86A11.21,11.21,0,0,0,78,105a12.59,12.59,0,0,0,6.36-3.27l29.1-23.13A5.7,5.7,0,0,0,114.48,70.93ZM9.64,111.78H3.86V69.38H9.64ZM111.21,75.94,81.91,98.68l-.19.19a6.66,6.66,0,0,1-4.43,2.31,8,8,0,0,1-2.12.2l-25.44,3.85a72.11,72.11,0,0,1-11.18.77h-25V74.2c4.63-3.27,15.42-9.44,20.82-5.2a22.34,22.34,0,0,0,13.3,4.24h7.51a13,13,0,0,1,11,5.59,3.59,3.59,0,0,1,.77,2.7c-.58,1-2.89,1.35-5.4,1.54H41.26c-6,0-9.64,2.89-9.64,7.71a1.93,1.93,0,0,0,3.85,0c0-1,0-3.86,5.79-3.86h21.4c9,.19,17.53,0,22-2.31L101.2,74.39c8.09-4,8.86-3.08,10.41-.77a1.82,1.82,0,0,1-.41,2.32Z"/><path id="Trazado_1429" data-name="Trazado 1429" class="cls-1" d="M71.89,55.32a1.86,1.86,0,0,0,2.63.06l.07-.06,5.78-5.78a1.91,1.91,0,1,0-2.7-2.7h0l-5.78,5.78a1.86,1.86,0,0,0-.06,2.64Z"/><path id="Trazado_1430" data-name="Trazado 1430" class="cls-1" d="M66.1,46.84A1.87,1.87,0,0,0,66,49.48l.06.06a1.88,1.88,0,0,0,2.64.07l.06-.07,5.79-5.78a1.91,1.91,0,0,0-2.7-2.7Z"/><path id="Trazado_1431" data-name="Trazado 1431" class="cls-1" d="M40.47,28.76v31a1.76,1.76,0,0,0,.58,1.35l6,5.78a1.79,1.79,0,0,0,1.35.58,2.05,2.05,0,0,0,1.35-.58l5.59-5.78a1.76,1.76,0,0,0,.58-1.35V57.82a1.79,1.79,0,0,0-.58-1.35L52.81,54l2.5-2.5a1.79,1.79,0,0,0,.58-1.35h0L70,64.19a6.15,6.15,0,0,0,3.85,1.54,4.53,4.53,0,0,0,3.28-1.35l16-16a5.14,5.14,0,0,0,1.35-3.66,4.83,4.83,0,0,0-1.55-3.47L75.59,24a14.94,14.94,0,0,0,1.5-6.6A15.46,15.46,0,0,0,61.67,1.93a14.93,14.93,0,0,0-4.78.79,15.4,15.4,0,1,0-16.42,26ZM52,49.35l-3.28,3.27a1.87,1.87,0,0,0-.06,2.64l.06.06L52,58.6V59l-3.86,3.86L44.33,59V30.46a14.76,14.76,0,0,0,2.89.38l1.54,9.25a9.82,9.82,0,0,0,2.89,5.79l.39.38Zm38.54-4.44a.68.68,0,0,1-.19.58l-16,16a1.25,1.25,0,0,1-1.73-.19L54.35,43a6.8,6.8,0,0,1-1.93-3.67L51.36,32.1l-.48-3.38v-.19l0-.23a15.42,15.42,0,0,0,10.83,4.48,1.93,1.93,0,1,0,0-3.86A11.6,11.6,0,0,1,51.2,22.25a2.8,2.8,0,0,1,1.07-.58A3.54,3.54,0,0,1,53,21.6h.58l6.74,1a.83.83,0,0,0,.22,0l7.68,1.13a6.8,6.8,0,0,1,3.67,1.93L90.2,44a1.46,1.46,0,0,1,.38.95ZM61.67,5.79A11.61,11.61,0,0,1,73.24,17.36a12.61,12.61,0,0,1-.58,3.85,13.23,13.23,0,0,0-3.86-1.35l-5.59-.77c0-.28.09-.56.14-.84A15.05,15.05,0,0,0,63.58,16c0-.2,0-.39,0-.6s0-.5,0-.73c0-.07,0-.13,0-.2s0-.38,0-.57,0-.1,0-.14a15.66,15.66,0,0,0-3.19-8ZM48.18,3.86a11.56,11.56,0,0,1,6.89,2.29,1.26,1.26,0,0,0,.24.22,11.7,11.7,0,0,1,3.78,5.24l0,.11c0,.15.1.3.14.45l.06.2c0,.12.07.24.1.37a1.69,1.69,0,0,0,0,.24c0,.12.05.24.07.35s0,.17.05.26,0,.23,0,.35l0,.25a2.8,2.8,0,0,1,0,.4c0,.07,0,.15,0,.22s0,.41,0,.62a5.15,5.15,0,0,1,0,.55v.07c0,.17,0,.33,0,.5v.06a1.8,1.8,0,0,1,0,.22c-.08.59-.19,1.13-.3,1.68l-5.2-.77a7.65,7.65,0,0,0-4,.67c0-.35-.05-.7-.05-1.06a11.47,11.47,0,0,1,1.16-5,1.9,1.9,0,0,0-3.47-1.54h0a15,15,0,0,0-1.54,6.55,15.42,15.42,0,0,0,.64,4.38,6.5,6.5,0,0,0-.44,3.72l.19,1.35-.44-.06a13.43,13.43,0,0,1-2.84-.91l-.32-.08A11.54,11.54,0,0,1,48.2,3.86Z"/></g></g></g></g></g></svg>