<svg xmlns="http://www.w3.org/2000/svg" viewBox="0 0 125.53 103.55"><defs><style>.cls-1{fill:#494846;}</style></defs><g id="Capa_2" data-name="Capa 2"><g id="Capa_1-2" data-name="Capa 1"><g id="Grupo_910" data-name="Grupo 910"><g id="Grupo_1209" data-name="Grupo 1209"><path id="Trazado_1427" data-name="Trazado 1427" class="cls-1" d="M122.66,79.9H105.22V63.6h17.44a2.86,2.86,0,0,0,2.86-2.86V42.81A2.86,2.86,0,0,0,122.66,40H105.22V22.84A2.89,2.89,0,0,0,102.35,20H84.92V2.86A2.87,2.87,0,0,0,82.05,0H72.48a1.84,1.84,0,0,0,0,3.68h8.8V20H44.31V3.68H65.06a1.84,1.84,0,0,0,0-3.68H2.87A2.86,2.86,0,0,0,0,2.86V21.62c0,.07,0,.13,0,.2v20A1.15,1.15,0,0,0,0,42V61.57c0,.07,0,.13,0,.2v6.51a1.84,1.84,0,0,0,3.68,0V63.61H20.31V79.9H3.68V75.66a1.84,1.84,0,0,0-3.68,0v6.08a1.15,1.15,0,0,0,0,.19v18.76a2.86,2.86,0,0,0,2.86,2.86H122.66a2.87,2.87,0,0,0,2.87-2.86V82.76A2.87,2.87,0,0,0,122.66,79.9ZM103.38,43.63h18.47V59.92H84.92V43.63Zm-38.78-20h36.94V40H64.6Zm16.63,20v16.3H44.31V43.62Zm-20.31-20V40H24V23.65ZM3.69,3.67H40.63V20H3.69Zm0,20H20.31V39.94H3.68Zm0,36.27V43.62H40.63v16.3Zm36.94,40H3.69V83.57H40.63Zm1.84-20H24V63.6H60.92V79.89Zm38.77,20H44.31V83.57H81.23Zm1.84-20H64.6V63.6h36.94V79.89Zm38.77,20H84.92V83.57h36.93Z"/></g></g></g></g></svg>