<svg xmlns="http://www.w3.org/2000/svg" viewBox="0 0 55.35 68.13"><defs><style>.cls-1{fill:#8a5874;}</style></defs><g id="Capa_2" data-name="Capa 2"><g id="Capa_1-2" data-name="Capa 1"><path class="cls-1" d="M27.14,68.13a16.25,16.25,0,0,1-1.58-1.27Q13.25,54.58,1,42.25A3.3,3.3,0,0,1,0,40.7c-.27-1.3.8-2.36,2.29-2.36H12.71a5.93,5.93,0,0,0,.73,0A1.5,1.5,0,0,0,14.77,37a6.24,6.24,0,0,0,0-.86q0-16.64,0-33.27c0-.24,0-.49,0-.73A2.08,2.08,0,0,1,17,0H38.39a2.12,2.12,0,0,1,2.2,2.42V36c0,.18,0,.36,0,.53a1.64,1.64,0,0,0,1.85,1.84H52.82a3.68,3.68,0,0,1,1,.12A2,2,0,0,1,55,41.62a5.21,5.21,0,0,1-.67.74Q42.08,54.6,29.83,66.82a18.54,18.54,0,0,1-1.62,1.31Z"/></g></g></svg>