<svg xmlns="http://www.w3.org/2000/svg" viewBox="0 0 68.31 68.31"><defs><style>.cls-1{fill:#8a5874;}</style></defs><g id="Capa_2" data-name="Capa 2"><g id="Capa_1-2" data-name="Capa 1"><path class="cls-1" d="M31.49,16.07A13.12,13.12,0,1,0,44.61,29.19,13.13,13.13,0,0,0,31.49,16.07Z"/><path class="cls-1" d="M56.43,0H11.88A11.91,11.91,0,0,0,0,11.88V56.43A11.91,11.91,0,0,0,11.88,68.31H56.43A11.92,11.92,0,0,0,68.31,56.43V11.88A11.91,11.91,0,0,0,56.43,0ZM54.89,54.15a2,2,0,0,1-2.88,0L41.22,43.36a17.39,17.39,0,1,1,3.06-2.71L54.89,51.27A2,2,0,0,1,54.89,54.15Z"/></g></g></svg>