<svg xmlns="http://www.w3.org/2000/svg" viewBox="0 0 70.19 70.17"><defs><style>.cls-1{fill:#8a5874;stroke:#8a5874;stroke-width:0.86px;}</style></defs><g id="Capa_2" data-name="Capa 2"><g id="Capa_1-2" data-name="Capa 1"><g id="Grupo_2702" data-name="Grupo 2702"><path id="Trazado_11778" data-name="Trazado 11778" class="cls-1" d="M9.9,6.74a1.29,1.29,0,0,0-.15.86V56.08a4,4,0,0,0,2.74,4.15,5.06,5.06,0,0,0,1.5.19H62.7c.2,0,.4,0,.79,0l-2.34-2.32a2.14,2.14,0,0,1-.71-1.14,1.82,1.82,0,0,1,3-1.68c.69.64,1.33,1.32,2,2L69,60.73a1.87,1.87,0,0,1,.41,2.61,2,2,0,0,1-.41.41c-1.74,1.74-3.47,3.48-5.21,5.21a1.86,1.86,0,0,1-2.61.42,1.56,1.56,0,0,1-.2-.16,1.9,1.9,0,0,1,0-2.68l.16-.14,2.35-2.33H14.13a7.59,7.59,0,0,1-7.67-5.28A9.38,9.38,0,0,1,6.11,56V6.88l-.19-.14L3.72,9.08a1.91,1.91,0,0,1-2,.59A1.77,1.77,0,0,1,.5,7.48a1.7,1.7,0,0,1,.44-.74c1.87-2,3.8-3.87,5.74-5.76A1.77,1.77,0,0,1,9.17.92a.94.94,0,0,1,.1.1q2.85,2.79,5.64,5.64A1.78,1.78,0,0,1,15,9.17l-.08.08a1.86,1.86,0,0,1-2.6-.06C11.48,8.43,10.72,7.58,9.9,6.74Z"/><path id="Trazado_11779" data-name="Trazado 11779" class="cls-1" d="M41.8.45h20a7.54,7.54,0,0,1,8,7.08,6.46,6.46,0,0,1,0,.88V49c0,1.36-.75,2.19-1.9,2.15a1.81,1.81,0,0,1-1.73-1.62c0-.27,0-.55,0-.83V8.49A3.92,3.92,0,0,0,62.69,4.1a4,4,0,0,0-1,0H21.25c-1.41,0-2.26-.74-2.2-1.92A1.82,1.82,0,0,1,21,.44H41.8Z"/><path id="Trazado_11780" data-name="Trazado 11780" class="cls-1" d="M24.53,21.88a7,7,0,0,1,7.7.79,1.88,1.88,0,0,1,.39.35c.26.32.43.24.72,0A6.67,6.67,0,0,1,41,21.72a6.65,6.65,0,0,1,4.1,6.53V45.72a1.79,1.79,0,0,1-1.77,1.73,1.8,1.8,0,0,1-1.86-1.73c0-.37,0-.76,0-1.14V28.09a3.31,3.31,0,0,0-2.53-3.28,3.35,3.35,0,0,0-3.77,1.76,4.13,4.13,0,0,0-.37,1.84v17a1.78,1.78,0,0,1-1.53,2,1.85,1.85,0,0,1-2.11-2.06V35.23c0-2.42,0-4.86,0-7.29a3.27,3.27,0,0,0-2.77-3.16A3.32,3.32,0,0,0,24.69,27a4.64,4.64,0,0,0-.19,1.57V45a9.1,9.1,0,0,1,0,.91,1.72,1.72,0,0,1-1.61,1.54,1.75,1.75,0,0,1-1.9-1.3,4.67,4.67,0,0,1-.1-1.12V22.14a1.82,1.82,0,0,1,3.61-.46A.69.69,0,0,0,24.53,21.88Z"/><path id="Trazado_11781" data-name="Trazado 11781" class="cls-1" d="M54,25.88c1,0,1.91,0,2.79,0a1.79,1.79,0,0,1,1.78,1.47,1.83,1.83,0,0,1-.89,1.94,2,2,0,0,1-1,.22H50.94a2.2,2.2,0,0,1-2.19-1.34,2.24,2.24,0,0,1,.48-2.59L54.46,20a1.68,1.68,0,0,0,.37-2.08A1.77,1.77,0,0,0,53,17a1.69,1.69,0,0,0-1.39,1.6,1.85,1.85,0,0,1-1.8,1.9,1.79,1.79,0,0,1-1.86-1.84,5.39,5.39,0,1,1,9.22,3.82C56.14,23.59,55.13,24.67,54,25.88Z"/></g></g></g></svg>