<?xml version="1.0" encoding="utf-8"?>
<!-- Generator: Adobe Illustrator 25.4.1, SVG Export Plug-In . SVG Version: 6.00 Build 0)  -->
<svg version="1.1" xmlns="http://www.w3.org/2000/svg" xmlns:xlink="http://www.w3.org/1999/xlink" x="0px" y="0px"
	 viewBox="0 0 153.9 56.8" style="enable-background:new 0 0 153.9 56.8;" xml:space="preserve">
<style type="text/css">
	.st0{fill:#FFFFFF;}
	.st1{fill:#B5AFA3;stroke:#B5AFA3;stroke-width:0.7355;}
	.st2{fill:#8A5874;}
</style>
<g id="boton_fondo">
	<g>
		<path id="Rect치ngulo_5_00000124140739560073368180000009755190100280917659_" class="st0" d="M77,0h48.6
			C141.2,0,154,12.7,154,28.3l0,0l0,0c0,15.7-12.7,28.4-28.4,28.4H77"/>
		<path id="Rect치ngulo_5-2_00000145774520343277161340000007438234351418508982_" class="st0" d="M77,56.7H28.4
			C12.7,56.7,0,44,0,28.3c0,0,0,0,0,0l0,0C0,12.7,12.7,0,28.4,0c0,0,0,0,0,0H77"/>
		<g id="Grupo_2377_00000083057204052741687410000001558704550929415356_" transform="translate(-3615.236 -2646.982)">
			<path id="Trazado_11391_00000183233196563407443520000007365515652403439248_" class="st1" d="M3728.8,2691.9
				c-0.6-0.1-1.2-0.1-1.8-0.2c-6.2-1-11.2-5.4-12.9-11.4c-2.6-8.7,2.3-17.9,10.9-20.5h0l0.2-0.1c0.4-0.2,0.9,0,1.2,0.4
				c0.3,0.4,0.2,0.9-0.2,1.2c-4.6,5.2-4.2,13.1,1,17.7c0,0,0,0,0,0c0.5,0.4,0.9,0.8,1.5,1.1c4.6,3.1,10.8,2.7,15-0.8
				c0.1-0.1,0.1-0.1,0.2-0.2c0.7-0.6,1.2-0.5,1.7,0.2v0.8c0,0.1-0.1,0.2-0.1,0.3c-1.8,5.9-6.8,10.2-12.8,11.2
				c-0.6,0.1-1.2,0.2-1.9,0.3H3728.8z M3742.4,2682.4c-5.4,2.9-12,2.1-16.6-2c-2.1-1.9-3.6-4.3-4.3-7.1c-0.9-3.6-0.5-7.3,1.2-10.6
				c-7,3.8-9.6,12.6-5.7,19.7c3.8,7,12.6,9.6,19.7,5.7c0,0,0,0,0,0C3739.1,2686.8,3741.1,2684.8,3742.4,2682.4L3742.4,2682.4z"/>
			<path id="Trazado_11392_00000046329606308762748960000008506867578603197351_" class="st1" d="M3733.6,2676.3
				c-0.4,0-0.7-0.2-0.9-0.6c-0.3-0.7-0.7-1.3-1-2c-0.1-0.2-0.2-0.3-0.4-0.4c-0.6-0.3-1.3-0.7-1.9-1c-0.5-0.2-0.7-0.8-0.5-1.3
				c0,0,0,0,0,0c0.1-0.3,0.3-0.4,0.5-0.5c0.7-0.3,1.3-0.6,2-1c0.1-0.1,0.3-0.2,0.3-0.3c0.3-0.6,0.7-1.3,1-2c0.2-0.5,0.8-0.8,1.3-0.6
				c0,0,0,0,0,0c0.2,0.1,0.4,0.3,0.5,0.5c0.3,0.6,0.6,1.3,0.9,1.9c0.1,0.2,0.3,0.4,0.5,0.5c0.6,0.3,1.3,0.6,1.9,0.9
				c0.5,0.2,0.8,0.8,0.6,1.3c0,0,0,0,0,0c-0.1,0.3-0.3,0.5-0.6,0.6c-0.6,0.3-1.3,0.6-1.9,1c-0.2,0.1-0.3,0.2-0.4,0.4
				c-0.3,0.6-0.7,1.3-1,2C3734.3,2676.1,3734,2676.3,3733.6,2676.3z M3733.6,2673.2c0.9,0,1.7-0.7,1.7-1.7l0,0
				c0-0.9-0.7-1.7-1.7-1.7c0,0,0,0,0,0c-0.9,0-1.7,0.7-1.7,1.7c0,0,0,0,0,0C3731.9,2672.4,3732.7,2673.2,3733.6,2673.2
				L3733.6,2673.2z"/>
			<path id="Trazado_11393_00000137820845294199240730000012329807304147461012_" class="st1" d="M3742.3,2664.8v0.9
				c0,0.5-0.4,1-1,1c0,0,0,0,0,0c-0.5,0-1-0.4-1-1c0,0,0,0,0,0v0c0-0.3,0-0.6,0-0.9h-0.8c-0.5,0.1-1-0.3-1.1-0.9
				c-0.1-0.5,0.3-1,0.9-1.1c0,0,0,0,0,0c0.1,0,0.1,0,0.2,0h0.8v-0.9c0-0.5,0.3-1,0.9-1.1c0.5,0,1,0.3,1.1,0.9c0,0.1,0,0.1,0,0.2v0.9
				h0.8c0.5-0.1,1,0.3,1.1,0.9c0.1,0.5-0.3,1-0.9,1.1c-0.1,0-0.2,0-0.2,0L3742.3,2664.8z"/>
		</g>
		<g id="Grupo_2395_00000087382318799478972320000008084481427355050933_" transform="translate(-3667.267 -2649.104)">
			<path id="Trazado_11436_00000122679572670658280380000016670064380102981302_" class="st1" d="M3708.4,2667.3
				c-6,0-10.9,4.9-10.9,10.9l0,0c0,6,4.9,10.9,10.9,10.9l0,0c6,0,10.9-4.9,10.9-10.9l0,0C3719.3,2672.2,3714.4,2667.3,3708.4,2667.3
				z M3708.4,2687.5c-5.1,0-9.2-4.1-9.2-9.2l0,0c0-5.1,4.1-9.2,9.2-9.2c0,0,0,0,0,0c5.1,0,9.2,4.1,9.2,9.2l0,0
				C3717.7,2683.3,3713.5,2687.4,3708.4,2687.5L3708.4,2687.5z"/>
			<path id="Trazado_11437_00000164489414553337410870000013604113931022847131_" class="st1" d="M3709.3,2663.7v-4.3
				c0-0.5-0.4-0.8-0.8-0.8l0,0c-0.5,0-0.8,0.4-0.8,0.8v4.3c0,0.5,0.4,0.8,0.8,0.8c0,0,0,0,0,0
				C3708.9,2664.5,3709.3,2664.1,3709.3,2663.7L3709.3,2663.7z"/>
			<path id="Trazado_11438_00000086662974454908890600000001312076415862088372_" class="st1" d="M3708.4,2691.9
				c-0.5,0-0.8,0.4-0.8,0.8v4.3c0,0.5,0.4,0.8,0.8,0.8c0.5,0,0.8-0.4,0.8-0.8v0l0,0v-4.3C3709.3,2692.3,3708.9,2691.9,3708.4,2691.9
				z"/>
			<path id="Trazado_11439_00000159469616312619523690000007686819916780668584_" class="st1" d="M3727.2,2677.4h-4.3
				c-0.5,0-0.8,0.4-0.8,0.8v0l0,0c0,0.5,0.4,0.8,0.8,0.8c0,0,0,0,0,0h4.3c0.5,0,0.8-0.4,0.8-0.8l0,0
				C3728.1,2677.8,3727.7,2677.4,3727.2,2677.4L3727.2,2677.4L3727.2,2677.4z"/>
			<path id="Trazado_11440_00000054233388342221136190000016686613623670000261_" class="st1" d="M3694.7,2678.2
				c0-0.5-0.4-0.8-0.8-0.8h-4.3c-0.5,0-0.8,0.4-0.8,0.8c0,0.5,0.4,0.8,0.8,0.8h0h4.3C3694.4,2679.1,3694.7,2678.7,3694.7,2678.2
				L3694.7,2678.2L3694.7,2678.2z"/>
			<path id="Trazado_11441_00000179633394858411168100000005165774678187095221_" class="st1" d="M3719.3,2668.5l3-3
				c0.3-0.3,0.3-0.9,0-1.2c-0.3-0.3-0.9-0.3-1.2,0l-3,3c-0.2,0.2-0.3,0.5-0.2,0.8c0.1,0.3,0.3,0.5,0.6,0.6
				C3718.8,2668.8,3719.1,2668.7,3719.3,2668.5z"/>
			<path id="Trazado_11442_00000010310137171338089360000010557007801027203732_" class="st1" d="M3697.5,2687.9l-3,3
				c-0.2,0.2-0.3,0.5-0.2,0.8c0.1,0.3,0.3,0.5,0.6,0.6c0.3,0.1,0.6,0,0.8-0.2l3-3c0.2-0.2,0.3-0.5,0.2-0.8c-0.1-0.3-0.3-0.5-0.6-0.6
				C3698.1,2687.6,3697.8,2687.7,3697.5,2687.9z"/>
			<path id="Trazado_11443_00000072972283241573116270000010918382572223325332_" class="st1" d="M3719.3,2687.9
				c-0.2-0.2-0.5-0.3-0.8-0.2c-0.3,0.1-0.5,0.3-0.6,0.6c-0.1,0.3,0,0.6,0.2,0.8l3,3c0.3,0.3,0.9,0.3,1.2,0c0.3-0.3,0.3-0.9,0-1.2
				L3719.3,2687.9z"/>
			<path id="Trazado_11444_00000134237353915415952080000010846270958092280965_" class="st1" d="M3697.5,2668.5
				c0.2,0.2,0.5,0.3,0.8,0.2c0.3-0.1,0.5-0.3,0.6-0.6c0.1-0.3,0-0.6-0.2-0.8l-3-3c-0.3-0.3-0.9-0.3-1.2,0c-0.3,0.3-0.3,0.9,0,1.2
				L3697.5,2668.5z"/>
		</g>
	</g>
</g>
<g id="dia">
	<g id="Capa_2_00000045577343968012274980000005593831539728861877_">
		<g id="Capa_1-2">
			<path id="Rect치ngulo_5-2" class="st2" d="M77,56.8H28.4C12.7,56.8,0,44.1,0,28.4l0,0C0,12.7,12.7,0,28.4,0H77"/>
			<g id="Grupo_2395">
				<path id="Trazado_11436" class="st0" d="M41.2,18.3c-6,0-10.9,4.9-10.9,10.9l0,0l0,0c0,6,4.9,10.9,10.9,10.9c0,0,0,0,0,0l0,0
					c6,0,10.9-4.9,10.9-10.9l0,0C52.1,23.2,47.2,18.3,41.2,18.3z M41.2,38.4c-5.1,0-9.2-4.1-9.2-9.2l0,0c0-5.1,4.1-9.2,9.2-9.2l0,0
					c5.1,0,9.2,4.1,9.2,9.2c0,0,0,0,0,0l0,0C50.4,34.3,46.2,38.4,41.2,38.4L41.2,38.4z"/>
				<path id="Trazado_11437" class="st0" d="M42,14.6v-4.2c0-0.5-0.4-0.8-0.8-0.8c0,0,0,0,0,0l0,0c-0.5,0-0.8,0.4-0.8,0.8l0,0v4.2
					c0,0.5,0.4,0.8,0.8,0.8l0,0l0,0C41.6,15.5,42,15.1,42,14.6z"/>
				<path id="Trazado_11438" class="st0" d="M41.2,42.9c-0.5,0-0.8,0.4-0.8,0.8V48c0,0.5,0.4,0.8,0.8,0.8c0.5,0,0.8-0.4,0.8-0.8l0,0
					v-4.3C42,43.3,41.6,42.9,41.2,42.9z"/>
				<path id="Trazado_11439" class="st0" d="M60,28.3h-4.3c-0.5,0-0.8,0.4-0.8,0.8l0,0c0,0.5,0.4,0.8,0.8,0.8H60
					c0.5,0,0.8-0.4,0.8-0.8l0,0C60.8,28.7,60.5,28.3,60,28.3L60,28.3L60,28.3L60,28.3z"/>
				<path id="Trazado_11440" class="st0" d="M27.5,29.2c0-0.5-0.4-0.8-0.8-0.8h-4.3c-0.5,0-0.8,0.4-0.8,0.8c0,0.5,0.4,0.8,0.8,0.8
					h4.3C27.1,30,27.5,29.6,27.5,29.2z"/>
				<path id="Trazado_11441" class="st0" d="M52.1,19.5l3-3c0.3-0.3,0.3-0.8,0-1.2c-0.3-0.3-0.8-0.3-1.2,0l-3,3
					c-0.3,0.3-0.3,0.9,0,1.2S51.7,19.8,52.1,19.5L52.1,19.5L52.1,19.5z"/>
				<path id="Trazado_11442" class="st0" d="M30.3,38.9l-3,3c-0.2,0.2-0.3,0.5-0.2,0.8c0.1,0.3,0.3,0.5,0.6,0.6
					c0.3,0.1,0.6,0,0.8-0.2l3-3c0.2-0.2,0.3-0.5,0.2-0.8c-0.1-0.3-0.3-0.5-0.6-0.6C30.8,38.6,30.5,38.7,30.3,38.9z"/>
				<path id="Trazado_11443" class="st0" d="M52.1,38.9c-0.2-0.2-0.5-0.3-0.8-0.2c-0.3,0.1-0.5,0.3-0.6,0.6c-0.1,0.3,0,0.6,0.2,0.8
					l3,3c0.3,0.3,0.8,0.4,1.2,0.1c0.3-0.3,0.4-0.8,0.1-1.2c0,0-0.1-0.1-0.1-0.1L52.1,38.9z"/>
				<path id="Trazado_11444" class="st0" d="M30.3,19.5c0.2,0.2,0.5,0.3,0.8,0.2c0.3-0.1,0.5-0.3,0.6-0.6c0.1-0.3,0-0.6-0.2-0.8
					l-3-3c-0.3-0.3-0.9-0.3-1.2,0c-0.3,0.3-0.3,0.9,0,1.2L30.3,19.5z"/>
			</g>
		</g>
	</g>
</g>
<g id="noche">
	<path id="Rect치ngulo_5" class="st2" d="M77,0h48.6C141.3,0,154,12.7,154,28.3c0,0,0,0,0,0l0,0c0,15.7-12.7,28.4-28.4,28.4H77"/>
	<g id="Grupo_2377">
		<path id="Trazado_11391" class="st0" d="M113.5,44.9c-0.6-0.1-1.2-0.1-1.8-0.2c-6.2-1-11.2-5.4-12.9-11.4
			c-2.6-8.7,2.3-17.8,10.9-20.5c0,0,0,0,0,0l0,0l0.2-0.1c0.4-0.2,0.9,0,1.2,0.4c0.2,0.4,0.2,0.9-0.2,1.2c-4.6,5.2-4.2,13.1,0.9,17.7
			l0,0c0.5,0.4,0.9,0.8,1.5,1.1c4.6,3.1,10.7,2.7,15-0.8l0.2-0.2c0.7-0.6,1.2-0.5,1.7,0.2v0.8c0,0.1-0.1,0.2-0.1,0.3
			c-1.8,5.9-6.8,10.2-12.8,11.2c-0.6,0.1-1.2,0.2-1.9,0.3L113.5,44.9z M127.2,35.5c-5.4,2.9-12,2.1-16.6-2c-2.1-1.9-3.6-4.3-4.3-7.1
			c-0.9-3.6-0.5-7.3,1.2-10.6c-7.1,3.7-9.8,12.5-6.1,19.6c3.7,7.1,12.5,9.8,19.6,6.1c0.2-0.1,0.3-0.2,0.4-0.2l0,0
			C123.9,39.9,125.9,37.9,127.2,35.5L127.2,35.5z"/>
		<path id="Trazado_11392" class="st0" d="M118.3,29.4c-0.4,0-0.7-0.2-0.9-0.6c-0.3-0.7-0.7-1.3-1-2c-0.1-0.2-0.2-0.3-0.4-0.4
			c-0.6-0.3-1.3-0.7-1.9-1c-0.5-0.2-0.7-0.8-0.5-1.3l0,0c0.1-0.2,0.3-0.4,0.5-0.5c0.7-0.3,1.3-0.6,2-1c0.1-0.1,0.3-0.2,0.3-0.3
			c0.3-0.6,0.7-1.3,1-2c0.2-0.5,0.8-0.7,1.3-0.6l0,0c0.3,0.1,0.5,0.3,0.6,0.5c0.3,0.6,0.6,1.3,0.9,1.9c0.1,0.2,0.3,0.4,0.5,0.5
			c0.6,0.3,1.3,0.6,1.9,0.9c0.5,0.2,0.7,0.8,0.6,1.3l0,0c-0.1,0.3-0.3,0.5-0.6,0.6c-0.7,0.3-1.3,0.6-1.9,1c-0.2,0.1-0.3,0.2-0.4,0.4
			c-0.3,0.6-0.7,1.3-1,2C119.1,29.2,118.8,29.4,118.3,29.4z M118.3,26.2c0.9,0,1.7-0.8,1.7-1.7l0,0c0-0.9-0.7-1.7-1.7-1.7l0,0
			c-0.9,0-1.7,0.7-1.7,1.7l0,0C116.7,25.5,117.4,26.2,118.3,26.2L118.3,26.2z"/>
		<path id="Trazado_11393" class="st0" d="M127.1,17.9v0.9c0,0.6-0.4,1-1,1l0,0c-0.6,0-1-0.4-1-1l0,0c0-0.3,0-0.6,0-0.9h-0.8
			c-0.5-0.1-1-0.5-0.9-1.1c0-0.4,0.3-0.7,0.7-0.8h1.1v-0.9c0-0.5,0.4-1,0.9-1.1c0.5,0,1,0.4,1.1,0.9v1h0.8c0.5-0.2,1.1,0.1,1.3,0.6
			c0.2,0.5-0.1,1.1-0.6,1.3c-0.2,0.1-0.3,0.1-0.5,0.1c-0.1,0-0.2,0-0.2,0L127.1,17.9z"/>
	</g>
</g>
</svg>
