<svg xmlns="http://www.w3.org/2000/svg" viewBox="0 0 32.19 32.28"><defs></defs><g id="Capa_2" data-name="Capa 2"><g id="Capa_1-2" data-name="Capa 1"><g id="Grupo_2377" data-name="Grupo 2377"><path id="Trazado_11391" data-name="Trazado 11391" class="cls-1" d="M15.44,32.28c-.61-.08-1.21-.12-1.81-.24A16,16,0,0,1,.72,20.62,16.42,16.42,0,0,1,11.64.12h0l.19,0A1,1,0,0,1,13,.46a1,1,0,0,1-.16,1.21,12.55,12.55,0,0,0,1,17.72h0a13,13,0,0,0,1.45,1.12,12.54,12.54,0,0,0,15-.85l.19-.15c.68-.58,1.19-.53,1.71.17v.82l-.12.31A16.24,16.24,0,0,1,19.25,32c-.62.12-1.25.17-1.87.25Zm13.68-9.46a14.52,14.52,0,0,1-16.6-2,14.15,14.15,0,0,1-4.31-7.07A14.44,14.44,0,0,1,9.45,3.17a14.48,14.48,0,0,0,13.92,25.4h0a14.44,14.44,0,0,0,5.74-5.75Z"/><path id="Trazado_11392" data-name="Trazado 11392" class="cls-1" d="M20.27,16.72a.94.94,0,0,1-.87-.57c-.33-.66-.65-1.34-1-2a1,1,0,0,0-.39-.39c-.64-.34-1.29-.65-1.94-1a1,1,0,0,1-.55-1.27h0a.94.94,0,0,1,.54-.55c.66-.32,1.33-.65,2-1a.8.8,0,0,0,.34-.34c.34-.65.67-1.3,1-2a1,1,0,0,1,1.27-.55h0a1,1,0,0,1,.55.54c.32.64.63,1.26.94,1.9a.9.9,0,0,0,.47.47c.63.29,1.26.63,1.89.94a1,1,0,0,1,.57,1.26h0a1,1,0,0,1-.57.56c-.64.32-1.28.63-1.91,1a1,1,0,0,0-.4.4c-.35.64-.67,1.31-1,2A1,1,0,0,1,20.27,16.72Zm0-3.15A1.67,1.67,0,0,0,22,11.9h0a1.67,1.67,0,0,0-1.67-1.67h0a1.67,1.67,0,0,0-1.67,1.67h0a1.67,1.67,0,0,0,1.67,1.67Z"/><path id="Trazado_11393" data-name="Trazado 11393" class="cls-1" d="M29,5.22v.91a1,1,0,0,1-1,1h0a1,1,0,0,1-1-1h0V5.21h-.83A1,1,0,0,1,26,3.27h0a.81.81,0,0,1,.22,0H27V2.4A1,1,0,0,1,29,2.22v1h.84a1,1,0,1,1,.22,1.94H29Z"/></g></g></g></svg>
