<svg xmlns="http://www.w3.org/2000/svg" viewBox="0 0 40.02 40.01"><defs></defs><g id="Capa_2" data-name="Capa 2"><g id="Capa_1-2" data-name="Capa 1"><path class="cls-1" d="M20,8.75h0A11.27,11.27,0,1,0,31.26,20,11.28,11.28,0,0,0,20,8.75Zm0,20.12h-.37A8.86,8.86,0,0,1,20,11.16h0A8.86,8.86,0,0,1,28.86,20,8.89,8.89,0,0,1,20,28.87Z"/><path class="cls-1" d="M20,6.67a1.21,1.21,0,0,0,1.2-1.21V1.21a1.2,1.2,0,1,0-2.4,0V5.46A1.21,1.21,0,0,0,20,6.67Z"/><path class="cls-1" d="M20,33.35a1.2,1.2,0,0,0-1.2,1.2v4.26a1.2,1.2,0,1,0,2.4,0V34.55A1.2,1.2,0,0,0,20,33.35Z"/><path class="cls-1" d="M38.87,18.81H34.55A1.21,1.21,0,0,0,33.35,20a1.2,1.2,0,0,0,1.2,1.2h4.27A1.2,1.2,0,0,0,40,20,1.19,1.19,0,0,0,38.87,18.81Z"/><path class="cls-1" d="M6.66,20h0a1.22,1.22,0,0,0-1.2-1.21H1.2a1.21,1.21,0,0,0,0,2.41H5.46A1.2,1.2,0,0,0,6.66,20Z"/><path class="cls-1" d="M30,10.88a1.54,1.54,0,0,0,.3,0,1.22,1.22,0,0,0,.86-.36l3-3a1.2,1.2,0,0,0-1.7-1.69l-3,3A1.23,1.23,0,0,0,29.14,10,1.2,1.2,0,0,0,30,10.88Z"/><path class="cls-1" d="M10,29.14a1.21,1.21,0,0,0-1.16.31l-3,3a1.21,1.21,0,0,0-.31,1.16,1.2,1.2,0,0,0,.85.85,1.1,1.1,0,0,0,.31,0,1.17,1.17,0,0,0,.85-.35l3-3A1.17,1.17,0,0,0,10.86,30,1.2,1.2,0,0,0,10,29.14Z"/><path class="cls-1" d="M31.15,29.45A1.22,1.22,0,0,0,30,29.14a1.2,1.2,0,0,0-.53,2l3,3a1.2,1.2,0,0,0,.85.35,1.24,1.24,0,0,0,.85-.35,1.21,1.21,0,0,0,0-1.7Z"/><path class="cls-1" d="M8.85,10.56a1.22,1.22,0,0,0,.86.36,1.65,1.65,0,0,0,.31,0,1.25,1.25,0,0,0,.85-.85,1.21,1.21,0,0,0-.32-1.17l-3-3a1.21,1.21,0,0,0-1.69,0,1.19,1.19,0,0,0,0,1.69Z"/></g></g></svg>
