<svg xmlns="http://www.w3.org/2000/svg" viewBox="0 0 150.11 150.67"><defs><style>.cls-1{fill:none;stroke:#8a5874;stroke-width:2.68px;}.cls-2{fill:#8a5874;}</style></defs><g id="Capa_2" data-name="Capa 2"><g id="Capa_1-2" data-name="Capa 1"><rect id="Rectángulo_598" data-name="Rectángulo 598" class="cls-1" x="1.34" y="1.34" width="147.43" height="147.99" rx="30.83"/><g id="Grupo_2224" data-name="Grupo 2224"><g id="Grupo_2223" data-name="Grupo 2223"><path id="Trazado_11268" data-name="Trazado 11268" class="cls-2" d="M115.46,38.14H34.86A8.08,8.08,0,0,0,26.8,46.2V78.44a8.08,8.08,0,0,0,8.06,8.06h80.6a8.08,8.08,0,0,0,8.06-8.06V46.2A8.08,8.08,0,0,0,115.46,38.14ZM38.09,41.37h74.14V46.2A4.84,4.84,0,0,1,107.4,51H42.92a4.84,4.84,0,0,1-4.83-4.84h0Zm74.14,41.9H38.09v-1.6h74.14Zm0-4.83H38.09V76.83h74.14Zm0-4.84H38.09V72h74.14Zm8.06,4.84a4.83,4.83,0,0,1-4.83,4.83h0V70.38a1.61,1.61,0,0,0-1.61-1.61H36.48a1.61,1.61,0,0,0-1.61,1.61V83.27A4.83,4.83,0,0,1,30,78.44h0V46.2a4.83,4.83,0,0,1,4.83-4.83h0V46.2a8.07,8.07,0,0,0,8.06,8.06H107.4a8.07,8.07,0,0,0,8.06-8.06V41.37a4.84,4.84,0,0,1,4.84,4.83h0Z"/><path id="Trazado_11269" data-name="Trazado 11269" class="cls-2" d="M80,63.93H67.1a1.61,1.61,0,1,0,0,3.22H80a1.61,1.61,0,0,0,0-3.22Z"/><path id="Trazado_11270" data-name="Trazado 11270" class="cls-2" d="M109,57.48H107.4a1.61,1.61,0,0,0,0,3.22H109a1.61,1.61,0,0,0,0-3.22Z"/><path id="Trazado_11271" data-name="Trazado 11271" class="cls-2" d="M115.46,57.48h-1.61a1.61,1.61,0,0,0,0,3.22h1.61a1.61,1.61,0,0,0,0-3.22Z"/><path id="Trazado_11272" data-name="Trazado 11272" class="cls-2" d="M78.38,91.33a1.61,1.61,0,1,0-3.21,0,6.11,6.11,0,0,1-1.34,3.94,9.66,9.66,0,0,0,0,11.46,6.48,6.48,0,0,1,0,7.88A9.27,9.27,0,0,0,72,120.34a1.61,1.61,0,0,0,3.22,0,6.07,6.07,0,0,1,1.34-3.94,9.69,9.69,0,0,0,0-11.46,6.45,6.45,0,0,1,0-7.88A9.3,9.3,0,0,0,78.38,91.33Z"/><path id="Trazado_11273" data-name="Trazado 11273" class="cls-2" d="M65.49,91.33a1.61,1.61,0,1,0-3.22,0,6.05,6.05,0,0,1-1.34,3.94,9.66,9.66,0,0,0,0,11.46,6.45,6.45,0,0,1,0,7.88,9.2,9.2,0,0,0-1.87,5.73,1.61,1.61,0,1,0,3.21,0,6.13,6.13,0,0,1,1.34-3.94,9.66,9.66,0,0,0,0-11.46,6.48,6.48,0,0,1,0-7.88A9.25,9.25,0,0,0,65.49,91.33Z"/><path id="Trazado_11274" data-name="Trazado 11274" class="cls-2" d="M91.28,91.33a1.61,1.61,0,0,0-3.22,0,6.05,6.05,0,0,1-1.34,3.94,9.66,9.66,0,0,0,0,11.46,6.45,6.45,0,0,1,0,7.88,9.27,9.27,0,0,0-1.88,5.73,1.61,1.61,0,1,0,3.22,0,6.13,6.13,0,0,1,1.34-3.94,9.66,9.66,0,0,0,0-11.46,6.45,6.45,0,0,1,0-7.88A9.25,9.25,0,0,0,91.28,91.33Z"/></g></g></g></g></svg>