<svg xmlns="http://www.w3.org/2000/svg" viewBox="0 0 150.11 150.67"><defs><style>.cls-1{fill:none;stroke:#8a5874;stroke-width:2.68px;}.cls-2{fill:#8b5675;}</style></defs><g id="Capa_2" data-name="Capa 2"><g id="Capa_1-2" data-name="Capa 1"><rect id="Rectángulo_603" data-name="Rectángulo 603" class="cls-1" x="1.34" y="1.34" width="147.43" height="147.99" rx="30.83"/><path id="Trazado_11245" data-name="Trazado 11245" class="cls-2" d="M109.59,37H73.5a5.57,5.57,0,0,0-5.56,5.56V70.59a4.29,4.29,0,0,0-4.62,1L62,72.87a4.32,4.32,0,0,0-5.7-2.22,4.61,4.61,0,0,0-1.29.88c-5.43,5.19-10.45,11.26-10.65,20.41L43,90.53l-7.52,7.52,1.39,1.39-8.33,8.33,15.85,15.84,8.33-8.33,1.38,1.39,7.52-7.51-1.39-1.39h2.9a27.36,27.36,0,0,0,4.86-.43v1.82a5.56,5.56,0,0,0,5.55,5.55h36.09a5.57,5.57,0,0,0,5.55-5.55V42.53A5.57,5.57,0,0,0,109.59,37M44.92,103.6,48.51,100l3.59,3.59-3.59,3.59Zm-2-9.14,3.59,3.59L43,101.64l-3.59-3.59Zm1.38,25.23L32.43,107.77l6.36-6.37,11.92,11.92Zm9.72-6.94-3.59-3.59,3.59-3.6,3.59,3.6ZM57.41,105,47.12,94.7V92.5c0-8.42,4.72-14.09,9.84-19a1.55,1.55,0,0,1,2.65,1.1v.65L55.86,79l2,2,7.47-7.47a1.57,1.57,0,0,1,2.2,0,1.59,1.59,0,0,1,.46,1.1v.65l-6.54,6.53,2,2,8.85-8.86A1.56,1.56,0,0,1,74.89,76v.39L66.3,84.54l1.91,2L82,73.51a1.55,1.55,0,0,1,2.2,0,1.57,1.57,0,0,1,.46,1.1,1.54,1.54,0,0,1-.44,1.07L69.22,90A4.33,4.33,0,0,0,68,93v.86C68,95.22,68,98,70.72,98c3.1,0,4.28-.92,5.2-1.84l6.2-6.89a1.55,1.55,0,0,1,1.1-.46,1.7,1.7,0,0,1,1.36,2,1.68,1.68,0,0,1-.47.89l-7.43,8.12c-3.46,3.46-7.9,5.15-13.59,5.15Zm21.27-3.23.37-.4v10.57H76.27V103.8a20.56,20.56,0,0,0,2.42-2m3.14-3.43,2.77-3v16.64H81.83Zm5.55-3.06h2.77v16.66H87.38Zm5.55,0h2.78v16.66H92.93Zm5.56,0h2.77v16.66H98.49Zm5.55,0h2.78v16.66H104Zm2.78-2.77H86.91a4.44,4.44,0,0,0-3.7-6.42A4.39,4.39,0,0,0,80.1,87.4l-3.83,4.25V87.06l8.23-7.84a12.59,12.59,0,1,0-5-7.17l-2.23,2.12a4.31,4.31,0,0,0-1-1.32V45.3h30.54ZM73.5,94.65a4.42,4.42,0,0,1-2.7.62,8,8,0,0,1-.08-1.39V93A1.54,1.54,0,0,1,71.16,92l2.34-2.24ZM81.83,68.9a9.72,9.72,0,1,1,19.43-.08,10,10,0,0,1-.16,1.81l-4.72-5.9H86.69l-4.21,5.62a3,3,0,0,0-.52.1,10.15,10.15,0,0,1-.14-1.55m6.25-1.39h7L100,73.69a9.75,9.75,0,0,1-8.45,4.93,9.62,9.62,0,0,1-5-1.43,4.29,4.29,0,0,0-.84-6L85.44,71ZM70.72,109.16v-2.53a20.13,20.13,0,0,0,2.78-1.11v6.41a2.77,2.77,0,0,1-2.78-2.77m41.64,0a2.77,2.77,0,0,1-2.77,2.77V45.3a2.79,2.79,0,0,0-2.78-2.78H76.27A2.78,2.78,0,0,0,73.5,45.3V71.69h-.17a4.31,4.31,0,0,0-2.61.89v-30a2.77,2.77,0,0,1,2.78-2.77h36.09a2.77,2.77,0,0,1,2.77,2.77Z"/><path id="Trazado_11249" data-name="Trazado 11249" class="cls-2" d="M64.3,107.08A1.33,1.33,0,1,0,63,105.81a1.33,1.33,0,0,0,1.28,1.27"/></g></g></svg>