<svg xmlns="http://www.w3.org/2000/svg" viewBox="0 0 150.11 150.67"><defs><style>.cls-1{fill:none;stroke:#8a5874;stroke-width:2.68px;}.cls-2{fill:#8a5874;}</style></defs><g id="Capa_2" data-name="Capa 2"><g id="Capa_1-2" data-name="Capa 1"><rect id="Rectángulo_602" data-name="Rectángulo 602" class="cls-1" x="1.34" y="1.34" width="147.43" height="147.99" rx="30.83"/><g id="Grupo_2251" data-name="Grupo 2251"><path id="Trazado_11313" data-name="Trazado 11313" class="cls-2" d="M112.7,68.64,102.64,45.08a5.48,5.48,0,0,0-5.07-3.34H54.63a5.51,5.51,0,0,0-5.07,3.34L39.5,68.64A12.87,12.87,0,0,0,32,80.34V95a5.54,5.54,0,0,0,5.52,5.51h1.84v9.19a5.52,5.52,0,0,0,5.52,5.51h7.35a5.52,5.52,0,0,0,5.52-5.51v-9.19H94.49v9.19a5.52,5.52,0,0,0,5.51,5.51h7.36a5.53,5.53,0,0,0,5.52-5.51v-9.19h1.82A5.54,5.54,0,0,0,120.22,95V80.34A12.9,12.9,0,0,0,112.7,68.64ZM52.94,46.52a1.87,1.87,0,0,1,1.69-1.12H97.57a1.83,1.83,0,0,1,1.69,1.1l9,21c-.29,0-.58,0-.86,0H44.86c-.3,0-.59,0-.87,0ZM54,109.73a1.84,1.84,0,0,1-1.84,1.85H44.86A1.85,1.85,0,0,1,43,109.73v-9.18H54Zm53.3,1.85H100a1.85,1.85,0,0,1-1.85-1.85v-9.18h11v9.18h0a1.86,1.86,0,0,1-1.84,1.86h0Zm7.36-14.7H37.5A1.85,1.85,0,0,1,35.65,95V80.34a9.19,9.19,0,0,1,9.19-9.18h62.5a9.19,9.19,0,0,1,9.19,9.18V95h0a1.85,1.85,0,0,1-1.85,1.85Z"/></g><g id="Grupo_2253" data-name="Grupo 2253"><path id="Trazado_11314" data-name="Trazado 11314" class="cls-2" d="M48.53,74.83A9.19,9.19,0,1,0,57.71,84,9.18,9.18,0,0,0,48.53,74.83Zm0,14.7A5.52,5.52,0,1,1,54,84h0a5.53,5.53,0,0,1-5.51,5.51Z"/></g><g id="Grupo_2255" data-name="Grupo 2255"><path id="Trazado_11315" data-name="Trazado 11315" class="cls-2" d="M103.67,74.83A9.19,9.19,0,1,0,112.86,84,9.18,9.18,0,0,0,103.67,74.83Zm0,14.7A5.52,5.52,0,1,1,109.19,84h0a5.54,5.54,0,0,1-5.52,5.51Z"/></g><g id="Grupo_2257" data-name="Grupo 2257"><path id="Trazado_11316" data-name="Trazado 11316" class="cls-2" d="M89,85.86H63.23a1.84,1.84,0,1,0,0,3.68H89a1.84,1.84,0,0,0,0-3.68h0Z"/></g><g id="Grupo_2259" data-name="Grupo 2259"><path id="Trazado_11317" data-name="Trazado 11317" class="cls-2" d="M89,78.5H63.23a1.85,1.85,0,1,0,0,3.69H89a1.85,1.85,0,0,0,0-3.69h0Z"/></g></g></g></svg>