<svg xmlns="http://www.w3.org/2000/svg" viewBox="0 0 150.11 150.67"><defs><style>.cls-1{fill:none;stroke:#8a5874;stroke-width:2.68px;}.cls-2{fill:#8a5874;}</style></defs><g id="Capa_2" data-name="Capa 2"><g id="Capa_1-2" data-name="Capa 1"><rect id="Rectángulo_604" data-name="Rectángulo 604" class="cls-1" x="1.34" y="1.34" width="147.43" height="147.99" rx="30.83"/><g id="Grupo_2421" data-name="Grupo 2421"><path id="Trazado_11318" data-name="Trazado 11318" class="cls-2" d="M130.87,72.19l-62-35.81a7.76,7.76,0,0,0-10.58,2.84L51.12,51.58l-4.76,8.24A7.76,7.76,0,0,0,49.2,70.4L70.47,82.68l-3.31,5.64a5,5,0,0,1-4.29,2.46H50.46V81.32a1.41,1.41,0,0,0-1.39-1.4H41.51V78.13A6.16,6.16,0,0,0,35.35,72H31.18a1.4,1.4,0,0,0-1.4,1.39h0v47.17a1.39,1.39,0,0,0,1.39,1.39h4.18a6.16,6.16,0,0,0,6.17-6.16v-4.42h7.55a1.4,1.4,0,0,0,1.39-1.4V103.1H62.88A17.36,17.36,0,0,0,77.8,94.55l3.35-5.71,11.66,6.73a7.68,7.68,0,0,0,3.86,1,8.11,8.11,0,0,0,2-.26,7.89,7.89,0,0,0,3.37-1.89,11.63,11.63,0,0,0,4.86,1.07,12,12,0,0,0,3-.4,11.68,11.68,0,0,0,6.34-4.29l2.85,1.64a1.38,1.38,0,0,0,1.9-.51h0L131.38,74.1a1.4,1.4,0,0,0-.5-1.91ZM38.73,115.76a3.4,3.4,0,0,1-3.39,3.38H32.57V74.75h2.78a3.38,3.38,0,0,1,3.38,3.38Zm8.94-7.21H41.51V82.71h6.16Zm27.72-15.4a14.55,14.55,0,0,1-12.52,7.17H50.46V93.57H62.87a7.79,7.79,0,0,0,6.69-3.84l3.32-5.65,5.86,3.38Zm18.8,0L50.59,68a5,5,0,0,1-1.82-6.79l4.06-7,40,23.07L105,84.32l-4.06,7h0a5.91,5.91,0,0,1-.35.52h0a5,5,0,0,1-6.43,1.29Zm15.06-.73a8.91,8.91,0,0,1-5.52-.29l3.72-6.44,6.43,3.72a8.84,8.84,0,0,1-4.63,3Zm10.09-3.07-9-5.2-2.72-1.57L76.9,64.87,54.22,51.77l6.44-11.16a5,5,0,0,1,6.79-1.82L128.27,73.9Z"/><path id="Trazado_11319" data-name="Trazado 11319" class="cls-2" d="M113.4,81.81a5.42,5.42,0,0,0,2.67.72,5.56,5.56,0,0,0,1.4-.19,5.36,5.36,0,1,0-4.07-.54Zm.46-5.92a2.57,2.57,0,1,1-.26,2,2.58,2.58,0,0,1,.26-2Z"/><path id="Trazado_11320" data-name="Trazado 11320" class="cls-2" d="M66,67.71,54.56,61.13a1.38,1.38,0,0,0-1.89.54,1.39,1.39,0,0,0,.48,1.86h0l11.41,6.58A1.39,1.39,0,1,0,66,67.71Z"/></g></g></g></svg>