<svg xmlns="http://www.w3.org/2000/svg" viewBox="0 0 150.11 150.67"><defs><style>.cls-1{fill:none;stroke:#8a5874;stroke-width:2.68px;}.cls-2{fill:#8a5874;}</style></defs><g id="Capa_2" data-name="Capa 2"><g id="Capa_1-2" data-name="Capa 1"><rect id="Rectángulo_601" data-name="Rectángulo 601" class="cls-1" x="1.34" y="1.34" width="147.43" height="147.99" rx="30.83"/><path id="Trazado_11321" data-name="Trazado 11321" class="cls-2" d="M115.17,116.05h-.72l-5.3-13.25a6.49,6.49,0,0,0,4.41-6.13V82.14A1.61,1.61,0,0,0,112,80.53h0a21,21,0,0,0-21,21,1.61,1.61,0,0,0,1.61,1.61H95l-5.17,12.92H82.72a8.09,8.09,0,0,0-7.91-6.46V96.67H87.73a1.62,1.62,0,0,0,1.61-1.61V90.22a1.61,1.61,0,0,0-1.61-1.61H74.81V56.31h40.37a1.61,1.61,0,0,0,1.6-1.61h0c0-5.84-4.7-11.23-13.23-15.16A70.76,70.76,0,0,0,78,33.84V30.49a1.61,1.61,0,0,0-1.61-1.61H70a1.61,1.61,0,0,0-1.61,1.61h0v3.35a70.72,70.72,0,0,0-25.51,5.7c-8.54,3.93-13.24,9.32-13.24,15.16a1.61,1.61,0,0,0,1.61,1.61H71.58V88.6H58.66a1.61,1.61,0,0,0-1.61,1.61h0v4.84a1.62,1.62,0,0,0,1.61,1.61H71.58v12.92A8.09,8.09,0,0,0,63.67,116H56.33l-5.17-12.92h2.66a1.61,1.61,0,0,0,1.61-1.61h0a21,21,0,0,0-21-21,1.61,1.61,0,0,0-1.61,1.61h0V96.66a6.47,6.47,0,0,0,4.24,6.06L31.74,116h-7a1.61,1.61,0,1,0,0,3.22h90.41a1.61,1.61,0,1,0,0-3.22h0ZM36.06,96.67V83.83A17.77,17.77,0,0,1,52.13,99.9H39.29A3.23,3.23,0,0,1,36.06,96.67Zm.52,19.38H35.22l5.16-12.92h1.37Zm3.49,0,4-9.93,4,9.93Zm11.42,0-5.17-12.92h1.37l5.16,12.92Zm50.72-73.59c6.34,2.93,10.31,6.73,11.18,10.62H99A20.09,20.09,0,0,0,89.6,38.5a56.25,56.25,0,0,1,12.6,4ZM95.7,53.08H74.81V37C85.84,37.6,94.71,44.46,95.7,53.08Zm-24.12-21h3.23V33.7H71.58Zm-24.14,21H33c.87-3.89,4.83-7.69,11.18-10.62a56.33,56.33,0,0,1,12.59-4A20.1,20.1,0,0,0,47.44,53.08Zm3.24,0c1-8.62,9.87-15.48,20.9-16.1v16.1Zm9.6,40.36V91.83H86.11v1.61ZM67,116.05a4.85,4.85,0,0,1,4.57-3.23h3.23a4.83,4.83,0,0,1,4.56,3.23ZM94.26,99.9a17.77,17.77,0,0,1,16.07-16.07V96.67a3.23,3.23,0,0,1-3.23,3.23Zm.44,16.15H93.34l5.17-12.92h1.36Zm3.49,0,4-9.93,4,9.93Zm11.42,0-5.17-12.92h1.37L111,116.05Z"/></g></g></svg>