<svg xmlns="http://www.w3.org/2000/svg" viewBox="0 0 150.11 150.67"><defs><style>.cls-1{fill:none;stroke:#8a5874;stroke-width:2.68px;}.cls-2{fill:#8a5874;}</style></defs><g id="Capa_2" data-name="Capa 2"><g id="Capa_1-2" data-name="Capa 1"><rect id="Rectángulo_599" data-name="Rectángulo 599" class="cls-1" x="1.34" y="1.34" width="147.43" height="147.99" rx="30.83"/><g id="Grupo_2227" data-name="Grupo 2227"><g id="Grupo_2226" data-name="Grupo 2226"><path id="Trazado_11275" data-name="Trazado 11275" class="cls-2" d="M122.87,86.73l-5.42-5.42a5.48,5.48,0,0,0-7.72,0,5.42,5.42,0,0,0-1.34,2.21,5.43,5.43,0,0,0-7.15,4.12,5.45,5.45,0,0,0-5.76,3.19l-3.13-3.14a5.59,5.59,0,0,0-7.72,0,5.43,5.43,0,0,0,0,7.72L98,108.78H95.23a8.75,8.75,0,0,0-8.74,8.75,1.76,1.76,0,0,0,1.74,1.75h21.16a19.08,19.08,0,0,0,13.48-32.55Zm-13.48,29.05H90.28a5.26,5.26,0,0,1,5-3.5h7a1.75,1.75,0,0,0,1.24-3L87.11,92.94a1.93,1.93,0,0,1-.58-1.38,2,2,0,0,1,.58-1.39,2,2,0,0,1,2.77,0L101,101.28a1.74,1.74,0,0,0,2.46,0h0a1.75,1.75,0,0,0,0-2.47l-4.37-4.38a1.88,1.88,0,0,1-.57-1.38,1.92,1.92,0,0,1,.57-1.38,2,2,0,0,1,2.77,0l2.63,2.62a1.75,1.75,0,0,0,2.46,0h0a1.76,1.76,0,0,0,0-2.48l-1.74-1.75a1.93,1.93,0,0,1,0-2.76,2,2,0,0,1,2.77,0L109.73,89a1.75,1.75,0,0,0,3-1.23,1.7,1.7,0,0,0-.51-1.24A2,2,0,0,1,115,83.8l5.42,5.42a15.56,15.56,0,0,1-11,26.56Z"/></g></g><g id="Grupo_2229" data-name="Grupo 2229"><g id="Grupo_2228" data-name="Grupo 2228"><path id="Trazado_11276" data-name="Trazado 11276" class="cls-2" d="M95.22,35.34h-42a8.75,8.75,0,0,0-8.74,8.75v66.44a8.75,8.75,0,0,0,8.74,8.75h28a1.75,1.75,0,0,0,0-3.49h-28A5.26,5.26,0,0,1,48,110.54V44.09a5.25,5.25,0,0,1,5.25-5.24h42a5.25,5.25,0,0,1,5.25,5.24v35a1.75,1.75,0,0,0,3.49,0v-35A8.76,8.76,0,0,0,95.22,35.34Z"/></g></g><g id="Grupo_2231" data-name="Grupo 2231"><g id="Grupo_2230" data-name="Grupo 2230"><path id="Trazado_11277" data-name="Trazado 11277" class="cls-2" d="M84.73,101.79H46.27a1.75,1.75,0,0,0-1.75,1.75h0a1.76,1.76,0,0,0,1.75,1.75H84.73a1.75,1.75,0,0,0,1.75-1.75h0A1.76,1.76,0,0,0,84.73,101.79Z"/></g></g><g id="Grupo_2233" data-name="Grupo 2233"><g id="Grupo_2232" data-name="Grupo 2232"><path id="Trazado_11278" data-name="Trazado 11278" class="cls-2" d="M77.74,108.78h-7a1.75,1.75,0,0,0,0,3.5h7a1.76,1.76,0,0,0,1.75-1.75h0A1.76,1.76,0,0,0,77.74,108.78Z"/></g></g></g></g></svg>