<svg xmlns="http://www.w3.org/2000/svg" viewBox="0 0 74.15 73.12"><defs><style>.cls-1{fill:#8a5874;}</style></defs><g id="Capa_2" data-name="Capa 2"><g id="Layer_2" data-name="Layer 2"><g id="Grupo_104" data-name="Grupo 104"><g id="Grupo_103" data-name="Grupo 103"><path id="Trazado_229" data-name="Trazado 229" class="cls-1" d="M0,22.25c.25-1.73.43-3.48.75-5.2C2.53,7.29,9.44.66,19.31.31,31.2-.09,43.13-.12,55,.31a19.12,19.12,0,0,1,18.86,19.1q.53,17.12,0,34.28A19.1,19.1,0,0,1,55,72.79c-11.89.43-23.82.44-35.71,0C8.55,72.39,1.12,64.41.4,53.64c-.06-.93-.26-1.86-.4-2.78ZM37.09,66.42c5.44,0,10.88.16,16.32,0,8.52-.32,13.76-5.4,14-13.91q.36-15.91,0-31.84c-.2-8.5-5.45-13.71-14-13.89Q37.2,6.4,21,6.74C12.52,6.91,7.26,12,7,20.43Q6.6,36.54,7,52.67C7.26,61.08,12.52,66.06,21,66.38,26.33,66.58,31.72,66.42,37.09,66.42Z"/><path id="Trazado_230" data-name="Trazado 230" class="cls-1" d="M37.07,17.66A18.9,18.9,0,1,0,56,36.55a18.89,18.89,0,0,0-18.9-18.89Zm0,31.28A12.39,12.39,0,1,1,49.46,36.55,12.39,12.39,0,0,1,37.07,48.94Z"/><path id="Trazado_231" data-name="Trazado 231" class="cls-1" d="M61.57,16.8a4.5,4.5,0,1,1-4.5-4.5,4.5,4.5,0,0,1,4.5,4.5Z"/></g></g></g></g></svg>