<svg xmlns="http://www.w3.org/2000/svg" viewBox="0 0 359.37 200.88"><defs><style>.cls-1{fill:#e80033;}</style></defs><g id="Capa_2" data-name="Capa 2"><g id="Capa_1-2" data-name="Capa 1"><path d="M46,171H37V144.54L27,171H19.2L9,144.54V171H0V131.36H9.89a6.58,6.58,0,0,1,1.83.26,7.11,7.11,0,0,1,1.61.72,5.45,5.45,0,0,1,1.29,1.1,4.69,4.69,0,0,1,.83,1.43l6.93,19.81c.09.29.18.63.26,1s.16.72.24,1.05.14.8.19,1.22a9.21,9.21,0,0,1,.14-1.19c.06-.33.12-.68.21-1.06a5,5,0,0,1,.32-1l6.88-19.81a4.38,4.38,0,0,1,.85-1.5,5.38,5.38,0,0,1,1.33-1.1,6.75,6.75,0,0,1,1.63-.68,7.17,7.17,0,0,1,1.77-.23H46Z"/><path d="M76.32,155a6.73,6.73,0,0,0,.6,2.82,7.78,7.78,0,0,0,1.63,2.32,8,8,0,0,0,2.37,1.58,7.19,7.19,0,0,0,5.66,0A8.17,8.17,0,0,0,89,160.15a7.46,7.46,0,0,0,1.64-2.32,6.59,6.59,0,0,0,.61-2.82V131.36h9V155A15.8,15.8,0,0,1,99,161.38a16.56,16.56,0,0,1-3.54,5.18,16.89,16.89,0,0,1-5.24,3.5,16.75,16.75,0,0,1-10.79.7,16.57,16.57,0,0,1-3.92-1.64,16.93,16.93,0,0,1-3.34-2.56,15.89,15.89,0,0,1-2.6-3.3,16.1,16.1,0,0,1-1.67-3.9,15.65,15.65,0,0,1-.6-4.35V131.36h9.07Z"/><path d="M133.07,140a7.89,7.89,0,0,0-1.39.13,4.2,4.2,0,0,0-1.21.4,2.4,2.4,0,0,0-.84.69,1.62,1.62,0,0,0-.32,1,2,2,0,0,0,.44,1.38,3.79,3.79,0,0,0,1.34.87,20.25,20.25,0,0,0,2.24.74c.9.25,1.94.58,3.14,1a22.32,22.32,0,0,1,4.19,1.9,13.52,13.52,0,0,1,3.23,2.62,11.1,11.1,0,0,1,2.83,7.59,11.44,11.44,0,0,1-1.22,5.26,13.09,13.09,0,0,1-3.24,4.1,15.15,15.15,0,0,1-4.69,2.67,16,16,0,0,1-5.49.95,14.76,14.76,0,0,1-4.63-.72,14.89,14.89,0,0,1-7.26-5.07,14.18,14.18,0,0,1-2.15-3.88l2.87-1.66a8.1,8.1,0,0,1,1.48-.62,5.82,5.82,0,0,1,1.59-.23,4.45,4.45,0,0,1,2.14.5c.64.33,1.26.69,1.87,1.07a20.38,20.38,0,0,0,1.88,1.08,4.77,4.77,0,0,0,2.21.5,7.31,7.31,0,0,0,1.81-.26,7.17,7.17,0,0,0,1.82-.77A4.7,4.7,0,0,0,137.1,160a2.76,2.76,0,0,0,.56-1.7,2.2,2.2,0,0,0-.51-1.5,4.44,4.44,0,0,0-1.39-1,13.67,13.67,0,0,0-2-.79c-.75-.24-1.55-.53-2.37-.86-1.37-.51-2.71-1.08-4-1.68a15.08,15.08,0,0,1-3.56-2.26,9.82,9.82,0,0,1-3.54-8,10.1,10.1,0,0,1,1.09-4.77,11,11,0,0,1,2.89-3.52,13.05,13.05,0,0,1,4.1-2.2,15.27,15.27,0,0,1,4.74-.76,10.09,10.09,0,0,1,3.44.6,15.4,15.4,0,0,1,3.16,1.54,19.59,19.59,0,0,1,2.8,2.17,27,27,0,0,1,2.34,2.49L142,140.12a5.14,5.14,0,0,1-1.72,1,6.33,6.33,0,0,1-2,.3,4.77,4.77,0,0,1-1.54-.22,12.07,12.07,0,0,1-1.25-.48c-.38-.17-.77-.34-1.16-.48A3.5,3.5,0,0,0,133.07,140Z"/><path d="M177.25,131.36H185L202.34,171h-5.83a6.32,6.32,0,0,1-1.75-.23,5.79,5.79,0,0,1-1.56-.69,6,6,0,0,1-1.3-1.11,5.35,5.35,0,0,1-.94-1.47l-1.94-4.4H173.27l-1.88,4.4a5.28,5.28,0,0,1-.92,1.38,7.19,7.19,0,0,1-1.34,1.11,6,6,0,0,1-1.6.75,5.75,5.75,0,0,1-1.72.26H160Zm-.36,23.49h8.46l-3.46-8.3a8.72,8.72,0,0,1-.38-1.07c-.09-.33-.17-.63-.22-.89a4.4,4.4,0,0,1-.14-.82c0,.25-.09.54-.17.85s-.13.55-.23.89-.23.68-.38,1Z"/><path d="M223.34,151.14a10.61,10.61,0,0,0,.91,4.33,11.76,11.76,0,0,0,2.46,3.55,11.57,11.57,0,0,0,3.59,2.39,11,11,0,0,0,4.34.87,10.11,10.11,0,0,0,3.33-.54,12.63,12.63,0,0,0,2.92-1.45,5.77,5.77,0,0,1,3.31-1,5.9,5.9,0,0,1,2.46.46,6.2,6.2,0,0,1,1.88,1.31l2.35,2.35a29.48,29.48,0,0,1-3.63,3.29,25.53,25.53,0,0,1-4,2.49,21.69,21.69,0,0,1-4.24,1.57,17.8,17.8,0,0,1-4.4.55A20.29,20.29,0,0,1,215,156.52a20.15,20.15,0,0,1,0-10.75,20.33,20.33,0,0,1,5.23-8.9,20.39,20.39,0,0,1,9-5.18,20.08,20.08,0,0,1,5.39-.72,18.29,18.29,0,0,1,4.4.55,21.73,21.73,0,0,1,4.24,1.58,24.81,24.81,0,0,1,4,2.49,29.39,29.39,0,0,1,3.63,3.28l-2.35,2.35a6.52,6.52,0,0,1-1.91,1.32,5.89,5.89,0,0,1-2.43.48,5.73,5.73,0,0,1-3.31-1,12.14,12.14,0,0,0-2.95-1.47,10.27,10.27,0,0,0-3.3-.52,10.83,10.83,0,0,0-4.34.88,11.93,11.93,0,0,0-3.59,2.39,11.47,11.47,0,0,0-2.46,3.54A10.52,10.52,0,0,0,223.34,151.14Z"/><path d="M275.51,151.14a10.44,10.44,0,0,0,.91,4.33,11.76,11.76,0,0,0,2.46,3.55,11.57,11.57,0,0,0,3.59,2.39,11,11,0,0,0,4.34.87,10.11,10.11,0,0,0,3.33-.54,12.37,12.37,0,0,0,2.91-1.45,5.82,5.82,0,0,1,3.32-1,5.9,5.9,0,0,1,2.46.46,6.2,6.2,0,0,1,1.88,1.31l2.35,2.35a30.3,30.3,0,0,1-3.64,3.29,24.63,24.63,0,0,1-4,2.49,21.22,21.22,0,0,1-4.24,1.57,17.72,17.72,0,0,1-4.39.55,20.42,20.42,0,0,1-10.25-2.75,19.74,19.74,0,0,1-4.12-3.15,20.12,20.12,0,0,1-5.24-8.89,20.15,20.15,0,0,1,0-10.75,20.27,20.27,0,0,1,9.36-12.05,20.88,20.88,0,0,1,4.86-2,20.08,20.08,0,0,1,5.39-.72,18.21,18.21,0,0,1,4.39.55,21.26,21.26,0,0,1,4.24,1.58,24,24,0,0,1,4,2.49,30.21,30.21,0,0,1,3.64,3.28l-2.35,2.35a6.66,6.66,0,0,1-1.91,1.32,5.92,5.92,0,0,1-2.43.48,5.76,5.76,0,0,1-3.32-1,11.9,11.9,0,0,0-2.94-1.47,10.27,10.27,0,0,0-3.3-.52,10.79,10.79,0,0,0-4.34.88,11.93,11.93,0,0,0-3.59,2.39,11.47,11.47,0,0,0-2.46,3.54A10.37,10.37,0,0,0,275.51,151.14Z"/><path d="M318.7,151.14a19.5,19.5,0,0,1,.73-5.37,20.33,20.33,0,0,1,5.23-8.9,20.39,20.39,0,0,1,9-5.18,20.54,20.54,0,0,1,10.78,0,20.88,20.88,0,0,1,4.86,2,20.25,20.25,0,0,1,9.36,12.05,20.15,20.15,0,0,1,0,10.75,20.12,20.12,0,0,1-5.24,8.89,19.74,19.74,0,0,1-4.12,3.15,20.34,20.34,0,0,1-29.85-12A19.63,19.63,0,0,1,318.7,151.14Zm9,0a10.44,10.44,0,0,0,.91,4.33A11.76,11.76,0,0,0,331.1,159a11.57,11.57,0,0,0,3.59,2.39,11.24,11.24,0,0,0,8.67,0A11.49,11.49,0,0,0,347,159a11.76,11.76,0,0,0,2.46-3.55,10.73,10.73,0,0,0,0-8.65,11.47,11.47,0,0,0-2.46-3.54,11.85,11.85,0,0,0-3.6-2.39,11.12,11.12,0,0,0-8.67,0,11.93,11.93,0,0,0-3.59,2.39,11.47,11.47,0,0,0-2.46,3.54A10.37,10.37,0,0,0,327.73,151.14Z"/><path d="M168.6,106.09l.17.18.38-.51A2.61,2.61,0,0,1,170,105a2.52,2.52,0,0,1,1.24-.28h2.13l-2.63,3.55,3.78,3.73h-2.68a3.63,3.63,0,0,1-.79-.08,2.57,2.57,0,0,1-.61-.22,2,2,0,0,1-.47-.31,4.59,4.59,0,0,1-.41-.36l-.18-.17a4.37,4.37,0,0,1-.88.59,6,6,0,0,1-1,.39,7.37,7.37,0,0,1-1,.21,7.23,7.23,0,0,1-1,.07,5.08,5.08,0,0,1-1.89-.34,4.73,4.73,0,0,1-1.5-1,4.53,4.53,0,0,1-1-1.43,4.25,4.25,0,0,1-.36-1.75,3.36,3.36,0,0,1,.14-1,5.44,5.44,0,0,1,.36-.93,5.58,5.58,0,0,1,.45-.77,2.7,2.7,0,0,1,.42-.51.59.59,0,0,1,.24-.09,1.45,1.45,0,0,1,.32,0,2,2,0,0,1,.47.23,2.55,2.55,0,0,1-.47-.58,3,3,0,0,1-.29-.63,3.3,3.3,0,0,1-.13-.59,2.88,2.88,0,0,1,0-.47,4.05,4.05,0,0,1,.33-1.65,4.21,4.21,0,0,1,.88-1.29,4.06,4.06,0,0,1,2.81-1.14,5.81,5.81,0,0,1,1.2.12,3.84,3.84,0,0,1,1.11.42,4.81,4.81,0,0,1,1,.79,9.93,9.93,0,0,1,1,1.25l-1.1.59a1.52,1.52,0,0,1-.57.17l-.5,0a2.43,2.43,0,0,1-.7-.09c-.19-.07-.37-.14-.54-.22l-.49-.21a1.57,1.57,0,0,0-.54-.1,1.07,1.07,0,0,0-.37.08,1,1,0,0,0-.37.22,1.05,1.05,0,0,0-.29.39,1.31,1.31,0,0,0-.12.58,1,1,0,0,0,0,.33,1,1,0,0,0,.19.29,5,5,0,0,0,.39.37l.65.58,1,.89C167.61,105.12,168.07,105.56,168.6,106.09Zm-2,2L164.56,106a2.8,2.8,0,0,0-.38.32,3.21,3.21,0,0,0-.34.41,1.88,1.88,0,0,0-.25.46,1.27,1.27,0,0,0-.09.47,1.5,1.5,0,0,0,.68,1.33,2,2,0,0,0,.69.31,3.21,3.21,0,0,0,.81.1,3.42,3.42,0,0,0,.9-.12,2.85,2.85,0,0,0,.86-.42Z"/><path d="M194.38,112h-3.1V98.41h5.47a4.32,4.32,0,0,1,1.79.38,4.63,4.63,0,0,1,1.46,1,4.93,4.93,0,0,1,1,1.5,4.68,4.68,0,0,1,0,3.6,4.93,4.93,0,0,1-1,1.5,4.63,4.63,0,0,1-1.46,1,4.32,4.32,0,0,1-1.79.38h-2.37Zm2.38-7.25a1.18,1.18,0,0,0,.55-.14,1.71,1.71,0,0,0,.47-.37,1.65,1.65,0,0,0,.33-.52,1.46,1.46,0,0,0,0-1.16,1.65,1.65,0,0,0-.33-.52,1.71,1.71,0,0,0-.47-.37,1.18,1.18,0,0,0-.55-.14h-2.38v3.22Z"/><path d="M212.41,112V98.41h3.1v10.68h5.36V112Z"/><path d="M235.53,98.41h2.67L244.13,112h-2a2.35,2.35,0,0,1-.6-.08,1.7,1.7,0,0,1-.53-.24,2,2,0,0,1-.45-.37,1.91,1.91,0,0,1-.32-.51l-.67-1.51h-5.4l-.64,1.51a1.63,1.63,0,0,1-.32.47,2.88,2.88,0,0,1-.46.39,2.11,2.11,0,0,1-.55.25,2,2,0,0,1-.59.09h-2Zm-.13,8.06h2.9l-1.18-2.85a2.05,2.05,0,0,1-.13-.37,2.26,2.26,0,0,1-.08-.3c0-.1,0-.2,0-.29,0,.09,0,.19-.05.3s-.05.19-.08.3-.08.24-.13.36Z"/><path d="M266.66,112h-3.08l-6.49-9.39V112H254V98.41h3.05a2.3,2.3,0,0,1,.81.13,1.18,1.18,0,0,1,.54.41l4.74,7a2.59,2.59,0,0,1,.19.33l.13.33a2.55,2.55,0,0,1,.08.28.7.7,0,0,1,0,.14V98.41h3.09Z"/><path d="M277.3,101.3V98.4H288v2.9h-3.77V112h-3.1V101.3Z"/><path d="M301.08,98.41h2.68L309.69,112h-2a2.35,2.35,0,0,1-.6-.08,1.86,1.86,0,0,1-.54-.24,2.22,2.22,0,0,1-.44-.37,1.69,1.69,0,0,1-.32-.51l-.67-1.51h-5.4l-.65,1.51a1.6,1.6,0,0,1-.31.47,2.88,2.88,0,0,1-.46.39,2.27,2.27,0,0,1-.55.25,2,2,0,0,1-.59.09h-2Zm-.12,8.06h2.9l-1.18-2.85a3.44,3.44,0,0,1-.14-.37c0-.11-.05-.21-.07-.3a1.6,1.6,0,0,1-.05-.29,2,2,0,0,1-.06.3,2.26,2.26,0,0,1-.08.3,1.74,1.74,0,0,1-.13.36Z"/><path d="M323.6,101.39a2.59,2.59,0,0,0-.48,0,1.32,1.32,0,0,0-.41.14,1,1,0,0,0-.29.23.58.58,0,0,0-.11.34.66.66,0,0,0,.16.48,1.31,1.31,0,0,0,.46.3,6.78,6.78,0,0,0,.76.25c.31.09.67.2,1.08.34a7.49,7.49,0,0,1,1.43.65,4.13,4.13,0,0,1,1.11.9,3.76,3.76,0,0,1,.72,1.16,4.11,4.11,0,0,1-.16,3.25,4.59,4.59,0,0,1-1.11,1.4,5.23,5.23,0,0,1-1.61.92,5.52,5.52,0,0,1-1.89.32,5,5,0,0,1-3-.93,4.77,4.77,0,0,1-1.1-1.05,4.71,4.71,0,0,1-.74-1.33l1-.57a2.28,2.28,0,0,1,.51-.21,1.68,1.68,0,0,1,.54-.08,1.5,1.5,0,0,1,.74.17,5.89,5.89,0,0,1,.64.37c.21.13.42.25.64.36a1.58,1.58,0,0,0,.76.18,2.38,2.38,0,0,0,.62-.09,2.22,2.22,0,0,0,.63-.27,1.62,1.62,0,0,0,.48-.42,1,1,0,0,0,.19-.58.72.72,0,0,0-.18-.51,1.6,1.6,0,0,0-.47-.35,4.52,4.52,0,0,0-.69-.27c-.26-.08-.53-.18-.81-.29-.47-.18-.93-.37-1.39-.58a5.61,5.61,0,0,1-1.22-.77,3.74,3.74,0,0,1-.88-1.12,3.63,3.63,0,0,1-.33-1.64,3.46,3.46,0,0,1,.37-1.63,3.76,3.76,0,0,1,1-1.21,4.34,4.34,0,0,1,1.41-.75,5,5,0,0,1,1.62-.26,3.61,3.61,0,0,1,1.18.2,5.24,5.24,0,0,1,1.09.53,6.89,6.89,0,0,1,1,.75,9.07,9.07,0,0,1,.8.85l-1,.8a1.51,1.51,0,0,1-.59.35,2.08,2.08,0,0,1-.69.11,1.74,1.74,0,0,1-.53-.08,4.09,4.09,0,0,1-.42-.16l-.4-.17A1.23,1.23,0,0,0,323.6,101.39Z"/><path d="M39.65,103.92v2.9h-5V112h-3.1V98.41h9v2.9H34.67v2.61Z"/><path d="M51.51,112V98.41H54.6v10.68H60V112Z"/><path d="M68.56,105.19a7,7,0,0,1,1-3.49A7,7,0,0,1,72,99.22a7.46,7.46,0,0,1,1.67-.7,7.25,7.25,0,0,1,3.7,0,7.46,7.46,0,0,1,1.67.7,7.33,7.33,0,0,1,1.41,1.08,7.41,7.41,0,0,1,1.09,1.4,6.9,6.9,0,0,1,0,7,7.41,7.41,0,0,1-1.09,1.4,7.33,7.33,0,0,1-1.41,1.08,7.46,7.46,0,0,1-1.67.7,7.11,7.11,0,0,1-1.85.24,7,7,0,0,1-1.85-.24,7.46,7.46,0,0,1-1.67-.7,7,7,0,0,1-2.5-2.48,7,7,0,0,1-1-3.5Zm3.1,0a3.59,3.59,0,0,0,.32,1.49,4,4,0,0,0,.84,1.22,4,4,0,0,0,1.23.82,4,4,0,0,0,1.49.29,3.9,3.9,0,0,0,1.48-.29,4.06,4.06,0,0,0,1.24-.82,4.15,4.15,0,0,0,.84-1.22,3.61,3.61,0,0,0,0-3,4,4,0,0,0-.84-1.21,3.89,3.89,0,0,0-1.24-.82,3.73,3.73,0,0,0-1.48-.3,3.78,3.78,0,0,0-1.49.3,3.95,3.95,0,0,0-2.07,2A3.58,3.58,0,0,0,71.66,105.19Z"/><path d="M96.85,112h-3.1V98.41h5.32a4.92,4.92,0,0,1,1.42.2,5.05,5.05,0,0,1,1.18.53,4.17,4.17,0,0,1,.92.8,4.92,4.92,0,0,1,.68,1,5.13,5.13,0,0,1,.4,1.09,4.22,4.22,0,0,1,.14,1.11,5,5,0,0,1-.12,1.08,4.62,4.62,0,0,1-.37,1,4.68,4.68,0,0,1-.66,1,5.65,5.65,0,0,1-1,.88l3.62,4.89h-2.64l-.29,0a1.91,1.91,0,0,1-.46-.13,2.55,2.55,0,0,1-.54-.31,2.34,2.34,0,0,1-.54-.58l-2.28-3.08H96.85Zm2.38-7.25a1.18,1.18,0,0,0,.55-.14,1.71,1.71,0,0,0,.47-.37,1.77,1.77,0,0,0,.33-.52,1.46,1.46,0,0,0,0-1.16,1.65,1.65,0,0,0-.33-.52,1.54,1.54,0,0,0-.47-.37,1.07,1.07,0,0,0-.55-.14H96.85v3.22Z"/><path d="M124.52,112h-9V98.41h9v2.9h-5.94v2.38h4.83v2.9h-4.83v2.5h5.94Z"/><path d="M139.76,101.38a2.61,2.61,0,0,0-.48.05,1.64,1.64,0,0,0-.41.13,1,1,0,0,0-.29.24.58.58,0,0,0-.11.34.73.73,0,0,0,.15.48,1.41,1.41,0,0,0,.46.3,7,7,0,0,0,.77.25l1.08.34a6.92,6.92,0,0,1,1.43.65,4.47,4.47,0,0,1,1.11.9,3.76,3.76,0,0,1,.72,1.16,4.15,4.15,0,0,1-.17,3.24,4.24,4.24,0,0,1-1.11,1.41,5.2,5.2,0,0,1-1.61.92,5.67,5.67,0,0,1-1.88.32,5.19,5.19,0,0,1-1.59-.24,5.57,5.57,0,0,1-1.38-.69,5,5,0,0,1-1.11-1.05,5.26,5.26,0,0,1-.74-1.33l1-.57a2.91,2.91,0,0,1,.51-.22,2,2,0,0,1,.54-.08,1.64,1.64,0,0,1,.74.17l.64.37a5.07,5.07,0,0,0,.64.37,1.55,1.55,0,0,0,.76.17,2.38,2.38,0,0,0,.62-.09,2.26,2.26,0,0,0,.62-.26,1.4,1.4,0,0,0,.48-.42.92.92,0,0,0,.19-.58.77.77,0,0,0-.17-.51,1.49,1.49,0,0,0-.48-.35,4.38,4.38,0,0,0-.68-.27c-.26-.08-.53-.18-.82-.29-.47-.18-.93-.37-1.38-.58a5.38,5.38,0,0,1-1.22-.77,3.59,3.59,0,0,1-.88-1.12,3.52,3.52,0,0,1-.34-1.64,3.47,3.47,0,0,1,.38-1.63,3.76,3.76,0,0,1,1-1.21,4.34,4.34,0,0,1,1.41-.75,4.91,4.91,0,0,1,1.62-.26,3.4,3.4,0,0,1,1.18.2A5.77,5.77,0,0,1,142,99a6.9,6.9,0,0,1,.95.74,9.21,9.21,0,0,1,.81.86l-1,.8a1.74,1.74,0,0,1-.59.35,2.17,2.17,0,0,1-.69.11,1.69,1.69,0,0,1-.53-.08l-.43-.16-.39-.17A1.27,1.27,0,0,0,139.76,101.38Z"/><path d="M65.5,192.36v-.81h6.89v.81h-3v8.42h-.81v-8.42Z"/><path d="M79.77,200.78H79v-9.22h3.23a2.43,2.43,0,0,1,1,.2,2.46,2.46,0,0,1,.82.55,2.72,2.72,0,0,1,.56.82,2.69,2.69,0,0,1,0,1.93,3.1,3.1,0,0,1-.44.8,2.42,2.42,0,0,1-.69.58,2.28,2.28,0,0,1-.87.28l3.06,4.06H85.3a1.07,1.07,0,0,1-1-.49l-2.69-3.57H79.77Zm0-8.42v3.55h2.42a1.73,1.73,0,0,0,.69-.13,1.9,1.9,0,0,0,.57-.38,1.73,1.73,0,0,0,.38-.57,1.65,1.65,0,0,0,.15-.69,1.58,1.58,0,0,0-.15-.69,1.68,1.68,0,0,0-.38-.56,1.76,1.76,0,0,0-1.26-.53Z"/><path d="M94.78,191.56h.68c.34.78.68,1.55,1,2.32s.68,1.53,1,2.3.67,1.52,1,2.29.67,1.54,1,2.31h-.36a.8.8,0,0,1-.43-.12.77.77,0,0,1-.28-.34l-.76-1.72H92.57l-.74,1.72a.77.77,0,0,1-.72.46h-.36Zm-1.85,6.23h4.38l-2.07-4.73-.06-.17a1.22,1.22,0,0,1,0-.17.69.69,0,0,1,0-.2l0,.2a1.36,1.36,0,0,1,0,.17.84.84,0,0,1,0,.17Z"/><path d="M105.54,200.78v-9.22h3.39a4.61,4.61,0,0,1,1.23.16,4.66,4.66,0,0,1,2,1.19,4.43,4.43,0,0,1,.72.94,4.15,4.15,0,0,1,.47,1.1,4.5,4.5,0,0,1,0,2.45,4.29,4.29,0,0,1-.47,1.1,4.63,4.63,0,0,1-.72.93,4.29,4.29,0,0,1-.93.72,4.68,4.68,0,0,1-1.1.47,4.61,4.61,0,0,1-1.23.16Zm3.39-.8a3.66,3.66,0,0,0,1.48-.3,3.75,3.75,0,0,0,1.21-.82,3.78,3.78,0,0,0,1.12-2.69,3.84,3.84,0,0,0-2.33-3.51,3.66,3.66,0,0,0-1.48-.3h-2.59V200Z"/><path d="M121.43,200.78h-.8v-9.22h.8Z"/><path d="M129.3,196.17a3.63,3.63,0,0,0,.15,1,3.82,3.82,0,0,0,.39.93,3.62,3.62,0,0,0,.61.79,4.32,4.32,0,0,0,.79.62,3.89,3.89,0,0,0,.94.39,4,4,0,0,0,2.23,0,4.78,4.78,0,0,0,1-.51.66.66,0,0,1,.19-.09.83.83,0,0,1,.22,0,.79.79,0,0,1,.32.06.88.88,0,0,1,.25.18l.06.06a4.81,4.81,0,0,1-1.48,1,4.6,4.6,0,0,1-1.79.34,4.66,4.66,0,0,1-3.33-1.38,4.71,4.71,0,0,1-1.38-3.33,4.7,4.7,0,0,1,4.71-4.72,4.45,4.45,0,0,1,1.8.35,4.7,4.7,0,0,1,1.47,1l-.06.06a.76.76,0,0,1-.26.18.78.78,0,0,1-.31.07.74.74,0,0,1-.41-.13,4,4,0,0,0-1-.51,3.58,3.58,0,0,0-1.19-.19,4,4,0,0,0-1,.14,3.55,3.55,0,0,0-.94.4,3.88,3.88,0,0,0-.79.61,3.62,3.62,0,0,0-.61.79,3.73,3.73,0,0,0-.39.94A3.58,3.58,0,0,0,129.3,196.17Z"/><path d="M144.34,200.78h-.8v-9.22h.8Z"/><path d="M151.43,196.17a4.52,4.52,0,0,1,.37-1.84,4.75,4.75,0,0,1,1-1.5,4.52,4.52,0,0,1,1.49-1,4.76,4.76,0,0,1,3.68,0,4.67,4.67,0,0,1,1.5,1,4.72,4.72,0,0,1,1,1.5,4.74,4.74,0,0,1,0,3.67,4.61,4.61,0,0,1-1,1.5,4.67,4.67,0,0,1-1.5,1,4.69,4.69,0,0,1-5.17-1,4.64,4.64,0,0,1-1-1.5A4.5,4.5,0,0,1,151.43,196.17Zm.81,0a3.63,3.63,0,0,0,.14,1,3.82,3.82,0,0,0,.39.93,3.67,3.67,0,0,0,.62.79,4,4,0,0,0,.79.62,3.82,3.82,0,0,0,.93.39,3.93,3.93,0,0,0,2.08,0,3.89,3.89,0,0,0,.94-.39,4.32,4.32,0,0,0,.79-.62,4,4,0,0,0,.61-.79,4.28,4.28,0,0,0,.4-.93,4,4,0,0,0,.13-1,3.79,3.79,0,0,0-1.15-2.77,4,4,0,0,0-1.24-.84,3.69,3.69,0,0,0-1.52-.31,4,4,0,0,0-1,.14,3.49,3.49,0,0,0-.93.4,3.62,3.62,0,0,0-.79.61,3.67,3.67,0,0,0-.62.79,3.73,3.73,0,0,0-.39.94A3.58,3.58,0,0,0,152.24,196.17Zm4.69-5.58a.81.81,0,0,1-.23.17.65.65,0,0,1-.35.08h-.28c.1-.2.21-.38.3-.53a4.36,4.36,0,0,1,.26-.39l.17-.25s.07-.09.08-.09a.61.61,0,0,1,.24-.19,1,1,0,0,1,.39-.08H158Z"/><path d="M175.05,200.78h-.8l-5.57-8a.19.19,0,0,1-.05-.09.42.42,0,0,1,0-.1.56.56,0,0,1,0-.12v8.28h-.8v-9.22h.56a1.09,1.09,0,0,1,.4.06.53.53,0,0,1,.26.21l5.1,7.3a.61.61,0,0,1,.07.14.53.53,0,0,1,.06.14c0,.05,0,.1.05.15v-8h.8Z"/><path d="M189,200.78v-9.22h3.4a4.49,4.49,0,0,1,1.22.16,4.78,4.78,0,0,1,2,1.19,4.43,4.43,0,0,1,.72.94,4.66,4.66,0,0,1,.47,3.55,4.66,4.66,0,0,1-1.19,2,4.35,4.35,0,0,1-.94.72,4.68,4.68,0,0,1-1.1.47,4.49,4.49,0,0,1-1.22.16Zm3.4-.8a3.69,3.69,0,0,0,1.48-.3,3.87,3.87,0,0,0,1.21-.82,3.78,3.78,0,0,0,1.12-2.69,3.78,3.78,0,0,0-1.12-2.69,3.87,3.87,0,0,0-1.21-.82,3.69,3.69,0,0,0-1.48-.3h-2.59V200Z"/><path d="M209.36,200.78h-5.5v-9.22h5.5v.8h-4.69v3.36h3.79v.81h-3.79V200h4.69Z"/><path d="M219.81,192.77l-.26-.2a1,1,0,0,0-.24-.15,1.1,1.1,0,0,0-.29-.1,1.66,1.66,0,0,0-.42,0,2.08,2.08,0,0,0-.71.12,2.28,2.28,0,0,0-.59.34,1.61,1.61,0,0,0-.4.5,1.27,1.27,0,0,0-.15.6,1.66,1.66,0,0,0,.09.59,1.12,1.12,0,0,0,.32.41,2.4,2.4,0,0,0,.58.32c.25.11.55.22.9.34l.53.2.46.18a3.13,3.13,0,0,1,.41.2,2.92,2.92,0,0,1,.37.24,1.87,1.87,0,0,1,.63.85,3.25,3.25,0,0,1,.18,1.1,2.42,2.42,0,0,1-.23,1.09,2.49,2.49,0,0,1-.65.82,2.73,2.73,0,0,1-1,.52,3.6,3.6,0,0,1-1.15.18,3,3,0,0,1-2-.72,2.8,2.8,0,0,1-.38-.4,4.38,4.38,0,0,1-.26-.37l.1-.06a.85.85,0,0,1,.4-.13.94.94,0,0,1,.3.05.47.47,0,0,1,.25.15,3.12,3.12,0,0,0,.48.37,1.71,1.71,0,0,0,.41.2,1.63,1.63,0,0,0,.36.07l.37,0A2.57,2.57,0,0,0,219,200a1.87,1.87,0,0,0,.7-.32,1.71,1.71,0,0,0,.51-.56,1.63,1.63,0,0,0,.2-.82,1.9,1.9,0,0,0-.16-.85,1.31,1.31,0,0,0-.42-.51,2.5,2.5,0,0,0-.65-.34l-.81-.29-1-.41a3.31,3.31,0,0,1-.77-.44,1.82,1.82,0,0,1-.5-.63,2.23,2.23,0,0,1-.17-1,2,2,0,0,1,.23-1,2.65,2.65,0,0,1,.62-.75,2.83,2.83,0,0,1,1.8-.66,2.5,2.5,0,0,1,.74.11,2.74,2.74,0,0,1,.6.27,3.08,3.08,0,0,1,.5.37c.14.14.28.27.4.41l-.19.14-.18.09a.86.86,0,0,1-.24,0A.82.82,0,0,1,219.81,192.77Z"/><path d="M227.88,200.78v-9.22h3.39a4.51,4.51,0,0,1,1.23.16,4.66,4.66,0,0,1,2,1.19,4.16,4.16,0,0,1,.73.94,4.66,4.66,0,0,1,.47,3.55,4.68,4.68,0,0,1-.47,1.1,4.34,4.34,0,0,1-.73.93,4.29,4.29,0,0,1-.93.72,4.68,4.68,0,0,1-1.1.47,4.51,4.51,0,0,1-1.23.16Zm3.39-.8a3.71,3.71,0,0,0,1.49-.3,3.87,3.87,0,0,0,1.21-.82,3.81,3.81,0,0,0,.82-1.21,3.65,3.65,0,0,0,.29-1.48,3.72,3.72,0,0,0-.29-1.48,3.92,3.92,0,0,0-.82-1.21,3.87,3.87,0,0,0-1.21-.82,3.71,3.71,0,0,0-1.49-.3h-2.58V200Z"/><path d="M248.24,200.78h-5.5v-9.22h5.5v.8h-4.7v3.36h3.8v.81h-3.8V200h4.7Z"/><path d="M260.91,200.66h-.68v-7.42l-2.24.83v-.64l2.8-1h.12Z"/><path d="M273,196.84a2.73,2.73,0,0,1-.9.83A2.47,2.47,0,0,1,271,198a2.18,2.18,0,0,1-1.24-.36,2.41,2.41,0,0,1-.83-1,3.44,3.44,0,0,1-.29-1.4,3.38,3.38,0,0,1,.31-1.48,2.44,2.44,0,0,1,.88-1,2.28,2.28,0,0,1,1.3-.37,2.31,2.31,0,0,1,1.92.87,3.85,3.85,0,0,1,.69,2.46v.61a5,5,0,0,1-.95,3.35,3.58,3.58,0,0,1-2.9,1.12h-.12v-.59H270a3,3,0,0,0,2.25-.84A3.61,3.61,0,0,0,273,196.84Zm-2,.53a2,2,0,0,0,1.21-.4,2.19,2.19,0,0,0,.77-1.05v-.39a3.15,3.15,0,0,0-.52-1.94,1.68,1.68,0,0,0-1.41-.69,1.6,1.6,0,0,0-1.32.64,2.57,2.57,0,0,0-.52,1.63,2.46,2.46,0,0,0,.5,1.57A1.56,1.56,0,0,0,271.06,197.37Z"/><path d="M281.37,196.17h.7a2.32,2.32,0,0,0,1-.21,1.46,1.46,0,0,0,.66-.56,1.54,1.54,0,0,0,.23-.83,1.67,1.67,0,0,0-.45-1.24,1.71,1.71,0,0,0-1.28-.45,1.85,1.85,0,0,0-1.3.47,1.61,1.61,0,0,0-.5,1.23h-.68a2.19,2.19,0,0,1,.32-1.17,2.12,2.12,0,0,1,.89-.81,2.7,2.7,0,0,1,1.27-.29,2.42,2.42,0,0,1,1.76.61,2.19,2.19,0,0,1,.65,1.67,1.75,1.75,0,0,1-.38,1.1,2.29,2.29,0,0,1-1,.75,2.11,2.11,0,0,1,1.17.74,2,2,0,0,1,.39,1.24,2.21,2.21,0,0,1-.69,1.7,2.58,2.58,0,0,1-1.84.65,3.17,3.17,0,0,1-1.35-.29,2.21,2.21,0,0,1-.95-.83,2.27,2.27,0,0,1-.34-1.23h.68a1.66,1.66,0,0,0,.55,1.28,2,2,0,0,0,1.41.5,1.92,1.92,0,0,0,1.36-.45,1.67,1.67,0,0,0,.49-1.3,1.55,1.55,0,0,0-.52-1.27,2.44,2.44,0,0,0-1.56-.43h-.68Z"/><path d="M295.14,196.84a2.55,2.55,0,0,1-.9.83,2.43,2.43,0,0,1-1.16.29,2.18,2.18,0,0,1-1.24-.36,2.34,2.34,0,0,1-.83-1,3.29,3.29,0,0,1-.3-1.4,3.38,3.38,0,0,1,.32-1.48,2.49,2.49,0,0,1,.87-1,2.53,2.53,0,0,1,3.23.5,3.85,3.85,0,0,1,.69,2.46v.61a5.09,5.09,0,0,1-.95,3.35,3.58,3.58,0,0,1-2.9,1.12h-.12v-.59h.24a3,3,0,0,0,2.24-.84A3.51,3.51,0,0,0,295.14,196.84Zm-2,.53a2,2,0,0,0,1.22-.4,2.19,2.19,0,0,0,.77-1.05v-.39a3.15,3.15,0,0,0-.53-1.94,1.66,1.66,0,0,0-1.41-.69,1.6,1.6,0,0,0-1.31.64,2.51,2.51,0,0,0-.52,1.63,2.46,2.46,0,0,0,.5,1.57A1.55,1.55,0,0,0,293.16,197.37Z"/><path class="cls-1" d="M141.59,0V36.91H178.5S177.4,0,141.59,0Z"/><path class="cls-1" d="M141.59,40.49H178V76S141.59,77.12,141.59,40.49Z"/><path class="cls-1" d="M181.46,76.3V33.6S186.42.28,218.1.28V42.69C218.1,49.3,210.39,76.3,181.46,76.3Z"/></g></g></svg>