<svg xmlns="http://www.w3.org/2000/svg" viewBox="0 0 451.6 197.16"><defs><style>.cls-1{fill:#c90022;}.cls-2{fill:#4a090a;}.cls-3{fill:#dcb3d2;}.cls-4{fill:#d1acbf;}.cls-5{fill:#e7d6e0;}</style></defs><g id="Capa_2" data-name="Capa 2"><g id="Capa_1-2" data-name="Capa 1"><path class="cls-1" d="M130.2,62.2a69.52,69.52,0,0,1,1.62-16.07,27.62,27.62,0,0,1,5.12-11.08,21.33,21.33,0,0,1,9.33-6.55,40.91,40.91,0,0,1,14.38-2.2A40.93,40.93,0,0,1,175,28.5a21.85,21.85,0,0,1,9.4,6.55,27.28,27.28,0,0,1,5.18,11.08,69.52,69.52,0,0,1,1.62,16.07,65.74,65.74,0,0,1-1.75,16.26,28.52,28.52,0,0,1-5.38,11.21,21.68,21.68,0,0,1-9.39,6.55,40.84,40.84,0,0,1-14.07,2.14,40.35,40.35,0,0,1-13.93-2.14,21.62,21.62,0,0,1-9.39-6.55A28.38,28.38,0,0,1,132,78.46,65.74,65.74,0,0,1,130.2,62.2Zm11.14,0q0,10.24,2,16.33t6.29,8.75q4.28,2.66,11,2.65t11.15-2.65q4.27-2.66,6.28-8.75t2-16.33q0-10.11-1.88-16.14t-6.09-8.68q-4.22-2.66-11.47-2.66t-11.4,2.66Q145,40,143.16,46.06T141.34,62.2Z"/><path class="cls-1" d="M198.37,94.21l1.68-8.16a33.57,33.57,0,0,0,4.8,1.62c1.81.47,3.74.88,5.77,1.23a59.64,59.64,0,0,0,6.15.71c2.08.13,4.06.19,6,.19q8,0,12.25-2.65a9.67,9.67,0,0,0,3-12.7A11,11,0,0,0,234.4,71a28.18,28.18,0,0,0-5.83-2.72c-2.34-.82-5.1-1.67-8.3-2.53a43.5,43.5,0,0,1-8.1-2.72,24.86,24.86,0,0,1-6.35-4.09,15.8,15.8,0,0,1-4-5.57A18.56,18.56,0,0,1,200.44,46q0-9.33,6.55-14.52t19.37-5.18a66.79,66.79,0,0,1,7.39.39,53.24,53.24,0,0,1,12.31,2.85l-1.55,8.29c-1.73-.51-3.5-1-5.32-1.42a53.56,53.56,0,0,0-6-1,58.69,58.69,0,0,0-7-.39q-7.51,0-11.47,2.72a8.54,8.54,0,0,0-3.95,7.39,8.09,8.09,0,0,0,1.3,4.73A10.28,10.28,0,0,0,215.8,53a38.76,38.76,0,0,0,5.57,2.4q3.18,1.1,6.94,2.13,5.06,1.44,8.94,3A25.78,25.78,0,0,1,244,64.4a15.27,15.27,0,0,1,4.34,5.7,20.21,20.21,0,0,1,1.49,8.17,21.2,21.2,0,0,1-1.23,7.45,14.4,14.4,0,0,1-3.76,5.64A23.1,23.1,0,0,1,239,95.25a31.14,31.14,0,0,1-7.45,2.33,48.5,48.5,0,0,1-9,.78,74.83,74.83,0,0,1-8.74-.52c-2.9-.35-5.66-.8-8.3-1.36A36.75,36.75,0,0,1,198.37,94.21Z"/><path class="cls-1" d="M257.59,80.34A18.55,18.55,0,0,1,260.25,70a17.72,17.72,0,0,1,7.91-6.42,56.69,56.69,0,0,1,13-3.69q7.79-1.36,18-2.27V47.94q0-6-3.89-9.13t-11.67-3.18q-2.59,0-5.89.26a62.47,62.47,0,0,0-6.74.91q-3.43.64-7.2,1.68l-1.94-8.68a83.53,83.53,0,0,1,11.41-2.59,70.28,70.28,0,0,1,10.88-.91,37.77,37.77,0,0,1,14.45,2.4,17.79,17.79,0,0,1,8.69,7.19,22.62,22.62,0,0,1,2.91,11.92V81.38c0,2.94.41,4.92,1.23,6a4,4,0,0,0,3.31,1.56,8,8,0,0,0,1.68-.2,9.84,9.84,0,0,0,1.82-.58l1.29,8a18.47,18.47,0,0,1-4.08,1.62,16.92,16.92,0,0,1-4.47.59,10.62,10.62,0,0,1-7.39-2.46,12.23,12.23,0,0,1-3.5-7.39,54.48,54.48,0,0,1-6.87,4.86A36.14,36.14,0,0,1,284.94,97a34.44,34.44,0,0,1-9.85,1.36,20.65,20.65,0,0,1-7.19-1.17,14.91,14.91,0,0,1-5.51-3.5,15.34,15.34,0,0,1-3.56-5.64A21.8,21.8,0,0,1,257.59,80.34Zm11-.9q0,5.57,2.72,8.36a10.06,10.06,0,0,0,7.52,2.78,24.7,24.7,0,0,0,7.26-1.1,32.81,32.81,0,0,0,7.06-3.11,27.49,27.49,0,0,0,6-4.73V64.14c-4.5.44-8.65,1-12.45,1.56A46.19,46.19,0,0,0,277,68.23a14.39,14.39,0,0,0-6.22,4.34A10.74,10.74,0,0,0,268.61,79.44Z"/><path class="cls-1" d="M381.23,98.1a18.76,18.76,0,0,1-3.82-.39,12.39,12.39,0,0,1-4.21-1.94A57.18,57.18,0,0,1,367.3,91q-3.57-3.18-8.62-8.49L338.46,62.07v35H328.09V1.16h10.37V47.68l22.68,23.2q6.62,6.62,10.57,10.05a33.76,33.76,0,0,0,6.41,4.66,10.06,10.06,0,0,0,4.41,1.23,6.38,6.38,0,0,0,.84-.06,8,8,0,0,0,1-.2l.26,11.15a5.17,5.17,0,0,1-1.55.32C382.44,98.08,381.83,98.1,381.23,98.1ZM351.29,65.7l-8.55-4.8c2.76-2.41,5.55-4.88,8.36-7.38a90,90,0,0,0,7.84-7.91,70.08,70.08,0,0,0,6.61-8.88,45.56,45.56,0,0,0,4.79-10.3l10.76,1a45.26,45.26,0,0,1-5.25,11.47,84.92,84.92,0,0,1-7.64,10.17A121.48,121.48,0,0,1,359.59,58Q355.18,62.07,351.29,65.7Z"/><path class="cls-1" d="M389.27,80.34A18.54,18.54,0,0,1,391.92,70a17.72,17.72,0,0,1,7.91-6.42,56.69,56.69,0,0,1,13-3.69q7.78-1.36,18-2.27V47.94q0-6-3.89-9.13t-11.66-3.18q-2.6,0-5.9.26a62.47,62.47,0,0,0-6.74.91q-3.44.64-7.19,1.68l-1.95-8.68A83.87,83.87,0,0,1,405,27.21a70.38,70.38,0,0,1,10.88-.91,37.77,37.77,0,0,1,14.45,2.4A17.79,17.79,0,0,1,439,35.89a22.62,22.62,0,0,1,2.91,11.92V81.38c0,2.94.41,4.92,1.23,6a4,4,0,0,0,3.31,1.56,8,8,0,0,0,1.68-.2,9.84,9.84,0,0,0,1.82-.58l1.29,8a18.47,18.47,0,0,1-4.08,1.62,16.81,16.81,0,0,1-4.47.59,10.62,10.62,0,0,1-7.39-2.46,12.23,12.23,0,0,1-3.5-7.39,55.09,55.09,0,0,1-6.86,4.86,36.41,36.41,0,0,1-8.3,3.63,34.39,34.39,0,0,1-9.85,1.36,20.65,20.65,0,0,1-7.19-1.17,15,15,0,0,1-5.51-3.5,15.47,15.47,0,0,1-3.56-5.64A21.81,21.81,0,0,1,389.27,80.34Zm11-.9q0,5.57,2.72,8.36a10.06,10.06,0,0,0,7.52,2.78,24.7,24.7,0,0,0,7.26-1.1,32.81,32.81,0,0,0,7.06-3.11,27.49,27.49,0,0,0,6-4.73V64.14c-4.5.44-8.64,1-12.44,1.56a46.13,46.13,0,0,0-9.79,2.53,14.45,14.45,0,0,0-6.22,4.34A10.74,10.74,0,0,0,400.28,79.44Z"/><path class="cls-2" d="M321,133.55a12.24,12.24,0,0,1-1.12,3.27,8.69,8.69,0,0,1-1.92,2.51,8.54,8.54,0,0,1-2.68,1.62,9.57,9.57,0,0,1-3.37.57,10.62,10.62,0,0,1-3.85-.7,8.36,8.36,0,0,1-3.1-2.1,10,10,0,0,1-2.05-3.44,14.16,14.16,0,0,1-.74-4.78,15.66,15.66,0,0,1,.68-4.81,10.21,10.21,0,0,1,1.95-3.62,8.57,8.57,0,0,1,3.1-2.27,10.1,10.1,0,0,1,4.08-.79,10.36,10.36,0,0,1,3.57.58,8.75,8.75,0,0,1,2.76,1.62,7.82,7.82,0,0,1,1.84,2.43,8.72,8.72,0,0,1,.85,3h-4.42a4.91,4.91,0,0,0-1.71-2.81,4.92,4.92,0,0,0-6.92,1,12.12,12.12,0,0,0,0,10.92,4.31,4.31,0,0,0,3.86,1.95,4.58,4.58,0,0,0,3.16-1.06,5.58,5.58,0,0,0,1.63-3.06Z"/><path class="cls-2" d="M329.62,141.2a9,9,0,0,1-3.39-.6,7.25,7.25,0,0,1-2.53-1.69,7.11,7.11,0,0,1-1.57-2.6,9.94,9.94,0,0,1-.54-3.33,9.57,9.57,0,0,1,.56-3.37,7.06,7.06,0,0,1,4.12-4.27,9.05,9.05,0,0,1,3.35-.59,8.78,8.78,0,0,1,3.3.59,7.09,7.09,0,0,1,2.5,1.65,7.28,7.28,0,0,1,1.58,2.59,9.86,9.86,0,0,1,.56,3.4,9.74,9.74,0,0,1-.56,3.38,7.55,7.55,0,0,1-1.58,2.59,7.15,7.15,0,0,1-2.51,1.66A8.88,8.88,0,0,1,329.62,141.2Zm0-3.46q3.78,0,3.78-4.76c0-3.16-1.26-4.73-3.78-4.73s-3.78,1.57-3.78,4.73S327.1,137.74,329.62,137.74Z"/><path class="cls-2" d="M349.05,140.79v-9.46a3.65,3.65,0,0,0-.6-2.45,2.77,2.77,0,0,0-2.06-.63q-3.21,0-3.21,3.58v9h-4.13V125.17H343v2.28a5,5,0,0,1,1.94-2,6.2,6.2,0,0,1,3.11-.69,6,6,0,0,1,2.06.34,4.29,4.29,0,0,1,1.64,1,4.77,4.77,0,0,1,1.07,1.63,5.78,5.78,0,0,1,.4,2.24v10.83Z"/><path class="cls-2" d="M363.88,130.5h3.84v4.44a7.73,7.73,0,0,1-.36,2.37,5.62,5.62,0,0,1-1.15,2,5.46,5.46,0,0,1-2,1.38,7.17,7.17,0,0,1-2.84.51,7.52,7.52,0,0,1-2.92-.51,5.58,5.58,0,0,1-2-1.36,5.22,5.22,0,0,1-1.13-2,8.38,8.38,0,0,1-.35-2.42v-14h4.07v4.23h8.63v2.92h-8.63v6.41a4,4,0,0,0,.55,2.3,2.06,2.06,0,0,0,1.83.81,2.11,2.11,0,0,0,1.82-.79,3.75,3.75,0,0,0,.59-2.26Z"/><path class="cls-2" d="M369.5,123.29v-3.84h4.13v3.84Zm0,17.5V125.17h4.13v15.62Z"/><path class="cls-2" d="M385.5,140.79v-9.46a3.65,3.65,0,0,0-.6-2.45,2.8,2.8,0,0,0-2.07-.63q-3.19,0-3.2,3.58v9H375.5V125.17h3.94v2.28a4.93,4.93,0,0,1,1.93-2,6.23,6.23,0,0,1,3.11-.69,6.07,6.07,0,0,1,2.07.34,4.25,4.25,0,0,1,1.63,1,4.65,4.65,0,0,1,1.08,1.63,5.78,5.78,0,0,1,.4,2.24v10.83Z"/><path class="cls-2" d="M395.25,134.06a4.41,4.41,0,0,0,1,2.82,3.13,3.13,0,0,0,2.46,1.05,3.41,3.41,0,0,0,1.79-.46,2.1,2.1,0,0,0,1-1.29h4.26a6.92,6.92,0,0,1-2.54,3.72,7.2,7.2,0,0,1-4.32,1.3q-7.81,0-7.81-8.51a9.84,9.84,0,0,1,.51-3.27,7.21,7.21,0,0,1,1.47-2.51,6.42,6.42,0,0,1,2.37-1.6,8.63,8.63,0,0,1,3.21-.56,6.61,6.61,0,0,1,5.47,2.32c1.24,1.55,1.86,3.87,1.86,7Zm6.51-2.61a4.6,4.6,0,0,0-.31-1.51,3.17,3.17,0,0,0-.71-1.08,3,3,0,0,0-1-.63,3.36,3.36,0,0,0-1.17-.21,2.89,2.89,0,0,0-2.14.91,3.84,3.84,0,0,0-1,2.52Z"/><path class="cls-2" d="M417.44,140.79v-9.46a3.65,3.65,0,0,0-.6-2.45,2.8,2.8,0,0,0-2.07-.63c-2.14,0-3.2,1.19-3.2,3.58v9h-4.13V125.17h3.94v2.28a4.93,4.93,0,0,1,1.93-2,6.23,6.23,0,0,1,3.11-.69,6.07,6.07,0,0,1,2.07.34,4.25,4.25,0,0,1,1.63,1,4.65,4.65,0,0,1,1.08,1.63,5.78,5.78,0,0,1,.4,2.24v10.83Z"/><path class="cls-2" d="M432.27,130.5h3.84v4.44a7.44,7.44,0,0,1-.37,2.37,5.37,5.37,0,0,1-3.11,3.38,7.17,7.17,0,0,1-2.84.51,7.48,7.48,0,0,1-2.92-.51,5.54,5.54,0,0,1-2-1.36,5.33,5.33,0,0,1-1.12-2,8,8,0,0,1-.35-2.42v-14h4.06v4.23h8.64v2.92h-8.64v6.41a4,4,0,0,0,.56,2.3,2.05,2.05,0,0,0,1.82.81,2.12,2.12,0,0,0,1.83-.79,3.75,3.75,0,0,0,.59-2.26Z"/><path class="cls-2" d="M447.19,129.9a2.21,2.21,0,0,0-.83-1.61,3.78,3.78,0,0,0-2.09-.46,4.32,4.32,0,0,0-1.81.3,1,1,0,0,0-.64,1,1.17,1.17,0,0,0,.64,1.07,8.62,8.62,0,0,0,1.9.71c.89.26,1.74.48,2.54.68a18.81,18.81,0,0,1,2.13.66,4.33,4.33,0,0,1,1.9,1.38,3.81,3.81,0,0,1,.67,2.39,4.59,4.59,0,0,1-1.73,3.81,8.09,8.09,0,0,1-5.09,1.37,8.82,8.82,0,0,1-5.55-1.52,5,5,0,0,1-2-3.91h4.26a2,2,0,0,0,.85,1.71,4,4,0,0,0,2.38.61,4.66,4.66,0,0,0,1.94-.37,1.27,1.27,0,0,0,.83-1.25,1.22,1.22,0,0,0-.75-1.18,10.31,10.31,0,0,0-1.76-.6c-1.32-.32-2.37-.6-3.18-.86a8.15,8.15,0,0,1-2-.92,4,4,0,0,1-1.54-1.58,4.37,4.37,0,0,1-.43-1.94,4.86,4.86,0,0,1,.35-1.84,3.53,3.53,0,0,1,1.14-1.48,6.11,6.11,0,0,1,2.05-1,11.58,11.58,0,0,1,3-.35,7.9,7.9,0,0,1,5,1.3,5.12,5.12,0,0,1,1.77,3.85Z"/><path class="cls-2" d="M271.09,117.84a13.86,13.86,0,0,0,6.45-2.38,15.55,15.55,0,0,1,7.2-2.64,18.28,18.28,0,0,1,3.18-.16,17.76,17.76,0,0,0-23.61,4.52A13.71,13.71,0,0,0,271.09,117.84Z"/><path class="cls-2" d="M272.8,123.82A11.6,11.6,0,0,0,279,123a14.51,14.51,0,0,1,13.66,1.52,12.11,12.11,0,0,0,3.64,1.77A17.66,17.66,0,0,0,291,115.13a13.39,13.39,0,0,0-6.06-.44,13.87,13.87,0,0,0-6.44,2.38,15.64,15.64,0,0,1-7.21,2.65,21.38,21.38,0,0,1-2.48.17,15.75,15.75,0,0,1-5.16-.92l-.46-.14c-.16.26-.3.52-.44.79a13.93,13.93,0,0,1,4.2,2A11.53,11.53,0,0,0,272.8,123.82Z"/><path class="cls-2" d="M271.09,133.53a13.86,13.86,0,0,0,6.45-2.38,17.27,17.27,0,0,1,14.84-1.9,15.22,15.22,0,0,0,3.79.8c.07-.6.12-1.2.14-1.81a13.21,13.21,0,0,1-4.73-2.16,12.73,12.73,0,0,0-12-1.33A14.56,14.56,0,0,1,266,123.23a11.77,11.77,0,0,0-4-1.86,17.76,17.76,0,0,0-1.18,6.38,18,18,0,0,0,.54,4.37,20.24,20.24,0,0,1,2.89.74A14,14,0,0,0,271.09,133.53Z"/><path class="cls-2" d="M279.21,140.14a13.2,13.2,0,0,1-7,1,13.33,13.33,0,0,1-6.64-2.48,17.23,17.23,0,0,0-1.79-1.06A17.75,17.75,0,0,0,290.4,141a11.08,11.08,0,0,0-5-1.68A11.6,11.6,0,0,0,279.21,140.14Z"/><path class="cls-2" d="M291.82,131.05a15.34,15.34,0,0,0-13.28,1.71,15.65,15.65,0,0,1-7.21,2.64,19.37,19.37,0,0,1-2.48.17,15.77,15.77,0,0,1-5.16-.91c-.55-.17-1.09-.34-1.67-.48.11.28.23.56.35.83a13.6,13.6,0,0,1,4.22,2,12.66,12.66,0,0,0,12,1.33,13.32,13.32,0,0,1,7-1,13,13,0,0,1,6.2,2.19,17.62,17.62,0,0,0,4.05-7.69A16.63,16.63,0,0,1,291.82,131.05Z"/><path class="cls-2" d="M227.21,139.86v-17h2v5.86a8,8,0,0,1,2-1,6.4,6.4,0,0,1,2-.31A3.57,3.57,0,0,1,236.3,129a8.09,8.09,0,0,1,1.08,4.56,10.74,10.74,0,0,1-.6,3.94,4.2,4.2,0,0,1-1.91,2.2,6.9,6.9,0,0,1-3.28.7,16.51,16.51,0,0,1-2-.14C228.85,140.18,228.06,140,227.21,139.86Zm2-1.19,1.33.22a8.61,8.61,0,0,0,1.09.08,3.94,3.94,0,0,0,2.14-.52A3.11,3.11,0,0,0,235,136.8a9.47,9.47,0,0,0,.41-3.08,8.42,8.42,0,0,0-.33-2.56,3.19,3.19,0,0,0-1-1.54,2.44,2.44,0,0,0-1.57-.53,4.68,4.68,0,0,0-1.07.12,5.37,5.37,0,0,0-1.06.37,11,11,0,0,0-1.2.68Z"/><path class="cls-2" d="M241.65,145l1.59-4.86h-.37l-4.81-12.49,2.12-.11L244,138.41l3.36-10.83,2,.11-5.74,17.46Z"/><path class="cls-3" d="M124.45,135h0c-1.44-5.62-4.93-9.2-11.34-11.6-4.5-1.68-10.72-2.62-14.76,2.48a13.28,13.28,0,0,0-2.49,10.65c.09.58.21,1.4.35,2.38.61,4.29,1.88,13.14,3.25,14.24,1.49.1,16.29.06,20.81-3.59C124.62,146.05,126,141.15,124.45,135Z"/><path class="cls-3" d="M94.46,140.8a40.4,40.4,0,0,1-.56-4.74,27.83,27.83,0,0,0-1-6.3c-1.33-4.25-5.88-8.08-12.31-8.08a16.41,16.41,0,0,0-2.48.19c-6.05.88-10.21,5.23-11.71,12.26-2,9.53,9.12,13.2,16.49,15.62l1.32.44c1,.31,2.13.82,3.39,1.35,3,1.27,6.72,2.85,8.84,2.55.49-1-1-8.6-1.71-11.89C94.64,141.68,94.54,141.21,94.46,140.8Z"/><path class="cls-3" d="M90.6,162.85c1.73-2,4.11-4.81,3-6.57-.51-.82-2.41-1.42-3.94-1.91a16.15,16.15,0,0,1-1.84-.65L86.45,153a31.75,31.75,0,0,0-5.25-2.18,18,18,0,0,0-4.83-.7c-4.3,0-8,1.85-11.3,5.6a14.46,14.46,0,0,1-3.76,2.7c-2.44,1.39-4.74,2.71-4.77,5.51,0,1.78.79,2.71,1.83,3.89.28.32.56.64.84,1A9.11,9.11,0,0,1,60.74,172c.16.48.32,1,.55,1.54a8.86,8.86,0,0,0,6.88,5.39,16.14,16.14,0,0,0,13.72-4.45,64.07,64.07,0,0,0,7.26-9.8A20,20,0,0,1,90.6,162.85Z"/><path class="cls-3" d="M127.22,154.31c-4.72-1.6-9.69-.84-14.5-.1-1.32.2-2.69.41-4,.57l-.87.1a21.69,21.69,0,0,1-6.23.18,5.69,5.69,0,0,0-1-.16.65.65,0,0,0-.37.09c-.23.16-.4.63-.55,1.53-.27,5.41,5.95,10.41,10.07,13.72l.5.4c2.46,2,5.52,4.46,9.11,4.88,2.88.33,5.43-1.17,7.89-2.62l.61-.36c2.45-1.43,3.91-2.89,4.34-4.33a9.8,9.8,0,0,0,.2-3,12.69,12.69,0,0,1,.12-2.76h0C133.23,158.86,131.15,155.65,127.22,154.31Z"/><path class="cls-3" d="M102.67,193.07c3.25-4,10.45-13.83,7.11-18.11-1.79-2.29-3.5-4.65-5.16-6.92-3.43-4.71-6.68-9.17-8-9.28h0a.26.26,0,0,0-.21.08,93.48,93.48,0,0,0-10.81,13.89h0c-2,3.46-4.08,10.73-2.52,14.82a7.21,7.21,0,0,0,2.36,2.87,13.28,13.28,0,0,1,1.75,1.7c.35.43.64.82.93,1.2a8.29,8.29,0,0,0,3,2.81C95,198.23,99.44,197.06,102.67,193.07Z"/><path class="cls-4" d="M102.15,57.85c.43-1.68,4-16.41-3.09-19.08a4.71,4.71,0,0,0-1.69-.34,3.6,3.6,0,0,0-1.8.48c-4.09,2.28-6,12.17-7.07,17.49-.29,1.51-.55,2.81-.79,3.7l-.06.22c-1.42,5.2-2.89,10.57-6.22,15.08a19.73,19.73,0,0,1-5.23,4.26c-2.31,1.5-4.7,3-5.31,4.88-.81,2.41,0,3.26.6,3.69,1.5,1,4.81,1,8.85.13S87.51,86,88.58,85C96.4,78.23,99.69,67.43,102.15,57.85Z"/><path class="cls-3" d="M67.33,83.83c.85-2.56,3.57-4.33,6.21-6a18.32,18.32,0,0,0,4.64-3.71l.22-.3c-.46-3.46-2.32-7.11-4.51-10.7A35.12,35.12,0,0,0,50.58,47.21c-2.36-.41-4.78-1-7.34-1.53-5.61-1.25-11.31-2.53-16.57-2.53-5,0-9.55,1.15-13.24,4.55a31.62,31.62,0,0,1-5.8,3.77c-3.5,2-7.13,4-7.58,6.51-.23,1.3.36,2.75,1.81,4.45a32.33,32.33,0,0,0,6.61,5.29,39.7,39.7,0,0,1,6.13,4.71,45.41,45.41,0,0,1,4,4.88,38.29,38.29,0,0,0,4.19,5c3.14,3,13.38,7.13,25.39,6.56,1.13-.06,2.31-.1,3.52-.14,5-.17,10.45-.37,15.22-1.66A7.2,7.2,0,0,1,67.33,83.83Z"/><path class="cls-3" d="M75.16,92.19a9,9,0,0,1-4.91-1.14,4.64,4.64,0,0,1-.71-.58,74.13,74.13,0,0,1-14.22,1.42L51.8,92a48.62,48.62,0,0,1-12.31-1,116.11,116.11,0,0,1-20.17-1c-2.75-.36-12.07-2.18-12.14,2,0,2.45,5.78,5.09,7.6,6.33,6,4.12,14.43,6,21.69,5.87a83.45,83.45,0,0,0,24.46-3.77C68,98.15,79.54,95.74,85.56,90.05A31.49,31.49,0,0,1,75.16,92.19Z"/><path class="cls-3" d="M111.28,21.7c-1.34-2.94-3.07-5-4.41-5.28a1.29,1.29,0,0,0-.29,0,2,2,0,0,0-1.37.66c-2.24,2.08-1.17,8-.38,12.35a36.67,36.67,0,0,1,.7,5.08,45.5,45.5,0,0,1-.3,6.39c2.24,4.71,1.29,11.71.52,15.46.54-.8,1.06-1.62,1.59-2.47C114.66,42.08,115.91,31.87,111.28,21.7Z"/><path class="cls-5" d="M76.76,60.47a38.28,38.28,0,0,1,4.3,9.08,56.65,56.65,0,0,0,4-11.27l.06-.22c.22-.81.47-2.07.75-3.54C87.1,48.06,89,38.29,94,35.51a6.11,6.11,0,0,1,5.36-.28,7.3,7.3,0,0,1,.94.43c.23-6.29-.69-13-2.77-18C94,9,84-1.71,73.48.23c-4,.75-4.68,3.47-7.22,6.21-3.92,4.22-3.67-.08-8.6.53-8.9,1.09-10.16,17.82-10,24.49a95.13,95.13,0,0,0,.81,11.42c1.19.25,2.36.48,3.5.68A37.43,37.43,0,0,1,76.76,60.47Z"/><path class="cls-2" d="M105.78,108.3a13.9,13.9,0,0,0-.49-6.06c-1.76-6-6.3-15.09-8.92-20.51C92,91.41,79.19,97.1,79.19,97.1c5.94,6.2,17.35,13.12,21.7,14.25a5.3,5.3,0,0,0,2.11.16c6,5.42,22.34,17.65,53.18,24.43-.82.09-1.63.18-2.45.31a55.11,55.11,0,0,0-6.48,1.32c-1.08.26-2.13.62-3.19,1s-2.09.75-3.11,1.2a34.26,34.26,0,0,0-5.86,3.19,24.84,24.84,0,0,0-4.9,4.41,0,0,0,0,0,0,0l.4.47h0a44.17,44.17,0,0,1,11.54-4.55,60.94,60.94,0,0,1,6-1.23q3-.5,6.13-.77t6.2-.44c2.08-.1,4.16-.17,6.24-.3,3.07-.18,11.81-.48,19.21-.44,10.56-.3,19.32.77,30.33.26v-7.64C133.44,137.93,110.76,115.29,105.78,108.3Z"/></g></g></svg>