<svg xmlns="http://www.w3.org/2000/svg" viewBox="0 0 515.67 107.2"><defs><style>.cls-1{fill:#435761;}.cls-2{fill:#50b9a1;}.cls-3{fill:#8a9538;}.cls-4{fill:#593c1b;}.cls-5{fill:#f5b418;}.cls-6{fill:#d05941;}</style></defs><g id="Capa_2" data-name="Capa 2"><g id="Capa_1-2" data-name="Capa 1"><path class="cls-1" d="M162.55,63.64a32,32,0,0,1-3,8.84,24,24,0,0,1-5.19,6.78,22.4,22.4,0,0,1-7.25,4.38,26,26,0,0,1-9.1,1.54,28.41,28.41,0,0,1-10.42-1.89,22.35,22.35,0,0,1-8.37-5.66,26.91,26.91,0,0,1-5.53-9.31,37.57,37.57,0,0,1-2-12.92,42.75,42.75,0,0,1,1.84-13,27.64,27.64,0,0,1,5.28-9.78,23,23,0,0,1,8.37-6.14,27.37,27.37,0,0,1,11-2.14,28.11,28.11,0,0,1,9.65,1.58,23,23,0,0,1,7.47,4.38,21.22,21.22,0,0,1,5,6.57,23.58,23.58,0,0,1,2.28,8.06H150.62A13.38,13.38,0,0,0,146,37.34a12.2,12.2,0,0,0-7.73-2.71q-7.47,0-11,5.37t-3.52,14.72q0,9.53,3.47,14.8t10.43,5.28a12.33,12.33,0,0,0,8.54-2.88,15.15,15.15,0,0,0,4.42-8.28Z"/><path class="cls-1" d="M186,84.32a24.28,24.28,0,0,1-9.18-1.63A19.13,19.13,0,0,1,170,78.14a19.35,19.35,0,0,1-4.25-7,26.9,26.9,0,0,1-1.46-9,26.4,26.4,0,0,1,1.5-9.1,19.72,19.72,0,0,1,4.34-7,19.42,19.42,0,0,1,6.82-4.5A24.3,24.3,0,0,1,186,39.87a23.73,23.73,0,0,1,8.93,1.59,19.27,19.27,0,0,1,6.74,4.46,19.65,19.65,0,0,1,4.29,7,26.72,26.72,0,0,1,1.5,9.19,26.35,26.35,0,0,1-1.5,9.14,20.19,20.19,0,0,1-4.29,7,18.73,18.73,0,0,1-6.78,4.5A23.81,23.81,0,0,1,186,84.32ZM186,75q10.22,0,10.22-12.87T186,49.31q-10.2,0-10.21,12.79T186,75Z"/><path class="cls-1" d="M238.49,83.21V57.63q0-4.89-1.63-6.6c-1.09-1.15-2.94-1.72-5.58-1.72q-8.66,0-8.66,9.7v24.2H211.46V41H222.1v6.17a13.58,13.58,0,0,1,5.24-5.45,16.93,16.93,0,0,1,8.41-1.84,16.73,16.73,0,0,1,5.57.9,11.79,11.79,0,0,1,4.42,2.7,12.92,12.92,0,0,1,2.92,4.42,15.82,15.82,0,0,1,1.07,6V83.21Z"/><path class="cls-1" d="M278.57,55.4H289v12a20.83,20.83,0,0,1-1,6.39A14.57,14.57,0,0,1,279.56,83a19.65,19.65,0,0,1-7.69,1.37A20.42,20.42,0,0,1,264,83a15,15,0,0,1-5.36-3.69,14,14,0,0,1-3.05-5.41,22.15,22.15,0,0,1-.94-6.52V29.57h11V41H289v7.89H265.61V66.21a11,11,0,0,0,1.5,6.23c1,1.46,2.65,2.18,4.94,2.18A5.73,5.73,0,0,0,277,72.48a10.08,10.08,0,0,0,1.59-6.09Z"/><path class="cls-1" d="M293.76,35.92V25.54h11.15V35.92Zm0,47.29V41h11.15V83.21Z"/><path class="cls-1" d="M337,83.21V57.63c0-3.26-.55-5.46-1.63-6.6s-2.95-1.72-5.58-1.72q-8.67,0-8.67,9.7v24.2H310V41h10.65v6.17a13.55,13.55,0,0,1,5.23-5.45,19.13,19.13,0,0,1,14-.94,11.79,11.79,0,0,1,4.42,2.7,13.06,13.06,0,0,1,2.92,4.42,16,16,0,0,1,1.07,6V83.21Z"/><path class="cls-1" d="M363.35,65a12,12,0,0,0,2.79,7.64,8.5,8.5,0,0,0,6.65,2.83,9.33,9.33,0,0,0,4.85-1.24,5.64,5.64,0,0,0,2.7-3.48h11.5a18.46,18.46,0,0,1-6.86,10,19.44,19.44,0,0,1-11.67,3.52q-21.12,0-21.11-23a26.71,26.71,0,0,1,1.37-8.84,19,19,0,0,1,4-6.78A17.25,17.25,0,0,1,364,41.37a23.37,23.37,0,0,1,8.67-1.5q9.78,0,14.8,6.26t5,18.88Zm17.59-7a11.7,11.7,0,0,0-.81-4.08A8.6,8.6,0,0,0,378.2,51a7.67,7.67,0,0,0-2.75-1.71,9.09,9.09,0,0,0-3.17-.56,7.93,7.93,0,0,0-5.8,2.44A10.46,10.46,0,0,0,363.69,58Z"/><path class="cls-1" d="M423.34,83.21V57.63c0-3.26-.55-5.46-1.63-6.6s-2.95-1.72-5.58-1.72q-8.67,0-8.67,9.7v24.2H396.3V41H407v6.17a13.55,13.55,0,0,1,5.23-5.45,19.13,19.13,0,0,1,14-.94,11.87,11.87,0,0,1,4.42,2.7,13.06,13.06,0,0,1,2.92,4.42,16,16,0,0,1,1.07,6V83.21Z"/><path class="cls-1" d="M463.41,55.4H473.8v12a20.54,20.54,0,0,1-1,6.39,15.11,15.11,0,0,1-3.09,5.41A14.87,14.87,0,0,1,464.4,83a19.63,19.63,0,0,1-7.68,1.37,20.47,20.47,0,0,1-7.9-1.37,15.06,15.06,0,0,1-5.36-3.69,14.13,14.13,0,0,1-3-5.41,22.15,22.15,0,0,1-.94-6.52V29.57h11V41H473.8v7.89H450.45V66.21A10.88,10.88,0,0,0,452,72.44c1,1.46,2.64,2.18,4.93,2.18a5.73,5.73,0,0,0,4.93-2.14,10.08,10.08,0,0,0,1.59-6.09Z"/><path class="cls-1" d="M503.74,53.77a5.93,5.93,0,0,0-2.23-4.33q-1.8-1.24-5.66-1.25A11.72,11.72,0,0,0,491,49a2.77,2.77,0,0,0-1.72,2.7A3.14,3.14,0,0,0,491,54.59a23,23,0,0,0,5.15,1.93c2.4.68,4.69,1.3,6.86,1.84a52.56,52.56,0,0,1,5.75,1.76,12.1,12.1,0,0,1,5.15,3.73,10.48,10.48,0,0,1,1.8,6.48A12.39,12.39,0,0,1,511,80.63q-4.68,3.69-13.78,3.69-9.78,0-15-4.12a13.38,13.38,0,0,1-5.37-10.55h11.5a5.31,5.31,0,0,0,2.32,4.63,11,11,0,0,0,6.44,1.63,13,13,0,0,0,5.23-1,3.45,3.45,0,0,0,2.23-3.4,3.26,3.26,0,0,0-2-3.17,26.76,26.76,0,0,0-4.77-1.63q-5.32-1.29-8.58-2.32a21.88,21.88,0,0,1-5.49-2.49,10.66,10.66,0,0,1-4.16-4.29,11.76,11.76,0,0,1-1.16-5.23,13.1,13.1,0,0,1,.94-5,9.7,9.7,0,0,1,3.09-4A16,16,0,0,1,488,40.81a30.85,30.85,0,0,1,8.19-.94q9.18,0,13.52,3.52t4.76,10.38Z"/><path class="cls-2" d="M27.77,21.18c9-1.15,13.06-3.71,17.42-6.42A42.18,42.18,0,0,1,64.66,7.61a49.26,49.26,0,0,1,8.58-.42A48,48,0,0,0,9.43,19.41,37.15,37.15,0,0,0,27.77,21.18Z"/><path class="cls-3" d="M32.4,37.35c8.05.9,12.22-.65,16.62-2.28,4.78-1.77,9.71-3.61,19-2.57s13.67,3.9,17.94,6.68A32.53,32.53,0,0,0,95.78,44,47.8,47.8,0,0,0,81.7,13.86a36.16,36.16,0,0,0-16.38-1.18c-9,1.15-13.07,3.71-17.43,6.42a42.18,42.18,0,0,1-19.47,7.15,53,53,0,0,1-6.72.46A42.73,42.73,0,0,1,7.77,24.25l-1.26-.39c-.41.7-.8,1.41-1.18,2.14a37,37,0,0,1,11.36,5.46C20.63,34,24.35,36.45,32.4,37.35Z"/><path class="cls-4" d="M27.77,63.59c9-1.15,13.06-3.71,17.42-6.42A42.06,42.06,0,0,1,64.66,50a42.12,42.12,0,0,1,20.65,2,40.84,40.84,0,0,0,10.23,2.16,46.49,46.49,0,0,0,.38-4.89,36.21,36.21,0,0,1-12.78-5.82c-3.94-2.57-7.66-5-15.71-5.89s-12.22.65-16.63,2.28c-4.77,1.77-9.71,3.61-19,2.57s-13.67-3.9-17.93-6.68a31.85,31.85,0,0,0-10.69-5A48,48,0,0,0,1.47,59.78a55.65,55.65,0,0,1,7.82,2C14.19,63.29,18.82,64.73,27.77,63.59Z"/><path class="cls-5" d="M49.73,81.47C45,83.24,40,85.08,30.76,84s-13.67-3.9-17.94-6.68A48.12,48.12,0,0,0,8,74.48a47.95,47.95,0,0,0,72,9.25,30,30,0,0,0-13.61-4.54C58.3,78.29,54.13,79.84,49.73,81.47Z"/><path class="cls-6" d="M83.79,56.9c-4.9-1.52-9.53-3-18.47-1.81S52.25,58.8,47.89,61.51a42.18,42.18,0,0,1-19.47,7.15,53,53,0,0,1-6.72.46A42.44,42.44,0,0,1,7.77,66.65c-1.48-.46-2.95-.91-4.51-1.29.29.75.61,1.5.93,2.23a36.94,36.94,0,0,1,11.42,5.48c3.94,2.57,7.66,5,15.71,5.89s12.22-.65,16.62-2.28c4.78-1.77,9.72-3.61,19-2.57A34.79,34.79,0,0,1,83.67,80,47.85,47.85,0,0,0,94.61,59.25,45.82,45.82,0,0,1,83.79,56.9Z"/><path class="cls-1" d="M278,106.91H276.9V95.74h3.44a4.41,4.41,0,0,1,2.69.74,2.64,2.64,0,0,1,1,2.24,2.8,2.8,0,0,1-.74,2,3.1,3.1,0,0,1-2.12.92l3.22,5.3H283l-3.06-5.19H278Zm0-6.23h2a4.34,4.34,0,0,0,1.28-.16,2.32,2.32,0,0,0,.85-.41,1.62,1.62,0,0,0,.46-.62,2.15,2.15,0,0,0,.14-.77,2,2,0,0,0-.14-.74,1.66,1.66,0,0,0-.46-.63,2.18,2.18,0,0,0-.85-.42,4.73,4.73,0,0,0-1.28-.15h-2Z"/><path class="cls-1" d="M288.34,105.87h6v1H287.2V95.74h6.93v1h-5.79v3.81h5.41v1h-5.41Z"/><path class="cls-1" d="M297.32,106.91H296l4.86-11.17H302l4.86,11.17h-1.33L304.26,104h-5.71Zm1.66-4h4.84l-2.41-5.87Z"/><path class="cls-1" d="M310.42,105.87h5.2v1h-6.34V95.74h1.14Z"/><path class="cls-1" d="M324.58,105.87h6v1h-7.11V95.74h6.93v1h-5.8v3.81H330v1h-5.42Z"/><path class="cls-1" d="M339,97.59a2.45,2.45,0,0,0-2.16-1.09,3.15,3.15,0,0,0-.87.12,2.48,2.48,0,0,0-.77.36,1.74,1.74,0,0,0-.54.63,1.88,1.88,0,0,0-.21.91,1.61,1.61,0,0,0,.43,1.18,3.52,3.52,0,0,0,1.06.68,11.11,11.11,0,0,0,1.38.48,6.06,6.06,0,0,1,1.38.57,3.27,3.27,0,0,1,1.05.94,2.61,2.61,0,0,1,.43,1.59,2.94,2.94,0,0,1-.32,1.37,3.36,3.36,0,0,1-.85,1,4.19,4.19,0,0,1-2.51.85,4.91,4.91,0,0,1-1.94-.39,3.68,3.68,0,0,1-1.57-1.27l1-.74a2.71,2.71,0,0,0,1,1,3.09,3.09,0,0,0,1.53.37,2.8,2.8,0,0,0,.85-.14,2.49,2.49,0,0,0,.76-.39,2.29,2.29,0,0,0,.56-.64,1.66,1.66,0,0,0,.22-.87,1.81,1.81,0,0,0-.24-1,2.24,2.24,0,0,0-.65-.65,4.35,4.35,0,0,0-.92-.43l-1.05-.35a8.89,8.89,0,0,1-1.06-.39,4,4,0,0,1-.92-.56,2.61,2.61,0,0,1-.64-.85,2.91,2.91,0,0,1-.25-1.29,2.94,2.94,0,0,1,1.13-2.4,3.42,3.42,0,0,1,1.16-.58,4.55,4.55,0,0,1,1.33-.19,4.74,4.74,0,0,1,1.72.3A3.68,3.68,0,0,1,340,96.82Z"/><path class="cls-1" d="M347.05,106.91h-1.13V96.78h-3.74v-1h8.61v1h-3.74Z"/><path class="cls-1" d="M352.21,106.91h-1.32l4.86-11.17h1.1l4.86,11.17h-1.32L359.16,104h-5.72Zm1.66-4h4.84l-2.41-5.87Z"/><path class="cls-1" d="M366.68,106.91h-1.13V96.78h-3.74v-1h8.61v1h-3.74Z"/><path class="cls-1" d="M374.24,105.87h6v1H373.1V95.74H380v1h-5.79v3.81h5.41v1h-5.41Z"/><path class="cls-1" d="M388.58,95.74h3.71a6.69,6.69,0,0,1,2.09.35,5.66,5.66,0,0,1,1.89,1,5.28,5.28,0,0,1,1.37,1.75,6,6,0,0,1,0,4.88,5.28,5.28,0,0,1-1.37,1.75,5.66,5.66,0,0,1-1.89,1,6.67,6.67,0,0,1-2.09.34h-3.71Zm1.14,10.13h2.21a5.91,5.91,0,0,0,2.21-.38,4.61,4.61,0,0,0,1.57-1,4.2,4.2,0,0,0,.92-1.45,4.85,4.85,0,0,0,0-3.36,4.11,4.11,0,0,0-.92-1.45,4.61,4.61,0,0,0-1.57-1,5.71,5.71,0,0,0-2.21-.39h-2.21Z"/><path class="cls-1" d="M402.51,105.87h6v1h-7.11V95.74h6.93v1h-5.8v3.81h5.42v1h-5.42Z"/><path class="cls-1" d="M414.93,105.21h0l3.66-9.47h1.24l-4.36,11.17h-1.14l-4.24-11.17h1.26Z"/><path class="cls-1" d="M423.41,105.87h6v1h-7.12V95.74h6.93v1h-5.79v3.81h5.41v1h-5.41Z"/><path class="cls-1" d="M433.71,105.87h5.21v1h-6.35V95.74h1.14Z"/><path class="cls-1" d="M452.3,101.33a6,6,0,0,1-.45,2.35,5.57,5.57,0,0,1-1.22,1.85,5.65,5.65,0,0,1-1.85,1.23,6.28,6.28,0,0,1-4.62,0,5.65,5.65,0,0,1-3.07-3.08,6.5,6.5,0,0,1,0-4.7,5.57,5.57,0,0,1,3.07-3.08,6.28,6.28,0,0,1,4.62,0,5.63,5.63,0,0,1,1.85,1.22A5.52,5.52,0,0,1,451.85,99,6,6,0,0,1,452.3,101.33Zm-1.23,0a5.39,5.39,0,0,0-.32-1.84,4.59,4.59,0,0,0-.91-1.54,4.42,4.42,0,0,0-1.44-1.06A4.58,4.58,0,0,0,443.1,98a4.73,4.73,0,0,0-.9,1.54,5.45,5.45,0,0,0,0,3.68,4.69,4.69,0,0,0,.9,1.53,4.29,4.29,0,0,0,1.45,1.06,4.83,4.83,0,0,0,3.85,0,4.15,4.15,0,0,0,1.44-1.06,4.54,4.54,0,0,0,.91-1.53A5.44,5.44,0,0,0,451.07,101.33Z"/><path class="cls-1" d="M455.51,95.74h3.26a4.43,4.43,0,0,1,2.69.74,3.06,3.06,0,0,1,0,4.49,4.36,4.36,0,0,1-2.69.75h-2.12v5.19h-1.14Zm1.14,4.94h1.83a4.41,4.41,0,0,0,1.29-.16,2.35,2.35,0,0,0,.84-.41,1.62,1.62,0,0,0,.46-.62,2.15,2.15,0,0,0,.14-.77,2,2,0,0,0-.14-.74,1.66,1.66,0,0,0-.46-.63,2.21,2.21,0,0,0-.84-.42,4.81,4.81,0,0,0-1.29-.15h-1.83Z"/><path class="cls-1" d="M471,104.83l3.78-9.09h1.73v11.17H475.4V97.26h0l-4,9.65h-.59l-4-9.65h0v9.65h-1.13V95.74h1.73Z"/><path class="cls-1" d="M481.64,105.87h6v1h-7.11V95.74h6.92v1h-5.79v3.81h5.42v1h-5.42Z"/><path class="cls-1" d="M498.89,105.21h0V95.74h1.14v11.17h-1.42L492,97.35h0v9.56h-1.14V95.74h1.42Z"/><path class="cls-1" d="M507.62,106.91h-1.14V96.78h-3.74v-1h8.62v1h-3.74Z"/></g></g></svg>