<svg xmlns="http://www.w3.org/2000/svg" viewBox="0 0 516.25 183.47"><defs><style>.cls-1{fill:#6c6d6f;}.cls-2{fill:#444445;}</style></defs><g id="Capa_2" data-name="Capa 2"><g id="Capa_1-2" data-name="Capa 1"><rect class="cls-1" x="507.14" y="137.95" width="9.11" height="9.26"/><polygon class="cls-2" points="239.02 98.93 247.28 98.93 247.28 122.85 269.78 98.93 279.89 98.93 260.24 119.3 280.88 146.35 270.77 146.35 254.54 124.99 247.28 132.54 247.28 146.35 239.02 146.35 239.02 98.93"/><path class="cls-2" d="M316.91,147.06a26.49,26.49,0,0,1-8.26-1.28,16.86,16.86,0,0,1-6.41-4,17.72,17.72,0,0,1-4.13-6.55,27.42,27.42,0,0,1-1.42-9V99.08H305V126c0,4.41,1,7.83,3.13,10.11a13.34,13.34,0,0,0,17.66.14c2.13-2.14,3.13-5.55,3.13-9.83V99.22h8.26v26.91a25.65,25.65,0,0,1-1.43,9.25,17.52,17.52,0,0,1-4.13,6.55,16.58,16.58,0,0,1-6.4,4,31.38,31.38,0,0,1-8.26,1.14"/><polygon class="cls-2" points="354.21 98.93 361.9 98.93 387.25 131.68 387.25 98.93 395.51 98.93 395.51 146.35 388.53 146.35 362.47 112.6 362.47 146.35 354.21 146.35 354.21 98.93"/><path class="cls-2" d="M429.54,147.06A30,30,0,0,1,419,145.21a29.44,29.44,0,0,1-9.25-5.7l5-6a28.09,28.09,0,0,0,7,4.56,17.38,17.38,0,0,0,8,1.57,10.39,10.39,0,0,0,6.12-1.57,5.19,5.19,0,0,0,2.28-4.27v-.14a5.79,5.79,0,0,0-.43-2.28,4.85,4.85,0,0,0-1.56-1.85,9.91,9.91,0,0,0-3.28-1.57c-1.71-.57-3.56-1-5.41-1.42a51.17,51.17,0,0,1-6.69-2,16.85,16.85,0,0,1-5-2.7,9.67,9.67,0,0,1-3-3.85,12.33,12.33,0,0,1-1-5.55v-.14a14.38,14.38,0,0,1,1.14-5.56,12.3,12.3,0,0,1,3.27-4.27,15.31,15.31,0,0,1,5.13-2.85,20.37,20.37,0,0,1,6.55-1,26.82,26.82,0,0,1,9.4,1.56,28.5,28.5,0,0,1,7.83,4.42l-4.42,6.26a28.48,28.48,0,0,0-6.4-3.56,16.7,16.7,0,0,0-6.41-1.28,9.15,9.15,0,0,0-5.7,1.57,5,5,0,0,0-2,4v.14a6.55,6.55,0,0,0,.43,2.42,4.28,4.28,0,0,0,1.71,1.85,12.37,12.37,0,0,0,3.41,1.57,47.91,47.91,0,0,0,5.56,1.56,49.65,49.65,0,0,1,6.55,2.14,16.5,16.5,0,0,1,4.84,2.85,10.93,10.93,0,0,1,2.85,3.84,12.71,12.71,0,0,1,1,5.13v.14a14.49,14.49,0,0,1-1.28,6,13,13,0,0,1-3.42,4.41,15.79,15.79,0,0,1-5.26,2.85,22.8,22.8,0,0,1-6.84,1"/><polygon class="cls-2" points="470.12 106.76 455.03 106.76 455.03 98.93 493.47 98.93 493.47 106.76 478.52 106.76 478.52 146.35 470.12 146.35 470.12 106.76"/><path class="cls-2" d="M323.88,84.84a24.6,24.6,0,0,1-10.11-2,23.4,23.4,0,0,1-12.95-13.1A24.24,24.24,0,0,1,299,60.2v-.14a24.28,24.28,0,0,1,1.85-9.54,22.38,22.38,0,0,1,5.27-7.83,25.34,25.34,0,0,1,8-5.41,27.23,27.23,0,0,1,10.11-2,24.54,24.54,0,0,1,10.11,2,23,23,0,0,1,7.83,5.27,25.52,25.52,0,0,1,5.13,7.83,24.24,24.24,0,0,1,1.85,9.54v.14a24.24,24.24,0,0,1-1.85,9.54A22.38,22.38,0,0,1,342,77.43a24.52,24.52,0,0,1-18.09,7.41m.15-7.69a17.4,17.4,0,0,0,6.55-1.28,16.65,16.65,0,0,0,5.12-3.56A16.11,16.11,0,0,0,339,66.89a17.22,17.22,0,0,0,1.14-6.54V60.2A19.85,19.85,0,0,0,339,53.65a16.17,16.17,0,0,0-3.28-5.41,14.8,14.8,0,0,0-5.12-3.7,15.69,15.69,0,0,0-18.09,3.56,16.3,16.3,0,0,0-3.27,5.41,17.07,17.07,0,0,0-1.14,6.55v.14a19.8,19.8,0,0,0,1.14,6.55,16.1,16.1,0,0,0,3.27,5.41,15,15,0,0,0,5.13,3.71A14.05,14.05,0,0,0,324,77.15"/><polygon class="cls-2" points="238.88 36.14 247.85 36.14 262.51 58.78 277.04 36.14 286.01 36.14 286.01 84.12 277.61 84.12 277.61 49.67 262.51 72.31 262.23 72.31 247.28 49.81 247.28 84.12 238.88 84.12 238.88 36.14"/><polygon class="cls-2" points="362.05 36.14 370.3 36.14 370.3 76.44 395.51 76.44 395.51 84.12 362.05 84.12 362.05 36.14"/><path class="cls-2" d="M426.12,35.85H434L455,84.12H446.2l-4.84-11.53H418.72l-4.84,11.53h-8.69ZM438.22,65,430,45.82,421.71,65Z"/><path class="cls-2" d="M157.57,28l-2.07-2.07a82.45,82.45,0,0,0-7.15-6.29c-.87-.69-1.73-1.3-2.59-2A91.6,91.6,0,0,0,27.93,25.89L25.86,28A91.34,91.34,0,0,0,0,90.54V93a91.66,91.66,0,0,0,145.76,72.84c.86-.69,1.72-1.29,2.59-2a78.93,78.93,0,0,0,7.58-6.73l1.21-1.2A91.46,91.46,0,0,0,157.57,28m-1.21,1.21A89.53,89.53,0,0,1,181.71,91H94.65ZM92.58,1.75A89.82,89.82,0,0,1,144,18.56L92.58,44.25Zm0,45.78,54.13-27.07a93.61,93.61,0,0,1,7.67,6.64L92.58,88.9ZM88.78,91h-83L61.11,63.3ZM63.87,61.83l27-13.44V88.9ZM90.51,92.61l.43.43v42.15L5.86,92.61Zm.34-90.86V45.11L61.72,59.68,29.13,27.1A89.34,89.34,0,0,1,90.85,1.75M27.07,29.17,59,61.06,1.72,89.68A88.88,88.88,0,0,1,27.07,29.17M1.64,93.81l89.21,44.57v43.36A90.1,90.1,0,0,1,1.64,93.81m90.94,88V139.33L144,165.1a90.25,90.25,0,0,1-51.46,16.72M146.71,163,92.58,136V93.73L154.81,156a100.92,100.92,0,0,1-8.1,7.07m9.22-8.27L93.7,92.52h88a89.38,89.38,0,0,1-25.78,62.24"/></g></g></svg>