<svg xmlns="http://www.w3.org/2000/svg" xmlns:xlink="http://www.w3.org/1999/xlink" viewBox="0 0 525.88 94.46"><defs><style>.cls-1{fill:url(#Degradado_sin_nombre_4);}.cls-2{fill:url(#Degradado_sin_nombre_4-2);}.cls-3{fill:url(#Degradado_sin_nombre_4-3);}.cls-4{fill:url(#Degradado_sin_nombre_4-4);}.cls-5{fill:#3b4e55;}.cls-6{fill:url(#Degradado_sin_nombre_6);}.cls-7{fill:url(#Degradado_sin_nombre_6-2);}</style><linearGradient id="Degradado_sin_nombre_4" x1="1685.2" y1="-2900.74" x2="1694.62" y2="-2892.74" gradientTransform="matrix(13.03, 0, 0, -15.35, -21968.45, -44400.89)" gradientUnits="userSpaceOnUse"><stop offset="0" stop-color="#f05f31"/><stop offset="1" stop-color="#e44832"/></linearGradient><linearGradient id="Degradado_sin_nombre_4-2" x1="1613.06" y1="-2832.08" x2="1638.73" y2="-2822.52" gradientTransform="matrix(8.26, 0, 0, -22.19, -13253.28, -62760.8)" xlink:href="#Degradado_sin_nombre_4"/><linearGradient id="Degradado_sin_nombre_4-3" x1="1710.28" y1="-2895.9" x2="1716.57" y2="-2889.86" gradientTransform="matrix(14.73, 0, 0, -15.34, -25033.67, -44391.55)" xlink:href="#Degradado_sin_nombre_4"/><linearGradient id="Degradado_sin_nombre_4-4" x1="1247.72" y1="-2844.81" x2="1368.02" y2="-2825.07" gradientTransform="matrix(3.66, 0, 0, -22.31, -4879.6, -63085.57)" xlink:href="#Degradado_sin_nombre_4"/><linearGradient id="Degradado_sin_nombre_6" x1="1760.65" y1="-2811.25" x2="1763.7" y2="-2808.53" gradientTransform="matrix(23.24, 0, 0, -26.04, -40472.55, -73108.09)" gradientUnits="userSpaceOnUse"><stop offset="0" stop-color="#e44832"/><stop offset="1" stop-color="#f05f31"/></linearGradient><linearGradient id="Degradado_sin_nombre_6-2" x1="1693.3" y1="-2978.08" x2="1695.86" y2="-2975.51" gradientTransform="matrix(11.14, 0, 0, -11.14, -18390.4, -33105.46)" xlink:href="#Degradado_sin_nombre_6"/></defs><g id="Capa_2" data-name="Capa 2"><g id="Capa_1-2" data-name="Capa 1"><g id="Grupo_1205" data-name="Grupo 1205"><g id="Grupo_1203" data-name="Grupo 1203"><g id="Grupo_1202" data-name="Grupo 1202"><g id="Grupo_1199" data-name="Grupo 1199"><path id="Trazado_1418" data-name="Trazado 1418" class="cls-1" d="M65.37,43.46A14.51,14.51,0,0,0,60,40.05a19.45,19.45,0,0,0-6.85-1.15,20.27,20.27,0,0,0-10.33,2.34,17.08,17.08,0,0,0-6.42,6.93.36.36,0,0,1-.39.18.37.37,0,0,1-.27-.33V38.9H23.11V94.41H36.36v-31c0-8.57,3.76-12.92,11.18-12.92a9.53,9.53,0,0,1,7.24,2.34,13.26,13.26,0,0,1,2.13,8.79V94.4H70.26V56.8a21,21,0,0,0-1.32-7.72A16.7,16.7,0,0,0,65.37,43.46Z"/><path id="Trazado_1419" data-name="Trazado 1419" class="cls-2" d="M101.69,34.73H93a.36.36,0,0,1-.36-.36h0a18.56,18.56,0,0,1,.38-4.14,6,6,0,0,1,1.45-2.84,5.42,5.42,0,0,1,2.8-1.53,18.56,18.56,0,0,1,4.07-.41V14.15c-14.61.1-21.71,6.72-21.71,20.22a.36.36,0,0,1-.36.36H71.82v9.82H79.3a.36.36,0,0,1,.36.36h0V94.42h13V44.89a.36.36,0,0,1,.36-.36h8.66Z"/><path id="Trazado_1420" data-name="Trazado 1420" class="cls-3" d="M152.62,55.16a24.61,24.61,0,0,0-5.29-8.73A24,24,0,0,0,139,40.87a29.21,29.21,0,0,0-11-2,30.06,30.06,0,0,0-11.18,2,24,24,0,0,0-8.4,5.62,24.6,24.6,0,0,0-5.35,8.77,33.71,33.71,0,0,0-1.86,11.39A34.3,34.3,0,0,0,103,77.93a24.4,24.4,0,0,0,5.24,8.78,23.8,23.8,0,0,0,8.41,5.66,29.72,29.72,0,0,0,11.34,2,29.35,29.35,0,0,0,11-2,23.38,23.38,0,0,0,8.35-5.62,25,25,0,0,0,5.3-8.72,33.51,33.51,0,0,0,1.86-11.44A34,34,0,0,0,152.62,55.16ZM128,83.25c-8.68,0-13.11-5.59-13.11-16.6S119.31,50.16,128,50.16s13.12,5.54,13.12,16.49S136.71,83.24,128,83.24Z"/><rect id="Rectángulo_275" data-name="Rectángulo 275" class="cls-4" y="13.7" width="13.24" height="80.71"/></g><g id="Grupo_1201" data-name="Grupo 1201"><g id="Grupo_1200" data-name="Grupo 1200"><path id="Trazado_1421" data-name="Trazado 1421" class="cls-5" d="M346.31,94.39a24.41,24.41,0,0,0,9.3-1.65A17.18,17.18,0,0,0,362,88.33a.37.37,0,0,1,.36-.11.34.34,0,0,1,.24.3,39.08,39.08,0,0,0,.77,5.79h12.37V59.57a31.51,31.51,0,0,0-1.17-8.85,15.3,15.3,0,0,0-3.73-6.48,16.65,16.65,0,0,0-6.83-4,34.18,34.18,0,0,0-10.45-1.39A36.3,36.3,0,0,0,343,40.21,18.26,18.26,0,0,0,336,44a14.26,14.26,0,0,0-3.87,5.83A23.85,23.85,0,0,0,330.78,57h12.3a10.47,10.47,0,0,1,2.68-5.64,9.68,9.68,0,0,1,7.17-2.27,12.84,12.84,0,0,1,6.68,1.51,5.31,5.31,0,0,1,1.83,7.28,5.49,5.49,0,0,1-1.22,1.41A18.72,18.72,0,0,1,353,61.31c-3.49.51-6.74,1.09-9.68,1.68a23.84,23.84,0,0,0-7.56,2.83,13.41,13.41,0,0,0-4.92,5.24,19.29,19.29,0,0,0-1.78,9,13.76,13.76,0,0,0,4.13,10.34A18.51,18.51,0,0,0,346.31,94.39Zm-1.62-21.28A19.9,19.9,0,0,1,353.11,70,55.91,55.91,0,0,0,359,68.6a7.2,7.2,0,0,0,3-1.65.37.37,0,0,1,.39-.08.34.34,0,0,1,.22.32L362.43,73a10.6,10.6,0,0,1-1.05,4.63A12.53,12.53,0,0,1,354.55,84a13.8,13.8,0,0,1-5.12,1c-4.71,0-7.11-2.13-7.11-6.3a6.8,6.8,0,0,1,2.37-5.55Z"/><path id="Trazado_1422" data-name="Trazado 1422" class="cls-5" d="M214.71,21.92a28.1,28.1,0,0,0-9.22-5.76,32.91,32.91,0,0,0-11.94-2.09,32.21,32.21,0,0,0-13.64,2.82A28.78,28.78,0,0,0,169.58,25,37.43,37.43,0,0,0,163,37.87a60.32,60.32,0,0,0-2.29,17.21,53.2,53.2,0,0,0,2.5,17.08,36.32,36.32,0,0,0,6.86,12.29,27.6,27.6,0,0,0,10.33,7.44,33.31,33.31,0,0,0,12.89,2.49,30,30,0,0,0,11.24-2,27.57,27.57,0,0,0,9-5.75,31.49,31.49,0,0,0,6.42-8.93,44,44,0,0,0,3.65-11.27H209.38a20.77,20.77,0,0,1-5.56,10.93,15.24,15.24,0,0,1-10.92,3.93,14.71,14.71,0,0,1-13.33-7.2,46.69,46.69,0,0,1,.06-39.68,15.37,15.37,0,0,1,14-7.31,15.09,15.09,0,0,1,9.88,3.69,18.33,18.33,0,0,1,5.84,10h14.25a33,33,0,0,0-2.77-10.25A27.85,27.85,0,0,0,214.71,21.92Z"/><path id="Trazado_1423" data-name="Trazado 1423" class="cls-5" d="M243.53,94.39a24.41,24.41,0,0,0,9.3-1.65,17.18,17.18,0,0,0,6.42-4.41.37.37,0,0,1,.36-.11.34.34,0,0,1,.24.3,39.08,39.08,0,0,0,.77,5.79H273V59.57a30.8,30.8,0,0,0-1.17-8.85,15.18,15.18,0,0,0-3.72-6.48,16.78,16.78,0,0,0-6.83-4,34.28,34.28,0,0,0-10.46-1.39,36.34,36.34,0,0,0-10.62,1.34,18.26,18.26,0,0,0-7,3.77,14.39,14.39,0,0,0-3.88,5.83A24.48,24.48,0,0,0,228,57h12.31A10.38,10.38,0,0,1,243,51.32a9.69,9.69,0,0,1,7.18-2.27,12.79,12.79,0,0,1,6.67,1.51,5.32,5.32,0,0,1,.61,8.69,18.67,18.67,0,0,1-7.23,2.06c-3.49.51-6.75,1.09-9.69,1.68A23.84,23.84,0,0,0,233,65.82,13.48,13.48,0,0,0,228,71.06a19.29,19.29,0,0,0-1.78,9,13.76,13.76,0,0,0,4.13,10.34A18.52,18.52,0,0,0,243.53,94.39Zm-1.62-21.28A19.9,19.9,0,0,1,250.33,70a56.09,56.09,0,0,0,5.86-1.4,7.26,7.26,0,0,0,3-1.65.36.36,0,0,1,.38-.08.33.33,0,0,1,.22.32l-.1,5.85a10.74,10.74,0,0,1-1.05,4.63A12.55,12.55,0,0,1,251.77,84a13.8,13.8,0,0,1-5.12,1c-4.7,0-7.11-2.13-7.11-6.3a6.8,6.8,0,0,1,2.37-5.55Z"/><path id="Trazado_1424" data-name="Trazado 1424" class="cls-5" d="M278,76.51a16.7,16.7,0,0,0,6.56,12.75,29.07,29.07,0,0,0,18.5,5.13,27,27,0,0,0,17-4.58A15.46,15.46,0,0,0,325.79,77a13.05,13.05,0,0,0-2.17-8,14.7,14.7,0,0,0-6.29-4.61,66.18,66.18,0,0,0-7.14-2.21c-2.67-.67-5.56-1.44-8.59-2.33a29.91,29.91,0,0,1-6.52-2.48,4.3,4.3,0,0,1-2.31-3.91,3.85,3.85,0,0,1,2.34-3.72,14.94,14.94,0,0,1,6.27-1.06,13,13,0,0,1,7.29,1.64,7.7,7.7,0,0,1,2.89,5.42h12.69a17.07,17.07,0,0,0-5.79-12.55,26.25,26.25,0,0,0-16.67-4.37,38.46,38.46,0,0,0-10.13,1.18,19.58,19.58,0,0,0-6.79,3.26,11.87,11.87,0,0,0-3.76,4.9A16.54,16.54,0,0,0,280,54.4a14.92,14.92,0,0,0,1.42,6.47,13.25,13.25,0,0,0,5.06,5.28,27.46,27.46,0,0,0,6.79,3.11c2.68.86,6.28,1.84,10.7,2.92a33,33,0,0,1,6,2.09,4.44,4.44,0,0,1,2.72,4.31,4.69,4.69,0,0,1-3,4.58A16.37,16.37,0,0,1,303,84.44a14.07,14.07,0,0,1-8.26-2.13,7,7,0,0,1-3-5.79Z"/><path id="Trazado_1425" data-name="Trazado 1425" class="cls-5" d="M387.34,89.26a29,29,0,0,0,18.49,5.13,26.92,26.92,0,0,0,17-4.58A15.47,15.47,0,0,0,428.56,77a13.05,13.05,0,0,0-2.17-8,14.7,14.7,0,0,0-6.29-4.61A64,64,0,0,0,413,62.24c-2.68-.67-5.57-1.44-8.6-2.33a29.14,29.14,0,0,1-6.51-2.48,4.3,4.3,0,0,1-2.31-3.91,3.85,3.85,0,0,1,2.34-3.72,14.94,14.94,0,0,1,6.27-1.06,13,13,0,0,1,7.29,1.64,7.72,7.72,0,0,1,2.89,5.42h12.73a17,17,0,0,0-5.81-12.53,26.19,26.19,0,0,0-16.67-4.37,38.46,38.46,0,0,0-10.13,1.18,19.4,19.4,0,0,0-6.79,3.26,11.87,11.87,0,0,0-3.76,4.9,16.48,16.48,0,0,0-1.15,6.17,15,15,0,0,0,1.41,6.48,13.27,13.27,0,0,0,5.07,5.28A27.76,27.76,0,0,0,396,69.28c2.68.85,6.29,1.84,10.71,2.92a33.74,33.74,0,0,1,6,2.08,4.45,4.45,0,0,1,2.71,4.31,4.68,4.68,0,0,1-3,4.59,16.31,16.31,0,0,1-6.69,1.28,14.11,14.11,0,0,1-8.25-2.13,7,7,0,0,1-3-5.79H380.82A16.65,16.65,0,0,0,387.34,89.26Z"/></g></g></g></g><g id="Grupo_1204" data-name="Grupo 1204"><path id="Trazado_1426" data-name="Trazado 1426" class="cls-6" d="M523.39,30.21,488.11,1.52a6.75,6.75,0,0,0-8.54,0L444.29,30.21a6.76,6.76,0,0,0-2.5,5.25v52a6.77,6.77,0,0,0,6.77,6.77h70.55a2,2,0,0,0,.42,0l-21-23.54A25.35,25.35,0,1,1,503,66.57l21.86,24.49a6.73,6.73,0,0,0,1-3.62v-52A6.78,6.78,0,0,0,523.39,30.21Z"/><circle id="Elipse_55" data-name="Elipse 55" class="cls-7" cx="483.84" cy="50.1" r="20.15"/></g></g></g></g></svg>